<?xml version="1.0" encoding="utf-8" standalone="no"?>
<!DOCTYPE svg PUBLIC "-//W3C//DTD SVG 1.1//EN"
  "http://www.w3.org/Graphics/SVG/1.1/DTD/svg11.dtd">
<!-- Created with matplotlib (https://matplotlib.org/) -->
<svg height="216pt" version="1.1" viewBox="0 0 720 216" width="720pt" xmlns="http://www.w3.org/2000/svg" xmlns:xlink="http://www.w3.org/1999/xlink">
 <defs>
  <style type="text/css">
*{stroke-linecap:butt;stroke-linejoin:round;}
  </style>
 </defs>
 <g id="figure_1">
  <g id="patch_1">
   <path d="M 0 216 
L 720 216 
L 720 0 
L 0 0 
z
" style="fill:#ffffff;"/>
  </g>
  <g id="axes_1">
   <g id="patch_2">
    <path d="M 79.6 168.94167 
L 709.2 168.94167 
L 709.2 41.8 
L 79.6 41.8 
z
" style="fill:#ffffff;"/>
   </g>
   <g id="matplotlib.axis_1">
    <g id="xtick_1">
     <g id="line2d_1">
      <path clip-path="url(#p13cbd087fb)" d="M 182.098497 168.94167 
L 182.098497 41.8 
" style="fill:none;stroke:#dddddd;stroke-linecap:round;stroke-width:0.5;"/>
     </g>
     <g id="text_1">
      <!-- 2004 -->
      <defs>
       <path d="M 19.1875 8.296875 
L 53.609375 8.296875 
L 53.609375 0 
L 7.328125 0 
L 7.328125 8.296875 
Q 12.9375 14.109375 22.625 23.890625 
Q 32.328125 33.6875 34.8125 36.53125 
Q 39.546875 41.84375 41.421875 45.53125 
Q 43.3125 49.21875 43.3125 52.78125 
Q 43.3125 58.59375 39.234375 62.25 
Q 35.15625 65.921875 28.609375 65.921875 
Q 23.96875 65.921875 18.8125 64.3125 
Q 13.671875 62.703125 7.8125 59.421875 
L 7.8125 69.390625 
Q 13.765625 71.78125 18.9375 73 
Q 24.125 74.21875 28.421875 74.21875 
Q 39.75 74.21875 46.484375 68.546875 
Q 53.21875 62.890625 53.21875 53.421875 
Q 53.21875 48.921875 51.53125 44.890625 
Q 49.859375 40.875 45.40625 35.40625 
Q 44.1875 33.984375 37.640625 27.21875 
Q 31.109375 20.453125 19.1875 8.296875 
z
" id="DejaVuSans-50"/>
       <path d="M 31.78125 66.40625 
Q 24.171875 66.40625 20.328125 58.90625 
Q 16.5 51.421875 16.5 36.375 
Q 16.5 21.390625 20.328125 13.890625 
Q 24.171875 6.390625 31.78125 6.390625 
Q 39.453125 6.390625 43.28125 13.890625 
Q 47.125 21.390625 47.125 36.375 
Q 47.125 51.421875 43.28125 58.90625 
Q 39.453125 66.40625 31.78125 66.40625 
z
M 31.78125 74.21875 
Q 44.046875 74.21875 50.515625 64.515625 
Q 56.984375 54.828125 56.984375 36.375 
Q 56.984375 17.96875 50.515625 8.265625 
Q 44.046875 -1.421875 31.78125 -1.421875 
Q 19.53125 -1.421875 13.0625 8.265625 
Q 6.59375 17.96875 6.59375 36.375 
Q 6.59375 54.828125 13.0625 64.515625 
Q 19.53125 74.21875 31.78125 74.21875 
z
" id="DejaVuSans-48"/>
       <path d="M 37.796875 64.3125 
L 12.890625 25.390625 
L 37.796875 25.390625 
z
M 35.203125 72.90625 
L 47.609375 72.90625 
L 47.609375 25.390625 
L 58.015625 25.390625 
L 58.015625 17.1875 
L 47.609375 17.1875 
L 47.609375 0 
L 37.796875 0 
L 37.796875 17.1875 
L 4.890625 17.1875 
L 4.890625 26.703125 
z
" id="DejaVuSans-52"/>
      </defs>
      <g style="fill:#666666;" transform="translate(154.171467 201.801252)rotate(-30)scale(0.121 -0.121)">
       <use xlink:href="#DejaVuSans-50"/>
       <use x="63.623047" xlink:href="#DejaVuSans-48"/>
       <use x="127.246094" xlink:href="#DejaVuSans-48"/>
       <use x="190.869141" xlink:href="#DejaVuSans-52"/>
      </g>
     </g>
    </g>
    <g id="xtick_2">
     <g id="line2d_2">
      <path clip-path="url(#p13cbd087fb)" d="M 293.032866 168.94167 
L 293.032866 41.8 
" style="fill:none;stroke:#dddddd;stroke-linecap:round;stroke-width:0.5;"/>
     </g>
     <g id="text_2">
      <!-- 2008 -->
      <defs>
       <path d="M 31.78125 34.625 
Q 24.75 34.625 20.71875 30.859375 
Q 16.703125 27.09375 16.703125 20.515625 
Q 16.703125 13.921875 20.71875 10.15625 
Q 24.75 6.390625 31.78125 6.390625 
Q 38.8125 6.390625 42.859375 10.171875 
Q 46.921875 13.96875 46.921875 20.515625 
Q 46.921875 27.09375 42.890625 30.859375 
Q 38.875 34.625 31.78125 34.625 
z
M 21.921875 38.8125 
Q 15.578125 40.375 12.03125 44.71875 
Q 8.5 49.078125 8.5 55.328125 
Q 8.5 64.0625 14.71875 69.140625 
Q 20.953125 74.21875 31.78125 74.21875 
Q 42.671875 74.21875 48.875 69.140625 
Q 55.078125 64.0625 55.078125 55.328125 
Q 55.078125 49.078125 51.53125 44.71875 
Q 48 40.375 41.703125 38.8125 
Q 48.828125 37.15625 52.796875 32.3125 
Q 56.78125 27.484375 56.78125 20.515625 
Q 56.78125 9.90625 50.3125 4.234375 
Q 43.84375 -1.421875 31.78125 -1.421875 
Q 19.734375 -1.421875 13.25 4.234375 
Q 6.78125 9.90625 6.78125 20.515625 
Q 6.78125 27.484375 10.78125 32.3125 
Q 14.796875 37.15625 21.921875 38.8125 
z
M 18.3125 54.390625 
Q 18.3125 48.734375 21.84375 45.5625 
Q 25.390625 42.390625 31.78125 42.390625 
Q 38.140625 42.390625 41.71875 45.5625 
Q 45.3125 48.734375 45.3125 54.390625 
Q 45.3125 60.0625 41.71875 63.234375 
Q 38.140625 66.40625 31.78125 66.40625 
Q 25.390625 66.40625 21.84375 63.234375 
Q 18.3125 60.0625 18.3125 54.390625 
z
" id="DejaVuSans-56"/>
      </defs>
      <g style="fill:#666666;" transform="translate(265.105836 201.801252)rotate(-30)scale(0.121 -0.121)">
       <use xlink:href="#DejaVuSans-50"/>
       <use x="63.623047" xlink:href="#DejaVuSans-48"/>
       <use x="127.246094" xlink:href="#DejaVuSans-48"/>
       <use x="190.869141" xlink:href="#DejaVuSans-56"/>
      </g>
     </g>
    </g>
    <g id="xtick_3">
     <g id="line2d_3">
      <path clip-path="url(#p13cbd087fb)" d="M 403.967235 168.94167 
L 403.967235 41.8 
" style="fill:none;stroke:#dddddd;stroke-linecap:round;stroke-width:0.5;"/>
     </g>
     <g id="text_3">
      <!-- 2012 -->
      <defs>
       <path d="M 12.40625 8.296875 
L 28.515625 8.296875 
L 28.515625 63.921875 
L 10.984375 60.40625 
L 10.984375 69.390625 
L 28.421875 72.90625 
L 38.28125 72.90625 
L 38.28125 8.296875 
L 54.390625 8.296875 
L 54.390625 0 
L 12.40625 0 
z
" id="DejaVuSans-49"/>
      </defs>
      <g style="fill:#666666;" transform="translate(376.040205 201.801252)rotate(-30)scale(0.121 -0.121)">
       <use xlink:href="#DejaVuSans-50"/>
       <use x="63.623047" xlink:href="#DejaVuSans-48"/>
       <use x="127.246094" xlink:href="#DejaVuSans-49"/>
       <use x="190.869141" xlink:href="#DejaVuSans-50"/>
      </g>
     </g>
    </g>
    <g id="xtick_4">
     <g id="line2d_4">
      <path clip-path="url(#p13cbd087fb)" d="M 514.901604 168.94167 
L 514.901604 41.8 
" style="fill:none;stroke:#dddddd;stroke-linecap:round;stroke-width:0.5;"/>
     </g>
     <g id="text_4">
      <!-- 2016 -->
      <defs>
       <path d="M 33.015625 40.375 
Q 26.375 40.375 22.484375 35.828125 
Q 18.609375 31.296875 18.609375 23.390625 
Q 18.609375 15.53125 22.484375 10.953125 
Q 26.375 6.390625 33.015625 6.390625 
Q 39.65625 6.390625 43.53125 10.953125 
Q 47.40625 15.53125 47.40625 23.390625 
Q 47.40625 31.296875 43.53125 35.828125 
Q 39.65625 40.375 33.015625 40.375 
z
M 52.59375 71.296875 
L 52.59375 62.3125 
Q 48.875 64.0625 45.09375 64.984375 
Q 41.3125 65.921875 37.59375 65.921875 
Q 27.828125 65.921875 22.671875 59.328125 
Q 17.53125 52.734375 16.796875 39.40625 
Q 19.671875 43.65625 24.015625 45.921875 
Q 28.375 48.1875 33.59375 48.1875 
Q 44.578125 48.1875 50.953125 41.515625 
Q 57.328125 34.859375 57.328125 23.390625 
Q 57.328125 12.15625 50.6875 5.359375 
Q 44.046875 -1.421875 33.015625 -1.421875 
Q 20.359375 -1.421875 13.671875 8.265625 
Q 6.984375 17.96875 6.984375 36.375 
Q 6.984375 53.65625 15.1875 63.9375 
Q 23.390625 74.21875 37.203125 74.21875 
Q 40.921875 74.21875 44.703125 73.484375 
Q 48.484375 72.75 52.59375 71.296875 
z
" id="DejaVuSans-54"/>
      </defs>
      <g style="fill:#666666;" transform="translate(486.974574 201.801252)rotate(-30)scale(0.121 -0.121)">
       <use xlink:href="#DejaVuSans-50"/>
       <use x="63.623047" xlink:href="#DejaVuSans-48"/>
       <use x="127.246094" xlink:href="#DejaVuSans-49"/>
       <use x="190.869141" xlink:href="#DejaVuSans-54"/>
      </g>
     </g>
    </g>
    <g id="xtick_5">
     <g id="line2d_5">
      <path clip-path="url(#p13cbd087fb)" d="M 625.835973 168.94167 
L 625.835973 41.8 
" style="fill:none;stroke:#dddddd;stroke-linecap:round;stroke-width:0.5;"/>
     </g>
     <g id="text_5">
      <!-- 2020 -->
      <g style="fill:#666666;" transform="translate(597.908943 201.801252)rotate(-30)scale(0.121 -0.121)">
       <use xlink:href="#DejaVuSans-50"/>
       <use x="63.623047" xlink:href="#DejaVuSans-48"/>
       <use x="127.246094" xlink:href="#DejaVuSans-50"/>
       <use x="190.869141" xlink:href="#DejaVuSans-48"/>
      </g>
     </g>
    </g>
   </g>
   <g id="matplotlib.axis_2">
    <g id="ytick_1">
     <g id="line2d_6">
      <path clip-path="url(#p13cbd087fb)" d="M 79.6 163.162507 
L 709.2 163.162507 
" style="fill:none;stroke:#dddddd;stroke-linecap:round;stroke-width:0.5;"/>
     </g>
     <g id="text_6">
      <!-- 0.00 -->
      <defs>
       <path d="M 10.6875 12.40625 
L 21 12.40625 
L 21 0 
L 10.6875 0 
z
" id="DejaVuSans-46"/>
      </defs>
      <g style="fill:#666666;" transform="translate(43.158594 167.759562)scale(0.121 -0.121)">
       <use xlink:href="#DejaVuSans-48"/>
       <use x="63.623047" xlink:href="#DejaVuSans-46"/>
       <use x="95.410156" xlink:href="#DejaVuSans-48"/>
       <use x="159.033203" xlink:href="#DejaVuSans-48"/>
      </g>
     </g>
    </g>
    <g id="ytick_2">
     <g id="line2d_7">
      <path clip-path="url(#p13cbd087fb)" d="M 79.6 121.284826 
L 709.2 121.284826 
" style="fill:none;stroke:#dddddd;stroke-linecap:round;stroke-width:0.5;"/>
     </g>
     <g id="text_7">
      <!-- 0.50 -->
      <defs>
       <path d="M 10.796875 72.90625 
L 49.515625 72.90625 
L 49.515625 64.59375 
L 19.828125 64.59375 
L 19.828125 46.734375 
Q 21.96875 47.46875 24.109375 47.828125 
Q 26.265625 48.1875 28.421875 48.1875 
Q 40.625 48.1875 47.75 41.5 
Q 54.890625 34.8125 54.890625 23.390625 
Q 54.890625 11.625 47.5625 5.09375 
Q 40.234375 -1.421875 26.90625 -1.421875 
Q 22.3125 -1.421875 17.546875 -0.640625 
Q 12.796875 0.140625 7.71875 1.703125 
L 7.71875 11.625 
Q 12.109375 9.234375 16.796875 8.0625 
Q 21.484375 6.890625 26.703125 6.890625 
Q 35.15625 6.890625 40.078125 11.328125 
Q 45.015625 15.765625 45.015625 23.390625 
Q 45.015625 31 40.078125 35.4375 
Q 35.15625 39.890625 26.703125 39.890625 
Q 22.75 39.890625 18.8125 39.015625 
Q 14.890625 38.140625 10.796875 36.28125 
z
" id="DejaVuSans-53"/>
      </defs>
      <g style="fill:#666666;" transform="translate(43.158594 125.88188)scale(0.121 -0.121)">
       <use xlink:href="#DejaVuSans-48"/>
       <use x="63.623047" xlink:href="#DejaVuSans-46"/>
       <use x="95.410156" xlink:href="#DejaVuSans-53"/>
       <use x="159.033203" xlink:href="#DejaVuSans-48"/>
      </g>
     </g>
    </g>
    <g id="ytick_3">
     <g id="line2d_8">
      <path clip-path="url(#p13cbd087fb)" d="M 79.6 79.407144 
L 709.2 79.407144 
" style="fill:none;stroke:#dddddd;stroke-linecap:round;stroke-width:0.5;"/>
     </g>
     <g id="text_8">
      <!-- 1.00 -->
      <g style="fill:#666666;" transform="translate(43.158594 84.004199)scale(0.121 -0.121)">
       <use xlink:href="#DejaVuSans-49"/>
       <use x="63.623047" xlink:href="#DejaVuSans-46"/>
       <use x="95.410156" xlink:href="#DejaVuSans-48"/>
       <use x="159.033203" xlink:href="#DejaVuSans-48"/>
      </g>
     </g>
    </g>
    <g id="text_9">
     <!-- Volatility -->
     <defs>
      <path d="M 0.484375 72.90625 
L 19.390625 72.90625 
L 38.71875 19.09375 
L 58.015625 72.90625 
L 76.90625 72.90625 
L 49.90625 0 
L 27.484375 0 
z
" id="DejaVuSans-Bold-86"/>
      <path d="M 34.421875 43.5 
Q 28.609375 43.5 25.5625 39.328125 
Q 22.515625 35.15625 22.515625 27.296875 
Q 22.515625 19.4375 25.5625 15.25 
Q 28.609375 11.078125 34.421875 11.078125 
Q 40.140625 11.078125 43.15625 15.25 
Q 46.1875 19.4375 46.1875 27.296875 
Q 46.1875 35.15625 43.15625 39.328125 
Q 40.140625 43.5 34.421875 43.5 
z
M 34.421875 56 
Q 48.53125 56 56.46875 48.375 
Q 64.40625 40.765625 64.40625 27.296875 
Q 64.40625 13.8125 56.46875 6.1875 
Q 48.53125 -1.421875 34.421875 -1.421875 
Q 20.265625 -1.421875 12.28125 6.1875 
Q 4.296875 13.8125 4.296875 27.296875 
Q 4.296875 40.765625 12.28125 48.375 
Q 20.265625 56 34.421875 56 
z
" id="DejaVuSans-Bold-111"/>
      <path d="M 8.40625 75.984375 
L 25.875 75.984375 
L 25.875 0 
L 8.40625 0 
z
" id="DejaVuSans-Bold-108"/>
      <path d="M 32.90625 24.609375 
Q 27.4375 24.609375 24.671875 22.75 
Q 21.921875 20.90625 21.921875 17.28125 
Q 21.921875 13.96875 24.140625 12.078125 
Q 26.375 10.203125 30.328125 10.203125 
Q 35.25 10.203125 38.625 13.734375 
Q 42 17.28125 42 22.609375 
L 42 24.609375 
z
M 59.625 31.203125 
L 59.625 0 
L 42 0 
L 42 8.109375 
Q 38.484375 3.125 34.078125 0.84375 
Q 29.6875 -1.421875 23.390625 -1.421875 
Q 14.890625 -1.421875 9.59375 3.53125 
Q 4.296875 8.5 4.296875 16.40625 
Q 4.296875 26.03125 10.90625 30.515625 
Q 17.53125 35.015625 31.6875 35.015625 
L 42 35.015625 
L 42 36.375 
Q 42 40.53125 38.71875 42.453125 
Q 35.453125 44.390625 28.515625 44.390625 
Q 22.90625 44.390625 18.0625 43.265625 
Q 13.234375 42.140625 9.078125 39.890625 
L 9.078125 53.21875 
Q 14.703125 54.59375 20.359375 55.296875 
Q 26.03125 56 31.6875 56 
Q 46.484375 56 53.046875 50.171875 
Q 59.625 44.34375 59.625 31.203125 
z
" id="DejaVuSans-Bold-97"/>
      <path d="M 27.484375 70.21875 
L 27.484375 54.6875 
L 45.515625 54.6875 
L 45.515625 42.1875 
L 27.484375 42.1875 
L 27.484375 19 
Q 27.484375 15.1875 29 13.84375 
Q 30.515625 12.5 35.015625 12.5 
L 44 12.5 
L 44 0 
L 29 0 
Q 18.65625 0 14.328125 4.3125 
Q 10.015625 8.640625 10.015625 19 
L 10.015625 42.1875 
L 1.3125 42.1875 
L 1.3125 54.6875 
L 10.015625 54.6875 
L 10.015625 70.21875 
z
" id="DejaVuSans-Bold-116"/>
      <path d="M 8.40625 54.6875 
L 25.875 54.6875 
L 25.875 0 
L 8.40625 0 
z
M 8.40625 75.984375 
L 25.875 75.984375 
L 25.875 61.71875 
L 8.40625 61.71875 
z
" id="DejaVuSans-Bold-105"/>
      <path d="M 1.21875 54.6875 
L 18.703125 54.6875 
L 33.40625 17.578125 
L 45.90625 54.6875 
L 63.375 54.6875 
L 40.375 -5.171875 
Q 36.921875 -14.3125 32.296875 -17.9375 
Q 27.6875 -21.578125 20.125 -21.578125 
L 10.015625 -21.578125 
L 10.015625 -10.109375 
L 15.484375 -10.109375 
Q 19.921875 -10.109375 21.9375 -8.6875 
Q 23.96875 -7.28125 25.09375 -3.609375 
L 25.59375 -2.09375 
z
" id="DejaVuSans-Bold-121"/>
     </defs>
     <g transform="translate(14.050625 135.729897)rotate(-90)scale(0.12 -0.12)">
      <use xlink:href="#DejaVuSans-Bold-86"/>
      <use x="71.892578" xlink:href="#DejaVuSans-Bold-111"/>
      <use x="140.59375" xlink:href="#DejaVuSans-Bold-108"/>
      <use x="174.871094" xlink:href="#DejaVuSans-Bold-97"/>
      <use x="242.351562" xlink:href="#DejaVuSans-Bold-116"/>
      <use x="290.154297" xlink:href="#DejaVuSans-Bold-105"/>
      <use x="324.431641" xlink:href="#DejaVuSans-Bold-108"/>
      <use x="358.708984" xlink:href="#DejaVuSans-Bold-105"/>
      <use x="392.986328" xlink:href="#DejaVuSans-Bold-116"/>
      <use x="440.789062" xlink:href="#DejaVuSans-Bold-121"/>
     </g>
    </g>
   </g>
   <g id="line2d_9">
    <path clip-path="url(#p13cbd087fb)" d="M 108.218182 48.347459 
L 108.294112 47.991544 
L 108.521904 48.005627 
L 108.749695 47.579167 
L 108.825625 49.34872 
L 109.205278 49.586651 
L 109.357138 49.879181 
L 109.66086 49.987163 
L 109.812721 49.009453 
L 109.888651 54.695265 
L 110.192373 54.227791 
L 110.344234 63.545966 
L 110.420164 63.623912 
L 110.647956 63.672414 
L 110.799817 62.994187 
L 111.255399 62.993838 
L 111.33133 62.993838 
L 111.786912 62.185858 
L 112.318425 62.09353 
L 112.546217 62.658675 
L 113.001799 62.655403 
L 113.07773 61.930125 
L 113.533312 61.554513 
L 113.988895 70.240869 
L 114.064825 69.980944 
L 114.140756 70.036145 
L 114.368547 69.849478 
L 114.444478 70.060458 
L 114.596339 69.652931 
L 114.672269 69.74652 
L 114.975991 70.165982 
L 115.051921 69.740031 
L 115.203782 70.350215 
L 115.583434 71.973424 
L 115.659365 71.985327 
L 115.735295 72.846981 
L 115.963086 72.87277 
L 116.039017 75.418439 
L 116.114947 75.405662 
L 116.494599 75.657155 
L 116.798321 77.435619 
L 117.177973 77.53607 
L 117.329834 77.380611 
L 117.785417 77.315521 
L 117.861347 77.407222 
L 119.379956 77.38532 
L 119.683678 78.168307 
L 119.835539 77.779136 
L 119.911469 77.884105 
L 120.291121 77.932175 
L 120.442982 77.120142 
L 120.746704 77.131257 
L 120.822634 76.86841 
L 121.050426 74.323705 
L 121.430078 73.479682 
L 121.581939 73.399387 
L 121.885661 73.49999 
L 122.113452 74.991469 
L 122.569034 105.743507 
L 122.644965 105.880589 
L 122.872756 105.840723 
L 122.948687 104.897122 
L 123.024617 104.939526 
L 123.4802 105.601344 
L 123.55613 106.186024 
L 123.935782 104.794497 
L 124.011713 105.449796 
L 124.239504 105.790391 
L 124.543226 105.90619 
L 124.619156 105.232104 
L 124.695087 105.35662 
L 124.771017 105.296992 
L 125.074739 105.49187 
L 125.30253 107.78366 
L 125.530322 108.563524 
L 125.606252 109.292268 
L 125.682182 109.03632 
L 125.834043 108.844588 
L 126.061835 108.843497 
L 126.213695 110.358855 
L 126.289626 110.241672 
L 126.365556 110.172643 
L 126.745209 110.129309 
L 126.897069 106.1046 
L 127.200791 105.476887 
L 127.276722 105.566721 
L 127.352652 105.595798 
L 127.428582 106.189011 
L 127.656374 106.08012 
L 127.732304 106.248552 
L 127.884165 105.4473 
L 127.960096 104.026839 
L 128.263817 102.374402 
L 128.415678 100.740854 
L 128.491609 100.835875 
L 128.871261 100.837699 
L 129.023122 102.478746 
L 129.326843 102.546649 
L 129.402774 102.848186 
L 129.478704 102.826401 
L 129.782426 102.701235 
L 130.086148 103.67626 
L 130.617661 100.953545 
L 130.921383 100.657082 
L 131.149174 100.700939 
L 131.452896 100.335474 
L 131.528826 100.473803 
L 131.604757 101.189387 
L 131.680687 100.203138 
L 131.908478 102.219551 
L 132.060339 100.891379 
L 132.743713 100.780356 
L 133.654878 99.897298 
L 133.730809 99.972012 
L 133.806739 100.364548 
L 134.034531 100.378047 
L 134.110461 100.683643 
L 134.186391 100.579505 
L 134.338252 98.866532 
L 134.566044 98.867808 
L 134.717904 98.231819 
L 134.869765 98.223606 
L 135.097557 97.98873 
L 135.249417 97.358072 
L 135.325348 97.771861 
L 135.780931 97.696271 
L 135.932791 98.682796 
L 136.236513 98.824043 
L 136.464304 97.960957 
L 136.843957 102.380769 
L 137.223609 102.457426 
L 137.4514 102.182366 
L 137.527331 102.250836 
L 137.982913 102.309177 
L 138.058844 102.364572 
L 138.438496 102.236976 
L 138.514426 102.284302 
L 138.590357 103.068614 
L 139.12187 103.186254 
L 139.349661 103.832851 
L 139.425592 104.576044 
L 139.501522 104.490528 
L 139.653383 104.182935 
L 139.881174 104.087881 
L 139.957105 103.812601 
L 140.108965 104.648714 
L 140.412687 104.706846 
L 140.9442 104.743801 
L 141.171992 105.792834 
L 141.247922 105.986462 
L 141.551644 106.031763 
L 141.779435 106.325499 
L 142.083157 111.056614 
L 142.235018 111.445264 
L 142.310948 111.453631 
L 142.6906 111.699515 
L 142.842461 110.741109 
L 143.146183 109.34062 
L 143.373974 112.689135 
L 143.601766 113.013304 
L 143.753626 112.601716 
L 143.905487 112.737034 
L 144.36107 110.839971 
L 144.437 108.843653 
L 144.664792 108.732514 
L 144.816653 107.392299 
L 144.968513 107.251879 
L 145.272235 107.265385 
L 145.348166 107.713302 
L 145.500027 109.783436 
L 145.727818 110.246746 
L 145.879679 111.679563 
L 146.03154 111.581006 
L 146.259331 112.067724 
L 146.411192 113.041265 
L 146.487122 113.061831 
L 146.563053 114.539665 
L 146.790844 114.539013 
L 146.942705 115.936887 
L 147.322357 115.965242 
L 147.474218 115.709906 
L 147.550148 115.719852 
L 147.626079 116.094121 
L 147.85387 116.073517 
L 148.157592 116.77278 
L 148.537244 116.766444 
L 148.613174 116.20913 
L 148.689105 116.282311 
L 148.992827 118.004733 
L 149.220618 115.791108 
L 149.60027 115.454218 
L 149.752131 116.0416 
L 149.979922 115.91867 
L 150.131783 116.025647 
L 150.511435 114.177522 
L 150.587366 113.904349 
L 150.815157 115.151658 
L 151.042948 115.214117 
L 151.194809 115.442069 
L 151.34667 115.276921 
L 151.574462 115.409396 
L 151.878183 112.804264 
L 152.105975 112.763048 
L 152.257835 111.237803 
L 152.409696 111.252703 
L 153.169001 111.232313 
L 153.244931 111.132636 
L 153.396792 110.501951 
L 153.776444 110.589476 
L 153.928305 110.813934 
L 154.004236 110.670769 
L 154.232027 110.717988 
L 154.307957 111.035544 
L 154.76354 105.641125 
L 155.295053 105.388782 
L 155.522844 104.548769 
L 156.054357 99.768403 
L 156.358079 99.667832 
L 156.50994 99.453092 
L 156.661801 99.086219 
L 157.421105 99.05691 
L 157.648897 101.463432 
L 157.724827 103.314143 
L 158.18041 103.481699 
L 158.484131 103.259945 
L 158.560062 103.190621 
L 158.635992 102.874786 
L 158.787853 103.511774 
L 159.091575 104.819487 
L 159.319366 107.986707 
L 159.850879 108.415288 
L 160.306462 108.138453 
L 160.382392 107.894644 
L 160.686114 104.169394 
L 160.762044 104.187381 
L 161.445418 104.134605 
L 161.74914 104.13547 
L 161.901001 103.721263 
L 162.356584 103.867976 
L 162.736236 103.827069 
L 162.964027 103.547073 
L 163.039958 103.547073 
L 163.41961 103.305987 
L 163.49554 103.74415 
L 163.571471 102.603245 
L 163.799262 102.952409 
L 163.875192 102.775078 
L 163.951123 103.226343 
L 164.027053 103.026147 
L 164.102984 103.011475 
L 164.330775 102.611433 
L 164.406705 102.690075 
L 164.482636 102.879037 
L 164.634497 102.464913 
L 164.938218 100.112567 
L 165.16601 100.279969 
L 165.469732 98.374318 
L 165.545662 98.641699 
L 165.621592 98.567255 
L 165.697523 98.258732 
L 166.001245 98.202133 
L 166.077175 97.339805 
L 166.532758 97.142771 
L 166.608688 97.279328 
L 166.684619 97.80878 
L 166.760549 99.409188 
L 167.064271 99.487984 
L 167.216132 100.55236 
L 167.671714 100.649846 
L 168.051366 100.631277 
L 168.127297 100.73735 
L 168.203227 101.320371 
L 168.279158 101.306741 
L 168.810671 101.242513 
L 168.886601 101.539314 
L 169.190323 101.655298 
L 169.418114 106.271186 
L 169.645906 106.306356 
L 169.797766 106.485897 
L 169.949627 106.10824 
L 170.253349 106.597687 
L 170.40521 111.803519 
L 170.48114 111.594447 
L 170.708932 111.717646 
L 170.860793 110.130561 
L 170.936723 110.555547 
L 171.012653 110.44489 
L 171.240445 110.123552 
L 171.392306 109.40498 
L 171.544167 109.194929 
L 171.847888 107.60698 
L 172.379401 107.489512 
L 173.062775 105.628772 
L 173.138706 105.973523 
L 174.049871 106.002465 
L 174.201732 106.032679 
L 174.581384 106.032679 
L 174.657314 106.285745 
L 175.036967 106.376923 
L 175.188828 108.599383 
L 175.264758 108.2201 
L 175.796271 108.0731 
L 176.327784 108.077376 
L 176.783367 108.773642 
L 177.238949 108.619392 
L 177.39081 108.965125 
L 177.694532 108.80841 
L 177.922323 109.090707 
L 178.150115 109.169894 
L 178.301975 110.608814 
L 178.377906 111.17539 
L 178.681628 111.613943 
L 178.833489 112.078436 
L 178.985349 114.265756 
L 179.289071 113.401856 
L 179.516862 113.288352 
L 179.896515 113.584801 
L 179.972445 116.603681 
L 180.048376 116.559249 
L 180.276167 116.566442 
L 180.428028 116.977918 
L 180.579889 120.979358 
L 180.88361 120.9428 
L 180.959541 121.704078 
L 181.035471 121.538159 
L 181.111402 121.806663 
L 181.491054 123.563739 
L 181.642915 123.619885 
L 182.174428 124.129145 
L 184.680132 124.228413 
L 184.756063 124.243717 
L 184.831993 124.45974 
L 185.667228 124.501963 
L 186.426532 124.587362 
L 186.806184 124.632674 
L 186.882115 124.802684 
L 186.958045 125.745055 
L 187.489558 125.817587 
L 187.79328 125.62713 
L 187.945141 125.139501 
L 188.248863 125.554216 
L 188.400724 126.242162 
L 188.476654 124.986075 
L 188.780376 124.858762 
L 188.856306 126.025033 
L 188.932237 125.961411 
L 189.008167 125.977407 
L 189.53968 126.93884 
L 189.843402 126.818378 
L 189.995263 125.181582 
L 190.071193 124.509505 
L 190.147124 124.585318 
L 190.374915 124.389546 
L 190.526776 123.698464 
L 190.602706 124.431377 
L 190.678637 124.349063 
L 190.906428 124.200899 
L 190.982358 124.331541 
L 191.21015 119.089919 
L 191.589802 118.553492 
L 191.969454 116.119016 
L 192.121315 114.935161 
L 192.197245 114.934985 
L 192.500967 114.116575 
L 192.576898 114.291651 
L 192.804689 116.601461 
L 193.108411 116.635189 
L 194.323298 116.573929 
L 194.627019 115.703951 
L 194.70295 115.085249 
L 194.77888 115.097582 
L 194.854811 114.923309 
L 194.930741 115.370129 
L 195.158533 115.247029 
L 195.386324 114.426118 
L 195.462254 114.335305 
L 195.690046 114.309866 
L 195.841906 113.967002 
L 195.993767 112.947409 
L 196.44935 110.867666 
L 196.753072 110.850049 
L 196.904933 111.825171 
L 197.056793 112.147731 
L 197.360515 112.147242 
L 197.967959 111.918611 
L 198.11982 112.062599 
L 198.347611 112.26399 
L 198.423541 112.105022 
L 198.499472 112.272933 
L 198.651333 108.832766 
L 198.879124 108.833477 
L 199.030985 108.301186 
L 199.410637 108.276636 
L 200.018081 108.17856 
L 200.169941 107.594918 
L 200.549594 106.980248 
L 200.625524 106.822812 
L 200.777385 105.576369 
L 201.232968 105.260884 
L 201.308898 104.742234 
L 201.61262 104.495947 
L 201.764481 104.149696 
L 202.144133 103.967722 
L 202.295994 102.873006 
L 202.827507 102.650329 
L 202.903437 102.067176 
L 203.35902 102.050876 
L 203.43495 101.85251 
L 203.662742 102.007663 
L 203.738672 102.290506 
L 203.966463 102.370679 
L 204.270185 103.118199 
L 204.346115 103.109896 
L 204.422046 103.894758 
L 204.497976 103.249897 
L 204.801698 103.293765 
L 204.877629 103.243043 
L 205.029489 104.738253 
L 205.257281 104.74895 
L 205.333211 104.890078 
L 205.409142 105.389529 
L 205.788794 104.451698 
L 205.864724 104.766032 
L 205.940655 104.746766 
L 206.320307 104.349356 
L 206.472168 105.561689 
L 206.548098 105.656415 
L 206.85182 105.541946 
L 207.003681 107.572569 
L 207.155542 108.918147 
L 207.383333 109.223098 
L 207.611124 108.372545 
L 207.687055 108.422149 
L 207.914846 108.717368 
L 208.218568 111.00425 
L 208.446359 110.717936 
L 208.59822 111.34741 
L 208.67415 111.21487 
L 208.750081 111.113563 
L 208.977872 111.064146 
L 209.129733 110.677445 
L 209.205663 110.749789 
L 209.737176 110.60973 
L 210.040898 110.101484 
L 210.116829 108.758113 
L 210.34462 108.517748 
L 210.572411 108.480439 
L 210.648342 108.277945 
L 210.800203 109.094349 
L 210.876133 108.882226 
L 211.255785 108.887809 
L 211.407646 107.803434 
L 211.711368 107.774346 
L 211.787298 107.525003 
L 211.863229 108.076948 
L 211.939159 108.055669 
L 212.242881 108.139536 
L 212.470672 108.461648 
L 212.698464 108.507588 
L 212.774394 110.220137 
L 212.850324 109.253097 
L 212.926255 109.556782 
L 213.002185 109.189841 
L 213.381837 109.143927 
L 213.533698 108.470281 
L 214.065211 107.482925 
L 214.293003 107.557688 
L 214.444864 107.319953 
L 214.520794 107.333903 
L 214.976377 106.800816 
L 215.128238 109.996922 
L 215.356029 109.941849 
L 215.50789 109.225716 
L 215.58382 109.345339 
L 215.887542 109.321016 
L 216.039403 109.032239 
L 216.494985 108.825007 
L 216.646846 108.100566 
L 216.722777 108.040275 
L 217.25429 109.232311 
L 217.482081 109.329797 
L 217.633942 109.662459 
L 217.709872 109.167568 
L 217.785803 107.909528 
L 218.165455 108.561568 
L 218.317316 108.839168 
L 219.07662 109.088026 
L 219.152551 110.258493 
L 219.228481 109.529156 
L 219.304412 109.759766 
L 219.684064 109.771115 
L 219.835925 110.456686 
L 220.367438 110.195419 
L 220.82302 110.251828 
L 220.974881 110.036169 
L 221.354533 110.17247 
L 221.506394 111.174411 
L 221.886046 111.236298 
L 221.961977 111.824082 
L 222.037907 111.764754 
L 222.41756 111.721441 
L 222.49349 111.877765 
L 222.56942 112.821555 
L 222.873142 112.896492 
L 223.100933 113.416602 
L 223.328725 114.257774 
L 223.404655 114.141482 
L 223.480586 114.157859 
L 223.556516 114.031419 
L 223.632447 114.145171 
L 223.936168 114.016216 
L 224.088029 114.239647 
L 224.16396 113.843749 
L 224.391751 114.849357 
L 224.467681 114.818741 
L 224.543612 114.824962 
L 224.695473 115.268209 
L 224.999194 115.071355 
L 225.151055 115.231798 
L 225.454777 115.31626 
L 225.606638 115.350571 
L 225.682568 115.670003 
L 225.98629 115.681135 
L 226.062221 115.302353 
L 226.138151 115.495327 
L 226.214081 115.002338 
L 226.593734 116.982603 
L 226.669664 116.747802 
L 226.745594 116.729343 
L 226.821525 116.999736 
L 227.049316 117.119663 
L 227.277108 117.653509 
L 227.353038 119.069714 
L 227.580829 119.260232 
L 227.65676 119.890613 
L 227.73269 119.848341 
L 227.884551 119.845232 
L 228.188273 119.84882 
L 228.340134 120.09929 
L 228.416064 120.914389 
L 228.795716 120.943474 
L 228.871647 122.087707 
L 228.947577 122.045303 
L 229.175368 122.576322 
L 229.327229 121.633196 
L 229.40316 121.696303 
L 229.706881 121.695263 
L 229.934673 122.714493 
L 230.010603 123.149823 
L 230.314325 123.526115 
L 230.466186 123.977493 
L 230.997699 124.150508 
L 231.073629 124.615564 
L 231.377351 124.933479 
L 231.453282 124.794916 
L 231.908864 126.612035 
L 232.440377 126.703113 
L 232.668169 126.952276 
L 232.97189 128.019739 
L 233.199682 127.083241 
L 233.579334 126.987857 
L 233.655264 126.761668 
L 233.731195 127.967992 
L 233.958986 129.028865 
L 234.110847 131.191395 
L 234.262708 129.665643 
L 235.173873 129.52921 
L 235.249803 128.217724 
L 235.325734 129.241649 
L 235.705386 128.938805 
L 236.085038 128.92255 
L 236.31283 129.779158 
L 236.692482 128.400046 
L 236.768412 128.372924 
L 236.920273 128.511638 
L 237.299925 128.278699 
L 237.375856 128.466473 
L 237.451786 128.310538 
L 237.983299 125.54321 
L 238.287021 125.454757 
L 238.362951 125.605715 
L 238.514812 125.401508 
L 238.818534 125.209927 
L 238.970395 124.369031 
L 239.046325 122.309118 
L 239.425977 122.202749 
L 239.577838 121.628419 
L 239.80563 121.638133 
L 239.957491 122.275243 
L 240.109351 121.561387 
L 240.489004 121.755921 
L 240.640864 121.928398 
L 241.020517 121.170073 
L 241.172378 121.247045 
L 241.476099 121.056725 
L 241.55203 120.760571 
L 241.62796 121.238317 
L 241.703891 121.199652 
L 241.931682 121.415215 
L 242.083543 120.330461 
L 242.159473 120.412881 
L 242.235404 120.564961 
L 242.463195 120.428798 
L 242.615056 120.176624 
L 242.766917 120.457091 
L 242.994708 120.494028 
L 243.222499 119.692069 
L 243.526221 119.716677 
L 243.678082 119.417541 
L 244.057734 119.320423 
L 244.133665 119.223705 
L 244.285525 118.519936 
L 244.665178 118.495946 
L 244.741108 118.405156 
L 244.817039 119.503126 
L 244.892969 119.102093 
L 245.196691 118.415055 
L 245.348552 118.96331 
L 245.652273 118.783566 
L 245.804134 117.429735 
L 245.880065 117.361957 
L 245.955995 117.073775 
L 246.183786 116.990009 
L 246.335647 117.106901 
L 246.411578 117.052869 
L 246.487508 116.641118 
L 246.79123 116.470357 
L 246.86716 116.494268 
L 247.019021 116.084351 
L 247.322743 116.063429 
L 247.398673 115.934125 
L 247.550534 113.494255 
L 247.854256 113.433269 
L 247.930186 112.570965 
L 248.082047 112.996374 
L 248.61356 113.188772 
L 248.993213 113.080073 
L 249.145073 113.403276 
L 249.448795 113.132653 
L 249.524726 113.196013 
L 249.676587 114.452656 
L 250.511821 114.633194 
L 250.587752 115.303015 
L 250.663682 115.289977 
L 250.739613 115.493878 
L 250.967404 115.436165 
L 251.119265 115.150155 
L 251.650778 111.811229 
L 251.726708 111.812164 
L 251.802639 111.541979 
L 252.03043 111.483492 
L 252.106361 112.377535 
L 252.334152 107.691788 
L 252.637874 107.804122 
L 252.713804 107.598202 
L 253.093456 107.364329 
L 253.169387 107.493732 
L 253.321247 108.587783 
L 253.397178 107.898871 
L 253.624969 108.383202 
L 253.852761 107.497577 
L 253.928691 107.616312 
L 254.232413 107.589115 
L 254.384274 108.20257 
L 254.460204 109.95468 
L 254.687995 109.936674 
L 254.915787 103.568462 
L 255.219508 103.501454 
L 255.4473 103.920072 
L 255.52323 103.91525 
L 255.751021 103.787404 
L 255.902882 104.410696 
L 256.358465 104.460405 
L 256.510326 103.467815 
L 256.814048 103.991193 
L 256.965908 103.06283 
L 257.117769 103.510944 
L 257.421491 103.414637 
L 257.497422 103.240177 
L 257.573352 103.345558 
L 257.649282 103.769 
L 257.953004 103.277131 
L 258.104865 103.490746 
L 258.484517 103.081605 
L 258.636378 101.361618 
L 258.712309 101.512929 
L 259.091961 101.587807 
L 259.167891 101.071309 
L 259.243822 101.143688 
L 259.471613 101.142334 
L 259.623474 100.97314 
L 259.699404 100.998388 
L 259.775335 101.70521 
L 260.003126 101.696965 
L 260.079056 101.574885 
L 260.154987 101.64078 
L 260.230917 101.664764 
L 260.306848 101.13902 
L 260.534639 101.266053 
L 260.610569 101.592387 
L 260.6865 100.970701 
L 260.76243 101.089099 
L 260.838361 101.120675 
L 261.218013 101.966681 
L 261.369874 101.956016 
L 261.597665 101.888106 
L 261.673596 101.738345 
L 261.901387 102.077958 
L 262.205109 102.128031 
L 262.4329 102.686927 
L 262.736622 101.13379 
L 262.812552 101.113992 
L 262.964413 102.344082 
L 263.192204 101.91304 
L 263.268135 102.46065 
L 263.344065 102.404996 
L 264.25523 102.129926 
L 264.483022 101.967841 
L 264.558952 101.805769 
L 265.014535 101.677444 
L 265.090465 101.590491 
L 265.470117 101.581659 
L 265.621978 101.153589 
L 265.9257 101.165755 
L 266.077561 100.539924 
L 266.457213 100.68433 
L 266.533144 100.561884 
L 266.685004 102.67205 
L 266.912796 102.407932 
L 266.988726 102.586266 
L 267.216518 102.718022 
L 267.444309 106.862361 
L 267.520239 106.857476 
L 267.59617 106.806136 
L 267.975822 107.6209 
L 268.051752 107.631296 
L 268.127683 107.388607 
L 268.203613 107.427048 
L 268.279544 107.877627 
L 268.507335 107.85842 
L 268.735126 108.351244 
L 268.811057 108.536277 
L 269.570361 108.450622 
L 269.722222 104.247367 
L 269.798152 104.162024 
L 270.253735 110.626129 
L 270.405596 110.551388 
L 270.633387 110.444748 
L 270.785248 109.893276 
L 270.937109 110.018128 
L 271.240831 109.684949 
L 271.392692 108.629234 
L 271.468622 108.658072 
L 271.696413 108.727158 
L 271.772344 109.499931 
L 271.848274 109.373084 
L 272.000135 109.450787 
L 272.227926 110.743423 
L 272.379787 110.369617 
L 272.9113 110.254548 
L 272.987231 110.645201 
L 273.290953 110.066799 
L 273.518744 110.932343 
L 273.594674 110.726091 
L 273.898396 110.844367 
L 274.050257 110.927692 
L 274.126187 113.803712 
L 274.429909 113.45145 
L 274.58177 113.156089 
L 274.6577 113.193601 
L 274.961422 114.203194 
L 275.037353 114.215815 
L 275.189213 113.116995 
L 275.417005 112.964887 
L 275.568866 112.547971 
L 275.644796 112.589454 
L 275.948518 111.830813 
L 276.100379 112.53247 
L 276.25224 111.639259 
L 276.555961 112.205694 
L 276.707822 111.979268 
L 276.783753 112.715304 
L 277.087474 112.754878 
L 277.163405 112.495969 
L 277.315266 112.480966 
L 277.618987 112.70378 
L 277.846779 111.728816 
L 278.1505 111.747918 
L 278.302361 111.330366 
L 278.378292 112.523064 
L 278.606083 112.456468 
L 278.682014 112.667168 
L 278.757944 112.163042 
L 278.833874 112.382074 
L 278.909805 113.108183 
L 279.441318 111.586347 
L 279.669109 111.640243 
L 279.74504 111.171508 
L 279.82097 111.196931 
L 279.972831 110.698465 
L 280.352483 111.1941 
L 280.428414 111.004917 
L 280.504344 110.550916 
L 280.732135 110.642598 
L 280.959927 108.600306 
L 281.263648 108.546459 
L 281.415509 108.25058 
L 281.56737 108.914686 
L 281.871092 108.913155 
L 281.947022 109.78983 
L 282.098883 109.787126 
L 282.326675 110.008274 
L 282.630396 111.078064 
L 283.085979 111.033304 
L 283.389701 110.935294 
L 283.693422 107.563336 
L 283.997144 107.333502 
L 284.224935 107.722918 
L 284.452727 107.748682 
L 284.604588 108.026579 
L 285.212031 108.082792 
L 285.287962 112.547895 
L 285.591683 112.577129 
L 285.819475 112.799842 
L 286.047266 112.261709 
L 286.199127 112.334458 
L 286.275057 112.959524 
L 286.350988 112.529555 
L 286.73064 112.819932 
L 286.80657 113.646807 
L 286.882501 113.189226 
L 287.110292 112.861313 
L 287.186223 112.942037 
L 287.338083 112.89525 
L 287.641805 111.934982 
L 287.717736 111.050579 
L 287.793666 111.25006 
L 287.945527 111.221911 
L 288.173318 111.244224 
L 288.249249 111.464264 
L 288.325179 111.371188 
L 288.40111 111.535384 
L 288.47704 111.453567 
L 288.704831 111.441109 
L 288.780762 111.300343 
L 288.932623 111.404384 
L 289.008553 111.294122 
L 289.236344 111.50952 
L 289.388205 111.384269 
L 289.540066 112.081153 
L 290.29937 112.123288 
L 290.527162 113.655943 
L 290.603092 113.930407 
L 290.906814 114.155663 
L 290.982744 114.599518 
L 291.058675 114.297466 
L 291.134605 114.37199 
L 291.362397 115.190748 
L 291.438327 115.037458 
L 291.514257 115.107059 
L 291.666118 115.378519 
L 292.121701 115.307086 
L 292.425423 115.22014 
L 292.729144 115.593858 
L 292.956936 116.147685 
L 293.108797 116.153142 
L 293.184727 116.544105 
L 293.260658 116.343765 
L 293.488449 116.343521 
L 293.792171 117.376343 
L 294.095892 117.491587 
L 294.171823 118.022192 
L 294.247753 117.977434 
L 294.323684 118.004429 
L 294.703336 119.689885 
L 294.779266 119.691744 
L 294.855197 120.262533 
L 295.082988 120.336818 
L 295.234849 120.966787 
L 295.38671 120.916867 
L 295.614501 121.157035 
L 295.842292 120.301015 
L 295.918223 121.884057 
L 296.146014 121.897815 
L 296.221945 123.519074 
L 296.373805 123.682114 
L 296.449736 124.309534 
L 297.360901 124.335577 
L 297.436832 124.063731 
L 297.512762 121.94963 
L 298.044275 121.786263 
L 298.347997 121.894309 
L 298.575788 126.171044 
L 299.031371 127.074044 
L 299.335093 126.894423 
L 299.486953 127.138401 
L 299.638814 126.881196 
L 299.866606 126.862831 
L 300.094397 126.608049 
L 300.170327 126.822295 
L 300.474049 126.848324 
L 300.62591 126.076881 
L 300.70184 125.059888 
L 301.005562 125.111824 
L 301.157423 125.81395 
L 301.233353 125.672572 
L 301.461145 126.199333 
L 301.613006 125.508933 
L 301.688936 125.558087 
L 301.764866 126.198556 
L 302.068588 126.843109 
L 302.144519 127.287171 
L 302.29638 125.270767 
L 302.524171 126.474358 
L 302.600101 127.566112 
L 302.751962 126.78169 
L 302.827893 126.828564 
L 303.131614 126.557303 
L 303.359406 127.341784 
L 303.587197 127.395197 
L 303.663127 127.630935 
L 303.814988 127.102256 
L 303.890919 127.234828 
L 304.19464 127.315191 
L 304.270571 127.502728 
L 304.422432 127.228481 
L 304.726154 126.896126 
L 305.257667 126.797729 
L 305.409527 126.167233 
L 305.485458 124.125556 
L 306.016971 123.655784 
L 306.320693 124.592248 
L 306.396623 124.334265 
L 306.548484 123.36564 
L 307.004067 123.793569 
L 307.459649 123.821775 
L 307.53558 123.952002 
L 307.61151 124.448003 
L 308.143023 124.558059 
L 308.370815 124.722652 
L 308.446745 124.619547 
L 308.522675 124.698415 
L 308.674536 122.748322 
L 309.661632 122.518524 
L 309.737562 122.122704 
L 310.648728 121.786422 
L 310.800589 123.335267 
L 311.711754 123.323694 
L 311.863615 123.149705 
L 312.698849 123.215352 
L 312.85071 123.455797 
L 312.926641 125.625746 
L 313.989667 125.84623 
L 314.976763 125.84623 
L 315.052693 126.018596 
L 315.356415 126.035215 
L 315.508276 126.36649 
L 315.887928 126.379361 
L 316.039789 126.62063 
L 316.419441 126.705827 
L 316.571302 127.613104 
L 316.647232 128.99482 
L 317.102815 129.011613 
L 317.178745 127.1172 
L 317.482467 126.849987 
L 317.93805 127.090837 
L 318.01398 127.45063 
L 318.545493 127.654136 
L 318.697354 125.393357 
L 318.773284 123.866503 
L 319.001076 122.641658 
L 319.077006 124.244715 
L 319.152937 124.224568 
L 319.228867 124.147487 
L 319.304798 125.105819 
L 319.68445 125.194161 
L 319.836311 125.415181 
L 320.064102 125.415342 
L 320.215963 126.115895 
L 320.595615 126.138496 
L 320.747476 126.726732 
L 321.127128 126.908386 
L 321.203058 126.749059 
L 321.43085 122.15618 
L 321.810502 121.434797 
L 321.962363 121.498515 
L 322.342015 122.017591 
L 322.493876 124.36066 
L 322.949459 124.405879 
L 323.025389 124.107506 
L 323.25318 124.037068 
L 323.329111 124.183154 
L 323.405041 125.114696 
L 323.480972 125.034967 
L 323.784693 125.035012 
L 323.936554 123.598297 
L 324.088415 123.472424 
L 324.543998 122.012723 
L 325.151441 122.108975 
L 325.379232 122.273824 
L 325.531093 124.194009 
L 326.062606 124.313772 
L 326.138537 124.019639 
L 326.214467 124.17647 
L 326.442259 123.977824 
L 326.594119 119.226325 
L 326.67005 119.598294 
L 326.74598 119.247482 
L 327.125633 117.124719 
L 327.277493 117.260606 
L 327.505285 117.150166 
L 327.657146 117.287095 
L 328.112728 117.176158 
L 328.644241 116.855993 
L 328.720172 116.884167 
L 328.796102 116.789273 
L 328.872033 116.957777 
L 329.327615 116.811925 
L 329.403546 116.432266 
L 329.935059 116.299751 
L 330.314711 116.057645 
L 330.466572 115.453733 
L 330.770294 115.340314 
L 330.998085 114.998284 
L 331.453667 114.807185 
L 331.985181 114.790605 
L 332.364833 113.669157 
L 332.820415 113.630694 
L 333.048207 113.350496 
L 333.124137 113.331289 
L 333.427859 111.206603 
L 333.57972 112.726316 
L 333.65565 112.329289 
L 334.111233 106.78932 
L 334.187163 107.134836 
L 334.490885 109.133832 
L 334.566815 109.918209 
L 334.946468 107.128555 
L 335.022398 105.648265 
L 335.098328 105.821683 
L 335.250189 105.839206 
L 335.705772 92.601184 
L 335.781702 92.602957 
L 336.161355 92.217874 
L 336.313215 91.277129 
L 336.692868 91.279652 
L 336.768798 91.398051 
L 336.844729 92.343095 
L 337.07252 92.580945 
L 337.224381 94.309307 
L 338.211476 94.445823 
L 338.363337 94.535564 
L 338.439268 94.695987 
L 339.198572 94.934655 
L 339.350433 95.727094 
L 339.502294 95.803061 
L 339.881946 96.673551 
L 341.476485 96.673551 
L 341.628346 96.849498 
L 341.856137 96.853192 
L 341.932068 96.998356 
L 342.083929 100.116864 
L 342.159859 100.414418 
L 342.463581 102.001678 
L 343.146955 102.093625 
L 343.450677 102.164021 
L 343.526607 102.219132 
L 343.678468 102.439139 
L 344.05812 102.547813 
L 344.134051 102.662802 
L 344.589633 102.682162 
L 344.741494 103.03284 
L 345.197077 103.120291 
L 345.348938 103.351797 
L 346.260103 104.246692 
L 346.943477 104.275594 
L 347.247198 105.16842 
L 347.702781 105.201464 
L 347.854642 105.396884 
L 348.310225 105.450063 
L 348.462085 107.449823 
L 348.841738 107.55799 
L 348.917668 107.901072 
L 349.069529 112.24141 
L 349.373251 113.834448 
L 349.525112 113.962947 
L 349.601042 114.061026 
L 350.132555 119.598696 
L 350.360346 119.598996 
L 350.512207 148.478599 
L 350.588138 146.95803 
L 350.664068 147.120834 
L 350.96779 145.420044 
L 351.04372 150.139831 
L 351.195581 144.905819 
L 351.423372 144.472747 
L 351.651164 141.414277 
L 351.727094 141.348709 
L 352.258607 137.902318 
L 352.486399 137.895139 
L 352.71419 136.11463 
L 352.79012 136.097824 
L 353.093842 134.423545 
L 353.169773 134.423316 
L 353.245703 134.284523 
L 353.321633 132.968507 
L 353.625355 132.915806 
L 353.701286 132.818007 
L 357.573738 132.649468 
L 357.801529 132.617361 
L 358.333042 127.624251 
L 358.560834 127.516518 
L 358.636764 126.249022 
L 358.864555 126.20458 
L 359.168277 120.270265 
L 359.547929 120.187646 
L 359.69979 119.910969 
L 360.003512 119.898914 
L 360.459095 119.263418 
L 360.610955 119.273308 
L 360.686886 119.105701 
L 360.990608 119.064901 
L 361.142468 118.901968 
L 361.294329 118.892166 
L 361.522121 118.742252 
L 361.749912 118.145492 
L 362.357355 118.131999 
L 363.11666 118.094032 
L 363.268521 117.416397 
L 363.344451 117.419034 
L 363.420382 113.40473 
L 363.648173 113.058387 
L 363.875964 112.009885 
L 364.483408 111.929647 
L 364.86306 111.629728 
L 365.014921 111.639423 
L 365.242712 111.469402 
L 365.318643 111.026433 
L 365.394573 107.759781 
L 365.470503 108.139622 
L 365.926086 108.861776 
L 366.002016 108.856749 
L 366.077947 110.664232 
L 366.305738 110.924495 
L 366.837251 112.991642 
L 366.989112 113.084659 
L 367.140973 113.095501 
L 367.596556 113.962317 
L 368.128069 113.75553 
L 368.203999 114.349278 
L 368.507721 113.284229 
L 368.659582 113.308244 
L 369.267025 113.236306 
L 369.494817 112.923295 
L 369.646677 110.694924 
L 369.722608 110.696729 
L 369.798538 110.539665 
L 370.10226 110.437028 
L 370.557843 109.055821 
L 370.709704 107.823426 
L 370.785634 107.827281 
L 370.861564 107.67531 
L 371.620869 107.634435 
L 371.924591 106.726821 
L 372.152382 106.730194 
L 372.456104 106.023199 
L 372.683895 106.07037 
L 372.759825 105.724986 
L 372.987617 106.813741 
L 373.291338 106.476082 
L 373.367269 105.450244 
L 373.51913 106.093843 
L 373.746921 106.061786 
L 373.822851 106.352526 
L 373.898782 105.259512 
L 374.050643 108.104722 
L 374.354365 108.11365 
L 374.506225 108.301596 
L 374.809947 108.301027 
L 374.961808 108.563438 
L 375.113669 108.589224 
L 375.493321 108.662556 
L 375.569252 108.777376 
L 376.024834 108.784972 
L 376.176695 109.132157 
L 376.404486 109.134772 
L 376.556347 109.406524 
L 377.999026 109.434124 
L 378.150886 110.005991 
L 378.226817 110.003566 
L 378.302747 113.791306 
L 378.530539 114.117496 
L 378.83426 115.275393 
L 379.289843 115.279936 
L 379.365773 115.521778 
L 379.821356 115.586095 
L 380.201008 116.275451 
L 380.352869 120.563132 
L 380.4288 120.583463 
L 380.808452 120.896886 
L 381.947408 120.961323 
L 382.023339 121.039035 
L 382.32706 120.59074 
L 382.402991 121.571042 
L 382.478921 121.133225 
L 382.554852 121.241285 
L 382.858574 121.243932 
L 382.934504 121.411367 
L 383.086365 122.783422 
L 383.9216 122.877074 
L 383.99753 123.316077 
L 384.149391 126.214333 
L 384.377182 125.944582 
L 384.453113 126.138243 
L 384.529043 124.168932 
L 384.604974 124.178086 
L 384.984626 124.519696 
L 385.212417 127.892308 
L 385.440208 127.884844 
L 385.592069 128.17211 
L 386.047652 128.142481 
L 386.123582 128.047077 
L 386.199513 128.60929 
L 386.275443 128.283236 
L 386.579165 129.026526 
L 386.655095 128.834976 
L 386.731026 129.108097 
L 386.806956 129.039465 
L 387.034748 128.181811 
L 387.262539 130.552571 
L 387.338469 130.479002 
L 387.794052 131.073164 
L 387.869982 130.369172 
L 388.173704 131.765401 
L 388.249635 131.293459 
L 388.629287 133.834392 
L 388.857078 132.445089 
L 388.933009 132.521585 
L 389.388591 132.614908 
L 389.464522 132.906154 
L 389.692313 132.771814 
L 389.768243 132.597557 
L 389.844174 132.828502 
L 389.996035 132.097637 
L 390.375687 132.063204 
L 390.527548 130.899667 
L 390.98313 127.691273 
L 391.059061 127.215669 
L 391.286852 126.827483 
L 391.438713 124.252967 
L 391.590574 123.72483 
L 391.894296 123.557516 
L 392.046156 120.773217 
L 392.349878 120.634589 
L 392.501739 119.284428 
L 392.6536 109.227532 
L 392.957322 108.51248 
L 393.185113 105.612281 
L 396.22233 105.532065 
L 396.374191 105.364969 
L 396.677913 105.370165 
L 396.829774 105.8027 
L 396.905704 105.876887 
L 397.285357 106.401019 
L 397.437217 106.445195 
L 398.272452 106.351506 
L 398.424313 106.085987 
L 398.500244 106.008691 
L 398.728035 105.967044 
L 398.955826 105.307762 
L 399.031757 105.345609 
L 399.259548 106.429658 
L 399.411409 105.415214 
L 399.56327 105.366102 
L 399.866991 105.370202 
L 400.018852 105.124382 
L 400.474435 105.002941 
L 400.626296 105.096922 
L 400.930018 105.225093 
L 401.461531 105.292933 
L 401.613392 104.396151 
L 401.689322 104.425701 
L 401.917113 104.457232 
L 402.068974 105.130185 
L 402.220835 103.955491 
L 402.524557 103.696055 
L 402.600487 103.401373 
L 402.752348 104.28188 
L 402.980139 104.268052 
L 403.132 103.196622 
L 403.283861 103.755668 
L 403.663513 104.30981 
L 403.815374 104.063317 
L 404.270957 103.531508 
L 404.574679 103.54357 
L 404.8784 103.848602 
L 405.182122 103.989794 
L 405.333983 102.387561 
L 405.409913 102.407492 
L 406.245148 104.551908 
L 406.321079 104.302536 
L 406.397009 105.896493 
L 406.47294 105.106445 
L 406.700731 105.261432 
L 406.852592 105.53756 
L 406.928522 105.494264 
L 407.004453 107.277641 
L 407.308174 107.043326 
L 407.384105 107.005903 
L 407.460035 107.362802 
L 407.535966 117.355315 
L 407.839687 118.382469 
L 407.991548 122.184456 
L 408.067479 122.174489 
L 408.3712 122.059291 
L 409.358296 121.62786 
L 409.586087 121.178554 
L 411.028766 121.177887 
L 411.180627 121.342689 
L 411.71214 121.346194 
L 411.78807 120.948042 
L 412.015861 120.736577 
L 412.167722 119.370403 
L 412.319583 119.004776 
L 412.623305 118.470114 
L 412.775166 116.351875 
L 412.851096 116.493455 
L 413.154818 116.470882 
L 413.306679 116.752266 
L 413.686331 117.035625 
L 413.914122 118.193158 
L 414.217844 118.896765 
L 414.901218 117.996551 
L 414.977149 118.181374 
L 415.28087 117.713785 
L 415.432731 117.13253 
L 415.508662 114.395169 
L 415.812383 114.299972 
L 415.964244 113.886515 
L 416.040175 113.939021 
L 416.419827 113.599191 
L 416.495757 114.58741 
L 416.571688 114.044503 
L 416.799479 113.972786 
L 417.02727 112.353635 
L 417.103201 112.799826 
L 417.330992 111.635528 
L 417.482853 112.01911 
L 417.558783 111.810784 
L 417.634714 109.818098 
L 418.090296 109.497146 
L 418.166227 110.267398 
L 418.394018 110.491433 
L 418.69774 109.353445 
L 419.077392 109.794907 
L 419.153323 109.630722 
L 419.608905 107.398825 
L 419.684836 107.243294 
L 419.760766 106.723038 
L 419.988557 106.728238 
L 420.140418 106.909337 
L 420.216349 108.485365 
L 420.292279 108.420881 
L 420.596001 108.424771 
L 420.747862 108.89075 
L 421.051583 108.944397 
L 421.127514 108.923907 
L 421.203444 109.334091 
L 421.279375 109.04693 
L 421.355305 109.833936 
L 421.734957 109.837734 
L 421.810888 109.714806 
L 422.11461 110.141816 
L 422.19054 110.140072 
L 422.26647 110.254873 
L 422.342401 110.632262 
L 422.418331 110.555799 
L 422.797984 110.5324 
L 423.329497 110.118645 
L 423.481357 109.435385 
L 424.240662 109.566982 
L 424.468453 107.590923 
L 424.544384 107.84567 
L 424.924036 107.779125 
L 425.303688 107.460705 
L 425.455549 106.683178 
L 425.60741 106.668816 
L 425.835201 106.538246 
L 426.138923 104.405604 
L 426.366714 104.364801 
L 426.518575 104.11815 
L 427.050088 104.485661 
L 427.126018 104.899474 
L 427.201949 104.486342 
L 427.505671 104.534918 
L 427.581601 103.155911 
L 427.733462 102.838801 
L 428.037184 104.602911 
L 428.113114 104.289714 
L 428.189045 104.351404 
L 428.264975 104.27962 
L 428.644627 103.702323 
L 429.252071 103.699045 
L 429.328001 104.007373 
L 429.555792 104.025255 
L 429.631723 104.738941 
L 429.707653 104.701172 
L 429.859514 104.662449 
L 430.163236 104.631634 
L 430.239166 105.003428 
L 430.315097 104.888591 
L 430.391027 106.95109 
L 430.618819 106.450655 
L 430.694749 105.852821 
L 430.84661 106.247999 
L 430.92254 106.007373 
L 431.150332 106.127275 
L 431.454053 105.962789 
L 431.681845 105.165824 
L 431.909636 102.965005 
L 431.985566 103.393926 
L 432.213358 103.391194 
L 432.441149 106.40332 
L 432.51708 106.515196 
L 432.744871 106.59275 
L 432.820801 106.743792 
L 432.972662 108.513924 
L 433.504175 108.998179 
L 433.807897 108.823968 
L 434.111619 109.666519 
L 434.41534 108.508056 
L 434.567201 109.106469 
L 434.643132 110.839901 
L 435.022784 111.361028 
L 435.098714 111.9737 
L 435.174645 111.958519 
L 435.554297 111.692137 
L 435.706158 111.05301 
L 436.00988 110.760787 
L 436.161741 110.405215 
L 436.465462 110.343835 
L 436.617323 109.755862 
L 436.769184 109.770287 
L 437.148836 110.178833 
L 437.75628 110.146501 
L 437.83221 110.053381 
L 438.135932 109.950782 
L 438.287793 110.403999 
L 438.895236 109.998494 
L 439.198958 110.70584 
L 439.350819 109.516646 
L 439.426749 109.516335 
L 439.806402 108.717421 
L 439.958262 110.663909 
L 440.489775 110.904851 
L 440.717567 110.956113 
L 440.869428 111.143231 
L 440.945358 111.719121 
L 441.021289 111.644576 
L 441.32501 111.663645 
L 441.476871 111.795678 
L 441.552802 112.298588 
L 441.780593 112.299803 
L 441.856523 112.658998 
L 442.008384 114.32001 
L 442.463967 114.665975 
L 442.615828 114.725506 
L 442.919549 115.476776 
L 443.07141 116.191406 
L 443.375132 116.240539 
L 443.526993 119.012365 
L 443.602923 119.014657 
L 443.678854 119.171369 
L 443.906645 119.902161 
L 444.058506 119.612942 
L 444.134436 120.073849 
L 444.210367 119.99038 
L 444.514089 119.779112 
L 444.74188 115.701825 
L 445.197463 115.05001 
L 445.273393 115.153049 
L 445.577115 115.028394 
L 445.653045 115.02846 
L 446.184558 115.519457 
L 446.260489 115.171682 
L 447.247584 116.881362 
L 447.399445 121.435163 
L 447.855028 121.536814 
L 448.386541 121.694138 
L 448.462471 121.929227 
L 448.690263 122.033016 
L 448.918054 122.520734 
L 448.993984 122.597301 
L 449.221776 122.57808 
L 449.449567 124.30639 
L 449.525497 124.226149 
L 449.753289 124.238268 
L 449.90515 122.485292 
L 450.057011 121.988083 
L 450.360732 121.842825 
L 450.436663 121.480046 
L 450.588524 122.352668 
L 450.816315 122.074889 
L 451.044106 122.79293 
L 451.347828 122.801992 
L 451.423758 122.645963 
L 451.575619 122.96787 
L 451.65155 122.888982 
L 452.031202 122.855855 
L 452.107132 122.684654 
L 452.183063 122.718592 
L 452.410854 122.690133 
L 452.942367 121.385126 
L 453.246089 115.679562 
L 453.47388 115.907147 
L 453.777602 115.41456 
L 454.081324 115.535176 
L 454.157254 116.564803 
L 454.233185 116.484048 
L 454.309115 116.479162 
L 454.688767 117.520187 
L 454.840628 117.617086 
L 455.22028 117.630215 
L 455.372141 115.390441 
L 455.675863 115.407697 
L 455.827724 114.974921 
L 456.283306 114.791529 
L 456.435167 114.49071 
L 457.725985 114.412241 
L 457.801915 114.377178 
L 457.953776 113.567517 
L 458.029706 113.57182 
L 458.333428 113.424889 
L 458.56122 112.859949 
L 458.789011 112.761191 
L 459.396454 113.045832 
L 459.624246 117.027642 
L 460.079828 117.613514 
L 460.155759 117.589609 
L 460.38355 116.848429 
L 460.535411 115.771598 
L 460.611341 116.067566 
L 460.687272 115.906748 
L 461.066924 115.879902 
L 461.142854 116.582999 
L 461.674367 111.558131 
L 461.750298 111.44371 
L 462.05402 109.026296 
L 462.12995 108.91555 
L 462.509602 107.646046 
L 462.661463 107.381845 
L 462.813324 107.133613 
L 463.117046 107.048819 
L 463.268907 106.680521 
L 463.80042 106.507029 
L 464.104141 106.26386 
L 464.180072 105.444821 
L 464.256002 105.5122 
L 464.407863 105.766763 
L 464.635655 105.764857 
L 464.787515 107.244617 
L 464.863446 106.586371 
L 464.939376 106.806253 
L 465.167168 106.738394 
L 465.394959 106.416453 
L 465.470889 106.450516 
L 465.698681 106.023022 
L 465.774611 106.089066 
L 465.926472 104.865371 
L 466.002402 104.880329 
L 466.230194 104.733514 
L 466.382055 104.2286 
L 466.457985 104.001763 
L 466.533915 102.100416 
L 466.837637 101.532681 
L 466.913568 100.827083 
L 467.065428 97.847002 
L 467.29322 98.111998 
L 467.36915 98.437676 
L 467.445081 98.198676 
L 467.521011 98.491626 
L 467.900663 98.952607 
L 467.976594 98.804558 
L 468.052524 101.625913 
L 468.128455 100.80845 
L 468.356246 100.917031 
L 468.659968 101.705951 
L 468.887759 101.692303 
L 469.03962 100.975448 
L 469.11555 100.99538 
L 469.191481 100.964463 
L 469.495202 100.054175 
L 469.950785 99.598592 
L 470.102646 99.278021 
L 470.254507 100.785865 
L 470.78602 100.538744 
L 471.165672 101.149434 
L 471.241603 100.899478 
L 471.697185 100.945426 
L 471.849046 100.792591 
L 472.60835 100.724675 
L 472.760211 100.575606 
L 472.836142 101.168611 
L 472.912072 101.152254 
L 473.139863 101.147736 
L 473.291724 100.946388 
L 473.671377 101.260171 
L 473.747307 100.739387 
L 473.975098 101.187734 
L 474.35475 101.058048 
L 474.506611 99.83894 
L 474.962194 99.732246 
L 475.038124 99.676598 
L 475.265916 100.304185 
L 475.417777 101.064949 
L 475.569637 99.565736 
L 475.94929 99.475786 
L 476.101151 99.370952 
L 476.328942 101.931853 
L 476.404872 101.91716 
L 476.480803 102.066878 
L 476.632664 102.841364 
L 476.860455 102.695402 
L 477.012316 104.81702 
L 477.088246 104.928747 
L 477.467898 106.116776 
L 477.543829 106.399638 
L 477.619759 106.369851 
L 478.075342 106.434423 
L 478.227203 106.727056 
L 478.454994 106.731638 
L 478.682785 106.447347 
L 478.758716 106.437331 
L 479.062438 106.121252 
L 479.138368 107.064572 
L 479.214298 106.939984 
L 479.290229 106.906297 
L 479.821742 106.163811 
L 480.049533 106.161511 
L 480.125464 106.800715 
L 480.201394 106.061295 
L 480.277325 106.2436 
L 480.353255 106.404661 
L 480.581046 106.449074 
L 481.112559 100.531384 
L 481.18849 101.548339 
L 481.26442 101.530771 
L 481.340351 101.837297 
L 481.416281 102.615267 
L 481.644072 102.605987 
L 481.795933 102.847267 
L 481.947794 105.077473 
L 482.175586 105.263457 
L 482.327446 105.984397 
L 482.479307 108.871827 
L 482.783029 108.943904 
L 483.01082 110.34611 
L 483.314542 110.591187 
L 483.466403 111.540153 
L 483.542333 111.700735 
L 483.997916 111.687308 
L 484.073846 112.633333 
L 484.377568 112.503764 
L 484.453499 113.532718 
L 484.60536 113.573847 
L 484.833151 113.137158 
L 484.909081 113.226671 
L 484.985012 113.267904 
L 485.136873 113.685785 
L 485.440594 113.688369 
L 485.516525 112.904672 
L 485.592455 113.134117 
L 486.048038 111.267527 
L 486.199899 110.936771 
L 486.579551 111.673426 
L 486.731412 111.657518 
L 486.959203 111.846583 
L 487.262925 111.52206 
L 487.566647 111.598393 
L 487.642577 111.401163 
L 487.794438 110.052464 
L 488.250021 110.060834 
L 488.325951 110.462665 
L 488.705603 110.458726 
L 488.857464 111.016035 
L 489.085255 111.084358 
L 489.237116 109.56434 
L 489.388977 109.24621 
L 489.616768 109.762572 
L 489.768629 110.668254 
L 489.92049 110.909852 
L 490.148281 110.896789 
L 490.300142 110.633506 
L 490.755725 109.541343 
L 490.907586 111.478825 
L 490.983516 111.510037 
L 491.363168 111.555258 
L 491.515029 111.886871 
L 491.742821 111.677251 
L 491.970612 112.648235 
L 492.046542 112.630307 
L 492.274334 112.575467 
L 492.502125 112.11936 
L 492.578055 112.212946 
L 492.957708 112.208252 
L 493.033638 112.568355 
L 493.109568 112.528392 
L 493.565151 107.981256 
L 493.641082 108.007965 
L 493.944803 107.531038 
L 494.020734 107.679034 
L 494.400386 107.666823 
L 494.552247 108.00975 
L 494.628177 107.998098 
L 494.704108 108.175827 
L 494.931899 108.162624 
L 495.15969 108.728527 
L 495.235621 107.812211 
L 495.463412 107.415734 
L 495.691203 108.436272 
L 495.767134 108.364209 
L 495.994925 108.836702 
L 496.222716 114.195721 
L 496.298647 113.732401 
L 496.526438 113.731717 
L 496.678299 112.740724 
L 496.754229 112.698349 
L 496.83016 112.293928 
L 497.209812 112.238452 
L 497.285743 111.878774 
L 497.361673 111.89486 
L 497.741325 112.210693 
L 498.424699 112.038544 
L 498.804351 111.954768 
L 498.956212 111.855478 
L 499.259934 111.614117 
L 499.335864 111.021845 
L 499.411795 111.320433 
L 499.487725 111.218933 
L 499.791447 111.360651 
L 499.867377 111.896866 
L 499.943308 111.866243 
L 500.019238 111.88973 
L 500.550751 111.587066 
L 500.854473 110.164444 
L 501.006334 111.766554 
L 501.310056 112.027132 
L 501.385986 112.427353 
L 501.537847 111.467841 
L 501.613777 111.322542 
L 501.917499 111.210371 
L 501.99343 111.35375 
L 502.449012 111.387782 
L 502.676804 110.88694 
L 503.056456 112.074246 
L 503.436108 112.110163 
L 503.587969 112.15977 
L 503.663899 111.133392 
L 503.73983 111.265271 
L 504.043551 111.099526 
L 504.195412 112.849772 
L 504.271343 113.145041 
L 504.575065 113.318689 
L 504.650995 113.239833 
L 505.258438 94.337417 
L 505.56216 94.331502 
L 505.638091 94.610867 
L 505.714021 94.584577 
L 505.865882 95.605268 
L 506.245534 95.775423 
L 506.701117 95.905238 
L 506.852978 96.156872 
L 507.156699 96.154294 
L 507.460421 96.730406 
L 507.916004 96.767367 
L 508.447517 97.039647 
L 508.523447 100.411559 
L 508.751239 100.520499 
L 508.903099 101.11955 
L 509.05496 100.326485 
L 509.434613 100.287823 
L 509.510543 100.001787 
L 509.586473 99.200384 
L 509.890195 99.263304 
L 510.042056 99.043668 
L 510.421708 98.833036 
L 510.6495 99.927654 
L 510.953221 99.76578 
L 511.105082 100.004685 
L 511.408804 99.946836 
L 511.484734 100.727983 
L 511.560665 100.644861 
L 511.636595 100.667549 
L 511.712526 101.347007 
L 512.016247 101.474331 
L 512.092178 101.872295 
L 512.623691 101.877507 
L 512.699621 101.068434 
L 512.775552 101.170914 
L 513.003343 101.169343 
L 513.155204 101.295534 
L 513.231134 101.296922 
L 513.307065 101.093738 
L 513.610787 101.129539 
L 513.838578 99.059738 
L 514.21823 99.064259 
L 514.29416 99.267949 
L 514.597882 99.26819 
L 514.825674 99.735162 
L 515.129395 98.50187 
L 515.205326 98.645554 
L 515.433117 98.583083 
L 515.736839 98.741466 
L 515.8887 98.338862 
L 515.96463 98.521816 
L 516.268352 98.589367 
L 516.420213 100.410323 
L 516.951726 100.457856 
L 517.331378 101.376296 
L 517.559169 101.509284 
L 517.786961 101.507059 
L 517.938821 101.798037 
L 518.090682 101.94083 
L 518.470335 102.078392 
L 518.622195 102.361179 
L 518.849987 102.020578 
L 519.001848 101.250714 
L 519.3815 101.13404 
L 519.533361 101.203178 
L 519.685222 101.940262 
L 519.913013 102.111752 
L 520.064874 101.784506 
L 520.140804 101.786893 
L 520.216735 101.133828 
L 520.596387 101.068669 
L 520.748248 122.613592 
L 521.20383 122.666411 
L 522.039065 122.594139 
L 522.114996 122.438712 
L 522.342787 120.442882 
L 522.646509 120.367648 
L 522.798369 119.362261 
L 523.329883 119.199578 
L 523.405813 118.93144 
L 523.785465 118.785021 
L 523.861396 118.237425 
L 524.165117 118.214379 
L 524.316978 117.558525 
L 524.392909 118.607773 
L 524.468839 118.582985 
L 524.69663 118.611748 
L 524.772561 118.147085 
L 524.924422 117.936075 
L 525.000352 119.05766 
L 525.228143 118.46147 
L 525.304074 117.850905 
L 525.380004 118.068676 
L 525.455935 118.361898 
L 525.531865 117.860681 
L 525.759657 117.854205 
L 525.911517 116.222767 
L 525.987448 116.576101 
L 526.44303 116.290081 
L 526.822683 116.248051 
L 526.974544 116.378465 
L 527.050474 117.128165 
L 527.126404 117.11445 
L 527.885709 116.738741 
L 528.03757 118.440074 
L 528.569083 111.122489 
L 528.720944 111.044046 
L 529.024665 111.013323 
L 529.100596 111.685302 
L 529.176526 113.510424 
L 529.252457 112.618456 
L 530.011761 112.340712 
L 530.087691 112.596174 
L 530.239552 114.078117 
L 530.315483 114.137791 
L 530.771065 114.194248 
L 530.846996 114.911466 
L 531.074787 114.901919 
L 531.226648 114.528235 
L 531.302578 114.528682 
L 531.910022 114.132244 
L 532.137813 114.051052 
L 532.289674 113.860372 
L 532.745257 113.840799 
L 532.897118 113.560915 
L 532.973048 113.562028 
L 533.3527 113.842084 
L 533.504561 115.056188 
L 533.884213 115.076405 
L 534.263866 114.482098 
L 534.567587 113.290027 
L 534.795379 113.268374 
L 534.871309 113.607121 
L 535.02317 113.146807 
L 535.0991 113.765702 
L 535.630613 112.93772 
L 536.086196 112.866643 
L 536.389918 112.718888 
L 536.541779 111.84792 
L 536.617709 111.761156 
L 536.997361 111.677392 
L 537.149222 113.303793 
L 537.225153 113.28883 
L 537.452944 113.030385 
L 537.528874 113.718887 
L 537.604805 113.550496 
L 537.756666 113.327095 
L 537.984457 113.399009 
L 538.288179 112.802125 
L 538.51597 111.55421 
L 538.5919 111.648278 
L 538.819692 112.432634 
L 539.047483 112.648031 
L 539.199344 112.323529 
L 539.275274 112.191235 
L 539.351205 112.63864 
L 539.730857 113.813762 
L 540.18644 114.467123 
L 540.3383 112.583693 
L 540.414231 113.039246 
L 540.642022 112.744317 
L 540.717953 114.094849 
L 540.793883 113.816701 
L 540.869814 113.774893 
L 540.945744 113.983599 
L 541.173535 113.821575 
L 541.325396 113.526589 
L 541.856909 113.427978 
L 542.00877 113.318725 
L 542.312492 113.27142 
L 542.388422 113.085763 
L 542.464353 113.242301 
L 542.540283 112.916836 
L 542.844005 112.72666 
L 543.071796 118.628738 
L 543.603309 120.402289 
L 543.982961 120.29187 
L 544.134822 121.442727 
L 544.362614 121.602897 
L 544.666335 121.076574 
L 544.894127 120.749433 
L 544.970057 120.954271 
L 545.045988 120.880977 
L 545.50157 120.885049 
L 545.577501 120.902852 
L 545.729362 120.823757 
L 545.957153 121.136952 
L 546.184944 120.843322 
L 547.096109 120.89082 
L 547.24797 121.087095 
L 547.703553 121.096399 
L 547.779483 121.422674 
L 547.855414 121.401164 
L 548.159136 121.330998 
L 548.310996 121.214584 
L 548.614718 121.268067 
L 548.690649 119.986471 
L 548.91844 121.320398 
L 549.146231 122.174062 
L 549.222162 122.076289 
L 549.374023 122.058321 
L 549.449953 122.443032 
L 549.677744 122.637732 
L 550.209257 123.846687 
L 550.285188 124.046876 
L 550.361118 123.924077 
L 550.892631 124.007776 
L 550.968562 123.741749 
L 551.424144 124.429164 
L 551.500075 124.459144 
L 551.576005 124.702586 
L 551.955657 124.451287 
L 552.031588 124.824838 
L 552.33531 124.940309 
L 552.639031 125.592918 
L 552.866823 125.853329 
L 552.942753 126.374588 
L 553.094614 123.685047 
L 553.170544 125.156039 
L 553.398336 124.946246 
L 553.550197 125.223411 
L 553.626127 125.097777 
L 553.702057 125.181888 
L 554.08171 125.602022 
L 554.233571 124.510597 
L 554.461362 124.533114 
L 554.613223 124.698733 
L 554.689153 124.695604 
L 554.765084 123.177494 
L 554.992875 122.999907 
L 555.068805 125.480121 
L 555.144736 125.340858 
L 555.296597 125.544898 
L 555.524388 125.218413 
L 555.676249 124.753497 
L 555.82811 125.254784 
L 556.207762 125.334915 
L 556.283692 124.378266 
L 556.359623 124.398713 
L 556.739275 124.207054 
L 556.891136 123.408895 
L 557.118927 123.430063 
L 557.194858 123.850271 
L 557.270788 123.426097 
L 557.422649 124.021954 
L 557.726371 124.233883 
L 557.954162 124.25101 
L 558.257884 124.300784 
L 558.485675 124.351734 
L 559.017188 124.273903 
L 559.244979 124.468595 
L 559.32091 124.794218 
L 559.39684 124.73271 
L 559.472771 122.687162 
L 559.548701 122.913074 
L 559.776492 122.211717 
L 559.852423 122.259038 
L 559.928353 122.276105 
L 560.080214 120.598894 
L 560.308005 120.599143 
L 560.459866 119.839166 
L 560.611727 119.935768 
L 560.839519 120.00065 
L 560.915449 120.315729 
L 561.06731 119.86754 
L 561.14324 119.880001 
L 562.130336 118.94639 
L 562.737779 118.811037 
L 563.269293 118.105145 
L 563.497084 118.08648 
L 563.648945 119.511047 
L 563.724875 119.335115 
L 564.104527 119.326179 
L 564.332319 119.452482 
L 564.787901 119.454627 
L 564.863832 119.612453 
L 565.319414 119.281937 
L 565.395345 117.53859 
L 565.774997 117.509668 
L 565.850927 117.761622 
L 565.926858 117.625193 
L 566.30651 118.199844 
L 566.458371 118.059637 
L 566.762093 118.164005 
L 566.838023 118.126446 
L 566.913954 117.53059 
L 566.989884 117.554905 
L 567.217675 117.570293 
L 567.293606 117.199083 
L 567.369536 117.237382 
L 567.825119 117.2058 
L 567.97698 119.045564 
L 568.05291 119.003885 
L 568.356632 118.678836 
L 568.584423 118.735734 
L 568.888145 118.660341 
L 569.115936 119.407372 
L 569.495588 119.176646 
L 569.571519 119.212777 
L 569.647449 120.571261 
L 569.951171 120.650088 
L 570.103032 120.923933 
L 570.558615 119.995793 
L 570.634545 120.042547 
L 570.710475 120.567106 
L 571.090128 121.072538 
L 571.621641 121.209729 
L 571.697571 122.201824 
L 572.077223 122.210921 
L 572.836528 123.865615 
L 573.21618 123.938618 
L 573.368041 122.559478 
L 573.671762 122.085187 
L 573.899554 119.74319 
L 574.355136 120.031561 
L 574.431067 118.883897 
L 574.658858 118.514298 
L 574.96258 114.41303 
L 575.190371 114.201374 
L 575.342232 116.002785 
L 575.418163 116.526526 
L 575.797815 114.437563 
L 575.873745 116.053602 
L 575.949676 116.019441 
L 576.025606 116.565198 
L 576.253397 115.236177 
L 576.329328 115.259752 
L 576.405258 115.218281 
L 576.481189 113.025275 
L 576.78491 112.899527 
L 576.936771 110.274421 
L 577.012702 109.762402 
L 577.468284 108.994756 
L 577.620145 109.178131 
L 577.999797 109.096103 
L 578.151658 108.976059 
L 578.37945 109.072527 
L 578.45538 108.51598 
L 578.53131 108.835016 
L 578.683171 108.331766 
L 578.910963 108.295185 
L 579.138754 106.947681 
L 579.670267 106.897628 
L 579.746197 106.361299 
L 580.277711 106.257631 
L 580.505502 106.426702 
L 580.581432 106.176371 
L 580.657363 106.20935 
L 580.733293 106.191586 
L 580.809224 107.642703 
L 581.264806 107.512468 
L 581.340737 107.648084 
L 581.644458 107.557422 
L 582.100041 106.728118 
L 582.327832 106.552063 
L 582.403763 107.016105 
L 582.707485 106.969042 
L 582.783415 107.248731 
L 582.935276 107.055637 
L 583.238998 107.075486 
L 583.314928 107.533773 
L 583.390858 107.351527 
L 583.466789 107.384497 
L 583.922371 105.520384 
L 583.998302 105.549721 
L 584.226093 105.461919 
L 584.302024 105.217235 
L 584.453885 105.194653 
L 584.529815 104.86569 
L 584.909467 104.639489 
L 584.985398 104.12272 
L 585.061328 104.181635 
L 585.36505 104.05935 
L 585.44098 104.831952 
L 585.516911 104.767056 
L 585.592841 104.928707 
L 585.896563 104.921384 
L 586.428076 102.885008 
L 586.504006 102.841626 
L 586.655867 102.434116 
L 587.491102 101.950736 
L 587.567032 101.493009 
L 587.718893 102.395734 
L 588.022615 102.800057 
L 588.174476 104.497213 
L 588.250406 104.327635 
L 588.630059 103.897337 
L 589.085641 108.152433 
L 589.237502 108.00256 
L 589.313433 108.05923 
L 589.617154 108.011517 
L 589.769015 109.765151 
L 589.844946 109.780296 
L 590.148667 108.952793 
L 590.224598 110.04117 
L 590.300528 109.759834 
L 590.376459 109.686193 
L 590.68018 111.757477 
L 590.832041 114.800281 
L 591.135763 116.433899 
L 591.287624 116.488534 
L 591.439485 115.044105 
L 591.667276 114.863214 
L 591.743207 115.07974 
L 591.819137 110.013979 
L 592.198789 109.560196 
L 592.27472 107.781893 
L 592.35065 108.398737 
L 592.42658 107.90925 
L 592.502511 108.099259 
L 592.806233 108.645534 
L 593.034024 109.854877 
L 593.337746 109.933397 
L 593.565537 110.057825 
L 593.869259 110.750706 
L 593.945189 110.75052 
L 594.09705 110.915687 
L 594.400772 110.506366 
L 594.476702 110.676935 
L 594.932285 108.997738 
L 595.008215 108.72132 
L 595.160076 108.792814 
L 595.463798 107.315686 
L 595.539728 104.412591 
L 595.615659 104.621522 
L 595.691589 104.467235 
L 595.919381 104.461352 
L 595.995311 100.93345 
L 596.147172 100.932504 
L 596.223102 98.798371 
L 596.754615 98.719723 
L 597.058337 98.883304 
L 597.286128 98.429973 
L 597.741711 98.470449 
L 597.817642 99.540222 
L 598.045433 99.589999 
L 598.349155 100.386997 
L 598.652876 100.757547 
L 598.880668 101.979565 
L 599.184389 102.050903 
L 599.26032 102.687947 
L 599.33625 102.655972 
L 599.867763 101.943725 
L 599.943694 101.398337 
L 600.247416 100.972633 
L 600.399276 99.503408 
L 600.475207 100.02863 
L 600.854859 100.361454 
L 601.00672 100.822751 
L 601.310442 101.088749 
L 601.462303 101.201832 
L 601.841955 101.352111 
L 601.993816 101.802724 
L 602.449398 101.889366 
L 602.82905 102.091335 
L 602.904981 102.360598 
L 602.980911 102.236468 
L 603.132772 102.473894 
L 603.436494 102.281144 
L 603.664285 102.8475 
L 603.892077 102.867517 
L 604.043937 102.998412 
L 604.119868 102.523585 
L 604.195798 100.95254 
L 604.49952 101.489091 
L 604.57545 101.395831 
L 604.651381 101.670925 
L 605.106964 100.885748 
L 605.182894 101.018517 
L 605.258824 100.907127 
L 605.562546 100.871089 
L 605.638477 100.754202 
L 605.790337 101.89904 
L 606.094059 101.999414 
L 606.24592 106.600327 
L 606.549642 106.844193 
L 606.625572 108.090921 
L 606.701503 108.07012 
L 606.777433 108.567254 
L 607.233016 108.554768 
L 607.308946 108.834329 
L 607.384877 108.529406 
L 607.91639 108.460771 
L 608.447903 105.750157 
L 608.675694 105.138697 
L 608.751624 105.201747 
L 608.827555 105.125911 
L 608.903485 104.416987 
L 608.979416 104.720505 
L 609.283138 104.671338 
L 609.434998 106.027427 
L 609.510929 105.560525 
L 609.73872 104.86279 
L 609.890581 103.80554 
L 609.966511 106.688565 
L 610.042442 106.155211 
L 610.270233 106.131388 
L 610.346164 106.865618 
L 610.573955 113.764468 
L 610.801746 113.817325 
L 610.877677 113.162967 
L 610.953607 113.207594 
L 611.029538 113.035012 
L 611.105468 113.098308 
L 611.333259 113.142393 
L 611.40919 112.31108 
L 611.48512 112.593432 
L 611.561051 112.631311 
L 611.636981 113.15143 
L 611.940703 112.938028 
L 612.168494 112.837357 
L 612.700007 112.291428 
L 613.003729 112.197143 
L 613.459312 111.723454 
L 613.611172 111.474989 
L 613.687103 111.148706 
L 613.763033 111.687088 
L 614.142686 111.583585 
L 614.218616 111.801426 
L 614.294546 111.417249 
L 614.598268 109.357069 
L 614.674199 109.354719 
L 614.826059 107.616895 
L 615.053851 107.147076 
L 615.357573 102.602165 
L 615.813155 101.683841 
L 615.889086 99.332304 
L 616.420599 98.219336 
L 616.72432 97.906225 
L 616.876181 96.679099 
L 616.952112 96.842168 
L 617.255833 96.977998 
L 617.483625 96.63669 
L 617.939207 96.568807 
L 618.015138 96.364101 
L 618.31886 96.269361 
L 618.39479 97.627938 
L 618.47072 97.515765 
L 618.546651 97.241796 
L 618.774442 97.248648 
L 619.078164 95.985994 
L 619.305955 96.023847 
L 619.457816 95.124222 
L 619.533747 95.050453 
L 619.609677 94.702315 
L 619.837468 94.80081 
L 619.989329 94.450423 
L 620.06526 94.428865 
L 620.14119 94.245325 
L 620.520842 93.908493 
L 620.596773 94.184736 
L 620.672703 94.099835 
L 621.204216 93.452053 
L 621.583868 93.637375 
L 621.963521 93.606411 
L 622.191312 95.283626 
L 622.495034 95.343995 
L 622.798755 96.476625 
L 623.102477 96.774915 
L 623.178408 96.764183 
L 623.330268 96.892931 
L 623.55806 96.499641 
L 623.709921 97.783012 
L 623.785851 99.720183 
L 623.861782 99.57298 
L 624.089573 99.52395 
L 624.241434 100.074522 
L 624.393295 100.011007 
L 624.621086 99.887021 
L 624.697016 99.997894 
L 624.848877 99.964612 
L 624.924808 100.418308 
L 625.152599 100.441466 
L 625.228529 100.580606 
L 625.456321 100.666083 
L 625.684112 101.374683 
L 625.760042 101.34878 
L 625.987834 101.371627 
L 626.519347 101.986908 
L 627.582373 102.54204 
L 627.886095 102.723947 
L 628.113886 103.25827 
L 628.341677 103.031582 
L 628.417608 101.783367 
L 628.493538 102.215746 
L 628.569469 102.357273 
L 628.645399 102.850289 
L 628.949121 106.721585 
L 629.025051 106.737762 
L 629.176912 108.668248 
L 629.556564 109.228116 
L 629.632495 110.39458 
L 629.708425 113.473648 
L 629.936217 113.4872 
L 630.088077 114.935796 
L 630.164008 113.815877 
L 630.239938 114.040449 
L 630.46773 111.582824 
L 630.54366 113.413978 
L 630.61959 113.211988 
L 630.771451 113.012399 
L 630.999243 112.811373 
L 631.075173 112.571034 
L 631.151103 112.690668 
L 631.606686 112.238465 
L 631.758547 113.270437 
L 632.29006 113.320769 
L 632.36599 113.933177 
L 632.897504 114.050143 
L 633.201225 114.327635 
L 633.353086 115.512564 
L 633.656808 115.675074 
L 633.96053 117.956947 
L 634.188321 118.364262 
L 634.492043 120.689996 
L 634.719834 120.787667 
L 634.947625 122.075823 
L 635.251347 122.177542 
L 635.555069 123.102945 
L 635.858791 123.520111 
L 636.086582 124.14552 
L 636.314373 124.163017 
L 636.466234 124.825635 
L 636.921817 124.899533 
L 637.149608 125.01851 
L 637.45333 125.024057 
L 637.52926 125.318223 
L 637.605191 125.289187 
L 637.681121 124.748831 
L 637.984843 124.433228 
L 638.060773 125.02958 
L 638.212634 115.386573 
L 638.440425 114.994336 
L 638.744147 115.307635 
L 638.971939 115.387484 
L 639.047869 115.28581 
L 639.27566 111.97785 
L 639.655312 111.495082 
L 639.731243 111.650478 
L 640.110895 111.017917 
L 640.262756 110.511901 
L 640.338686 110.384861 
L 640.642408 108.70749 
L 640.718339 108.718018 
L 640.870199 108.54055 
L 641.173921 106.198341 
L 641.249852 106.19015 
L 641.401713 104.369464 
L 641.705434 103.038041 
L 641.933226 101.859545 
L 642.236947 101.256827 
L 642.312878 101.204573 
L 642.464739 100.708722 
L 642.844391 100.744964 
L 642.996252 102.050057 
L 643.831487 102.32638 
L 644.43893 102.325513 
L 644.590791 103.349472 
L 645.122304 107.498255 
L 645.350095 107.556822 
L 645.653817 109.774051 
L 651.3486 109.814201 
L 651.42453 110.276427 
L 651.880113 110.654573 
L 652.031974 119.513459 
L 652.563487 120.389404 
L 652.867209 120.876996 
L 653.019069 123.359706 
L 653.550583 126.274741 
L 653.854304 126.283585 
L 654.082096 127.889148 
L 654.385817 128.210261 
L 654.537678 130.938981 
L 654.689539 131.425332 
L 654.993261 131.456225 
L 655.145122 135.945781 
L 655.221052 135.97583 
L 656.284078 151.73853 
L 656.66373 155.132394 
L 656.815591 161.40087 
L 657.195243 161.54301 
L 657.347104 162.482302 
L 657.650826 163.162503 
L 673.520288 163.162503 
L 673.596218 162.90088 
L 673.824009 158.705871 
L 674.051801 157.746395 
L 674.203661 146.362081 
L 674.279592 146.181605 
L 674.355522 145.446022 
L 674.811105 139.298516 
L 675.114827 138.842711 
L 675.190757 138.832384 
L 675.266688 138.41853 
L 675.418548 136.050239 
L 675.874131 135.033511 
L 675.950062 134.604259 
L 676.253783 134.104503 
L 676.481575 132.87919 
L 677.013088 132.40729 
L 678.911349 132.33372 
L 679.063209 131.878528 
L 679.13914 130.57196 
L 679.366931 130.13311 
L 679.518792 124.995233 
L 679.670653 123.451202 
L 679.974375 121.986171 
L 680.202166 117.656366 
L 680.429957 117.049345 
L 680.581818 114.281575 
L 680.581818 114.281575 
" style="fill:none;stroke:#348dc1;stroke-linecap:round;stroke-width:1.5;"/>
   </g>
   <g id="line2d_10">
    <path clip-path="url(#p13cbd087fb)" d="M 79.6 112.935806 
L 709.2 112.935806 
" style="fill:none;stroke:#ff0000;stroke-dasharray:5.55,2.4;stroke-dashoffset:0;stroke-width:1.5;"/>
   </g>
   <g id="line2d_11">
    <path clip-path="url(#p13cbd087fb)" d="M 79.6 163.162507 
L 709.2 163.162507 
" style="fill:none;stroke:#000000;stroke-dasharray:3.7,1.6;stroke-dashoffset:0;"/>
   </g>
   <g id="text_10">
    <!--  -->
    <g style="fill:#808080;" transform="translate(394.4 22.362625)scale(0.12 -0.12)"/>
    <!-- 18 Oct '00 - 22 Dec '21                    -->
    <defs>
     <path id="DejaVuSans-32"/>
     <path d="M 39.40625 66.21875 
Q 28.65625 66.21875 22.328125 58.203125 
Q 16.015625 50.203125 16.015625 36.375 
Q 16.015625 22.609375 22.328125 14.59375 
Q 28.65625 6.59375 39.40625 6.59375 
Q 50.140625 6.59375 56.421875 14.59375 
Q 62.703125 22.609375 62.703125 36.375 
Q 62.703125 50.203125 56.421875 58.203125 
Q 50.140625 66.21875 39.40625 66.21875 
z
M 39.40625 74.21875 
Q 54.734375 74.21875 63.90625 63.9375 
Q 73.09375 53.65625 73.09375 36.375 
Q 73.09375 19.140625 63.90625 8.859375 
Q 54.734375 -1.421875 39.40625 -1.421875 
Q 24.03125 -1.421875 14.8125 8.828125 
Q 5.609375 19.09375 5.609375 36.375 
Q 5.609375 53.65625 14.8125 63.9375 
Q 24.03125 74.21875 39.40625 74.21875 
z
" id="DejaVuSans-79"/>
     <path d="M 48.78125 52.59375 
L 48.78125 44.1875 
Q 44.96875 46.296875 41.140625 47.34375 
Q 37.3125 48.390625 33.40625 48.390625 
Q 24.65625 48.390625 19.8125 42.84375 
Q 14.984375 37.3125 14.984375 27.296875 
Q 14.984375 17.28125 19.8125 11.734375 
Q 24.65625 6.203125 33.40625 6.203125 
Q 37.3125 6.203125 41.140625 7.25 
Q 44.96875 8.296875 48.78125 10.40625 
L 48.78125 2.09375 
Q 45.015625 0.34375 40.984375 -0.53125 
Q 36.96875 -1.421875 32.421875 -1.421875 
Q 20.0625 -1.421875 12.78125 6.34375 
Q 5.515625 14.109375 5.515625 27.296875 
Q 5.515625 40.671875 12.859375 48.328125 
Q 20.21875 56 33.015625 56 
Q 37.15625 56 41.109375 55.140625 
Q 45.0625 54.296875 48.78125 52.59375 
z
" id="DejaVuSans-99"/>
     <path d="M 18.3125 70.21875 
L 18.3125 54.6875 
L 36.8125 54.6875 
L 36.8125 47.703125 
L 18.3125 47.703125 
L 18.3125 18.015625 
Q 18.3125 11.328125 20.140625 9.421875 
Q 21.96875 7.515625 27.59375 7.515625 
L 36.8125 7.515625 
L 36.8125 0 
L 27.59375 0 
Q 17.1875 0 13.234375 3.875 
Q 9.28125 7.765625 9.28125 18.015625 
L 9.28125 47.703125 
L 2.6875 47.703125 
L 2.6875 54.6875 
L 9.28125 54.6875 
L 9.28125 70.21875 
z
" id="DejaVuSans-116"/>
     <path d="M 17.921875 72.90625 
L 17.921875 45.796875 
L 9.625 45.796875 
L 9.625 72.90625 
z
" id="DejaVuSans-39"/>
     <path d="M 4.890625 31.390625 
L 31.203125 31.390625 
L 31.203125 23.390625 
L 4.890625 23.390625 
z
" id="DejaVuSans-45"/>
     <path d="M 19.671875 64.796875 
L 19.671875 8.109375 
L 31.59375 8.109375 
Q 46.6875 8.109375 53.6875 14.9375 
Q 60.6875 21.78125 60.6875 36.53125 
Q 60.6875 51.171875 53.6875 57.984375 
Q 46.6875 64.796875 31.59375 64.796875 
z
M 9.8125 72.90625 
L 30.078125 72.90625 
Q 51.265625 72.90625 61.171875 64.09375 
Q 71.09375 55.28125 71.09375 36.53125 
Q 71.09375 17.671875 61.125 8.828125 
Q 51.171875 0 30.078125 0 
L 9.8125 0 
z
" id="DejaVuSans-68"/>
     <path d="M 56.203125 29.59375 
L 56.203125 25.203125 
L 14.890625 25.203125 
Q 15.484375 15.921875 20.484375 11.0625 
Q 25.484375 6.203125 34.421875 6.203125 
Q 39.59375 6.203125 44.453125 7.46875 
Q 49.3125 8.734375 54.109375 11.28125 
L 54.109375 2.78125 
Q 49.265625 0.734375 44.1875 -0.34375 
Q 39.109375 -1.421875 33.890625 -1.421875 
Q 20.796875 -1.421875 13.15625 6.1875 
Q 5.515625 13.8125 5.515625 26.8125 
Q 5.515625 40.234375 12.765625 48.109375 
Q 20.015625 56 32.328125 56 
Q 43.359375 56 49.78125 48.890625 
Q 56.203125 41.796875 56.203125 29.59375 
z
M 47.21875 32.234375 
Q 47.125 39.59375 43.09375 43.984375 
Q 39.0625 48.390625 32.421875 48.390625 
Q 24.90625 48.390625 20.390625 44.140625 
Q 15.875 39.890625 15.1875 32.171875 
z
" id="DejaVuSans-101"/>
    </defs>
    <g style="fill:#808080;" transform="translate(288.74 35.8)scale(0.12 -0.12)">
     <use xlink:href="#DejaVuSans-49"/>
     <use x="63.623047" xlink:href="#DejaVuSans-56"/>
     <use x="127.246094" xlink:href="#DejaVuSans-32"/>
     <use x="159.033203" xlink:href="#DejaVuSans-79"/>
     <use x="237.744141" xlink:href="#DejaVuSans-99"/>
     <use x="292.724609" xlink:href="#DejaVuSans-116"/>
     <use x="331.933594" xlink:href="#DejaVuSans-32"/>
     <use x="363.720703" xlink:href="#DejaVuSans-39"/>
     <use x="391.210938" xlink:href="#DejaVuSans-48"/>
     <use x="454.833984" xlink:href="#DejaVuSans-48"/>
     <use x="518.457031" xlink:href="#DejaVuSans-32"/>
     <use x="550.244141" xlink:href="#DejaVuSans-45"/>
     <use x="586.328125" xlink:href="#DejaVuSans-32"/>
     <use x="618.115234" xlink:href="#DejaVuSans-50"/>
     <use x="681.738281" xlink:href="#DejaVuSans-50"/>
     <use x="745.361328" xlink:href="#DejaVuSans-32"/>
     <use x="777.148438" xlink:href="#DejaVuSans-68"/>
     <use x="854.150391" xlink:href="#DejaVuSans-101"/>
     <use x="915.673828" xlink:href="#DejaVuSans-99"/>
     <use x="970.654297" xlink:href="#DejaVuSans-32"/>
     <use x="1002.441406" xlink:href="#DejaVuSans-39"/>
     <use x="1029.931641" xlink:href="#DejaVuSans-50"/>
     <use x="1093.554688" xlink:href="#DejaVuSans-49"/>
     <use x="1157.177734" xlink:href="#DejaVuSans-32"/>
     <use x="1188.964844" xlink:href="#DejaVuSans-32"/>
     <use x="1220.751953" xlink:href="#DejaVuSans-32"/>
     <use x="1252.539062" xlink:href="#DejaVuSans-32"/>
     <use x="1284.326172" xlink:href="#DejaVuSans-32"/>
     <use x="1316.113281" xlink:href="#DejaVuSans-32"/>
     <use x="1347.900391" xlink:href="#DejaVuSans-32"/>
     <use x="1379.6875" xlink:href="#DejaVuSans-32"/>
     <use x="1411.474609" xlink:href="#DejaVuSans-32"/>
     <use x="1443.261719" xlink:href="#DejaVuSans-32"/>
     <use x="1475.048828" xlink:href="#DejaVuSans-32"/>
     <use x="1506.835938" xlink:href="#DejaVuSans-32"/>
     <use x="1538.623047" xlink:href="#DejaVuSans-32"/>
     <use x="1570.410156" xlink:href="#DejaVuSans-32"/>
     <use x="1602.197266" xlink:href="#DejaVuSans-32"/>
     <use x="1633.984375" xlink:href="#DejaVuSans-32"/>
     <use x="1665.771484" xlink:href="#DejaVuSans-32"/>
     <use x="1697.558594" xlink:href="#DejaVuSans-32"/>
     <use x="1729.345703" xlink:href="#DejaVuSans-32"/>
    </g>
   </g>
   <g id="legend_1">
    <g id="patch_3">
     <path d="M 610.981875 69.01375 
L 700.8 69.01375 
Q 703.2 69.01375 703.2 66.61375 
L 703.2 50.2 
Q 703.2 47.8 700.8 47.8 
L 610.981875 47.8 
Q 608.581875 47.8 608.581875 50.2 
L 608.581875 66.61375 
Q 608.581875 69.01375 610.981875 69.01375 
z
" style="fill:#ffffff;opacity:0.8;stroke:#cccccc;stroke-linejoin:miter;"/>
    </g>
    <g id="line2d_12">
     <path d="M 613.381875 57.518125 
L 637.381875 57.518125 
" style="fill:none;stroke:#348dc1;stroke-linecap:round;stroke-width:1.5;"/>
    </g>
    <g id="line2d_13"/>
    <g id="text_11">
     <!-- Strategy -->
     <defs>
      <path d="M 53.515625 70.515625 
L 53.515625 60.890625 
Q 47.90625 63.578125 42.921875 64.890625 
Q 37.9375 66.21875 33.296875 66.21875 
Q 25.25 66.21875 20.875 63.09375 
Q 16.5 59.96875 16.5 54.203125 
Q 16.5 49.359375 19.40625 46.890625 
Q 22.3125 44.4375 30.421875 42.921875 
L 36.375 41.703125 
Q 47.40625 39.59375 52.65625 34.296875 
Q 57.90625 29 57.90625 20.125 
Q 57.90625 9.515625 50.796875 4.046875 
Q 43.703125 -1.421875 29.984375 -1.421875 
Q 24.8125 -1.421875 18.96875 -0.25 
Q 13.140625 0.921875 6.890625 3.21875 
L 6.890625 13.375 
Q 12.890625 10.015625 18.65625 8.296875 
Q 24.421875 6.59375 29.984375 6.59375 
Q 38.421875 6.59375 43.015625 9.90625 
Q 47.609375 13.234375 47.609375 19.390625 
Q 47.609375 24.75 44.3125 27.78125 
Q 41.015625 30.8125 33.5 32.328125 
L 27.484375 33.5 
Q 16.453125 35.6875 11.515625 40.375 
Q 6.59375 45.0625 6.59375 53.421875 
Q 6.59375 63.09375 13.40625 68.65625 
Q 20.21875 74.21875 32.171875 74.21875 
Q 37.3125 74.21875 42.625 73.28125 
Q 47.953125 72.359375 53.515625 70.515625 
z
" id="DejaVuSans-83"/>
      <path d="M 41.109375 46.296875 
Q 39.59375 47.171875 37.8125 47.578125 
Q 36.03125 48 33.890625 48 
Q 26.265625 48 22.1875 43.046875 
Q 18.109375 38.09375 18.109375 28.8125 
L 18.109375 0 
L 9.078125 0 
L 9.078125 54.6875 
L 18.109375 54.6875 
L 18.109375 46.1875 
Q 20.953125 51.171875 25.484375 53.578125 
Q 30.03125 56 36.53125 56 
Q 37.453125 56 38.578125 55.875 
Q 39.703125 55.765625 41.0625 55.515625 
z
" id="DejaVuSans-114"/>
      <path d="M 34.28125 27.484375 
Q 23.390625 27.484375 19.1875 25 
Q 14.984375 22.515625 14.984375 16.5 
Q 14.984375 11.71875 18.140625 8.90625 
Q 21.296875 6.109375 26.703125 6.109375 
Q 34.1875 6.109375 38.703125 11.40625 
Q 43.21875 16.703125 43.21875 25.484375 
L 43.21875 27.484375 
z
M 52.203125 31.203125 
L 52.203125 0 
L 43.21875 0 
L 43.21875 8.296875 
Q 40.140625 3.328125 35.546875 0.953125 
Q 30.953125 -1.421875 24.3125 -1.421875 
Q 15.921875 -1.421875 10.953125 3.296875 
Q 6 8.015625 6 15.921875 
Q 6 25.140625 12.171875 29.828125 
Q 18.359375 34.515625 30.609375 34.515625 
L 43.21875 34.515625 
L 43.21875 35.40625 
Q 43.21875 41.609375 39.140625 45 
Q 35.0625 48.390625 27.6875 48.390625 
Q 23 48.390625 18.546875 47.265625 
Q 14.109375 46.140625 10.015625 43.890625 
L 10.015625 52.203125 
Q 14.9375 54.109375 19.578125 55.046875 
Q 24.21875 56 28.609375 56 
Q 40.484375 56 46.34375 49.84375 
Q 52.203125 43.703125 52.203125 31.203125 
z
" id="DejaVuSans-97"/>
      <path d="M 45.40625 27.984375 
Q 45.40625 37.75 41.375 43.109375 
Q 37.359375 48.484375 30.078125 48.484375 
Q 22.859375 48.484375 18.828125 43.109375 
Q 14.796875 37.75 14.796875 27.984375 
Q 14.796875 18.265625 18.828125 12.890625 
Q 22.859375 7.515625 30.078125 7.515625 
Q 37.359375 7.515625 41.375 12.890625 
Q 45.40625 18.265625 45.40625 27.984375 
z
M 54.390625 6.78125 
Q 54.390625 -7.171875 48.1875 -13.984375 
Q 42 -20.796875 29.203125 -20.796875 
Q 24.46875 -20.796875 20.265625 -20.09375 
Q 16.0625 -19.390625 12.109375 -17.921875 
L 12.109375 -9.1875 
Q 16.0625 -11.328125 19.921875 -12.34375 
Q 23.78125 -13.375 27.78125 -13.375 
Q 36.625 -13.375 41.015625 -8.765625 
Q 45.40625 -4.15625 45.40625 5.171875 
L 45.40625 9.625 
Q 42.625 4.78125 38.28125 2.390625 
Q 33.9375 0 27.875 0 
Q 17.828125 0 11.671875 7.65625 
Q 5.515625 15.328125 5.515625 27.984375 
Q 5.515625 40.671875 11.671875 48.328125 
Q 17.828125 56 27.875 56 
Q 33.9375 56 38.28125 53.609375 
Q 42.625 51.21875 45.40625 46.390625 
L 45.40625 54.6875 
L 54.390625 54.6875 
z
" id="DejaVuSans-103"/>
      <path d="M 32.171875 -5.078125 
Q 28.375 -14.84375 24.75 -17.8125 
Q 21.140625 -20.796875 15.09375 -20.796875 
L 7.90625 -20.796875 
L 7.90625 -13.28125 
L 13.1875 -13.28125 
Q 16.890625 -13.28125 18.9375 -11.515625 
Q 21 -9.765625 23.484375 -3.21875 
L 25.09375 0.875 
L 2.984375 54.6875 
L 12.5 54.6875 
L 29.59375 11.921875 
L 46.6875 54.6875 
L 56.203125 54.6875 
z
" id="DejaVuSans-121"/>
     </defs>
     <g style="fill:#333333;" transform="translate(646.981875 61.718125)scale(0.12 -0.12)">
      <use xlink:href="#DejaVuSans-83"/>
      <use x="63.476562" xlink:href="#DejaVuSans-116"/>
      <use x="102.685547" xlink:href="#DejaVuSans-114"/>
      <use x="143.798828" xlink:href="#DejaVuSans-97"/>
      <use x="205.078125" xlink:href="#DejaVuSans-116"/>
      <use x="244.287109" xlink:href="#DejaVuSans-101"/>
      <use x="305.810547" xlink:href="#DejaVuSans-103"/>
      <use x="369.287109" xlink:href="#DejaVuSans-121"/>
     </g>
    </g>
   </g>
  </g>
  <g id="text_12">
   <!-- Rolling Volatility (6-Months) -->
   <defs>
    <path d="M 35.890625 40.578125 
Q 41.796875 40.578125 44.359375 42.765625 
Q 46.921875 44.96875 46.921875 50 
Q 46.921875 54.984375 44.359375 57.125 
Q 41.796875 59.28125 35.890625 59.28125 
L 27.984375 59.28125 
L 27.984375 40.578125 
z
M 27.984375 27.59375 
L 27.984375 0 
L 9.1875 0 
L 9.1875 72.90625 
L 37.890625 72.90625 
Q 52.296875 72.90625 59 68.0625 
Q 65.71875 63.234375 65.71875 52.78125 
Q 65.71875 45.5625 62.21875 40.921875 
Q 58.734375 36.28125 51.703125 34.078125 
Q 55.5625 33.203125 58.609375 30.09375 
Q 61.671875 27 64.796875 20.703125 
L 75 0 
L 54.984375 0 
L 46.09375 18.109375 
Q 43.40625 23.578125 40.640625 25.578125 
Q 37.890625 27.59375 33.296875 27.59375 
z
" id="DejaVuSans-Bold-82"/>
    <path d="M 63.375 33.296875 
L 63.375 0 
L 45.796875 0 
L 45.796875 5.421875 
L 45.796875 25.484375 
Q 45.796875 32.5625 45.484375 35.25 
Q 45.171875 37.9375 44.390625 39.203125 
Q 43.359375 40.921875 41.59375 41.875 
Q 39.84375 42.828125 37.59375 42.828125 
Q 32.125 42.828125 29 38.59375 
Q 25.875 34.375 25.875 26.90625 
L 25.875 0 
L 8.40625 0 
L 8.40625 54.6875 
L 25.875 54.6875 
L 25.875 46.6875 
Q 29.828125 51.46875 34.265625 53.734375 
Q 38.71875 56 44.09375 56 
Q 53.5625 56 58.46875 50.1875 
Q 63.375 44.390625 63.375 33.296875 
z
" id="DejaVuSans-Bold-110"/>
    <path d="M 45.609375 9.28125 
Q 42 4.5 37.640625 2.25 
Q 33.296875 0 27.59375 0 
Q 17.578125 0 11.03125 7.875 
Q 4.5 15.765625 4.5 27.984375 
Q 4.5 40.234375 11.03125 48.0625 
Q 17.578125 55.90625 27.59375 55.90625 
Q 33.296875 55.90625 37.640625 53.65625 
Q 42 51.421875 45.609375 46.578125 
L 45.609375 54.6875 
L 63.1875 54.6875 
L 63.1875 5.515625 
Q 63.1875 -7.671875 54.859375 -14.625 
Q 46.53125 -21.578125 30.71875 -21.578125 
Q 25.59375 -21.578125 20.796875 -20.796875 
Q 16.015625 -20.015625 11.1875 -18.40625 
L 11.1875 -4.78125 
Q 15.765625 -7.421875 20.15625 -8.71875 
Q 24.5625 -10.015625 29 -10.015625 
Q 37.59375 -10.015625 41.59375 -6.25 
Q 45.609375 -2.484375 45.609375 5.515625 
z
M 34.078125 43.3125 
Q 28.65625 43.3125 25.625 39.296875 
Q 22.609375 35.296875 22.609375 27.984375 
Q 22.609375 20.453125 25.53125 16.578125 
Q 28.46875 12.703125 34.078125 12.703125 
Q 39.546875 12.703125 42.578125 16.703125 
Q 45.609375 20.703125 45.609375 27.984375 
Q 45.609375 35.296875 42.578125 39.296875 
Q 39.546875 43.3125 34.078125 43.3125 
z
" id="DejaVuSans-Bold-103"/>
    <path id="DejaVuSans-Bold-32"/>
    <path d="M 37.703125 -13.1875 
L 23.1875 -13.1875 
Q 15.71875 -1.125 12.15625 9.734375 
Q 8.59375 20.609375 8.59375 31.296875 
Q 8.59375 42 12.171875 52.953125 
Q 15.765625 63.921875 23.1875 75.875 
L 37.703125 75.875 
Q 31.453125 64.3125 28.328125 53.25 
Q 25.203125 42.1875 25.203125 31.390625 
Q 25.203125 20.609375 28.296875 9.515625 
Q 31.390625 -1.5625 37.703125 -13.1875 
z
" id="DejaVuSans-Bold-40"/>
    <path d="M 36.1875 35.984375 
Q 31.25 35.984375 28.78125 32.78125 
Q 26.3125 29.59375 26.3125 23.1875 
Q 26.3125 16.796875 28.78125 13.59375 
Q 31.25 10.40625 36.1875 10.40625 
Q 41.15625 10.40625 43.625 13.59375 
Q 46.09375 16.796875 46.09375 23.1875 
Q 46.09375 29.59375 43.625 32.78125 
Q 41.15625 35.984375 36.1875 35.984375 
z
M 59.421875 71 
L 59.421875 57.515625 
Q 54.78125 59.71875 50.671875 60.765625 
Q 46.578125 61.8125 42.671875 61.8125 
Q 34.28125 61.8125 29.59375 57.140625 
Q 24.90625 52.484375 24.125 43.3125 
Q 27.34375 45.703125 31.09375 46.890625 
Q 34.859375 48.09375 39.3125 48.09375 
Q 50.484375 48.09375 57.34375 41.546875 
Q 64.203125 35.015625 64.203125 24.421875 
Q 64.203125 12.703125 56.53125 5.640625 
Q 48.875 -1.421875 35.984375 -1.421875 
Q 21.78125 -1.421875 13.984375 8.171875 
Q 6.203125 17.78125 6.203125 35.40625 
Q 6.203125 53.46875 15.3125 63.796875 
Q 24.421875 74.125 40.28125 74.125 
Q 45.3125 74.125 50.046875 73.34375 
Q 54.78125 72.5625 59.421875 71 
z
" id="DejaVuSans-Bold-54"/>
    <path d="M 5.421875 35.890625 
L 36.078125 35.890625 
L 36.078125 21.6875 
L 5.421875 21.6875 
z
" id="DejaVuSans-Bold-45"/>
    <path d="M 9.1875 72.90625 
L 33.109375 72.90625 
L 49.703125 33.890625 
L 66.40625 72.90625 
L 90.28125 72.90625 
L 90.28125 0 
L 72.515625 0 
L 72.515625 53.328125 
L 55.71875 14.015625 
L 43.796875 14.015625 
L 27 53.328125 
L 27 0 
L 9.1875 0 
z
" id="DejaVuSans-Bold-77"/>
    <path d="M 63.375 33.296875 
L 63.375 0 
L 45.796875 0 
L 45.796875 5.421875 
L 45.796875 25.390625 
Q 45.796875 32.5625 45.484375 35.25 
Q 45.171875 37.9375 44.390625 39.203125 
Q 43.359375 40.921875 41.59375 41.875 
Q 39.84375 42.828125 37.59375 42.828125 
Q 32.125 42.828125 29 38.59375 
Q 25.875 34.375 25.875 26.90625 
L 25.875 0 
L 8.40625 0 
L 8.40625 75.984375 
L 25.875 75.984375 
L 25.875 46.6875 
Q 29.828125 51.46875 34.265625 53.734375 
Q 38.71875 56 44.09375 56 
Q 53.5625 56 58.46875 50.1875 
Q 63.375 44.390625 63.375 33.296875 
z
" id="DejaVuSans-Bold-104"/>
    <path d="M 51.125 52.984375 
L 51.125 39.703125 
Q 45.515625 42.046875 40.28125 43.21875 
Q 35.0625 44.390625 30.421875 44.390625 
Q 25.4375 44.390625 23.015625 43.140625 
Q 20.609375 41.890625 20.609375 39.3125 
Q 20.609375 37.203125 22.4375 36.078125 
Q 24.265625 34.96875 29 34.421875 
L 32.078125 33.984375 
Q 45.515625 32.28125 50.140625 28.375 
Q 54.78125 24.46875 54.78125 16.109375 
Q 54.78125 7.375 48.328125 2.96875 
Q 41.890625 -1.421875 29.109375 -1.421875 
Q 23.6875 -1.421875 17.890625 -0.5625 
Q 12.109375 0.296875 6 2 
L 6 15.28125 
Q 11.234375 12.75 16.71875 11.46875 
Q 22.21875 10.203125 27.875 10.203125 
Q 33.015625 10.203125 35.59375 11.609375 
Q 38.1875 13.03125 38.1875 15.828125 
Q 38.1875 18.171875 36.40625 19.3125 
Q 34.625 20.453125 29.296875 21.09375 
L 26.21875 21.484375 
Q 14.546875 22.953125 9.859375 26.90625 
Q 5.171875 30.859375 5.171875 38.921875 
Q 5.171875 47.609375 11.125 51.796875 
Q 17.09375 56 29.390625 56 
Q 34.234375 56 39.546875 55.265625 
Q 44.875 54.546875 51.125 52.984375 
z
" id="DejaVuSans-Bold-115"/>
    <path d="M 8.015625 -13.1875 
Q 14.265625 -1.5625 17.390625 9.515625 
Q 20.515625 20.609375 20.515625 31.390625 
Q 20.515625 42.1875 17.390625 53.25 
Q 14.265625 64.3125 8.015625 75.875 
L 22.515625 75.875 
Q 29.9375 63.921875 33.515625 52.953125 
Q 37.109375 42 37.109375 31.296875 
Q 37.109375 20.609375 33.546875 9.734375 
Q 29.984375 -1.125 22.515625 -13.1875 
z
" id="DejaVuSans-Bold-41"/>
   </defs>
   <g transform="translate(248.888125 12.797812)scale(0.14 -0.14)">
    <use xlink:href="#DejaVuSans-Bold-82"/>
    <use x="77.001953" xlink:href="#DejaVuSans-Bold-111"/>
    <use x="145.703125" xlink:href="#DejaVuSans-Bold-108"/>
    <use x="179.980469" xlink:href="#DejaVuSans-Bold-108"/>
    <use x="214.257812" xlink:href="#DejaVuSans-Bold-105"/>
    <use x="248.535156" xlink:href="#DejaVuSans-Bold-110"/>
    <use x="319.726562" xlink:href="#DejaVuSans-Bold-103"/>
    <use x="391.308594" xlink:href="#DejaVuSans-Bold-32"/>
    <use x="426.123047" xlink:href="#DejaVuSans-Bold-86"/>
    <use x="498.015625" xlink:href="#DejaVuSans-Bold-111"/>
    <use x="566.716797" xlink:href="#DejaVuSans-Bold-108"/>
    <use x="600.994141" xlink:href="#DejaVuSans-Bold-97"/>
    <use x="668.474609" xlink:href="#DejaVuSans-Bold-116"/>
    <use x="716.277344" xlink:href="#DejaVuSans-Bold-105"/>
    <use x="750.554688" xlink:href="#DejaVuSans-Bold-108"/>
    <use x="784.832031" xlink:href="#DejaVuSans-Bold-105"/>
    <use x="819.109375" xlink:href="#DejaVuSans-Bold-116"/>
    <use x="866.912109" xlink:href="#DejaVuSans-Bold-121"/>
    <use x="932.097656" xlink:href="#DejaVuSans-Bold-32"/>
    <use x="966.912109" xlink:href="#DejaVuSans-Bold-40"/>
    <use x="1012.615234" xlink:href="#DejaVuSans-Bold-54"/>
    <use x="1082.195312" xlink:href="#DejaVuSans-Bold-45"/>
    <use x="1123.699219" xlink:href="#DejaVuSans-Bold-77"/>
    <use x="1223.210938" xlink:href="#DejaVuSans-Bold-111"/>
    <use x="1291.912109" xlink:href="#DejaVuSans-Bold-110"/>
    <use x="1363.103516" xlink:href="#DejaVuSans-Bold-116"/>
    <use x="1410.90625" xlink:href="#DejaVuSans-Bold-104"/>
    <use x="1482.097656" xlink:href="#DejaVuSans-Bold-115"/>
    <use x="1541.619141" xlink:href="#DejaVuSans-Bold-41"/>
   </g>
   <!--  -->
   <g transform="translate(360 28.584125)scale(0.14 -0.14)"/>
  </g>
 </g>
 <defs>
  <clipPath id="p13cbd087fb">
   <rect height="127.14167" width="629.6" x="79.6" y="41.8"/>
  </clipPath>
 </defs>
</svg>
