<?xml version="1.0" encoding="utf-8" standalone="no"?>
<!DOCTYPE svg PUBLIC "-//W3C//DTD SVG 1.1//EN"
  "http://www.w3.org/Graphics/SVG/1.1/DTD/svg11.dtd">
<!-- Created with matplotlib (https://matplotlib.org/) -->
<svg height="216pt" version="1.1" viewBox="0 0 720 216" width="720pt" xmlns="http://www.w3.org/2000/svg" xmlns:xlink="http://www.w3.org/1999/xlink">
 <defs>
  <style type="text/css">
*{stroke-linecap:butt;stroke-linejoin:round;}
  </style>
 </defs>
 <g id="figure_1">
  <g id="patch_1">
   <path d="M 0 216 
L 720 216 
L 720 0 
L 0 0 
z
" style="fill:#ffffff;"/>
  </g>
  <g id="axes_1">
   <g id="patch_2">
    <path d="M 79.6 168.94167 
L 709.2 168.94167 
L 709.2 41.8 
L 79.6 41.8 
z
" style="fill:#ffffff;"/>
   </g>
   <g id="matplotlib.axis_1">
    <g id="xtick_1">
     <g id="line2d_1">
      <path clip-path="url(#pf170a388e2)" d="M 182.098497 168.94167 
L 182.098497 41.8 
" style="fill:none;stroke:#dddddd;stroke-linecap:round;stroke-width:0.5;"/>
     </g>
     <g id="text_1">
      <!-- 2004 -->
      <defs>
       <path d="M 19.1875 8.296875 
L 53.609375 8.296875 
L 53.609375 0 
L 7.328125 0 
L 7.328125 8.296875 
Q 12.9375 14.109375 22.625 23.890625 
Q 32.328125 33.6875 34.8125 36.53125 
Q 39.546875 41.84375 41.421875 45.53125 
Q 43.3125 49.21875 43.3125 52.78125 
Q 43.3125 58.59375 39.234375 62.25 
Q 35.15625 65.921875 28.609375 65.921875 
Q 23.96875 65.921875 18.8125 64.3125 
Q 13.671875 62.703125 7.8125 59.421875 
L 7.8125 69.390625 
Q 13.765625 71.78125 18.9375 73 
Q 24.125 74.21875 28.421875 74.21875 
Q 39.75 74.21875 46.484375 68.546875 
Q 53.21875 62.890625 53.21875 53.421875 
Q 53.21875 48.921875 51.53125 44.890625 
Q 49.859375 40.875 45.40625 35.40625 
Q 44.1875 33.984375 37.640625 27.21875 
Q 31.109375 20.453125 19.1875 8.296875 
z
" id="DejaVuSans-50"/>
       <path d="M 31.78125 66.40625 
Q 24.171875 66.40625 20.328125 58.90625 
Q 16.5 51.421875 16.5 36.375 
Q 16.5 21.390625 20.328125 13.890625 
Q 24.171875 6.390625 31.78125 6.390625 
Q 39.453125 6.390625 43.28125 13.890625 
Q 47.125 21.390625 47.125 36.375 
Q 47.125 51.421875 43.28125 58.90625 
Q 39.453125 66.40625 31.78125 66.40625 
z
M 31.78125 74.21875 
Q 44.046875 74.21875 50.515625 64.515625 
Q 56.984375 54.828125 56.984375 36.375 
Q 56.984375 17.96875 50.515625 8.265625 
Q 44.046875 -1.421875 31.78125 -1.421875 
Q 19.53125 -1.421875 13.0625 8.265625 
Q 6.59375 17.96875 6.59375 36.375 
Q 6.59375 54.828125 13.0625 64.515625 
Q 19.53125 74.21875 31.78125 74.21875 
z
" id="DejaVuSans-48"/>
       <path d="M 37.796875 64.3125 
L 12.890625 25.390625 
L 37.796875 25.390625 
z
M 35.203125 72.90625 
L 47.609375 72.90625 
L 47.609375 25.390625 
L 58.015625 25.390625 
L 58.015625 17.1875 
L 47.609375 17.1875 
L 47.609375 0 
L 37.796875 0 
L 37.796875 17.1875 
L 4.890625 17.1875 
L 4.890625 26.703125 
z
" id="DejaVuSans-52"/>
      </defs>
      <g style="fill:#666666;" transform="translate(154.171467 201.801252)rotate(-30)scale(0.121 -0.121)">
       <use xlink:href="#DejaVuSans-50"/>
       <use x="63.623047" xlink:href="#DejaVuSans-48"/>
       <use x="127.246094" xlink:href="#DejaVuSans-48"/>
       <use x="190.869141" xlink:href="#DejaVuSans-52"/>
      </g>
     </g>
    </g>
    <g id="xtick_2">
     <g id="line2d_2">
      <path clip-path="url(#pf170a388e2)" d="M 293.032866 168.94167 
L 293.032866 41.8 
" style="fill:none;stroke:#dddddd;stroke-linecap:round;stroke-width:0.5;"/>
     </g>
     <g id="text_2">
      <!-- 2008 -->
      <defs>
       <path d="M 31.78125 34.625 
Q 24.75 34.625 20.71875 30.859375 
Q 16.703125 27.09375 16.703125 20.515625 
Q 16.703125 13.921875 20.71875 10.15625 
Q 24.75 6.390625 31.78125 6.390625 
Q 38.8125 6.390625 42.859375 10.171875 
Q 46.921875 13.96875 46.921875 20.515625 
Q 46.921875 27.09375 42.890625 30.859375 
Q 38.875 34.625 31.78125 34.625 
z
M 21.921875 38.8125 
Q 15.578125 40.375 12.03125 44.71875 
Q 8.5 49.078125 8.5 55.328125 
Q 8.5 64.0625 14.71875 69.140625 
Q 20.953125 74.21875 31.78125 74.21875 
Q 42.671875 74.21875 48.875 69.140625 
Q 55.078125 64.0625 55.078125 55.328125 
Q 55.078125 49.078125 51.53125 44.71875 
Q 48 40.375 41.703125 38.8125 
Q 48.828125 37.15625 52.796875 32.3125 
Q 56.78125 27.484375 56.78125 20.515625 
Q 56.78125 9.90625 50.3125 4.234375 
Q 43.84375 -1.421875 31.78125 -1.421875 
Q 19.734375 -1.421875 13.25 4.234375 
Q 6.78125 9.90625 6.78125 20.515625 
Q 6.78125 27.484375 10.78125 32.3125 
Q 14.796875 37.15625 21.921875 38.8125 
z
M 18.3125 54.390625 
Q 18.3125 48.734375 21.84375 45.5625 
Q 25.390625 42.390625 31.78125 42.390625 
Q 38.140625 42.390625 41.71875 45.5625 
Q 45.3125 48.734375 45.3125 54.390625 
Q 45.3125 60.0625 41.71875 63.234375 
Q 38.140625 66.40625 31.78125 66.40625 
Q 25.390625 66.40625 21.84375 63.234375 
Q 18.3125 60.0625 18.3125 54.390625 
z
" id="DejaVuSans-56"/>
      </defs>
      <g style="fill:#666666;" transform="translate(265.105836 201.801252)rotate(-30)scale(0.121 -0.121)">
       <use xlink:href="#DejaVuSans-50"/>
       <use x="63.623047" xlink:href="#DejaVuSans-48"/>
       <use x="127.246094" xlink:href="#DejaVuSans-48"/>
       <use x="190.869141" xlink:href="#DejaVuSans-56"/>
      </g>
     </g>
    </g>
    <g id="xtick_3">
     <g id="line2d_3">
      <path clip-path="url(#pf170a388e2)" d="M 403.967235 168.94167 
L 403.967235 41.8 
" style="fill:none;stroke:#dddddd;stroke-linecap:round;stroke-width:0.5;"/>
     </g>
     <g id="text_3">
      <!-- 2012 -->
      <defs>
       <path d="M 12.40625 8.296875 
L 28.515625 8.296875 
L 28.515625 63.921875 
L 10.984375 60.40625 
L 10.984375 69.390625 
L 28.421875 72.90625 
L 38.28125 72.90625 
L 38.28125 8.296875 
L 54.390625 8.296875 
L 54.390625 0 
L 12.40625 0 
z
" id="DejaVuSans-49"/>
      </defs>
      <g style="fill:#666666;" transform="translate(376.040205 201.801252)rotate(-30)scale(0.121 -0.121)">
       <use xlink:href="#DejaVuSans-50"/>
       <use x="63.623047" xlink:href="#DejaVuSans-48"/>
       <use x="127.246094" xlink:href="#DejaVuSans-49"/>
       <use x="190.869141" xlink:href="#DejaVuSans-50"/>
      </g>
     </g>
    </g>
    <g id="xtick_4">
     <g id="line2d_4">
      <path clip-path="url(#pf170a388e2)" d="M 514.901604 168.94167 
L 514.901604 41.8 
" style="fill:none;stroke:#dddddd;stroke-linecap:round;stroke-width:0.5;"/>
     </g>
     <g id="text_4">
      <!-- 2016 -->
      <defs>
       <path d="M 33.015625 40.375 
Q 26.375 40.375 22.484375 35.828125 
Q 18.609375 31.296875 18.609375 23.390625 
Q 18.609375 15.53125 22.484375 10.953125 
Q 26.375 6.390625 33.015625 6.390625 
Q 39.65625 6.390625 43.53125 10.953125 
Q 47.40625 15.53125 47.40625 23.390625 
Q 47.40625 31.296875 43.53125 35.828125 
Q 39.65625 40.375 33.015625 40.375 
z
M 52.59375 71.296875 
L 52.59375 62.3125 
Q 48.875 64.0625 45.09375 64.984375 
Q 41.3125 65.921875 37.59375 65.921875 
Q 27.828125 65.921875 22.671875 59.328125 
Q 17.53125 52.734375 16.796875 39.40625 
Q 19.671875 43.65625 24.015625 45.921875 
Q 28.375 48.1875 33.59375 48.1875 
Q 44.578125 48.1875 50.953125 41.515625 
Q 57.328125 34.859375 57.328125 23.390625 
Q 57.328125 12.15625 50.6875 5.359375 
Q 44.046875 -1.421875 33.015625 -1.421875 
Q 20.359375 -1.421875 13.671875 8.265625 
Q 6.984375 17.96875 6.984375 36.375 
Q 6.984375 53.65625 15.1875 63.9375 
Q 23.390625 74.21875 37.203125 74.21875 
Q 40.921875 74.21875 44.703125 73.484375 
Q 48.484375 72.75 52.59375 71.296875 
z
" id="DejaVuSans-54"/>
      </defs>
      <g style="fill:#666666;" transform="translate(486.974574 201.801252)rotate(-30)scale(0.121 -0.121)">
       <use xlink:href="#DejaVuSans-50"/>
       <use x="63.623047" xlink:href="#DejaVuSans-48"/>
       <use x="127.246094" xlink:href="#DejaVuSans-49"/>
       <use x="190.869141" xlink:href="#DejaVuSans-54"/>
      </g>
     </g>
    </g>
    <g id="xtick_5">
     <g id="line2d_5">
      <path clip-path="url(#pf170a388e2)" d="M 625.835973 168.94167 
L 625.835973 41.8 
" style="fill:none;stroke:#dddddd;stroke-linecap:round;stroke-width:0.5;"/>
     </g>
     <g id="text_5">
      <!-- 2020 -->
      <g style="fill:#666666;" transform="translate(597.908943 201.801252)rotate(-30)scale(0.121 -0.121)">
       <use xlink:href="#DejaVuSans-50"/>
       <use x="63.623047" xlink:href="#DejaVuSans-48"/>
       <use x="127.246094" xlink:href="#DejaVuSans-50"/>
       <use x="190.869141" xlink:href="#DejaVuSans-48"/>
      </g>
     </g>
    </g>
   </g>
   <g id="matplotlib.axis_2">
    <g id="ytick_1">
     <g id="line2d_6">
      <path clip-path="url(#pf170a388e2)" d="M 79.6 163.162506 
L 709.2 163.162506 
" style="fill:none;stroke:#dddddd;stroke-linecap:round;stroke-width:0.5;"/>
     </g>
     <g id="text_6">
      <!-- 0.00 -->
      <defs>
       <path d="M 10.6875 12.40625 
L 21 12.40625 
L 21 0 
L 10.6875 0 
z
" id="DejaVuSans-46"/>
      </defs>
      <g style="fill:#666666;" transform="translate(43.158594 167.759561)scale(0.121 -0.121)">
       <use xlink:href="#DejaVuSans-48"/>
       <use x="63.623047" xlink:href="#DejaVuSans-46"/>
       <use x="95.410156" xlink:href="#DejaVuSans-48"/>
       <use x="159.033203" xlink:href="#DejaVuSans-48"/>
      </g>
     </g>
    </g>
    <g id="ytick_2">
     <g id="line2d_7">
      <path clip-path="url(#pf170a388e2)" d="M 79.6 120.849967 
L 709.2 120.849967 
" style="fill:none;stroke:#dddddd;stroke-linecap:round;stroke-width:0.5;"/>
     </g>
     <g id="text_7">
      <!-- 0.50 -->
      <defs>
       <path d="M 10.796875 72.90625 
L 49.515625 72.90625 
L 49.515625 64.59375 
L 19.828125 64.59375 
L 19.828125 46.734375 
Q 21.96875 47.46875 24.109375 47.828125 
Q 26.265625 48.1875 28.421875 48.1875 
Q 40.625 48.1875 47.75 41.5 
Q 54.890625 34.8125 54.890625 23.390625 
Q 54.890625 11.625 47.5625 5.09375 
Q 40.234375 -1.421875 26.90625 -1.421875 
Q 22.3125 -1.421875 17.546875 -0.640625 
Q 12.796875 0.140625 7.71875 1.703125 
L 7.71875 11.625 
Q 12.109375 9.234375 16.796875 8.0625 
Q 21.484375 6.890625 26.703125 6.890625 
Q 35.15625 6.890625 40.078125 11.328125 
Q 45.015625 15.765625 45.015625 23.390625 
Q 45.015625 31 40.078125 35.4375 
Q 35.15625 39.890625 26.703125 39.890625 
Q 22.75 39.890625 18.8125 39.015625 
Q 14.890625 38.140625 10.796875 36.28125 
z
" id="DejaVuSans-53"/>
      </defs>
      <g style="fill:#666666;" transform="translate(43.158594 125.447022)scale(0.121 -0.121)">
       <use xlink:href="#DejaVuSans-48"/>
       <use x="63.623047" xlink:href="#DejaVuSans-46"/>
       <use x="95.410156" xlink:href="#DejaVuSans-53"/>
       <use x="159.033203" xlink:href="#DejaVuSans-48"/>
      </g>
     </g>
    </g>
    <g id="ytick_3">
     <g id="line2d_8">
      <path clip-path="url(#pf170a388e2)" d="M 79.6 78.537429 
L 709.2 78.537429 
" style="fill:none;stroke:#dddddd;stroke-linecap:round;stroke-width:0.5;"/>
     </g>
     <g id="text_8">
      <!-- 1.00 -->
      <g style="fill:#666666;" transform="translate(43.158594 83.134483)scale(0.121 -0.121)">
       <use xlink:href="#DejaVuSans-49"/>
       <use x="63.623047" xlink:href="#DejaVuSans-46"/>
       <use x="95.410156" xlink:href="#DejaVuSans-48"/>
       <use x="159.033203" xlink:href="#DejaVuSans-48"/>
      </g>
     </g>
    </g>
    <g id="text_9">
     <!-- Volatility -->
     <defs>
      <path d="M 0.484375 72.90625 
L 19.390625 72.90625 
L 38.71875 19.09375 
L 58.015625 72.90625 
L 76.90625 72.90625 
L 49.90625 0 
L 27.484375 0 
z
" id="DejaVuSans-Bold-86"/>
      <path d="M 34.421875 43.5 
Q 28.609375 43.5 25.5625 39.328125 
Q 22.515625 35.15625 22.515625 27.296875 
Q 22.515625 19.4375 25.5625 15.25 
Q 28.609375 11.078125 34.421875 11.078125 
Q 40.140625 11.078125 43.15625 15.25 
Q 46.1875 19.4375 46.1875 27.296875 
Q 46.1875 35.15625 43.15625 39.328125 
Q 40.140625 43.5 34.421875 43.5 
z
M 34.421875 56 
Q 48.53125 56 56.46875 48.375 
Q 64.40625 40.765625 64.40625 27.296875 
Q 64.40625 13.8125 56.46875 6.1875 
Q 48.53125 -1.421875 34.421875 -1.421875 
Q 20.265625 -1.421875 12.28125 6.1875 
Q 4.296875 13.8125 4.296875 27.296875 
Q 4.296875 40.765625 12.28125 48.375 
Q 20.265625 56 34.421875 56 
z
" id="DejaVuSans-Bold-111"/>
      <path d="M 8.40625 75.984375 
L 25.875 75.984375 
L 25.875 0 
L 8.40625 0 
z
" id="DejaVuSans-Bold-108"/>
      <path d="M 32.90625 24.609375 
Q 27.4375 24.609375 24.671875 22.75 
Q 21.921875 20.90625 21.921875 17.28125 
Q 21.921875 13.96875 24.140625 12.078125 
Q 26.375 10.203125 30.328125 10.203125 
Q 35.25 10.203125 38.625 13.734375 
Q 42 17.28125 42 22.609375 
L 42 24.609375 
z
M 59.625 31.203125 
L 59.625 0 
L 42 0 
L 42 8.109375 
Q 38.484375 3.125 34.078125 0.84375 
Q 29.6875 -1.421875 23.390625 -1.421875 
Q 14.890625 -1.421875 9.59375 3.53125 
Q 4.296875 8.5 4.296875 16.40625 
Q 4.296875 26.03125 10.90625 30.515625 
Q 17.53125 35.015625 31.6875 35.015625 
L 42 35.015625 
L 42 36.375 
Q 42 40.53125 38.71875 42.453125 
Q 35.453125 44.390625 28.515625 44.390625 
Q 22.90625 44.390625 18.0625 43.265625 
Q 13.234375 42.140625 9.078125 39.890625 
L 9.078125 53.21875 
Q 14.703125 54.59375 20.359375 55.296875 
Q 26.03125 56 31.6875 56 
Q 46.484375 56 53.046875 50.171875 
Q 59.625 44.34375 59.625 31.203125 
z
" id="DejaVuSans-Bold-97"/>
      <path d="M 27.484375 70.21875 
L 27.484375 54.6875 
L 45.515625 54.6875 
L 45.515625 42.1875 
L 27.484375 42.1875 
L 27.484375 19 
Q 27.484375 15.1875 29 13.84375 
Q 30.515625 12.5 35.015625 12.5 
L 44 12.5 
L 44 0 
L 29 0 
Q 18.65625 0 14.328125 4.3125 
Q 10.015625 8.640625 10.015625 19 
L 10.015625 42.1875 
L 1.3125 42.1875 
L 1.3125 54.6875 
L 10.015625 54.6875 
L 10.015625 70.21875 
z
" id="DejaVuSans-Bold-116"/>
      <path d="M 8.40625 54.6875 
L 25.875 54.6875 
L 25.875 0 
L 8.40625 0 
z
M 8.40625 75.984375 
L 25.875 75.984375 
L 25.875 61.71875 
L 8.40625 61.71875 
z
" id="DejaVuSans-Bold-105"/>
      <path d="M 1.21875 54.6875 
L 18.703125 54.6875 
L 33.40625 17.578125 
L 45.90625 54.6875 
L 63.375 54.6875 
L 40.375 -5.171875 
Q 36.921875 -14.3125 32.296875 -17.9375 
Q 27.6875 -21.578125 20.125 -21.578125 
L 10.015625 -21.578125 
L 10.015625 -10.109375 
L 15.484375 -10.109375 
Q 19.921875 -10.109375 21.9375 -8.6875 
Q 23.96875 -7.28125 25.09375 -3.609375 
L 25.59375 -2.09375 
z
" id="DejaVuSans-Bold-121"/>
     </defs>
     <g transform="translate(14.050625 135.729897)rotate(-90)scale(0.12 -0.12)">
      <use xlink:href="#DejaVuSans-Bold-86"/>
      <use x="71.892578" xlink:href="#DejaVuSans-Bold-111"/>
      <use x="140.59375" xlink:href="#DejaVuSans-Bold-108"/>
      <use x="174.871094" xlink:href="#DejaVuSans-Bold-97"/>
      <use x="242.351562" xlink:href="#DejaVuSans-Bold-116"/>
      <use x="290.154297" xlink:href="#DejaVuSans-Bold-105"/>
      <use x="324.431641" xlink:href="#DejaVuSans-Bold-108"/>
      <use x="358.708984" xlink:href="#DejaVuSans-Bold-105"/>
      <use x="392.986328" xlink:href="#DejaVuSans-Bold-116"/>
      <use x="440.789062" xlink:href="#DejaVuSans-Bold-121"/>
     </g>
    </g>
   </g>
   <g id="line2d_9">
    <path clip-path="url(#pf170a388e2)" d="M 108.218182 48.369272 
L 108.294112 48.011291 
L 108.521904 48.023441 
L 108.749695 47.579167 
L 108.825625 49.400085 
L 109.205278 49.637379 
L 109.357138 49.927463 
L 109.66086 50.02995 
L 109.812721 49.033023 
L 109.888651 54.866914 
L 110.192373 54.383491 
L 110.344234 61.606268 
L 110.647956 61.656271 
L 110.799817 60.969348 
L 111.255399 60.963703 
L 111.33133 60.963703 
L 111.786912 60.165366 
L 112.318425 60.071969 
L 112.546217 60.650061 
L 113.001799 60.651183 
L 113.07773 59.91535 
L 113.533312 59.535176 
L 113.988895 68.235104 
L 114.064825 67.980212 
L 114.140756 68.030589 
L 114.368547 67.833429 
L 114.444478 68.036141 
L 114.596339 67.635997 
L 114.90006 68.758471 
L 114.975991 68.734509 
L 115.051921 68.30821 
L 115.203782 69.386452 
L 115.583434 71.026517 
L 115.659365 71.038544 
L 115.735295 71.909145 
L 115.963086 71.935202 
L 116.039017 74.507305 
L 116.114947 74.494396 
L 116.494599 74.7485 
L 116.798321 76.545432 
L 117.177973 76.646926 
L 117.329834 76.489852 
L 117.785417 76.424086 
L 117.861347 76.51674 
L 119.379956 76.49461 
L 119.683678 77.285728 
L 119.835539 76.892515 
L 119.911469 76.998574 
L 120.291121 77.047144 
L 120.442982 76.226678 
L 120.746704 76.237909 
L 120.822634 75.972332 
L 121.050426 73.401204 
L 121.430078 72.548416 
L 121.581939 72.467287 
L 121.885661 72.579559 
L 122.113452 74.084676 
L 122.569034 105.25733 
L 122.644965 105.392411 
L 122.872756 105.351494 
L 122.948687 104.389836 
L 123.024617 104.433369 
L 123.4802 105.1041 
L 123.55613 105.70193 
L 123.935782 104.282077 
L 124.011713 104.939518 
L 124.239504 105.278031 
L 124.543226 105.393377 
L 124.619156 104.715306 
L 124.695087 104.838756 
L 124.771017 104.776715 
L 125.074739 104.970585 
L 125.30253 107.283024 
L 125.530322 108.068946 
L 125.606252 108.802274 
L 125.682182 108.540654 
L 125.834043 107.958866 
L 126.061835 107.958716 
L 126.213695 109.357244 
L 126.289626 109.161929 
L 126.365556 109.093628 
L 126.745209 109.049948 
L 126.897069 105.023683 
L 127.200791 104.394567 
L 127.276722 104.483657 
L 127.352652 104.512636 
L 127.428582 105.105318 
L 127.656374 104.995842 
L 127.732304 105.16516 
L 127.884165 104.362457 
L 127.960096 102.940234 
L 128.263817 101.284933 
L 128.415678 99.644438 
L 128.491609 99.740388 
L 128.871261 99.742784 
L 129.023122 101.389852 
L 129.326843 101.457894 
L 129.402774 101.761217 
L 129.478704 101.739729 
L 129.782426 101.613232 
L 130.086148 102.591719 
L 130.617661 99.858342 
L 130.921383 99.561612 
L 131.149174 99.605333 
L 131.452896 99.239073 
L 131.528826 99.379077 
L 131.604757 100.116336 
L 131.680687 99.561881 
L 131.908478 101.59701 
L 132.060339 100.25748 
L 132.743713 100.144767 
L 133.654878 99.251639 
L 133.730809 99.326619 
L 133.806739 99.722375 
L 134.034531 99.736139 
L 134.110461 100.043428 
L 134.186391 99.938419 
L 134.338252 98.206313 
L 134.566044 98.207551 
L 134.717904 97.566207 
L 134.869765 97.558053 
L 135.097557 97.321535 
L 135.249417 96.686055 
L 135.325348 97.105399 
L 135.780931 97.023317 
L 135.932791 98.021173 
L 136.236513 97.956034 
L 136.388374 95.513858 
L 136.464304 95.30182 
L 136.843957 99.624165 
L 137.223609 99.700246 
L 137.37547 99.544899 
L 137.527331 99.541234 
L 138.514426 99.509133 
L 138.590357 100.271218 
L 139.12187 100.387394 
L 139.349661 101.014778 
L 139.425592 101.735497 
L 139.501522 101.651374 
L 139.653383 101.348906 
L 139.881174 101.258009 
L 139.957105 100.987592 
L 140.108965 101.80619 
L 140.412687 101.862722 
L 140.9442 101.898168 
L 141.247922 103.452349 
L 141.475713 103.451631 
L 141.779435 103.965967 
L 142.083157 108.597863 
L 142.235018 108.977634 
L 142.61467 109.126452 
L 142.6906 109.22238 
L 142.842461 108.299927 
L 143.146183 106.934094 
L 143.373974 110.315091 
L 143.601766 110.624597 
L 143.753626 109.858784 
L 143.829557 109.993087 
L 143.905487 109.914285 
L 144.36107 107.421907 
L 144.437 105.507209 
L 144.664792 105.400113 
L 144.816653 104.110697 
L 144.968513 103.975265 
L 145.272235 103.98807 
L 145.348166 104.419023 
L 145.500027 106.40863 
L 145.727818 106.854038 
L 145.879679 108.226194 
L 146.03154 108.132013 
L 146.259331 108.598462 
L 146.411192 109.529933 
L 146.487122 109.535407 
L 146.563053 110.370076 
L 146.790844 110.369473 
L 146.942705 111.685041 
L 147.322357 111.710809 
L 147.474218 111.471806 
L 147.550148 111.479423 
L 147.626079 111.827259 
L 147.85387 111.807678 
L 148.157592 112.462351 
L 148.537244 112.456749 
L 148.613174 111.936693 
L 148.689105 112.006922 
L 148.992827 113.612293 
L 149.220618 111.550394 
L 149.60027 111.235083 
L 149.752131 111.788796 
L 149.979922 111.674328 
L 150.131783 111.776486 
L 150.511435 110.018638 
L 150.587366 110.004677 
L 150.739227 113.066866 
L 150.815157 113.571599 
L 151.042948 113.633023 
L 151.194809 113.856966 
L 151.34667 113.695907 
L 151.574462 113.83011 
L 151.878183 111.252376 
L 152.105975 111.212748 
L 152.257835 109.696199 
L 152.409696 109.711503 
L 153.169001 109.689837 
L 153.244931 109.592001 
L 153.396792 108.969439 
L 153.776444 109.056702 
L 153.928305 109.281335 
L 154.004236 109.142494 
L 154.232027 109.189042 
L 154.307957 109.506566 
L 154.76354 104.135908 
L 155.295053 103.88613 
L 155.522844 103.047666 
L 156.054357 98.278428 
L 156.358079 98.178982 
L 156.50994 97.962184 
L 156.661801 97.598017 
L 157.421105 97.568931 
L 157.648897 99.978198 
L 157.724827 101.817874 
L 158.18041 101.893533 
L 158.25634 102.111091 
L 158.560062 101.916235 
L 158.635992 101.659531 
L 158.787853 102.892361 
L 159.091575 104.213653 
L 159.319366 107.413762 
L 159.850879 107.846793 
L 160.306462 107.567083 
L 160.382392 107.320742 
L 160.686114 103.556809 
L 160.762044 103.574984 
L 161.445418 103.521659 
L 161.74914 103.522533 
L 161.901001 103.104025 
L 162.356584 103.252261 
L 162.736236 103.21093 
L 162.964027 102.928026 
L 163.039958 102.928026 
L 163.41961 102.684437 
L 163.49554 103.127149 
L 163.571471 101.974398 
L 163.799262 102.327188 
L 163.875192 102.148015 
L 163.951123 102.603966 
L 164.027053 102.401691 
L 164.102984 102.386867 
L 164.330775 101.982671 
L 164.406705 102.062129 
L 164.482636 102.253054 
L 164.634497 101.834629 
L 164.938218 99.457856 
L 165.16601 99.626996 
L 165.469732 97.701558 
L 165.545662 97.971715 
L 165.621592 97.896498 
L 165.697523 97.584771 
L 166.001245 97.527585 
L 166.077175 96.656302 
L 166.532758 96.457223 
L 166.608688 96.595197 
L 166.684619 97.130147 
L 166.760549 98.747174 
L 167.064271 98.826788 
L 167.216132 99.902216 
L 167.671714 100.000715 
L 168.051366 99.981953 
L 168.127297 100.089127 
L 168.203227 100.678202 
L 168.279158 100.664431 
L 168.810671 100.599536 
L 168.886601 100.899418 
L 169.190323 101.016607 
L 169.418114 105.680427 
L 169.645906 105.715962 
L 169.797766 105.897367 
L 169.949627 105.515789 
L 170.253349 106.010318 
L 170.40521 111.270207 
L 170.48114 111.058964 
L 170.708932 111.183442 
L 170.860793 109.579877 
L 170.936723 110.009276 
L 171.012653 109.89747 
L 171.240445 109.572795 
L 171.392306 108.846762 
L 171.544167 108.634529 
L 171.847888 107.030091 
L 172.379401 106.911403 
L 173.062775 105.031342 
L 173.138706 105.379672 
L 174.049871 105.408915 
L 174.201732 105.439442 
L 174.581384 105.439442 
L 174.657314 105.695137 
L 175.036967 105.787262 
L 175.188828 108.032799 
L 175.264758 107.649578 
L 175.796271 107.501051 
L 176.327784 107.505372 
L 176.783367 108.208868 
L 177.238949 108.053016 
L 177.39081 108.402339 
L 177.694532 108.243997 
L 177.922323 108.529225 
L 178.150115 108.609235 
L 178.301975 110.063096 
L 178.377906 110.635556 
L 178.681628 111.078662 
L 178.833489 111.547978 
L 178.985349 113.758012 
L 179.289071 112.885141 
L 179.516862 112.770458 
L 179.896515 113.069986 
L 179.972445 116.120214 
L 180.048376 116.075321 
L 180.276167 116.082588 
L 180.428028 116.498337 
L 180.579889 120.541328 
L 180.88361 120.50439 
L 180.959541 121.273573 
L 181.035471 121.105932 
L 181.111402 121.377223 
L 181.491054 123.152545 
L 181.642915 123.209274 
L 182.174428 123.723822 
L 184.680132 123.824121 
L 184.756063 123.839584 
L 184.831993 124.05785 
L 185.363506 124.100511 
L 186.426532 124.186797 
L 186.806184 124.232579 
L 186.882115 124.404355 
L 186.958045 125.356511 
L 187.489558 125.429797 
L 187.79328 125.237363 
L 187.945141 124.744669 
L 188.248863 125.163691 
L 188.400724 125.858781 
L 188.476654 124.58965 
L 188.780376 124.461015 
L 188.856306 125.639397 
L 188.932237 125.575114 
L 189.008167 125.591276 
L 189.53968 126.562693 
L 189.843402 126.440981 
L 189.995263 124.787188 
L 190.071193 124.108132 
L 190.147124 124.184732 
L 190.374915 123.986927 
L 190.526776 123.288669 
L 190.602706 124.029192 
L 190.678637 123.946024 
L 190.906428 123.796321 
L 190.982358 123.92832 
L 191.21015 118.632269 
L 191.589802 118.090271 
L 191.969454 115.630516 
L 192.121315 114.434368 
L 192.197245 114.434191 
L 192.500967 113.607282 
L 192.576898 113.784175 
L 192.804689 116.117971 
L 193.03248 116.21028 
L 193.184341 115.902647 
L 194.323298 115.846452 
L 194.627019 114.965587 
L 194.70295 114.348579 
L 194.77888 114.360661 
L 194.854811 114.183217 
L 194.930741 114.63769 
L 195.158533 114.510911 
L 195.386324 113.695378 
L 195.462254 113.60599 
L 195.690046 113.579301 
L 195.841906 113.239681 
L 195.993767 112.205884 
L 196.44935 110.10179 
L 196.753072 110.085194 
L 196.904933 111.075732 
L 197.056793 111.399866 
L 197.360515 111.400176 
L 197.967959 111.171123 
L 198.11982 111.31792 
L 198.347611 111.51811 
L 198.423541 111.355279 
L 198.499472 111.526433 
L 198.651333 108.04808 
L 198.879124 108.048437 
L 199.030985 107.514548 
L 199.410637 107.488649 
L 200.018081 107.392053 
L 200.169941 106.807444 
L 200.245872 106.718277 
L 200.625524 106.02953 
L 200.777385 104.773236 
L 201.232968 104.459995 
L 201.308898 103.941882 
L 201.61262 103.6974 
L 201.764481 103.346644 
L 202.144133 103.16621 
L 202.295994 102.057425 
L 202.827507 101.829806 
L 202.903437 101.23782 
L 203.35902 101.220086 
L 203.43495 101.018119 
L 203.662742 101.173196 
L 203.738672 101.46091 
L 203.966463 101.489614 
L 204.194255 102.269034 
L 204.270185 102.203341 
L 204.346115 102.176451 
L 204.422046 102.846596 
L 204.497976 102.199431 
L 204.801698 102.243624 
L 204.877629 102.193564 
L 205.029489 103.694059 
L 205.257281 103.704816 
L 205.333211 103.846524 
L 205.409142 104.346377 
L 205.788794 103.405138 
L 205.864724 103.719905 
L 205.940655 103.700623 
L 206.320307 103.300993 
L 206.472168 104.517823 
L 206.548098 104.612579 
L 206.85182 104.497524 
L 207.003681 106.531903 
L 207.155542 107.879221 
L 207.383333 108.185137 
L 207.611124 107.334044 
L 207.687055 107.383955 
L 207.914846 107.679371 
L 208.218568 109.968718 
L 208.446359 109.682509 
L 208.59822 110.312004 
L 208.67415 110.17922 
L 208.750081 110.077614 
L 208.977872 110.027996 
L 209.129733 109.641527 
L 209.205663 109.907818 
L 209.737176 109.804034 
L 210.040898 109.289331 
L 210.116829 107.930368 
L 210.34462 107.685633 
L 210.572411 107.650167 
L 210.648342 107.444439 
L 210.800203 108.26256 
L 210.876133 108.053137 
L 211.255785 108.053183 
L 211.407646 106.956408 
L 211.711368 106.922064 
L 211.787298 106.680158 
L 211.863229 107.240363 
L 211.939159 107.21665 
L 212.242881 107.30254 
L 212.470672 107.622652 
L 212.698464 107.667972 
L 212.774394 109.379421 
L 212.850324 108.414839 
L 212.926255 108.716161 
L 213.002185 108.344291 
L 213.381837 108.29664 
L 213.533698 107.625014 
L 214.065211 106.631507 
L 214.293003 106.712379 
L 214.444864 106.470115 
L 214.520794 106.48396 
L 214.976377 105.944731 
L 215.128238 109.143552 
L 215.356029 109.08599 
L 215.50789 108.377938 
L 215.58382 108.495689 
L 215.887542 108.471662 
L 216.039403 108.184906 
L 216.494985 107.980956 
L 216.646846 107.249077 
L 216.722777 107.189853 
L 217.25429 108.386309 
L 217.482081 108.488328 
L 217.633942 108.824873 
L 217.709872 108.336108 
L 217.785803 107.081496 
L 218.165455 107.744883 
L 218.317316 108.019372 
L 219.07662 108.277951 
L 219.152551 109.448605 
L 219.228481 108.961108 
L 219.380342 109.189624 
L 219.684064 109.207312 
L 219.835925 109.891069 
L 220.367438 109.590652 
L 220.671159 109.59274 
L 220.82302 109.732714 
L 220.974881 109.698524 
L 221.354533 109.986472 
L 221.506394 111.004322 
L 221.886046 111.075153 
L 221.961977 111.606934 
L 222.037907 111.437654 
L 222.41756 111.39406 
L 222.49349 111.552384 
L 222.56942 112.508399 
L 222.873142 112.584634 
L 223.100933 113.110837 
L 223.328725 113.963025 
L 223.404655 113.844751 
L 223.480586 113.861225 
L 223.556516 113.733501 
L 223.632447 113.848402 
L 223.936168 113.716916 
L 224.088029 113.944532 
L 224.16396 113.542001 
L 224.391751 114.563554 
L 224.467681 114.532331 
L 224.543612 114.538749 
L 224.695473 114.987062 
L 224.999194 114.786491 
L 225.151055 114.950522 
L 225.454777 115.036163 
L 225.606638 115.069295 
L 225.682568 115.394025 
L 225.98629 115.405737 
L 226.062221 115.02043 
L 226.138151 115.217087 
L 226.214081 114.717888 
L 226.593734 116.724784 
L 226.669664 116.48709 
L 226.745594 116.468289 
L 226.821525 116.742136 
L 227.049316 116.864613 
L 227.277108 117.404846 
L 227.353038 118.841045 
L 227.580829 119.034097 
L 227.65676 119.675598 
L 227.73269 119.632291 
L 227.884551 119.628918 
L 228.188273 119.632549 
L 228.340134 119.887727 
L 228.416064 120.714589 
L 228.795716 120.743932 
L 228.871647 121.908487 
L 228.947577 121.865649 
L 229.175368 122.404553 
L 229.327229 121.443808 
L 229.40316 121.50744 
L 229.706881 121.506432 
L 229.934673 122.543711 
L 230.010603 122.985489 
L 230.314325 123.368209 
L 230.466186 123.826061 
L 230.997699 124.001242 
L 231.073629 124.473201 
L 231.377351 124.798369 
L 231.453282 124.658057 
L 231.908864 126.508919 
L 232.060725 126.525216 
L 232.136655 126.4161 
L 232.440377 126.292382 
L 232.668169 126.467267 
L 232.97189 127.31421 
L 233.123751 126.117002 
L 233.503403 125.931548 
L 233.579334 125.962971 
L 233.655264 125.740185 
L 233.731195 126.949854 
L 233.958986 128.011345 
L 234.110847 130.163332 
L 234.262708 128.663235 
L 235.173873 128.516406 
L 235.249803 127.206535 
L 235.325734 127.83888 
L 235.705386 127.541339 
L 236.085038 127.51887 
L 236.31283 128.378454 
L 236.692482 127.043171 
L 236.920273 126.964618 
L 237.299925 126.74374 
L 237.375856 126.925961 
L 237.451786 126.776718 
L 237.983299 124.265011 
L 238.287021 124.173062 
L 238.362951 124.316352 
L 238.514812 124.118024 
L 238.818534 123.931452 
L 238.970395 123.101924 
L 239.046325 121.077007 
L 239.350047 120.986887 
L 239.425977 120.966145 
L 239.577838 120.389547 
L 239.80563 120.399598 
L 239.957491 121.038233 
L 240.109351 120.162017 
L 240.413073 120.24043 
L 240.640864 120.728299 
L 241.020517 119.97936 
L 241.172378 120.061269 
L 241.476099 119.870014 
L 241.55203 119.581352 
L 241.62796 120.062456 
L 241.703891 120.026121 
L 241.931682 120.238176 
L 242.083543 119.153487 
L 242.159473 119.23761 
L 242.235404 119.380471 
L 242.463195 119.243258 
L 242.615056 118.984788 
L 242.766917 119.26787 
L 242.994708 119.303411 
L 243.222499 118.517894 
L 243.526221 118.551168 
L 243.602152 118.231845 
L 243.678082 118.251168 
L 244.057734 118.157899 
L 244.133665 118.056852 
L 244.285525 117.368865 
L 244.741108 117.257203 
L 244.817039 118.361695 
L 244.892969 117.956826 
L 245.196691 117.264385 
L 245.348552 117.826553 
L 245.652273 117.64097 
L 245.804134 116.30932 
L 245.880065 116.239267 
L 245.955995 115.947901 
L 246.183786 115.861505 
L 246.335647 115.981278 
L 246.411578 115.931459 
L 246.487508 115.513212 
L 246.79123 115.338048 
L 246.86716 115.362486 
L 247.019021 114.966077 
L 247.398673 114.997544 
L 247.550534 112.618954 
L 247.854256 112.687848 
L 247.930186 111.824535 
L 248.082047 112.482208 
L 248.61356 112.670531 
L 248.993213 112.561714 
L 249.145073 112.885876 
L 249.448795 112.608914 
L 249.524726 112.673417 
L 249.676587 113.936267 
L 250.511821 114.112834 
L 250.587752 114.795339 
L 250.663682 114.781981 
L 250.739613 114.985998 
L 250.967404 114.928993 
L 251.119265 114.636967 
L 251.650778 111.269212 
L 251.726708 111.270768 
L 251.802639 110.995174 
L 252.03043 110.890408 
L 252.106361 111.790603 
L 252.334152 107.054803 
L 252.637874 107.170297 
L 252.713804 106.963861 
L 253.093456 106.724838 
L 253.169387 106.83423 
L 253.321247 107.894586 
L 253.397178 107.202737 
L 253.624969 107.692554 
L 253.852761 106.801043 
L 253.928691 106.919524 
L 254.232413 106.889843 
L 254.384274 107.508441 
L 254.460204 109.271899 
L 254.687995 109.253356 
L 254.915787 102.828326 
L 255.219508 102.761053 
L 255.4473 103.185747 
L 255.52323 103.180941 
L 255.751021 103.052935 
L 255.902882 103.830386 
L 256.358465 103.788632 
L 256.510326 102.751767 
L 256.814048 103.280514 
L 256.965908 102.347318 
L 257.117769 102.799743 
L 257.421491 102.702179 
L 257.497422 102.528364 
L 257.573352 102.632924 
L 257.649282 103.060664 
L 257.953004 102.565812 
L 258.104865 102.780221 
L 258.484517 102.366293 
L 258.636378 100.634899 
L 258.712309 100.787953 
L 259.091961 100.863932 
L 259.167891 100.343533 
L 259.243822 100.417378 
L 259.471613 100.416143 
L 259.623474 100.24499 
L 259.699404 100.270166 
L 259.775335 100.984736 
L 260.003126 100.977076 
L 260.079056 100.853302 
L 260.154987 100.920612 
L 260.230917 100.946296 
L 260.306848 100.414734 
L 260.534639 100.542549 
L 260.610569 100.870767 
L 260.6865 100.242383 
L 260.76243 100.362293 
L 260.838361 100.393417 
L 261.218013 101.251273 
L 261.369874 101.239518 
L 261.597665 101.171534 
L 261.673596 101.021517 
L 261.901387 101.363597 
L 262.205109 101.414436 
L 262.4329 101.980172 
L 262.736622 100.410994 
L 262.812552 100.391072 
L 262.964413 101.628262 
L 263.192204 101.194124 
L 263.268135 101.745339 
L 263.344065 101.68885 
L 264.25523 101.40956 
L 264.483022 101.244517 
L 264.558952 101.080338 
L 265.014535 100.951188 
L 265.090465 100.863062 
L 265.470117 100.854284 
L 265.621978 100.423383 
L 265.9257 100.435665 
L 266.077561 99.806114 
L 266.457213 99.951415 
L 266.533144 99.827596 
L 266.685004 101.95695 
L 266.912796 101.689756 
L 266.988726 101.868786 
L 267.216518 101.977026 
L 267.444309 106.144459 
L 267.520239 106.13939 
L 267.59617 106.145809 
L 267.975822 106.978421 
L 268.051752 107.012286 
L 268.127683 106.761949 
L 268.203613 106.842103 
L 268.279544 107.30896 
L 268.507335 107.307213 
L 268.811057 108.292384 
L 269.570361 108.120951 
L 269.722222 103.83262 
L 269.798152 103.739404 
L 270.253735 110.244368 
L 270.405596 110.174373 
L 270.633387 110.072198 
L 270.785248 109.502787 
L 270.937109 109.634754 
L 271.240831 109.31056 
L 271.392692 108.25739 
L 271.468622 108.281782 
L 271.696413 108.349145 
L 271.772344 109.140977 
L 271.848274 109.010123 
L 272.000135 109.083086 
L 272.227926 110.375376 
L 272.379787 110.005019 
L 272.9113 109.891273 
L 272.987231 110.282398 
L 273.290953 109.716334 
L 273.518744 110.579142 
L 273.594674 110.377009 
L 273.822466 110.378754 
L 274.050257 110.599649 
L 274.126187 113.490293 
L 274.429909 113.126074 
L 274.58177 112.833107 
L 274.6577 112.876645 
L 274.961422 113.879352 
L 275.037353 113.891166 
L 275.189213 112.783304 
L 275.417005 112.621656 
L 275.568866 112.193653 
L 275.644796 112.237015 
L 275.948518 111.478201 
L 276.100379 112.19094 
L 276.25224 111.272241 
L 276.555961 111.864557 
L 276.707822 111.648376 
L 276.783753 112.383622 
L 277.087474 112.415085 
L 277.163405 112.147486 
L 277.315266 112.121776 
L 277.618987 112.322416 
L 277.846779 111.357264 
L 278.1505 111.373192 
L 278.302361 110.944781 
L 278.378292 112.1636 
L 278.606083 112.089124 
L 278.682014 112.293724 
L 278.757944 111.794758 
L 278.833874 112.024988 
L 278.909805 112.744795 
L 279.441318 111.226908 
L 279.669109 111.286006 
L 279.74504 110.798215 
L 279.82097 110.832688 
L 279.972831 110.33877 
L 280.352483 110.840722 
L 280.428414 110.644297 
L 280.504344 110.196059 
L 280.732135 110.292413 
L 280.959927 108.247806 
L 281.263648 108.200779 
L 281.415509 107.910302 
L 281.56737 108.578066 
L 281.871092 108.573008 
L 281.947022 109.446802 
L 282.098883 109.444143 
L 282.326675 109.675223 
L 282.630396 110.778184 
L 283.389701 110.706645 
L 283.693422 107.210305 
L 283.997144 106.974034 
L 284.224935 107.371986 
L 284.756449 107.480138 
L 284.98424 107.525458 
L 285.136101 107.427026 
L 285.212031 107.510844 
L 285.287962 112.022312 
L 285.591683 112.051851 
L 285.819475 112.244853 
L 286.047266 111.439391 
L 286.199127 111.496523 
L 286.275057 112.117513 
L 286.350988 111.687116 
L 286.73064 111.980809 
L 286.80657 112.814589 
L 286.882501 112.353382 
L 287.110292 112.025641 
L 287.186223 112.106499 
L 287.338083 112.0568 
L 287.641805 111.094659 
L 287.717736 110.204174 
L 287.793666 110.406924 
L 287.945527 110.379565 
L 288.173318 110.402412 
L 288.249249 110.622523 
L 288.325179 110.53123 
L 288.40111 110.696388 
L 288.47704 110.614683 
L 288.704831 110.601292 
L 288.780762 110.460418 
L 288.932623 110.564683 
L 289.008553 110.454596 
L 289.236344 110.672598 
L 289.388205 110.546357 
L 289.540066 111.246753 
L 290.29937 111.290006 
L 290.527162 112.827846 
L 290.603092 113.102265 
L 290.982744 113.479615 
L 291.058675 112.942758 
L 291.134605 113.013709 
L 291.362397 113.801745 
L 291.438327 113.174428 
L 291.514257 113.206013 
L 291.666118 113.412577 
L 292.425423 113.160656 
L 292.729144 113.526355 
L 292.956936 114.068009 
L 293.108797 114.073344 
L 293.184727 114.455471 
L 293.260658 114.25968 
L 293.488449 114.259442 
L 293.792171 115.268138 
L 294.095892 115.380591 
L 294.171823 115.898153 
L 294.247753 115.854509 
L 294.323684 115.880826 
L 294.703336 117.522038 
L 294.779266 117.523848 
L 294.855197 118.078583 
L 295.082988 118.150748 
L 295.234849 118.762308 
L 295.38671 118.713886 
L 295.614501 118.946847 
L 295.842292 118.115981 
L 295.918223 119.65149 
L 296.146014 119.664813 
L 296.221945 121.232385 
L 296.373805 121.389736 
L 296.449736 121.994693 
L 297.360901 122.019798 
L 297.436832 121.757803 
L 297.512762 119.715019 
L 298.272066 119.56575 
L 298.347997 119.661425 
L 298.575788 123.784064 
L 299.031371 124.648942 
L 299.335093 124.477083 
L 299.486953 124.710523 
L 299.638814 124.464411 
L 299.866606 124.446836 
L 300.094397 124.202895 
L 300.170327 124.408039 
L 300.474049 124.432942 
L 300.62591 123.693715 
L 300.70184 122.716852 
L 301.005562 122.806323 
L 301.157423 123.838277 
L 301.233353 123.706315 
L 301.461145 124.218521 
L 301.613006 123.549039 
L 301.688936 123.596833 
L 301.764866 124.216006 
L 302.068588 124.842463 
L 302.144519 125.270641 
L 302.29638 123.313587 
L 302.524171 124.483867 
L 302.600101 125.535699 
L 302.751962 124.781059 
L 302.827893 124.825992 
L 303.131614 124.562269 
L 303.359406 125.322838 
L 303.587197 125.373515 
L 303.663127 125.602672 
L 303.814988 125.091132 
L 303.890919 125.220744 
L 304.19464 125.299 
L 304.270571 125.479163 
L 304.422432 125.216698 
L 304.726154 124.89386 
L 305.257667 124.798223 
L 305.409527 124.185872 
L 305.485458 122.206846 
L 306.016971 121.748264 
L 306.320693 123.363762 
L 306.396623 123.112726 
L 306.548484 122.173518 
L 307.004067 123.21017 
L 307.459649 123.413261 
L 307.53558 123.54484 
L 307.61151 124.045991 
L 308.143023 124.15719 
L 308.370815 124.323492 
L 308.446745 124.219317 
L 308.522675 124.299003 
L 308.674536 122.32866 
L 309.509771 122.202118 
L 309.661632 122.178095 
L 309.737562 121.775283 
L 310.648728 121.436075 
L 310.800589 122.999771 
L 311.711754 122.990678 
L 311.863615 122.81703 
L 312.698849 122.885794 
L 312.85071 123.127014 
L 312.926641 125.317591 
L 313.989667 125.538793 
L 314.976763 125.538793 
L 315.052693 125.715148 
L 315.356415 125.731909 
L 315.508276 126.063867 
L 315.887928 126.077391 
L 316.039789 126.323939 
L 316.419441 126.408786 
L 316.571302 127.327744 
L 316.647232 128.721638 
L 317.102815 128.738763 
L 317.178745 126.814151 
L 317.482467 126.542747 
L 317.93805 126.782592 
L 318.01398 127.170877 
L 318.545493 127.378484 
L 318.773284 125.547298 
L 319.001076 124.244958 
L 319.077006 125.954471 
L 319.152937 125.933026 
L 319.228867 125.850571 
L 319.304798 126.873617 
L 319.68445 126.968578 
L 319.836311 127.206289 
L 320.064102 127.206427 
L 320.215963 127.956597 
L 320.595615 127.980752 
L 320.747476 128.611828 
L 320.899337 128.750739 
L 321.127128 128.807813 
L 321.203058 128.63539 
L 321.43085 123.730213 
L 321.810502 122.968111 
L 321.962363 123.036174 
L 322.342015 123.588066 
L 322.493876 126.078823 
L 322.873528 126.225832 
L 322.949459 126.129102 
L 323.025389 125.811817 
L 323.25318 125.736391 
L 323.329111 125.89047 
L 323.405041 126.888375 
L 323.480972 126.802594 
L 323.784693 126.802645 
L 323.936554 125.27006 
L 324.088415 125.135728 
L 324.543998 123.58617 
L 325.151441 123.688837 
L 325.379232 123.864596 
L 325.531093 125.909044 
L 326.062606 125.936516 
L 326.138537 125.625047 
L 326.214467 125.79119 
L 326.442259 125.577855 
L 326.594119 120.556121 
L 326.67005 120.945831 
L 326.74598 120.573999 
L 327.125633 118.348111 
L 327.277493 118.490044 
L 327.505285 118.373369 
L 327.657146 118.518291 
L 328.036798 118.518291 
L 328.188659 118.335518 
L 328.796102 117.998239 
L 328.872033 118.175966 
L 329.327615 118.195043 
L 329.403546 117.799738 
L 329.935059 117.702215 
L 330.314711 117.45226 
L 330.466572 116.815951 
L 330.770294 116.69277 
L 330.998085 116.327031 
L 331.453667 116.127639 
L 331.985181 116.108713 
L 332.364833 114.92275 
L 332.820415 114.882532 
L 333.048207 114.58443 
L 333.124137 114.565339 
L 333.427859 112.362176 
L 333.57972 113.932116 
L 333.65565 113.511352 
L 334.111233 107.713245 
L 334.187163 108.075619 
L 334.490885 108.730697 
L 334.566815 109.529475 
L 334.946468 106.710617 
L 335.022398 105.219551 
L 335.098328 105.392656 
L 335.250189 105.410168 
L 335.705772 91.981698 
L 335.781702 91.983266 
L 336.161355 91.587871 
L 336.313215 90.631206 
L 336.692868 90.633586 
L 336.768798 90.751836 
L 336.844729 91.713551 
L 337.07252 91.951882 
L 337.224381 93.711046 
L 338.439268 94.108203 
L 339.198572 94.345834 
L 339.350433 95.152314 
L 339.502294 95.228806 
L 339.881946 96.116247 
L 341.476485 96.116247 
L 341.628346 96.292191 
L 341.856137 96.295715 
L 341.932068 96.44494 
L 342.083929 99.593452 
L 342.159859 99.898041 
L 342.463581 101.497305 
L 343.146955 101.591546 
L 343.450677 101.664622 
L 343.526607 101.71929 
L 343.678468 101.940757 
L 344.285911 102.060948 
L 344.589633 102.074348 
L 344.741494 102.408961 
L 345.197077 102.496812 
L 345.348938 102.730722 
L 346.260103 103.63491 
L 346.943477 103.664112 
L 347.247198 104.56621 
L 347.702781 104.599596 
L 347.854642 104.797046 
L 348.310225 104.850776 
L 348.462085 106.871302 
L 348.841738 106.980592 
L 348.917668 107.327237 
L 349.069529 111.712645 
L 349.373251 113.322226 
L 349.525112 113.452058 
L 349.601042 113.551156 
L 350.132555 119.146329 
L 350.360346 119.146632 
L 350.512207 148.32612 
L 350.588138 146.789762 
L 350.664068 146.954257 
L 350.96779 145.235806 
L 351.04372 150.004603 
L 351.195581 144.71624 
L 351.423372 144.278672 
L 351.651164 141.188442 
L 351.727094 141.122193 
L 352.258607 137.640015 
L 352.486399 137.632762 
L 352.71419 135.833764 
L 352.79012 135.816784 
L 353.093842 134.125119 
L 353.169773 134.124888 
L 353.245703 133.984653 
L 353.321633 132.654972 
L 353.625355 132.601724 
L 353.701286 132.502909 
L 357.497807 132.457741 
L 357.573738 132.33262 
L 357.801529 132.30018 
L 358.333042 127.255221 
L 358.560834 127.14637 
L 358.636764 125.865712 
L 358.864555 125.820808 
L 359.016416 124.368634 
L 359.168277 119.09573 
L 360.003512 119.058258 
L 360.459095 118.425675 
L 360.610955 118.436321 
L 360.686886 118.266076 
L 360.990608 118.224229 
L 361.142468 118.058686 
L 361.294329 118.04848 
L 361.522121 117.901444 
L 361.749912 117.313077 
L 362.281425 117.299199 
L 363.11666 117.260185 
L 363.268521 116.574957 
L 363.344451 116.577742 
L 363.420382 112.564258 
L 363.648173 112.213273 
L 363.875964 111.157107 
L 364.483408 111.076592 
L 364.86306 110.772296 
L 365.014921 110.78316 
L 365.242712 110.61024 
L 365.318643 110.170337 
L 365.394573 106.898509 
L 365.470503 107.287202 
L 365.926086 108.008115 
L 366.002016 108.004114 
L 366.077947 109.828363 
L 366.305738 110.093112 
L 366.837251 112.153121 
L 366.989112 112.243468 
L 367.140973 112.254666 
L 367.596556 113.124943 
L 368.128069 112.898415 
L 368.203999 113.486123 
L 368.507721 112.410226 
L 368.659582 112.433657 
L 369.267025 112.362568 
L 369.494817 112.045195 
L 369.646677 109.814868 
L 369.722608 109.817141 
L 369.798538 109.662262 
L 370.10226 109.561645 
L 370.557843 108.183867 
L 370.709704 106.942611 
L 370.785634 106.946806 
L 370.861564 106.796899 
L 371.620869 106.759371 
L 371.924591 105.857298 
L 372.152382 105.86083 
L 372.456104 105.145346 
L 372.683895 105.193399 
L 372.759825 104.845007 
L 372.987617 105.944325 
L 373.291338 105.601795 
L 373.367269 104.575303 
L 373.51913 105.215772 
L 373.746921 105.183153 
L 373.822851 105.466386 
L 373.898782 104.371881 
L 373.974712 107.771466 
L 374.050643 107.760296 
L 374.809947 107.731345 
L 374.961808 107.996481 
L 375.113669 108.022535 
L 375.493321 108.096628 
L 375.569252 108.21264 
L 376.024834 108.220316 
L 376.176695 108.571105 
L 376.404486 108.573748 
L 376.556347 108.848322 
L 377.999026 108.876208 
L 378.150886 109.454013 
L 378.226817 109.451564 
L 378.302747 113.278635 
L 378.530539 113.608212 
L 378.83426 114.778133 
L 379.289843 114.782723 
L 379.365773 115.027076 
L 379.821356 115.092061 
L 380.201008 115.788575 
L 380.352869 120.12078 
L 380.4288 120.141322 
L 380.808452 120.458 
L 381.947408 120.523105 
L 382.023339 120.601625 
L 382.32706 120.148674 
L 382.402991 121.139156 
L 382.478921 120.696792 
L 382.554852 120.805975 
L 382.858574 120.808649 
L 382.934504 120.977823 
L 383.086365 122.364126 
L 383.9216 122.458749 
L 383.99753 122.902312 
L 384.149391 125.830663 
L 384.377182 125.558111 
L 384.453113 125.753783 
L 384.529043 123.764023 
L 384.604974 123.773272 
L 384.984626 124.118429 
L 385.212417 127.526062 
L 385.440208 127.51852 
L 385.592069 127.808769 
L 386.047652 127.778832 
L 386.123582 127.682438 
L 386.199513 128.250489 
L 386.275443 127.921049 
L 386.579165 128.672058 
L 386.655095 128.478519 
L 386.731026 128.754476 
L 386.806956 128.685131 
L 387.034748 127.818571 
L 387.262539 130.213949 
L 387.338469 130.139616 
L 387.794052 130.739948 
L 387.869982 130.028645 
L 388.173704 131.439372 
L 388.249635 130.962531 
L 388.629287 133.529848 
L 388.857078 132.126118 
L 388.933009 132.203409 
L 389.388591 132.297701 
L 389.464522 132.591972 
L 389.692313 132.456236 
L 389.768243 132.28017 
L 389.844174 132.513513 
L 389.996035 131.775059 
L 390.375687 131.740269 
L 390.527548 130.564649 
L 390.98313 127.322939 
L 391.059061 126.842396 
L 391.286852 126.45018 
L 391.438713 123.848929 
L 391.590574 123.315309 
L 391.894296 123.146257 
L 392.046156 120.333046 
L 392.349878 120.192979 
L 392.501739 118.828797 
L 392.6536 111.712875 
L 392.957322 111.274962 
L 393.109183 110.111261 
L 396.22233 110.025437 
L 396.374191 109.842783 
L 396.677913 109.84583 
L 396.829774 110.320302 
L 396.905704 110.400283 
L 397.285357 110.973139 
L 397.437217 111.020354 
L 398.196522 111.019343 
L 398.500244 110.534137 
L 398.728035 110.485592 
L 398.955826 109.755503 
L 399.031757 109.796031 
L 399.259548 110.992138 
L 399.411409 109.870744 
L 399.56327 109.808997 
L 399.866991 109.813092 
L 400.018852 109.545189 
L 400.474435 109.408862 
L 400.626296 109.512518 
L 400.854087 109.525539 
L 400.930018 109.654339 
L 401.461531 109.74096 
L 401.689322 109.664024 
L 401.917113 109.69945 
L 402.068974 110.456194 
L 402.220835 109.138157 
L 402.524557 108.849505 
L 402.600487 108.520818 
L 402.752348 109.507142 
L 402.980139 109.491513 
L 403.132 108.294836 
L 403.283861 108.920681 
L 403.663513 109.541305 
L 403.815374 109.265029 
L 404.270957 108.668779 
L 404.574679 108.682297 
L 404.8784 109.0217 
L 405.182122 109.179473 
L 405.333983 107.393165 
L 405.409913 107.415158 
L 406.245148 109.811857 
L 406.321079 109.53368 
L 406.397009 111.324111 
L 406.47294 110.435974 
L 406.700731 110.609686 
L 406.852592 110.92055 
L 406.928522 110.872124 
L 407.004453 112.888957 
L 407.308174 112.624069 
L 407.384105 112.581571 
L 407.460035 112.988726 
L 407.535966 120.595639 
L 407.839687 121.254325 
L 407.991548 122.783319 
L 408.3712 122.661652 
L 409.358296 122.20241 
L 409.586087 121.730096 
L 411.028766 121.73336 
L 411.180627 121.906473 
L 411.71214 121.904578 
L 411.78807 121.497601 
L 412.015861 121.282325 
L 412.167722 119.862155 
L 412.319583 119.49024 
L 412.623305 118.945368 
L 412.775166 116.745647 
L 412.851096 116.884974 
L 413.154818 116.869259 
L 413.306679 117.15418 
L 413.686331 117.449859 
L 413.914122 118.643585 
L 414.217844 119.383985 
L 414.901218 118.460922 
L 414.977149 118.65625 
L 415.28087 118.167237 
L 415.432731 117.574593 
L 415.508662 114.767236 
L 415.812383 114.666178 
L 415.964244 114.235297 
L 416.040175 114.285516 
L 416.419827 113.916828 
L 416.495757 114.082644 
L 416.571688 113.534462 
L 416.799479 113.462 
L 417.02727 111.826035 
L 417.103201 112.276859 
L 417.330992 111.100471 
L 417.482853 111.488036 
L 417.558783 111.277548 
L 417.634714 109.26417 
L 418.090296 108.939884 
L 418.166227 109.718135 
L 418.394018 109.944496 
L 418.69774 108.794691 
L 419.077392 109.240738 
L 419.153323 109.074848 
L 419.608905 106.819775 
L 419.684836 106.662629 
L 419.760766 106.136971 
L 419.988557 106.142225 
L 420.140418 106.325204 
L 420.216349 107.917597 
L 420.292279 107.852444 
L 420.596001 107.856374 
L 420.747862 108.327192 
L 421.051583 108.381396 
L 421.127514 108.360693 
L 421.203444 108.775136 
L 421.279375 108.484993 
L 421.355305 109.280172 
L 421.734957 109.28401 
L 421.810888 109.159805 
L 422.11461 109.591249 
L 422.19054 109.589487 
L 422.26647 109.70548 
L 422.342401 110.086788 
L 422.418331 110.009531 
L 422.797984 109.985888 
L 423.329497 109.567837 
L 423.481357 108.877482 
L 424.240662 109.010446 
L 424.468453 107.013868 
L 424.544384 107.27126 
L 424.924036 107.204024 
L 425.303688 106.882297 
L 425.455549 106.096696 
L 425.60741 106.082186 
L 425.835201 105.950259 
L 426.138923 103.795472 
L 426.366714 103.754246 
L 426.518575 103.505033 
L 426.670436 103.803434 
L 427.050088 103.876361 
L 427.126018 104.294471 
L 427.201949 103.877048 
L 427.505671 103.926129 
L 427.581601 102.532802 
L 427.733462 102.212399 
L 428.037184 103.994828 
L 428.113114 103.678379 
L 428.189045 103.74071 
L 428.264975 103.66818 
L 428.644627 103.084889 
L 429.252071 103.081576 
L 429.328001 103.393106 
L 429.555792 103.411173 
L 429.631723 104.132271 
L 429.707653 104.094109 
L 429.859514 104.054985 
L 430.163236 104.02385 
L 430.239166 104.399504 
L 430.315097 104.283474 
L 430.391027 106.36739 
L 430.618819 105.861759 
L 430.694749 105.257717 
L 430.84661 105.656998 
L 430.92254 105.413874 
L 431.150332 105.535021 
L 431.454053 105.368827 
L 431.681845 104.563586 
L 431.909636 102.339914 
L 431.985566 102.773289 
L 432.213358 102.770528 
L 432.441149 105.813932 
L 432.51708 105.92697 
L 432.744871 106.005329 
L 432.820801 106.15794 
L 432.972662 107.946453 
L 433.504175 108.435736 
L 433.807897 108.259716 
L 434.111619 109.111016 
L 434.41534 107.940524 
L 434.567201 108.545151 
L 434.643132 110.296583 
L 435.022784 110.823121 
L 435.098714 111.442155 
L 435.174645 111.426817 
L 435.554297 111.157668 
L 435.706158 110.511905 
L 436.00988 110.216647 
L 436.161741 109.857384 
L 436.465462 109.795365 
L 436.617323 109.201288 
L 436.769184 109.215861 
L 437.148836 109.62865 
L 437.75628 109.595982 
L 437.83221 109.501896 
L 438.135932 109.398231 
L 438.287793 109.856155 
L 438.895236 109.446438 
L 439.198958 110.161129 
L 439.350819 108.959587 
L 439.426749 108.959273 
L 439.806402 108.152063 
L 439.958262 110.118764 
L 440.489775 110.362207 
L 440.717567 110.414002 
L 440.869428 110.603063 
L 440.945358 111.184932 
L 441.021289 111.109614 
L 441.32501 111.12888 
L 441.476871 111.262284 
L 441.552802 111.770417 
L 441.780593 111.771645 
L 441.856523 112.134569 
L 442.008384 113.812829 
L 442.463967 114.162387 
L 442.615828 114.222535 
L 442.919549 114.981607 
L 443.07141 115.703658 
L 443.375132 115.753301 
L 443.526993 118.553909 
L 443.602923 118.556225 
L 443.678854 118.714564 
L 443.906645 119.452945 
L 444.058506 119.160723 
L 444.134436 119.626416 
L 444.210367 119.54208 
L 444.514089 119.328618 
L 444.74188 115.208993 
L 445.197463 114.550409 
L 445.273393 114.654519 
L 445.577115 114.528569 
L 445.653045 114.528636 
L 446.184558 115.024731 
L 446.260489 114.673345 
L 447.247584 116.400778 
L 447.399445 121.001865 
L 447.855028 121.104572 
L 448.386541 121.26353 
L 448.462471 121.50106 
L 448.690263 121.605927 
L 448.918054 122.098709 
L 448.993984 122.176071 
L 449.221776 122.156651 
L 449.449567 123.902907 
L 449.525497 123.821833 
L 449.753289 123.834078 
L 449.90515 122.062899 
L 450.057011 121.560528 
L 450.360732 121.413761 
L 450.436663 121.047215 
L 450.588524 121.928898 
L 450.816315 121.648235 
L 451.044106 122.373732 
L 451.347828 122.382888 
L 451.423758 122.225238 
L 451.575619 122.550488 
L 451.65155 122.470781 
L 452.031202 122.43731 
L 452.107132 122.264332 
L 452.183063 122.298622 
L 452.410854 122.269867 
L 452.942367 120.95131 
L 453.246089 115.186499 
L 453.47388 115.416447 
L 453.777602 114.918745 
L 454.081324 115.040613 
L 454.157254 116.080932 
L 454.233185 115.999339 
L 454.309115 115.994402 
L 454.688767 117.046236 
L 454.840628 117.144142 
L 455.22028 117.157408 
L 455.372141 114.894375 
L 456.738889 114.766778 
L 457.194472 114.74137 
L 457.801915 114.678666 
L 457.953776 113.852007 
L 458.029706 113.856217 
L 458.333428 113.703924 
L 458.56122 113.117418 
L 458.789011 113.010592 
L 459.396454 113.306367 
L 459.624246 117.387845 
L 460.079828 117.993647 
L 460.155759 117.967602 
L 460.38355 117.213035 
L 460.535411 116.097833 
L 460.611341 116.405404 
L 460.687272 116.325634 
L 461.066924 116.402948 
L 461.142854 117.242532 
L 461.750298 114.043545 
L 462.05402 111.447632 
L 462.12995 111.327756 
L 462.509602 109.983853 
L 462.661463 109.706313 
L 462.813324 109.445089 
L 463.117046 109.356884 
L 463.268907 108.964629 
L 463.80042 108.78373 
L 464.104141 108.522817 
L 464.180072 107.656862 
L 464.256002 107.72969 
L 464.407863 107.994323 
L 464.635655 107.992245 
L 464.787515 109.570636 
L 464.863446 108.86342 
L 464.939376 109.098789 
L 465.167168 109.027138 
L 465.394959 108.683594 
L 465.470889 108.713067 
L 465.698681 108.253438 
L 465.774611 108.32519 
L 465.926472 107.020499 
L 466.002402 107.037009 
L 466.230194 106.882261 
L 466.382055 106.349395 
L 466.457985 106.107782 
L 466.533915 104.092042 
L 466.837637 103.492626 
L 466.913568 102.751907 
L 467.065428 99.60915 
L 467.29322 99.885679 
L 467.36915 100.230983 
L 467.445081 99.981168 
L 467.521011 100.291807 
L 467.900663 100.785383 
L 467.976594 100.628886 
L 468.052524 103.591127 
L 468.128455 102.72333 
L 468.356246 102.839108 
L 468.659968 103.66479 
L 468.887759 103.650677 
L 469.03962 102.892252 
L 469.11555 102.910653 
L 469.191481 102.878463 
L 469.495202 101.923649 
L 469.950785 101.445465 
L 470.102646 101.109168 
L 470.254507 102.699514 
L 470.78602 102.442931 
L 471.165672 102.627536 
L 471.241603 102.354818 
L 471.849046 102.040864 
L 472.60835 101.974736 
L 472.760211 101.821285 
L 472.836142 102.446259 
L 472.912072 102.432228 
L 473.139863 102.428417 
L 473.291724 102.221572 
L 473.671377 102.541663 
L 473.747307 101.993535 
L 473.823237 102.251599 
L 473.975098 102.449325 
L 474.35475 102.315392 
L 474.506611 101.049131 
L 474.962194 100.941287 
L 475.038124 100.878477 
L 475.265916 101.538637 
L 475.417777 102.324024 
L 475.569637 100.746892 
L 476.101151 100.326904 
L 476.404872 101.281188 
L 476.480803 101.432461 
L 476.632664 102.214989 
L 476.860455 102.067511 
L 477.012316 104.211161 
L 477.088246 104.324047 
L 477.467898 105.524413 
L 477.543829 105.810212 
L 477.619759 105.780116 
L 478.075342 105.845358 
L 478.227203 106.14103 
L 478.454994 106.145659 
L 478.682785 105.858417 
L 478.758716 105.848297 
L 479.062438 105.528935 
L 479.138368 106.48205 
L 479.214298 106.356169 
L 479.290229 106.322133 
L 479.821742 105.571937 
L 480.049533 105.569613 
L 480.125464 106.215454 
L 480.201394 105.468356 
L 480.277325 105.652554 
L 480.353255 105.815287 
L 480.581046 105.860161 
L 481.112559 99.881022 
L 481.18849 100.908537 
L 481.26442 100.890787 
L 481.340351 101.200496 
L 481.416281 101.986544 
L 481.644072 101.977168 
L 481.795933 102.220953 
L 481.947794 104.474318 
L 482.175586 104.662233 
L 482.327446 105.39066 
L 482.479307 108.308073 
L 482.783029 108.380898 
L 483.01082 109.797664 
L 483.314542 110.045286 
L 483.466403 111.004107 
L 483.542333 111.166355 
L 483.997916 111.15279 
L 484.073846 112.108638 
L 484.377568 111.977723 
L 484.453499 113.017362 
L 484.60536 113.058918 
L 484.833151 112.617694 
L 484.909081 112.708137 
L 484.985012 112.749798 
L 485.136873 113.172018 
L 485.440594 113.174629 
L 485.516525 112.382795 
L 485.592455 112.614622 
L 486.048038 110.728649 
L 486.199899 110.394459 
L 486.579551 111.138763 
L 486.731412 111.12269 
L 486.959203 111.313719 
L 487.262925 110.985826 
L 487.566647 111.062951 
L 487.642577 110.863673 
L 487.794438 109.500969 
L 488.250021 109.509426 
L 488.325951 109.91543 
L 488.705603 109.911449 
L 488.857464 110.474546 
L 489.085255 110.543579 
L 489.237116 109.007777 
L 489.388977 108.686343 
L 489.616768 109.208067 
L 489.768629 110.123153 
L 489.92049 110.36726 
L 490.148281 110.354061 
L 490.300142 110.088044 
L 490.755725 108.984541 
L 490.907586 110.942141 
L 490.983516 110.973677 
L 491.363168 111.019369 
L 491.515029 111.354424 
L 491.742821 111.142628 
L 491.970612 112.123694 
L 492.046542 112.105581 
L 492.274334 112.050171 
L 492.502125 111.589328 
L 492.578055 111.683885 
L 492.957708 111.679143 
L 493.033638 112.042985 
L 493.109568 112.002607 
L 493.565151 107.408254 
L 493.641082 107.43524 
L 493.944803 106.953361 
L 494.020734 107.102894 
L 494.400386 107.090556 
L 494.552247 107.437044 
L 494.628177 107.425271 
L 494.704108 107.604845 
L 494.931899 107.591505 
L 495.15969 108.163285 
L 495.235621 107.237453 
L 495.463412 106.836859 
L 495.691203 107.867994 
L 495.767134 107.795183 
L 495.994925 108.272583 
L 496.222716 113.687249 
L 496.298647 113.219119 
L 496.526438 113.218428 
L 496.678299 112.217144 
L 496.754229 112.174329 
L 496.83016 111.765709 
L 497.209812 111.709657 
L 497.285743 111.346243 
L 497.361673 111.362497 
L 497.741325 111.68161 
L 497.817256 111.650276 
L 498.728421 111.586189 
L 499.259934 111.165237 
L 499.335864 110.56485 
L 499.411795 110.867709 
L 499.487725 110.765575 
L 499.791447 110.90974 
L 499.867377 111.451327 
L 499.943308 111.421551 
L 500.019238 111.445394 
L 500.550751 111.138286 
L 500.854473 109.695878 
L 501.006334 111.314969 
L 501.310056 111.579482 
L 501.385986 111.985392 
L 501.537847 111.015789 
L 501.613777 110.868181 
L 501.917499 110.753911 
L 501.99343 110.899509 
L 502.449012 110.935499 
L 502.676804 110.427313 
L 503.056456 111.628969 
L 503.436108 111.665451 
L 503.587969 111.715339 
L 503.663899 110.675059 
L 503.73983 110.807696 
L 504.043551 110.640128 
L 504.195412 112.414079 
L 504.271343 112.712022 
L 504.575065 112.887674 
L 504.650995 112.807232 
L 505.258438 93.680755 
L 505.56216 93.674931 
L 505.638091 93.956775 
L 505.714021 93.929687 
L 505.865882 94.960472 
L 506.245534 95.131878 
L 506.701117 95.263056 
L 506.852978 95.517159 
L 507.156699 95.514629 
L 507.460421 96.096594 
L 507.916004 96.133689 
L 508.447517 96.408078 
L 508.523447 99.820522 
L 508.751239 99.93032 
L 508.903099 100.535693 
L 509.05496 99.735107 
L 509.434613 99.695019 
L 509.510543 99.406067 
L 509.586473 98.59646 
L 509.890195 98.65988 
L 510.042056 98.438509 
L 510.421708 98.226017 
L 510.6495 99.333066 
L 510.953221 99.167869 
L 511.105082 99.409129 
L 511.408804 99.350869 
L 511.484734 100.142098 
L 511.560665 100.056086 
L 511.636595 100.078884 
L 511.712526 100.767056 
L 512.016247 100.895749 
L 512.092178 101.297534 
L 512.623691 101.303309 
L 512.699621 100.483676 
L 512.775552 100.587222 
L 513.003343 100.585556 
L 513.155204 100.712865 
L 513.231134 100.714116 
L 513.307065 100.50899 
L 513.610787 100.415486 
L 513.838578 98.394095 
L 514.21823 98.398662 
L 514.29416 98.604468 
L 514.597882 98.604711 
L 514.825674 99.076532 
L 515.129395 97.830434 
L 515.205326 97.97561 
L 515.433117 97.91249 
L 515.736839 98.072518 
L 515.8887 97.665733 
L 515.96463 97.850587 
L 516.268352 97.91884 
L 516.420213 99.758704 
L 516.951726 99.806731 
L 517.331378 100.734708 
L 517.559169 100.869077 
L 517.786961 100.866829 
L 517.938821 101.160828 
L 518.090682 101.305104 
L 518.470335 101.444095 
L 518.622195 101.729818 
L 518.849987 101.38568 
L 519.001848 100.607822 
L 519.3815 100.489936 
L 519.533361 100.559792 
L 519.685222 101.30453 
L 519.913013 101.4778 
L 520.064874 101.147157 
L 520.140804 101.149569 
L 520.216735 100.489722 
L 520.596387 100.423886 
L 520.748248 122.192532 
L 521.20383 122.245899 
L 522.039065 122.172877 
L 522.114996 122.015836 
L 522.342787 119.999281 
L 522.646509 119.923265 
L 522.798369 118.907439 
L 523.329883 118.743066 
L 523.405813 118.472145 
L 523.785465 118.324204 
L 523.861396 117.770922 
L 524.165117 117.747637 
L 524.316978 117.084973 
L 524.392909 118.145116 
L 524.468839 118.12007 
L 524.69663 118.149132 
L 524.772561 117.679645 
L 524.924422 117.466443 
L 525.000352 118.599675 
L 525.228143 117.997294 
L 525.304074 117.380389 
L 525.380004 117.600422 
L 525.455935 117.896688 
L 525.531865 117.390266 
L 525.759657 117.383723 
L 525.911517 115.735345 
L 525.987448 116.092347 
L 526.44303 115.803357 
L 526.822683 115.760891 
L 526.974544 115.892659 
L 527.050474 116.650144 
L 527.126404 116.636287 
L 527.885709 116.256677 
L 528.03757 117.975676 
L 528.569083 110.582105 
L 528.720944 110.502848 
L 529.024665 110.471806 
L 529.100596 111.150762 
L 529.176526 112.994837 
L 529.252457 112.093606 
L 530.011761 111.812979 
L 530.087691 112.071093 
L 530.239552 113.568424 
L 530.315483 113.628718 
L 530.771065 113.685762 
L 530.846996 114.410427 
L 531.074787 114.400781 
L 531.226648 114.023217 
L 531.302578 114.023668 
L 531.910022 113.623114 
L 532.137813 113.541078 
L 532.289674 113.348418 
L 532.745257 113.328642 
L 532.897118 113.045852 
L 532.973048 113.046976 
L 533.3527 113.329941 
L 533.504561 114.556651 
L 533.884213 114.577079 
L 534.263866 113.9766 
L 534.567587 112.77215 
L 534.795379 112.750273 
L 534.871309 113.092538 
L 535.02317 112.627443 
L 535.0991 113.252765 
L 535.630613 112.416185 
L 536.086196 112.344371 
L 536.389918 112.195082 
L 536.541779 111.315069 
L 536.617709 111.227404 
L 536.997361 111.14277 
L 537.149222 112.786059 
L 537.225153 112.770942 
L 537.452944 112.509813 
L 537.528874 113.205464 
L 537.604805 113.035324 
L 537.756666 112.809604 
L 537.984457 112.882265 
L 538.288179 112.279183 
L 538.51597 111.018309 
L 538.5919 111.113354 
L 538.819692 111.905855 
L 539.047483 112.123489 
L 539.199344 111.795616 
L 539.275274 111.661949 
L 539.351205 112.114 
L 539.730857 113.301324 
L 540.18644 113.96147 
L 540.3383 112.058482 
L 540.414231 112.518765 
L 540.642022 112.220774 
L 540.717953 113.58533 
L 540.793883 113.304293 
L 540.869814 113.262052 
L 540.945744 113.472925 
L 541.173535 113.309219 
L 541.325396 113.01117 
L 541.856909 112.911534 
L 542.00877 112.801147 
L 542.312492 112.75335 
L 542.388422 112.565766 
L 542.464353 112.723929 
L 542.540283 112.395085 
L 542.844005 112.202934 
L 543.071796 118.166299 
L 543.603309 119.958267 
L 543.982961 119.846701 
L 544.134822 121.009509 
L 544.362614 121.171342 
L 544.666335 120.639554 
L 544.894127 120.309015 
L 544.970057 120.51598 
L 545.045988 120.441925 
L 545.50157 120.446039 
L 545.577501 120.464027 
L 545.729362 120.384111 
L 545.957153 120.700558 
L 546.184944 120.40388 
L 547.096109 120.45187 
L 547.24797 120.650183 
L 547.703553 120.659584 
L 547.779483 120.989248 
L 547.855414 120.967514 
L 548.159136 120.896619 
L 548.310996 120.778997 
L 548.614718 120.833034 
L 548.690649 119.538131 
L 548.91844 120.88591 
L 549.146231 121.748437 
L 549.222162 121.649649 
L 549.374023 121.631495 
L 549.449953 122.020201 
L 549.677744 122.216922 
L 550.209257 123.438431 
L 550.285188 123.640699 
L 550.361118 123.516625 
L 550.892631 123.601193 
L 550.968562 123.332403 
L 551.424144 124.026957 
L 551.500075 124.057248 
L 551.576005 124.303218 
L 551.955657 124.049309 
L 552.031588 124.426739 
L 552.33531 124.543409 
L 552.639031 125.202795 
L 552.866823 125.46591 
L 552.942753 125.992582 
L 553.094614 123.275113 
L 553.170544 124.761379 
L 553.398336 124.549408 
L 553.550197 124.829451 
L 553.626127 124.702512 
L 553.702057 124.787497 
L 554.08171 125.211994 
L 554.233571 124.109235 
L 554.461362 124.131985 
L 554.613223 124.299325 
L 554.689153 124.296164 
L 554.765084 122.762289 
L 554.992875 122.582858 
L 555.068805 125.088826 
L 555.144736 124.948118 
L 555.296597 125.154276 
L 555.524388 124.824401 
L 555.676249 124.354658 
L 555.82811 124.861149 
L 556.207762 124.942112 
L 556.283692 123.97553 
L 556.359623 123.996189 
L 556.739275 123.80254 
L 556.891136 122.996093 
L 557.118927 123.017481 
L 557.194858 123.442052 
L 557.270788 123.013474 
L 557.422649 123.615518 
L 557.726371 123.829648 
L 557.954162 123.846953 
L 558.257884 123.897244 
L 558.485675 123.948723 
L 559.017188 123.870083 
L 559.244979 124.066796 
L 559.32091 124.395801 
L 559.39684 124.333655 
L 559.472771 122.266866 
L 559.548701 122.495124 
L 559.776492 121.786483 
L 559.852423 121.834296 
L 559.928353 121.85154 
L 560.080214 120.156913 
L 560.308005 120.157164 
L 560.459866 119.389296 
L 560.611727 119.486901 
L 560.839519 119.552457 
L 560.915449 119.870808 
L 561.06731 119.417965 
L 561.14324 119.430555 
L 562.130336 118.487249 
L 562.585919 118.455189 
L 562.737779 118.350491 
L 563.269293 117.637269 
L 563.497084 117.618411 
L 563.648945 119.057769 
L 563.724875 118.880011 
L 564.104527 118.870982 
L 564.332319 118.998596 
L 564.787901 119.000764 
L 564.863832 119.160229 
L 565.319414 118.826281 
L 565.395345 117.064831 
L 565.774997 117.035609 
L 565.850927 117.290179 
L 565.926858 117.152333 
L 566.30651 117.732951 
L 566.458371 117.591289 
L 566.762093 117.69674 
L 566.838023 117.658791 
L 566.913954 117.056748 
L 566.989884 117.081316 
L 567.217675 117.096863 
L 567.293606 116.721798 
L 567.369536 116.760495 
L 567.825119 116.728585 
L 567.97698 118.587453 
L 568.05291 118.545342 
L 568.356632 118.216917 
L 568.584423 118.274406 
L 568.888145 118.19823 
L 569.115936 118.953018 
L 569.495588 118.719896 
L 569.571519 118.756403 
L 569.647449 120.128994 
L 569.951171 120.208638 
L 570.103032 120.485327 
L 570.558615 119.547549 
L 570.634545 119.594789 
L 570.710475 120.124795 
L 571.090128 120.635475 
L 571.621641 120.774091 
L 571.697571 121.776488 
L 572.077223 121.785679 
L 572.836528 123.457556 
L 573.21618 123.531317 
L 573.368041 122.137856 
L 573.671762 121.658639 
L 573.899554 119.292323 
L 574.355136 119.583689 
L 574.431067 118.424107 
L 574.658858 118.05067 
L 574.96258 113.906816 
L 575.190371 113.692961 
L 575.342232 115.513078 
L 575.418163 116.042258 
L 575.797815 113.931603 
L 575.873745 115.564423 
L 575.949676 115.529907 
L 576.025606 116.081331 
L 576.253397 114.73851 
L 576.329328 114.76233 
L 576.405258 114.720428 
L 576.481189 112.504649 
L 576.78491 112.377596 
L 576.936771 109.725231 
L 577.012702 109.207895 
L 577.468284 108.432278 
L 577.620145 108.617557 
L 577.999797 108.534677 
L 578.151658 108.413387 
L 578.37945 108.510856 
L 578.45538 107.948531 
L 578.53131 108.270879 
L 578.683171 107.762403 
L 578.910963 107.725443 
L 579.138754 106.363946 
L 579.670267 106.313373 
L 579.746197 105.771475 
L 580.277711 105.666731 
L 580.505502 105.837557 
L 580.581432 105.584627 
L 580.657363 105.617949 
L 580.733293 105.6 
L 580.809224 107.066185 
L 581.264806 106.934598 
L 581.340737 107.071622 
L 581.644458 106.980018 
L 582.100041 106.142103 
L 582.327832 105.96422 
L 582.403763 106.433081 
L 582.707485 106.385528 
L 582.783415 106.668122 
L 582.935276 106.473023 
L 583.238998 106.493078 
L 583.314928 106.956124 
L 583.390858 106.771985 
L 583.466789 106.805298 
L 583.922371 104.921828 
L 583.998302 104.95147 
L 584.226093 104.862756 
L 584.302024 104.615531 
L 584.453885 104.592714 
L 584.529815 104.260336 
L 584.909467 104.031786 
L 584.985398 103.50965 
L 585.061328 103.569177 
L 585.36505 103.445622 
L 585.44098 104.226247 
L 585.516911 104.160678 
L 585.592841 104.324007 
L 585.896563 104.316608 
L 586.428076 102.259087 
L 586.504006 102.215254 
L 586.655867 101.803512 
L 587.491102 101.315113 
L 587.567032 100.852633 
L 587.718893 101.764731 
L 588.022615 102.173254 
L 588.174476 103.888032 
L 588.250406 103.716693 
L 588.630059 103.281927 
L 589.085641 107.581208 
L 589.237502 107.429779 
L 589.313433 107.487037 
L 589.617154 107.438829 
L 589.769015 109.210673 
L 589.844946 109.225975 
L 590.148667 108.389879 
L 590.224598 109.489558 
L 590.300528 109.2053 
L 590.376459 109.130895 
L 590.68018 111.223687 
L 590.832041 114.298087 
L 591.135763 115.948669 
L 591.287624 116.003871 
L 591.439485 114.544443 
L 591.667276 114.361673 
L 591.743207 114.580448 
L 591.819137 109.462085 
L 592.198789 109.003589 
L 592.27472 107.20682 
L 592.35065 107.83007 
L 592.42658 107.3355 
L 592.502511 107.527482 
L 592.806233 108.07943 
L 593.034024 109.30133 
L 593.337746 109.380666 
L 593.565537 109.506386 
L 593.869259 110.206462 
L 593.945189 110.206274 
L 594.09705 110.373156 
L 594.400772 109.959584 
L 594.476702 110.131924 
L 594.932285 108.435291 
L 595.008215 108.156003 
L 595.160076 108.228239 
L 595.463798 106.735772 
L 595.539728 103.802531 
L 595.615659 104.013632 
L 595.691589 103.857744 
L 595.919381 103.851799 
L 595.995311 100.287263 
L 596.147172 100.286307 
L 596.223102 98.130014 
L 596.754615 98.050549 
L 597.058337 98.215829 
L 597.286128 97.75779 
L 597.741711 97.798686 
L 597.817642 98.879568 
L 598.045433 98.929862 
L 598.349155 99.735136 
L 598.652876 100.109533 
L 598.880668 101.344241 
L 599.184389 101.41632 
L 599.26032 102.059979 
L 599.33625 102.027672 
L 599.867763 101.30803 
L 599.943694 100.756978 
L 600.247416 100.326854 
L 600.399276 98.842372 
L 600.475207 99.373048 
L 600.854859 99.709328 
L 601.00672 100.175415 
L 601.310442 100.444175 
L 601.386372 100.445589 
L 601.538233 100.57191 
L 601.841955 100.710272 
L 601.993816 101.165564 
L 602.449398 101.253105 
L 602.82905 101.457172 
L 602.904981 101.729231 
L 602.980911 101.603812 
L 603.132772 101.843704 
L 603.436494 101.648952 
L 603.664285 102.221189 
L 603.892077 102.241414 
L 604.043937 102.373668 
L 604.119868 101.89391 
L 604.195798 100.306551 
L 604.49952 100.848674 
L 604.57545 100.754446 
L 604.651381 101.032397 
L 605.106964 100.239066 
L 605.182894 100.373214 
L 605.258824 100.260667 
L 605.562546 100.224255 
L 605.638477 100.106154 
L 605.790337 101.26288 
L 606.094059 101.364296 
L 606.24592 106.012985 
L 606.549642 106.259384 
L 606.625572 107.519057 
L 606.701503 107.498041 
L 606.777433 108.000337 
L 607.233016 107.987721 
L 607.308946 108.270185 
L 607.384877 107.962096 
L 607.91639 107.892748 
L 608.447903 105.153987 
L 608.675694 104.536177 
L 608.751624 104.599883 
L 608.827555 104.523258 
L 608.903485 103.806974 
L 608.979416 104.113643 
L 609.283138 104.063965 
L 609.434998 105.434136 
L 609.510929 104.962386 
L 609.73872 104.257406 
L 609.890581 103.189177 
L 609.966511 106.10214 
L 610.042442 105.563247 
L 610.270233 105.539177 
L 610.346164 106.281031 
L 610.573955 113.251518 
L 610.801746 113.304924 
L 610.877677 112.643771 
L 610.953607 112.688862 
L 611.029538 112.514488 
L 611.105468 112.578441 
L 611.333259 112.622984 
L 611.40919 111.783039 
L 611.48512 112.068323 
L 611.561051 112.106594 
L 611.636981 112.632114 
L 611.940703 112.416497 
L 612.168494 112.314781 
L 612.700007 111.763183 
L 613.003729 111.667919 
L 613.459312 111.18931 
L 613.611172 110.938266 
L 613.687103 110.608595 
L 613.763033 111.152567 
L 614.142686 111.047989 
L 614.218616 111.268093 
L 614.294546 110.879926 
L 614.598268 108.798353 
L 614.674199 108.795979 
L 614.826059 107.040109 
L 615.053851 106.565412 
L 615.357573 101.973307 
L 615.813155 101.045447 
L 615.889086 98.669491 
L 616.420599 97.544966 
L 616.72432 97.228604 
L 616.876181 95.988735 
L 616.952112 96.153497 
L 617.255833 96.290738 
L 617.483625 95.945886 
L 617.939207 95.877298 
L 618.015138 95.670467 
L 618.31886 95.574742 
L 618.39479 96.947428 
L 618.47072 96.834089 
L 618.546651 96.557276 
L 618.774442 96.564198 
L 619.078164 95.288433 
L 619.305955 95.32668 
L 619.457816 94.417713 
L 619.533747 94.343177 
L 619.609677 93.991425 
L 619.837468 94.090942 
L 619.989329 93.736917 
L 620.06526 93.715135 
L 620.14119 93.529689 
L 620.520842 93.189359 
L 620.596773 93.468471 
L 620.672703 93.382689 
L 621.204216 92.72818 
L 621.583868 92.915426 
L 621.963521 92.884141 
L 622.191312 94.578772 
L 622.495034 94.639768 
L 622.798755 95.784158 
L 623.102477 96.085546 
L 623.178408 96.074703 
L 623.330268 96.204788 
L 623.55806 95.807414 
L 623.709921 97.104111 
L 623.785851 99.061397 
L 623.861782 98.912667 
L 624.089573 98.863127 
L 624.241434 99.419416 
L 624.393295 99.355242 
L 624.621086 99.229969 
L 624.697016 99.341992 
L 624.848877 99.308365 
L 624.924808 99.766773 
L 625.152599 99.794105 
L 625.228529 99.933668 
L 625.456321 100.001781 
L 625.684112 100.669201 
L 625.760042 100.643285 
L 625.987834 100.666932 
L 626.519347 101.288734 
L 627.582373 101.849134 
L 627.886095 102.033284 
L 628.113886 102.573374 
L 628.341677 102.343925 
L 628.417608 101.083034 
L 628.493538 101.518797 
L 628.569469 101.661041 
L 628.645399 102.158287 
L 628.949121 106.06414 
L 629.025051 106.080554 
L 629.176912 108.0292 
L 629.556564 108.593573 
L 629.632495 109.771474 
L 629.708425 112.876416 
L 629.936217 112.890039 
L 630.088077 114.352851 
L 630.164008 113.223745 
L 630.239938 113.450754 
L 630.46773 110.969842 
L 630.54366 112.816618 
L 630.61959 112.612746 
L 630.771451 112.411928 
L 630.999243 112.210631 
L 631.075173 111.967605 
L 631.151103 112.088222 
L 631.606686 111.633453 
L 631.758547 112.675488 
L 632.29006 112.726061 
L 632.36599 113.34459 
L 632.897504 113.462518 
L 633.201225 113.742011 
L 633.353086 114.937108 
L 633.656808 115.100726 
L 633.96053 117.400544 
L 634.188321 117.811943 
L 634.492043 120.157391 
L 634.719834 120.256225 
L 634.947625 121.55646 
L 635.251347 121.659072 
L 635.555069 122.591688 
L 635.858791 123.013165 
L 636.086582 123.644043 
L 636.314373 123.661589 
L 636.466234 124.330561 
L 636.921817 124.405052 
L 637.149608 124.525371 
L 637.45333 124.530907 
L 637.52926 124.827837 
L 637.605191 124.798922 
L 637.681121 124.253151 
L 637.984843 123.934217 
L 638.060773 124.535701 
L 638.212634 114.814697 
L 638.440425 114.418152 
L 638.744147 114.732927 
L 638.971939 114.813538 
L 639.047869 114.710364 
L 639.27566 111.375133 
L 639.655312 110.887395 
L 639.731243 111.044448 
L 640.110895 110.396675 
L 640.262756 109.897548 
L 640.338686 109.771071 
L 640.718339 108.152667 
L 640.870199 107.973355 
L 641.173921 105.606825 
L 641.249852 105.598549 
L 641.401713 103.758957 
L 641.705434 102.413709 
L 641.933226 101.222975 
L 642.236947 100.613999 
L 642.312878 100.561202 
L 642.464739 100.060202 
L 642.844391 100.09682 
L 642.996252 101.415465 
L 643.831487 101.694658 
L 644.43893 101.693781 
L 644.590791 102.728373 
L 645.122304 106.920237 
L 645.350095 106.979413 
L 645.653817 109.219665 
L 651.3486 109.260232 
L 651.42453 109.727257 
L 651.880113 110.10933 
L 652.031974 119.060207 
L 652.563487 119.945248 
L 652.867209 120.437902 
L 653.019069 122.946393 
L 653.550583 125.891698 
L 653.854304 125.900634 
L 654.082096 127.522869 
L 654.385817 127.847316 
L 654.537678 130.604371 
L 654.689539 131.095773 
L 654.993261 131.126986 
L 655.145122 135.663161 
L 655.221052 135.693523 
L 656.284078 151.619902 
L 656.66373 155.049009 
L 656.815591 161.382576 
L 657.195243 161.526192 
L 657.347104 162.475238 
L 657.650826 163.162503 
L 673.824009 163.126409 
L 674.051801 161.929042 
L 674.203661 153.174889 
L 674.279592 152.864303 
L 674.583314 146.426797 
L 674.811105 143.343881 
L 675.114827 142.781193 
L 675.190757 142.768013 
L 675.266688 142.268996 
L 675.418548 139.466282 
L 675.874131 138.293431 
L 675.950062 137.796106 
L 676.253783 137.226479 
L 676.481575 135.838558 
L 677.013088 135.311675 
L 678.911349 135.227785 
L 679.063209 134.715178 
L 679.13914 133.25078 
L 679.366931 132.766053 
L 679.518792 127.152761 
L 679.670653 125.484679 
L 679.974375 123.906577 
L 680.202166 119.296658 
L 680.429957 118.651817 
L 680.581818 115.739329 
L 680.581818 115.739329 
" style="fill:none;stroke:#348dc1;stroke-linecap:round;stroke-width:1.5;"/>
   </g>
   <g id="line2d_10">
    <path clip-path="url(#pf170a388e2)" d="M 79.6 112.569958 
L 709.2 112.569958 
" style="fill:none;stroke:#ff0000;stroke-dasharray:5.55,2.4;stroke-dashoffset:0;stroke-width:1.5;"/>
   </g>
   <g id="line2d_11">
    <path clip-path="url(#pf170a388e2)" d="M 79.6 163.162506 
L 709.2 163.162506 
" style="fill:none;stroke:#000000;stroke-dasharray:3.7,1.6;stroke-dashoffset:0;"/>
   </g>
   <g id="text_10">
    <!--  -->
    <g style="fill:#808080;" transform="translate(394.4 22.362625)scale(0.12 -0.12)"/>
    <!-- 18 Oct '00 - 22 Dec '21                    -->
    <defs>
     <path id="DejaVuSans-32"/>
     <path d="M 39.40625 66.21875 
Q 28.65625 66.21875 22.328125 58.203125 
Q 16.015625 50.203125 16.015625 36.375 
Q 16.015625 22.609375 22.328125 14.59375 
Q 28.65625 6.59375 39.40625 6.59375 
Q 50.140625 6.59375 56.421875 14.59375 
Q 62.703125 22.609375 62.703125 36.375 
Q 62.703125 50.203125 56.421875 58.203125 
Q 50.140625 66.21875 39.40625 66.21875 
z
M 39.40625 74.21875 
Q 54.734375 74.21875 63.90625 63.9375 
Q 73.09375 53.65625 73.09375 36.375 
Q 73.09375 19.140625 63.90625 8.859375 
Q 54.734375 -1.421875 39.40625 -1.421875 
Q 24.03125 -1.421875 14.8125 8.828125 
Q 5.609375 19.09375 5.609375 36.375 
Q 5.609375 53.65625 14.8125 63.9375 
Q 24.03125 74.21875 39.40625 74.21875 
z
" id="DejaVuSans-79"/>
     <path d="M 48.78125 52.59375 
L 48.78125 44.1875 
Q 44.96875 46.296875 41.140625 47.34375 
Q 37.3125 48.390625 33.40625 48.390625 
Q 24.65625 48.390625 19.8125 42.84375 
Q 14.984375 37.3125 14.984375 27.296875 
Q 14.984375 17.28125 19.8125 11.734375 
Q 24.65625 6.203125 33.40625 6.203125 
Q 37.3125 6.203125 41.140625 7.25 
Q 44.96875 8.296875 48.78125 10.40625 
L 48.78125 2.09375 
Q 45.015625 0.34375 40.984375 -0.53125 
Q 36.96875 -1.421875 32.421875 -1.421875 
Q 20.0625 -1.421875 12.78125 6.34375 
Q 5.515625 14.109375 5.515625 27.296875 
Q 5.515625 40.671875 12.859375 48.328125 
Q 20.21875 56 33.015625 56 
Q 37.15625 56 41.109375 55.140625 
Q 45.0625 54.296875 48.78125 52.59375 
z
" id="DejaVuSans-99"/>
     <path d="M 18.3125 70.21875 
L 18.3125 54.6875 
L 36.8125 54.6875 
L 36.8125 47.703125 
L 18.3125 47.703125 
L 18.3125 18.015625 
Q 18.3125 11.328125 20.140625 9.421875 
Q 21.96875 7.515625 27.59375 7.515625 
L 36.8125 7.515625 
L 36.8125 0 
L 27.59375 0 
Q 17.1875 0 13.234375 3.875 
Q 9.28125 7.765625 9.28125 18.015625 
L 9.28125 47.703125 
L 2.6875 47.703125 
L 2.6875 54.6875 
L 9.28125 54.6875 
L 9.28125 70.21875 
z
" id="DejaVuSans-116"/>
     <path d="M 17.921875 72.90625 
L 17.921875 45.796875 
L 9.625 45.796875 
L 9.625 72.90625 
z
" id="DejaVuSans-39"/>
     <path d="M 4.890625 31.390625 
L 31.203125 31.390625 
L 31.203125 23.390625 
L 4.890625 23.390625 
z
" id="DejaVuSans-45"/>
     <path d="M 19.671875 64.796875 
L 19.671875 8.109375 
L 31.59375 8.109375 
Q 46.6875 8.109375 53.6875 14.9375 
Q 60.6875 21.78125 60.6875 36.53125 
Q 60.6875 51.171875 53.6875 57.984375 
Q 46.6875 64.796875 31.59375 64.796875 
z
M 9.8125 72.90625 
L 30.078125 72.90625 
Q 51.265625 72.90625 61.171875 64.09375 
Q 71.09375 55.28125 71.09375 36.53125 
Q 71.09375 17.671875 61.125 8.828125 
Q 51.171875 0 30.078125 0 
L 9.8125 0 
z
" id="DejaVuSans-68"/>
     <path d="M 56.203125 29.59375 
L 56.203125 25.203125 
L 14.890625 25.203125 
Q 15.484375 15.921875 20.484375 11.0625 
Q 25.484375 6.203125 34.421875 6.203125 
Q 39.59375 6.203125 44.453125 7.46875 
Q 49.3125 8.734375 54.109375 11.28125 
L 54.109375 2.78125 
Q 49.265625 0.734375 44.1875 -0.34375 
Q 39.109375 -1.421875 33.890625 -1.421875 
Q 20.796875 -1.421875 13.15625 6.1875 
Q 5.515625 13.8125 5.515625 26.8125 
Q 5.515625 40.234375 12.765625 48.109375 
Q 20.015625 56 32.328125 56 
Q 43.359375 56 49.78125 48.890625 
Q 56.203125 41.796875 56.203125 29.59375 
z
M 47.21875 32.234375 
Q 47.125 39.59375 43.09375 43.984375 
Q 39.0625 48.390625 32.421875 48.390625 
Q 24.90625 48.390625 20.390625 44.140625 
Q 15.875 39.890625 15.1875 32.171875 
z
" id="DejaVuSans-101"/>
    </defs>
    <g style="fill:#808080;" transform="translate(288.74 35.8)scale(0.12 -0.12)">
     <use xlink:href="#DejaVuSans-49"/>
     <use x="63.623047" xlink:href="#DejaVuSans-56"/>
     <use x="127.246094" xlink:href="#DejaVuSans-32"/>
     <use x="159.033203" xlink:href="#DejaVuSans-79"/>
     <use x="237.744141" xlink:href="#DejaVuSans-99"/>
     <use x="292.724609" xlink:href="#DejaVuSans-116"/>
     <use x="331.933594" xlink:href="#DejaVuSans-32"/>
     <use x="363.720703" xlink:href="#DejaVuSans-39"/>
     <use x="391.210938" xlink:href="#DejaVuSans-48"/>
     <use x="454.833984" xlink:href="#DejaVuSans-48"/>
     <use x="518.457031" xlink:href="#DejaVuSans-32"/>
     <use x="550.244141" xlink:href="#DejaVuSans-45"/>
     <use x="586.328125" xlink:href="#DejaVuSans-32"/>
     <use x="618.115234" xlink:href="#DejaVuSans-50"/>
     <use x="681.738281" xlink:href="#DejaVuSans-50"/>
     <use x="745.361328" xlink:href="#DejaVuSans-32"/>
     <use x="777.148438" xlink:href="#DejaVuSans-68"/>
     <use x="854.150391" xlink:href="#DejaVuSans-101"/>
     <use x="915.673828" xlink:href="#DejaVuSans-99"/>
     <use x="970.654297" xlink:href="#DejaVuSans-32"/>
     <use x="1002.441406" xlink:href="#DejaVuSans-39"/>
     <use x="1029.931641" xlink:href="#DejaVuSans-50"/>
     <use x="1093.554688" xlink:href="#DejaVuSans-49"/>
     <use x="1157.177734" xlink:href="#DejaVuSans-32"/>
     <use x="1188.964844" xlink:href="#DejaVuSans-32"/>
     <use x="1220.751953" xlink:href="#DejaVuSans-32"/>
     <use x="1252.539062" xlink:href="#DejaVuSans-32"/>
     <use x="1284.326172" xlink:href="#DejaVuSans-32"/>
     <use x="1316.113281" xlink:href="#DejaVuSans-32"/>
     <use x="1347.900391" xlink:href="#DejaVuSans-32"/>
     <use x="1379.6875" xlink:href="#DejaVuSans-32"/>
     <use x="1411.474609" xlink:href="#DejaVuSans-32"/>
     <use x="1443.261719" xlink:href="#DejaVuSans-32"/>
     <use x="1475.048828" xlink:href="#DejaVuSans-32"/>
     <use x="1506.835938" xlink:href="#DejaVuSans-32"/>
     <use x="1538.623047" xlink:href="#DejaVuSans-32"/>
     <use x="1570.410156" xlink:href="#DejaVuSans-32"/>
     <use x="1602.197266" xlink:href="#DejaVuSans-32"/>
     <use x="1633.984375" xlink:href="#DejaVuSans-32"/>
     <use x="1665.771484" xlink:href="#DejaVuSans-32"/>
     <use x="1697.558594" xlink:href="#DejaVuSans-32"/>
     <use x="1729.345703" xlink:href="#DejaVuSans-32"/>
    </g>
   </g>
   <g id="legend_1">
    <g id="patch_3">
     <path d="M 610.981875 69.01375 
L 700.8 69.01375 
Q 703.2 69.01375 703.2 66.61375 
L 703.2 50.2 
Q 703.2 47.8 700.8 47.8 
L 610.981875 47.8 
Q 608.581875 47.8 608.581875 50.2 
L 608.581875 66.61375 
Q 608.581875 69.01375 610.981875 69.01375 
z
" style="fill:#ffffff;opacity:0.8;stroke:#cccccc;stroke-linejoin:miter;"/>
    </g>
    <g id="line2d_12">
     <path d="M 613.381875 57.518125 
L 637.381875 57.518125 
" style="fill:none;stroke:#348dc1;stroke-linecap:round;stroke-width:1.5;"/>
    </g>
    <g id="line2d_13"/>
    <g id="text_11">
     <!-- Strategy -->
     <defs>
      <path d="M 53.515625 70.515625 
L 53.515625 60.890625 
Q 47.90625 63.578125 42.921875 64.890625 
Q 37.9375 66.21875 33.296875 66.21875 
Q 25.25 66.21875 20.875 63.09375 
Q 16.5 59.96875 16.5 54.203125 
Q 16.5 49.359375 19.40625 46.890625 
Q 22.3125 44.4375 30.421875 42.921875 
L 36.375 41.703125 
Q 47.40625 39.59375 52.65625 34.296875 
Q 57.90625 29 57.90625 20.125 
Q 57.90625 9.515625 50.796875 4.046875 
Q 43.703125 -1.421875 29.984375 -1.421875 
Q 24.8125 -1.421875 18.96875 -0.25 
Q 13.140625 0.921875 6.890625 3.21875 
L 6.890625 13.375 
Q 12.890625 10.015625 18.65625 8.296875 
Q 24.421875 6.59375 29.984375 6.59375 
Q 38.421875 6.59375 43.015625 9.90625 
Q 47.609375 13.234375 47.609375 19.390625 
Q 47.609375 24.75 44.3125 27.78125 
Q 41.015625 30.8125 33.5 32.328125 
L 27.484375 33.5 
Q 16.453125 35.6875 11.515625 40.375 
Q 6.59375 45.0625 6.59375 53.421875 
Q 6.59375 63.09375 13.40625 68.65625 
Q 20.21875 74.21875 32.171875 74.21875 
Q 37.3125 74.21875 42.625 73.28125 
Q 47.953125 72.359375 53.515625 70.515625 
z
" id="DejaVuSans-83"/>
      <path d="M 41.109375 46.296875 
Q 39.59375 47.171875 37.8125 47.578125 
Q 36.03125 48 33.890625 48 
Q 26.265625 48 22.1875 43.046875 
Q 18.109375 38.09375 18.109375 28.8125 
L 18.109375 0 
L 9.078125 0 
L 9.078125 54.6875 
L 18.109375 54.6875 
L 18.109375 46.1875 
Q 20.953125 51.171875 25.484375 53.578125 
Q 30.03125 56 36.53125 56 
Q 37.453125 56 38.578125 55.875 
Q 39.703125 55.765625 41.0625 55.515625 
z
" id="DejaVuSans-114"/>
      <path d="M 34.28125 27.484375 
Q 23.390625 27.484375 19.1875 25 
Q 14.984375 22.515625 14.984375 16.5 
Q 14.984375 11.71875 18.140625 8.90625 
Q 21.296875 6.109375 26.703125 6.109375 
Q 34.1875 6.109375 38.703125 11.40625 
Q 43.21875 16.703125 43.21875 25.484375 
L 43.21875 27.484375 
z
M 52.203125 31.203125 
L 52.203125 0 
L 43.21875 0 
L 43.21875 8.296875 
Q 40.140625 3.328125 35.546875 0.953125 
Q 30.953125 -1.421875 24.3125 -1.421875 
Q 15.921875 -1.421875 10.953125 3.296875 
Q 6 8.015625 6 15.921875 
Q 6 25.140625 12.171875 29.828125 
Q 18.359375 34.515625 30.609375 34.515625 
L 43.21875 34.515625 
L 43.21875 35.40625 
Q 43.21875 41.609375 39.140625 45 
Q 35.0625 48.390625 27.6875 48.390625 
Q 23 48.390625 18.546875 47.265625 
Q 14.109375 46.140625 10.015625 43.890625 
L 10.015625 52.203125 
Q 14.9375 54.109375 19.578125 55.046875 
Q 24.21875 56 28.609375 56 
Q 40.484375 56 46.34375 49.84375 
Q 52.203125 43.703125 52.203125 31.203125 
z
" id="DejaVuSans-97"/>
      <path d="M 45.40625 27.984375 
Q 45.40625 37.75 41.375 43.109375 
Q 37.359375 48.484375 30.078125 48.484375 
Q 22.859375 48.484375 18.828125 43.109375 
Q 14.796875 37.75 14.796875 27.984375 
Q 14.796875 18.265625 18.828125 12.890625 
Q 22.859375 7.515625 30.078125 7.515625 
Q 37.359375 7.515625 41.375 12.890625 
Q 45.40625 18.265625 45.40625 27.984375 
z
M 54.390625 6.78125 
Q 54.390625 -7.171875 48.1875 -13.984375 
Q 42 -20.796875 29.203125 -20.796875 
Q 24.46875 -20.796875 20.265625 -20.09375 
Q 16.0625 -19.390625 12.109375 -17.921875 
L 12.109375 -9.1875 
Q 16.0625 -11.328125 19.921875 -12.34375 
Q 23.78125 -13.375 27.78125 -13.375 
Q 36.625 -13.375 41.015625 -8.765625 
Q 45.40625 -4.15625 45.40625 5.171875 
L 45.40625 9.625 
Q 42.625 4.78125 38.28125 2.390625 
Q 33.9375 0 27.875 0 
Q 17.828125 0 11.671875 7.65625 
Q 5.515625 15.328125 5.515625 27.984375 
Q 5.515625 40.671875 11.671875 48.328125 
Q 17.828125 56 27.875 56 
Q 33.9375 56 38.28125 53.609375 
Q 42.625 51.21875 45.40625 46.390625 
L 45.40625 54.6875 
L 54.390625 54.6875 
z
" id="DejaVuSans-103"/>
      <path d="M 32.171875 -5.078125 
Q 28.375 -14.84375 24.75 -17.8125 
Q 21.140625 -20.796875 15.09375 -20.796875 
L 7.90625 -20.796875 
L 7.90625 -13.28125 
L 13.1875 -13.28125 
Q 16.890625 -13.28125 18.9375 -11.515625 
Q 21 -9.765625 23.484375 -3.21875 
L 25.09375 0.875 
L 2.984375 54.6875 
L 12.5 54.6875 
L 29.59375 11.921875 
L 46.6875 54.6875 
L 56.203125 54.6875 
z
" id="DejaVuSans-121"/>
     </defs>
     <g style="fill:#333333;" transform="translate(646.981875 61.718125)scale(0.12 -0.12)">
      <use xlink:href="#DejaVuSans-83"/>
      <use x="63.476562" xlink:href="#DejaVuSans-116"/>
      <use x="102.685547" xlink:href="#DejaVuSans-114"/>
      <use x="143.798828" xlink:href="#DejaVuSans-97"/>
      <use x="205.078125" xlink:href="#DejaVuSans-116"/>
      <use x="244.287109" xlink:href="#DejaVuSans-101"/>
      <use x="305.810547" xlink:href="#DejaVuSans-103"/>
      <use x="369.287109" xlink:href="#DejaVuSans-121"/>
     </g>
    </g>
   </g>
  </g>
  <g id="text_12">
   <!-- Rolling Volatility (6-Months) -->
   <defs>
    <path d="M 35.890625 40.578125 
Q 41.796875 40.578125 44.359375 42.765625 
Q 46.921875 44.96875 46.921875 50 
Q 46.921875 54.984375 44.359375 57.125 
Q 41.796875 59.28125 35.890625 59.28125 
L 27.984375 59.28125 
L 27.984375 40.578125 
z
M 27.984375 27.59375 
L 27.984375 0 
L 9.1875 0 
L 9.1875 72.90625 
L 37.890625 72.90625 
Q 52.296875 72.90625 59 68.0625 
Q 65.71875 63.234375 65.71875 52.78125 
Q 65.71875 45.5625 62.21875 40.921875 
Q 58.734375 36.28125 51.703125 34.078125 
Q 55.5625 33.203125 58.609375 30.09375 
Q 61.671875 27 64.796875 20.703125 
L 75 0 
L 54.984375 0 
L 46.09375 18.109375 
Q 43.40625 23.578125 40.640625 25.578125 
Q 37.890625 27.59375 33.296875 27.59375 
z
" id="DejaVuSans-Bold-82"/>
    <path d="M 63.375 33.296875 
L 63.375 0 
L 45.796875 0 
L 45.796875 5.421875 
L 45.796875 25.484375 
Q 45.796875 32.5625 45.484375 35.25 
Q 45.171875 37.9375 44.390625 39.203125 
Q 43.359375 40.921875 41.59375 41.875 
Q 39.84375 42.828125 37.59375 42.828125 
Q 32.125 42.828125 29 38.59375 
Q 25.875 34.375 25.875 26.90625 
L 25.875 0 
L 8.40625 0 
L 8.40625 54.6875 
L 25.875 54.6875 
L 25.875 46.6875 
Q 29.828125 51.46875 34.265625 53.734375 
Q 38.71875 56 44.09375 56 
Q 53.5625 56 58.46875 50.1875 
Q 63.375 44.390625 63.375 33.296875 
z
" id="DejaVuSans-Bold-110"/>
    <path d="M 45.609375 9.28125 
Q 42 4.5 37.640625 2.25 
Q 33.296875 0 27.59375 0 
Q 17.578125 0 11.03125 7.875 
Q 4.5 15.765625 4.5 27.984375 
Q 4.5 40.234375 11.03125 48.0625 
Q 17.578125 55.90625 27.59375 55.90625 
Q 33.296875 55.90625 37.640625 53.65625 
Q 42 51.421875 45.609375 46.578125 
L 45.609375 54.6875 
L 63.1875 54.6875 
L 63.1875 5.515625 
Q 63.1875 -7.671875 54.859375 -14.625 
Q 46.53125 -21.578125 30.71875 -21.578125 
Q 25.59375 -21.578125 20.796875 -20.796875 
Q 16.015625 -20.015625 11.1875 -18.40625 
L 11.1875 -4.78125 
Q 15.765625 -7.421875 20.15625 -8.71875 
Q 24.5625 -10.015625 29 -10.015625 
Q 37.59375 -10.015625 41.59375 -6.25 
Q 45.609375 -2.484375 45.609375 5.515625 
z
M 34.078125 43.3125 
Q 28.65625 43.3125 25.625 39.296875 
Q 22.609375 35.296875 22.609375 27.984375 
Q 22.609375 20.453125 25.53125 16.578125 
Q 28.46875 12.703125 34.078125 12.703125 
Q 39.546875 12.703125 42.578125 16.703125 
Q 45.609375 20.703125 45.609375 27.984375 
Q 45.609375 35.296875 42.578125 39.296875 
Q 39.546875 43.3125 34.078125 43.3125 
z
" id="DejaVuSans-Bold-103"/>
    <path id="DejaVuSans-Bold-32"/>
    <path d="M 37.703125 -13.1875 
L 23.1875 -13.1875 
Q 15.71875 -1.125 12.15625 9.734375 
Q 8.59375 20.609375 8.59375 31.296875 
Q 8.59375 42 12.171875 52.953125 
Q 15.765625 63.921875 23.1875 75.875 
L 37.703125 75.875 
Q 31.453125 64.3125 28.328125 53.25 
Q 25.203125 42.1875 25.203125 31.390625 
Q 25.203125 20.609375 28.296875 9.515625 
Q 31.390625 -1.5625 37.703125 -13.1875 
z
" id="DejaVuSans-Bold-40"/>
    <path d="M 36.1875 35.984375 
Q 31.25 35.984375 28.78125 32.78125 
Q 26.3125 29.59375 26.3125 23.1875 
Q 26.3125 16.796875 28.78125 13.59375 
Q 31.25 10.40625 36.1875 10.40625 
Q 41.15625 10.40625 43.625 13.59375 
Q 46.09375 16.796875 46.09375 23.1875 
Q 46.09375 29.59375 43.625 32.78125 
Q 41.15625 35.984375 36.1875 35.984375 
z
M 59.421875 71 
L 59.421875 57.515625 
Q 54.78125 59.71875 50.671875 60.765625 
Q 46.578125 61.8125 42.671875 61.8125 
Q 34.28125 61.8125 29.59375 57.140625 
Q 24.90625 52.484375 24.125 43.3125 
Q 27.34375 45.703125 31.09375 46.890625 
Q 34.859375 48.09375 39.3125 48.09375 
Q 50.484375 48.09375 57.34375 41.546875 
Q 64.203125 35.015625 64.203125 24.421875 
Q 64.203125 12.703125 56.53125 5.640625 
Q 48.875 -1.421875 35.984375 -1.421875 
Q 21.78125 -1.421875 13.984375 8.171875 
Q 6.203125 17.78125 6.203125 35.40625 
Q 6.203125 53.46875 15.3125 63.796875 
Q 24.421875 74.125 40.28125 74.125 
Q 45.3125 74.125 50.046875 73.34375 
Q 54.78125 72.5625 59.421875 71 
z
" id="DejaVuSans-Bold-54"/>
    <path d="M 5.421875 35.890625 
L 36.078125 35.890625 
L 36.078125 21.6875 
L 5.421875 21.6875 
z
" id="DejaVuSans-Bold-45"/>
    <path d="M 9.1875 72.90625 
L 33.109375 72.90625 
L 49.703125 33.890625 
L 66.40625 72.90625 
L 90.28125 72.90625 
L 90.28125 0 
L 72.515625 0 
L 72.515625 53.328125 
L 55.71875 14.015625 
L 43.796875 14.015625 
L 27 53.328125 
L 27 0 
L 9.1875 0 
z
" id="DejaVuSans-Bold-77"/>
    <path d="M 63.375 33.296875 
L 63.375 0 
L 45.796875 0 
L 45.796875 5.421875 
L 45.796875 25.390625 
Q 45.796875 32.5625 45.484375 35.25 
Q 45.171875 37.9375 44.390625 39.203125 
Q 43.359375 40.921875 41.59375 41.875 
Q 39.84375 42.828125 37.59375 42.828125 
Q 32.125 42.828125 29 38.59375 
Q 25.875 34.375 25.875 26.90625 
L 25.875 0 
L 8.40625 0 
L 8.40625 75.984375 
L 25.875 75.984375 
L 25.875 46.6875 
Q 29.828125 51.46875 34.265625 53.734375 
Q 38.71875 56 44.09375 56 
Q 53.5625 56 58.46875 50.1875 
Q 63.375 44.390625 63.375 33.296875 
z
" id="DejaVuSans-Bold-104"/>
    <path d="M 51.125 52.984375 
L 51.125 39.703125 
Q 45.515625 42.046875 40.28125 43.21875 
Q 35.0625 44.390625 30.421875 44.390625 
Q 25.4375 44.390625 23.015625 43.140625 
Q 20.609375 41.890625 20.609375 39.3125 
Q 20.609375 37.203125 22.4375 36.078125 
Q 24.265625 34.96875 29 34.421875 
L 32.078125 33.984375 
Q 45.515625 32.28125 50.140625 28.375 
Q 54.78125 24.46875 54.78125 16.109375 
Q 54.78125 7.375 48.328125 2.96875 
Q 41.890625 -1.421875 29.109375 -1.421875 
Q 23.6875 -1.421875 17.890625 -0.5625 
Q 12.109375 0.296875 6 2 
L 6 15.28125 
Q 11.234375 12.75 16.71875 11.46875 
Q 22.21875 10.203125 27.875 10.203125 
Q 33.015625 10.203125 35.59375 11.609375 
Q 38.1875 13.03125 38.1875 15.828125 
Q 38.1875 18.171875 36.40625 19.3125 
Q 34.625 20.453125 29.296875 21.09375 
L 26.21875 21.484375 
Q 14.546875 22.953125 9.859375 26.90625 
Q 5.171875 30.859375 5.171875 38.921875 
Q 5.171875 47.609375 11.125 51.796875 
Q 17.09375 56 29.390625 56 
Q 34.234375 56 39.546875 55.265625 
Q 44.875 54.546875 51.125 52.984375 
z
" id="DejaVuSans-Bold-115"/>
    <path d="M 8.015625 -13.1875 
Q 14.265625 -1.5625 17.390625 9.515625 
Q 20.515625 20.609375 20.515625 31.390625 
Q 20.515625 42.1875 17.390625 53.25 
Q 14.265625 64.3125 8.015625 75.875 
L 22.515625 75.875 
Q 29.9375 63.921875 33.515625 52.953125 
Q 37.109375 42 37.109375 31.296875 
Q 37.109375 20.609375 33.546875 9.734375 
Q 29.984375 -1.125 22.515625 -13.1875 
z
" id="DejaVuSans-Bold-41"/>
   </defs>
   <g transform="translate(248.888125 12.797812)scale(0.14 -0.14)">
    <use xlink:href="#DejaVuSans-Bold-82"/>
    <use x="77.001953" xlink:href="#DejaVuSans-Bold-111"/>
    <use x="145.703125" xlink:href="#DejaVuSans-Bold-108"/>
    <use x="179.980469" xlink:href="#DejaVuSans-Bold-108"/>
    <use x="214.257812" xlink:href="#DejaVuSans-Bold-105"/>
    <use x="248.535156" xlink:href="#DejaVuSans-Bold-110"/>
    <use x="319.726562" xlink:href="#DejaVuSans-Bold-103"/>
    <use x="391.308594" xlink:href="#DejaVuSans-Bold-32"/>
    <use x="426.123047" xlink:href="#DejaVuSans-Bold-86"/>
    <use x="498.015625" xlink:href="#DejaVuSans-Bold-111"/>
    <use x="566.716797" xlink:href="#DejaVuSans-Bold-108"/>
    <use x="600.994141" xlink:href="#DejaVuSans-Bold-97"/>
    <use x="668.474609" xlink:href="#DejaVuSans-Bold-116"/>
    <use x="716.277344" xlink:href="#DejaVuSans-Bold-105"/>
    <use x="750.554688" xlink:href="#DejaVuSans-Bold-108"/>
    <use x="784.832031" xlink:href="#DejaVuSans-Bold-105"/>
    <use x="819.109375" xlink:href="#DejaVuSans-Bold-116"/>
    <use x="866.912109" xlink:href="#DejaVuSans-Bold-121"/>
    <use x="932.097656" xlink:href="#DejaVuSans-Bold-32"/>
    <use x="966.912109" xlink:href="#DejaVuSans-Bold-40"/>
    <use x="1012.615234" xlink:href="#DejaVuSans-Bold-54"/>
    <use x="1082.195312" xlink:href="#DejaVuSans-Bold-45"/>
    <use x="1123.699219" xlink:href="#DejaVuSans-Bold-77"/>
    <use x="1223.210938" xlink:href="#DejaVuSans-Bold-111"/>
    <use x="1291.912109" xlink:href="#DejaVuSans-Bold-110"/>
    <use x="1363.103516" xlink:href="#DejaVuSans-Bold-116"/>
    <use x="1410.90625" xlink:href="#DejaVuSans-Bold-104"/>
    <use x="1482.097656" xlink:href="#DejaVuSans-Bold-115"/>
    <use x="1541.619141" xlink:href="#DejaVuSans-Bold-41"/>
   </g>
   <!--  -->
   <g transform="translate(360 28.584125)scale(0.14 -0.14)"/>
  </g>
 </g>
 <defs>
  <clipPath id="pf170a388e2">
   <rect height="127.14167" width="629.6" x="79.6" y="41.8"/>
  </clipPath>
 </defs>
</svg>
