<?xml version="1.0" encoding="utf-8" standalone="no"?>
<!DOCTYPE svg PUBLIC "-//W3C//DTD SVG 1.1//EN"
  "http://www.w3.org/Graphics/SVG/1.1/DTD/svg11.dtd">
<!-- Created with matplotlib (https://matplotlib.org/) -->
<svg height="216pt" version="1.1" viewBox="0 0 720 216" width="720pt" xmlns="http://www.w3.org/2000/svg" xmlns:xlink="http://www.w3.org/1999/xlink">
 <defs>
  <style type="text/css">
*{stroke-linecap:butt;stroke-linejoin:round;}
  </style>
 </defs>
 <g id="figure_1">
  <g id="patch_1">
   <path d="M 0 216 
L 720 216 
L 720 0 
L 0 0 
z
" style="fill:#ffffff;"/>
  </g>
  <g id="axes_1">
   <g id="patch_2">
    <path d="M 79.6 168.94167 
L 709.2 168.94167 
L 709.2 41.8 
L 79.6 41.8 
z
" style="fill:#ffffff;"/>
   </g>
   <g id="matplotlib.axis_1">
    <g id="xtick_1">
     <g id="line2d_1">
      <path clip-path="url(#p418a6e7c96)" d="M 182.098497 168.94167 
L 182.098497 41.8 
" style="fill:none;stroke:#dddddd;stroke-linecap:round;stroke-width:0.5;"/>
     </g>
     <g id="text_1">
      <!-- 2004 -->
      <defs>
       <path d="M 19.1875 8.296875 
L 53.609375 8.296875 
L 53.609375 0 
L 7.328125 0 
L 7.328125 8.296875 
Q 12.9375 14.109375 22.625 23.890625 
Q 32.328125 33.6875 34.8125 36.53125 
Q 39.546875 41.84375 41.421875 45.53125 
Q 43.3125 49.21875 43.3125 52.78125 
Q 43.3125 58.59375 39.234375 62.25 
Q 35.15625 65.921875 28.609375 65.921875 
Q 23.96875 65.921875 18.8125 64.3125 
Q 13.671875 62.703125 7.8125 59.421875 
L 7.8125 69.390625 
Q 13.765625 71.78125 18.9375 73 
Q 24.125 74.21875 28.421875 74.21875 
Q 39.75 74.21875 46.484375 68.546875 
Q 53.21875 62.890625 53.21875 53.421875 
Q 53.21875 48.921875 51.53125 44.890625 
Q 49.859375 40.875 45.40625 35.40625 
Q 44.1875 33.984375 37.640625 27.21875 
Q 31.109375 20.453125 19.1875 8.296875 
z
" id="DejaVuSans-50"/>
       <path d="M 31.78125 66.40625 
Q 24.171875 66.40625 20.328125 58.90625 
Q 16.5 51.421875 16.5 36.375 
Q 16.5 21.390625 20.328125 13.890625 
Q 24.171875 6.390625 31.78125 6.390625 
Q 39.453125 6.390625 43.28125 13.890625 
Q 47.125 21.390625 47.125 36.375 
Q 47.125 51.421875 43.28125 58.90625 
Q 39.453125 66.40625 31.78125 66.40625 
z
M 31.78125 74.21875 
Q 44.046875 74.21875 50.515625 64.515625 
Q 56.984375 54.828125 56.984375 36.375 
Q 56.984375 17.96875 50.515625 8.265625 
Q 44.046875 -1.421875 31.78125 -1.421875 
Q 19.53125 -1.421875 13.0625 8.265625 
Q 6.59375 17.96875 6.59375 36.375 
Q 6.59375 54.828125 13.0625 64.515625 
Q 19.53125 74.21875 31.78125 74.21875 
z
" id="DejaVuSans-48"/>
       <path d="M 37.796875 64.3125 
L 12.890625 25.390625 
L 37.796875 25.390625 
z
M 35.203125 72.90625 
L 47.609375 72.90625 
L 47.609375 25.390625 
L 58.015625 25.390625 
L 58.015625 17.1875 
L 47.609375 17.1875 
L 47.609375 0 
L 37.796875 0 
L 37.796875 17.1875 
L 4.890625 17.1875 
L 4.890625 26.703125 
z
" id="DejaVuSans-52"/>
      </defs>
      <g style="fill:#666666;" transform="translate(154.171467 201.801252)rotate(-30)scale(0.121 -0.121)">
       <use xlink:href="#DejaVuSans-50"/>
       <use x="63.623047" xlink:href="#DejaVuSans-48"/>
       <use x="127.246094" xlink:href="#DejaVuSans-48"/>
       <use x="190.869141" xlink:href="#DejaVuSans-52"/>
      </g>
     </g>
    </g>
    <g id="xtick_2">
     <g id="line2d_2">
      <path clip-path="url(#p418a6e7c96)" d="M 293.032866 168.94167 
L 293.032866 41.8 
" style="fill:none;stroke:#dddddd;stroke-linecap:round;stroke-width:0.5;"/>
     </g>
     <g id="text_2">
      <!-- 2008 -->
      <defs>
       <path d="M 31.78125 34.625 
Q 24.75 34.625 20.71875 30.859375 
Q 16.703125 27.09375 16.703125 20.515625 
Q 16.703125 13.921875 20.71875 10.15625 
Q 24.75 6.390625 31.78125 6.390625 
Q 38.8125 6.390625 42.859375 10.171875 
Q 46.921875 13.96875 46.921875 20.515625 
Q 46.921875 27.09375 42.890625 30.859375 
Q 38.875 34.625 31.78125 34.625 
z
M 21.921875 38.8125 
Q 15.578125 40.375 12.03125 44.71875 
Q 8.5 49.078125 8.5 55.328125 
Q 8.5 64.0625 14.71875 69.140625 
Q 20.953125 74.21875 31.78125 74.21875 
Q 42.671875 74.21875 48.875 69.140625 
Q 55.078125 64.0625 55.078125 55.328125 
Q 55.078125 49.078125 51.53125 44.71875 
Q 48 40.375 41.703125 38.8125 
Q 48.828125 37.15625 52.796875 32.3125 
Q 56.78125 27.484375 56.78125 20.515625 
Q 56.78125 9.90625 50.3125 4.234375 
Q 43.84375 -1.421875 31.78125 -1.421875 
Q 19.734375 -1.421875 13.25 4.234375 
Q 6.78125 9.90625 6.78125 20.515625 
Q 6.78125 27.484375 10.78125 32.3125 
Q 14.796875 37.15625 21.921875 38.8125 
z
M 18.3125 54.390625 
Q 18.3125 48.734375 21.84375 45.5625 
Q 25.390625 42.390625 31.78125 42.390625 
Q 38.140625 42.390625 41.71875 45.5625 
Q 45.3125 48.734375 45.3125 54.390625 
Q 45.3125 60.0625 41.71875 63.234375 
Q 38.140625 66.40625 31.78125 66.40625 
Q 25.390625 66.40625 21.84375 63.234375 
Q 18.3125 60.0625 18.3125 54.390625 
z
" id="DejaVuSans-56"/>
      </defs>
      <g style="fill:#666666;" transform="translate(265.105836 201.801252)rotate(-30)scale(0.121 -0.121)">
       <use xlink:href="#DejaVuSans-50"/>
       <use x="63.623047" xlink:href="#DejaVuSans-48"/>
       <use x="127.246094" xlink:href="#DejaVuSans-48"/>
       <use x="190.869141" xlink:href="#DejaVuSans-56"/>
      </g>
     </g>
    </g>
    <g id="xtick_3">
     <g id="line2d_3">
      <path clip-path="url(#p418a6e7c96)" d="M 403.967235 168.94167 
L 403.967235 41.8 
" style="fill:none;stroke:#dddddd;stroke-linecap:round;stroke-width:0.5;"/>
     </g>
     <g id="text_3">
      <!-- 2012 -->
      <defs>
       <path d="M 12.40625 8.296875 
L 28.515625 8.296875 
L 28.515625 63.921875 
L 10.984375 60.40625 
L 10.984375 69.390625 
L 28.421875 72.90625 
L 38.28125 72.90625 
L 38.28125 8.296875 
L 54.390625 8.296875 
L 54.390625 0 
L 12.40625 0 
z
" id="DejaVuSans-49"/>
      </defs>
      <g style="fill:#666666;" transform="translate(376.040205 201.801252)rotate(-30)scale(0.121 -0.121)">
       <use xlink:href="#DejaVuSans-50"/>
       <use x="63.623047" xlink:href="#DejaVuSans-48"/>
       <use x="127.246094" xlink:href="#DejaVuSans-49"/>
       <use x="190.869141" xlink:href="#DejaVuSans-50"/>
      </g>
     </g>
    </g>
    <g id="xtick_4">
     <g id="line2d_4">
      <path clip-path="url(#p418a6e7c96)" d="M 514.901604 168.94167 
L 514.901604 41.8 
" style="fill:none;stroke:#dddddd;stroke-linecap:round;stroke-width:0.5;"/>
     </g>
     <g id="text_4">
      <!-- 2016 -->
      <defs>
       <path d="M 33.015625 40.375 
Q 26.375 40.375 22.484375 35.828125 
Q 18.609375 31.296875 18.609375 23.390625 
Q 18.609375 15.53125 22.484375 10.953125 
Q 26.375 6.390625 33.015625 6.390625 
Q 39.65625 6.390625 43.53125 10.953125 
Q 47.40625 15.53125 47.40625 23.390625 
Q 47.40625 31.296875 43.53125 35.828125 
Q 39.65625 40.375 33.015625 40.375 
z
M 52.59375 71.296875 
L 52.59375 62.3125 
Q 48.875 64.0625 45.09375 64.984375 
Q 41.3125 65.921875 37.59375 65.921875 
Q 27.828125 65.921875 22.671875 59.328125 
Q 17.53125 52.734375 16.796875 39.40625 
Q 19.671875 43.65625 24.015625 45.921875 
Q 28.375 48.1875 33.59375 48.1875 
Q 44.578125 48.1875 50.953125 41.515625 
Q 57.328125 34.859375 57.328125 23.390625 
Q 57.328125 12.15625 50.6875 5.359375 
Q 44.046875 -1.421875 33.015625 -1.421875 
Q 20.359375 -1.421875 13.671875 8.265625 
Q 6.984375 17.96875 6.984375 36.375 
Q 6.984375 53.65625 15.1875 63.9375 
Q 23.390625 74.21875 37.203125 74.21875 
Q 40.921875 74.21875 44.703125 73.484375 
Q 48.484375 72.75 52.59375 71.296875 
z
" id="DejaVuSans-54"/>
      </defs>
      <g style="fill:#666666;" transform="translate(486.974574 201.801252)rotate(-30)scale(0.121 -0.121)">
       <use xlink:href="#DejaVuSans-50"/>
       <use x="63.623047" xlink:href="#DejaVuSans-48"/>
       <use x="127.246094" xlink:href="#DejaVuSans-49"/>
       <use x="190.869141" xlink:href="#DejaVuSans-54"/>
      </g>
     </g>
    </g>
    <g id="xtick_5">
     <g id="line2d_5">
      <path clip-path="url(#p418a6e7c96)" d="M 625.835973 168.94167 
L 625.835973 41.8 
" style="fill:none;stroke:#dddddd;stroke-linecap:round;stroke-width:0.5;"/>
     </g>
     <g id="text_5">
      <!-- 2020 -->
      <g style="fill:#666666;" transform="translate(597.908943 201.801252)rotate(-30)scale(0.121 -0.121)">
       <use xlink:href="#DejaVuSans-50"/>
       <use x="63.623047" xlink:href="#DejaVuSans-48"/>
       <use x="127.246094" xlink:href="#DejaVuSans-50"/>
       <use x="190.869141" xlink:href="#DejaVuSans-48"/>
      </g>
     </g>
    </g>
   </g>
   <g id="matplotlib.axis_2">
    <g id="ytick_1">
     <g id="line2d_6">
      <path clip-path="url(#p418a6e7c96)" d="M 79.6 163.162503 
L 709.2 163.162503 
" style="fill:none;stroke:#dddddd;stroke-linecap:round;stroke-width:0.5;"/>
     </g>
     <g id="text_6">
      <!-- 0.00 -->
      <defs>
       <path d="M 10.6875 12.40625 
L 21 12.40625 
L 21 0 
L 10.6875 0 
z
" id="DejaVuSans-46"/>
      </defs>
      <g style="fill:#666666;" transform="translate(43.158594 167.759558)scale(0.121 -0.121)">
       <use xlink:href="#DejaVuSans-48"/>
       <use x="63.623047" xlink:href="#DejaVuSans-46"/>
       <use x="95.410156" xlink:href="#DejaVuSans-48"/>
       <use x="159.033203" xlink:href="#DejaVuSans-48"/>
      </g>
     </g>
    </g>
    <g id="ytick_2">
     <g id="line2d_7">
      <path clip-path="url(#p418a6e7c96)" d="M 79.6 137.403952 
L 709.2 137.403952 
" style="fill:none;stroke:#dddddd;stroke-linecap:round;stroke-width:0.5;"/>
     </g>
     <g id="text_7">
      <!-- 0.20 -->
      <g style="fill:#666666;" transform="translate(43.158594 142.001006)scale(0.121 -0.121)">
       <use xlink:href="#DejaVuSans-48"/>
       <use x="63.623047" xlink:href="#DejaVuSans-46"/>
       <use x="95.410156" xlink:href="#DejaVuSans-50"/>
       <use x="159.033203" xlink:href="#DejaVuSans-48"/>
      </g>
     </g>
    </g>
    <g id="ytick_3">
     <g id="line2d_8">
      <path clip-path="url(#p418a6e7c96)" d="M 79.6 111.6454 
L 709.2 111.6454 
" style="fill:none;stroke:#dddddd;stroke-linecap:round;stroke-width:0.5;"/>
     </g>
     <g id="text_8">
      <!-- 0.40 -->
      <g style="fill:#666666;" transform="translate(43.158594 116.242455)scale(0.121 -0.121)">
       <use xlink:href="#DejaVuSans-48"/>
       <use x="63.623047" xlink:href="#DejaVuSans-46"/>
       <use x="95.410156" xlink:href="#DejaVuSans-52"/>
       <use x="159.033203" xlink:href="#DejaVuSans-48"/>
      </g>
     </g>
    </g>
    <g id="ytick_4">
     <g id="line2d_9">
      <path clip-path="url(#p418a6e7c96)" d="M 79.6 85.886849 
L 709.2 85.886849 
" style="fill:none;stroke:#dddddd;stroke-linecap:round;stroke-width:0.5;"/>
     </g>
     <g id="text_9">
      <!-- 0.60 -->
      <g style="fill:#666666;" transform="translate(43.158594 90.483903)scale(0.121 -0.121)">
       <use xlink:href="#DejaVuSans-48"/>
       <use x="63.623047" xlink:href="#DejaVuSans-46"/>
       <use x="95.410156" xlink:href="#DejaVuSans-54"/>
       <use x="159.033203" xlink:href="#DejaVuSans-48"/>
      </g>
     </g>
    </g>
    <g id="ytick_5">
     <g id="line2d_10">
      <path clip-path="url(#p418a6e7c96)" d="M 79.6 60.128297 
L 709.2 60.128297 
" style="fill:none;stroke:#dddddd;stroke-linecap:round;stroke-width:0.5;"/>
     </g>
     <g id="text_10">
      <!-- 0.80 -->
      <g style="fill:#666666;" transform="translate(43.158594 64.725352)scale(0.121 -0.121)">
       <use xlink:href="#DejaVuSans-48"/>
       <use x="63.623047" xlink:href="#DejaVuSans-46"/>
       <use x="95.410156" xlink:href="#DejaVuSans-56"/>
       <use x="159.033203" xlink:href="#DejaVuSans-48"/>
      </g>
     </g>
    </g>
    <g id="text_11">
     <!-- Volatility -->
     <defs>
      <path d="M 0.484375 72.90625 
L 19.390625 72.90625 
L 38.71875 19.09375 
L 58.015625 72.90625 
L 76.90625 72.90625 
L 49.90625 0 
L 27.484375 0 
z
" id="DejaVuSans-Bold-86"/>
      <path d="M 34.421875 43.5 
Q 28.609375 43.5 25.5625 39.328125 
Q 22.515625 35.15625 22.515625 27.296875 
Q 22.515625 19.4375 25.5625 15.25 
Q 28.609375 11.078125 34.421875 11.078125 
Q 40.140625 11.078125 43.15625 15.25 
Q 46.1875 19.4375 46.1875 27.296875 
Q 46.1875 35.15625 43.15625 39.328125 
Q 40.140625 43.5 34.421875 43.5 
z
M 34.421875 56 
Q 48.53125 56 56.46875 48.375 
Q 64.40625 40.765625 64.40625 27.296875 
Q 64.40625 13.8125 56.46875 6.1875 
Q 48.53125 -1.421875 34.421875 -1.421875 
Q 20.265625 -1.421875 12.28125 6.1875 
Q 4.296875 13.8125 4.296875 27.296875 
Q 4.296875 40.765625 12.28125 48.375 
Q 20.265625 56 34.421875 56 
z
" id="DejaVuSans-Bold-111"/>
      <path d="M 8.40625 75.984375 
L 25.875 75.984375 
L 25.875 0 
L 8.40625 0 
z
" id="DejaVuSans-Bold-108"/>
      <path d="M 32.90625 24.609375 
Q 27.4375 24.609375 24.671875 22.75 
Q 21.921875 20.90625 21.921875 17.28125 
Q 21.921875 13.96875 24.140625 12.078125 
Q 26.375 10.203125 30.328125 10.203125 
Q 35.25 10.203125 38.625 13.734375 
Q 42 17.28125 42 22.609375 
L 42 24.609375 
z
M 59.625 31.203125 
L 59.625 0 
L 42 0 
L 42 8.109375 
Q 38.484375 3.125 34.078125 0.84375 
Q 29.6875 -1.421875 23.390625 -1.421875 
Q 14.890625 -1.421875 9.59375 3.53125 
Q 4.296875 8.5 4.296875 16.40625 
Q 4.296875 26.03125 10.90625 30.515625 
Q 17.53125 35.015625 31.6875 35.015625 
L 42 35.015625 
L 42 36.375 
Q 42 40.53125 38.71875 42.453125 
Q 35.453125 44.390625 28.515625 44.390625 
Q 22.90625 44.390625 18.0625 43.265625 
Q 13.234375 42.140625 9.078125 39.890625 
L 9.078125 53.21875 
Q 14.703125 54.59375 20.359375 55.296875 
Q 26.03125 56 31.6875 56 
Q 46.484375 56 53.046875 50.171875 
Q 59.625 44.34375 59.625 31.203125 
z
" id="DejaVuSans-Bold-97"/>
      <path d="M 27.484375 70.21875 
L 27.484375 54.6875 
L 45.515625 54.6875 
L 45.515625 42.1875 
L 27.484375 42.1875 
L 27.484375 19 
Q 27.484375 15.1875 29 13.84375 
Q 30.515625 12.5 35.015625 12.5 
L 44 12.5 
L 44 0 
L 29 0 
Q 18.65625 0 14.328125 4.3125 
Q 10.015625 8.640625 10.015625 19 
L 10.015625 42.1875 
L 1.3125 42.1875 
L 1.3125 54.6875 
L 10.015625 54.6875 
L 10.015625 70.21875 
z
" id="DejaVuSans-Bold-116"/>
      <path d="M 8.40625 54.6875 
L 25.875 54.6875 
L 25.875 0 
L 8.40625 0 
z
M 8.40625 75.984375 
L 25.875 75.984375 
L 25.875 61.71875 
L 8.40625 61.71875 
z
" id="DejaVuSans-Bold-105"/>
      <path d="M 1.21875 54.6875 
L 18.703125 54.6875 
L 33.40625 17.578125 
L 45.90625 54.6875 
L 63.375 54.6875 
L 40.375 -5.171875 
Q 36.921875 -14.3125 32.296875 -17.9375 
Q 27.6875 -21.578125 20.125 -21.578125 
L 10.015625 -21.578125 
L 10.015625 -10.109375 
L 15.484375 -10.109375 
Q 19.921875 -10.109375 21.9375 -8.6875 
Q 23.96875 -7.28125 25.09375 -3.609375 
L 25.59375 -2.09375 
z
" id="DejaVuSans-Bold-121"/>
     </defs>
     <g transform="translate(14.050625 135.729897)rotate(-90)scale(0.12 -0.12)">
      <use xlink:href="#DejaVuSans-Bold-86"/>
      <use x="71.892578" xlink:href="#DejaVuSans-Bold-111"/>
      <use x="140.59375" xlink:href="#DejaVuSans-Bold-108"/>
      <use x="174.871094" xlink:href="#DejaVuSans-Bold-97"/>
      <use x="242.351562" xlink:href="#DejaVuSans-Bold-116"/>
      <use x="290.154297" xlink:href="#DejaVuSans-Bold-105"/>
      <use x="324.431641" xlink:href="#DejaVuSans-Bold-108"/>
      <use x="358.708984" xlink:href="#DejaVuSans-Bold-105"/>
      <use x="392.986328" xlink:href="#DejaVuSans-Bold-116"/>
      <use x="440.789062" xlink:href="#DejaVuSans-Bold-121"/>
     </g>
    </g>
   </g>
   <g id="line2d_11">
    <path clip-path="url(#p418a6e7c96)" d="M 108.218182 134.806221 
L 108.521904 134.776831 
L 108.597834 134.444468 
L 108.825625 131.301964 
L 109.129347 130.651964 
L 109.281208 129.862606 
L 109.888651 129.795917 
L 110.192373 127.543152 
L 110.344234 123.88773 
L 110.420164 123.250794 
L 112.849938 123.239718 
L 113.912965 123.239718 
L 114.064825 125.078631 
L 114.368547 125.597245 
L 114.520408 126.437931 
L 115.051921 126.457974 
L 115.203782 126.803378 
L 115.507504 127.534767 
L 115.963086 127.549705 
L 116.114947 128.454939 
L 116.190878 128.498785 
L 116.266808 126.607168 
L 116.494599 126.522183 
L 116.722391 126.082079 
L 116.798321 125.421223 
L 120.822634 125.32886 
L 121.278217 123.596752 
L 121.430078 123.512403 
L 121.581939 123.289627 
L 121.961591 123.05212 
L 122.113452 122.667562 
L 122.569034 126.809032 
L 122.644965 126.811015 
L 122.872756 126.567407 
L 123.024617 120.828455 
L 123.100548 120.800295 
L 123.176478 121.071853 
L 123.55613 120.352978 
L 123.935782 117.095468 
L 124.011713 117.453246 
L 124.239504 118.814077 
L 124.467295 118.565508 
L 124.771017 110.446217 
L 125.150669 110.446217 
L 125.2266 110.017907 
L 125.30253 110.033794 
L 125.530322 109.072987 
L 125.606252 110.825888 
L 125.682182 110.031665 
L 125.834043 107.794773 
L 126.061835 107.792822 
L 126.365556 106.814452 
L 126.745209 106.640582 
L 126.897069 99.675149 
L 127.276722 99.502101 
L 127.352652 99.493687 
L 127.656374 98.792286 
L 127.808235 98.731551 
L 127.884165 98.399502 
L 127.960096 95.16492 
L 128.263817 91.530852 
L 128.415678 88.714249 
L 128.491609 88.664075 
L 128.7194 88.662499 
L 128.871261 85.852414 
L 129.023122 84.488211 
L 129.478704 77.808456 
L 129.554635 77.115505 
L 130.010217 76.958524 
L 130.086148 76.958524 
L 130.4658 76.619525 
L 130.921383 73.038678 
L 130.997313 72.65711 
L 131.452896 63.11932 
L 131.680687 62.861822 
L 131.984409 62.77701 
L 132.13627 62.443705 
L 132.515922 62.434883 
L 132.667783 63.170288 
L 133.047435 62.001956 
L 133.123365 62.101015 
L 133.199296 61.945204 
L 133.503017 61.674577 
L 133.730809 55.335957 
L 133.806739 54.975035 
L 134.034531 54.82989 
L 134.338252 50.832525 
L 134.566044 50.824027 
L 134.717904 49.124249 
L 134.869765 49.059035 
L 135.325348 48.455369 
L 135.705 47.724814 
L 136.388374 47.732667 
L 136.464304 47.579167 
L 136.692096 47.754982 
L 136.768026 47.618712 
L 136.919887 47.854512 
L 137.299539 47.932372 
L 137.527331 48.138178 
L 137.982913 48.217277 
L 138.058844 48.270268 
L 138.514426 48.364909 
L 138.590357 50.303387 
L 138.970009 50.383149 
L 139.12187 50.638528 
L 139.349661 51.154591 
L 139.501522 52.146732 
L 139.653383 52.159052 
L 139.881174 52.415695 
L 140.184896 56.506935 
L 140.564548 56.506935 
L 140.716409 56.674552 
L 140.9442 56.689514 
L 141.247922 60.070021 
L 141.475713 60.072599 
L 141.779435 60.819312 
L 142.083157 65.394414 
L 142.310948 65.419942 
L 142.61467 65.676424 
L 142.766531 66.123583 
L 142.842461 66.123583 
L 143.070253 66.474748 
L 143.373974 73.125971 
L 143.753626 73.541687 
L 143.905487 75.757445 
L 144.133279 76.236304 
L 144.209209 76.821381 
L 144.36107 80.819001 
L 144.437 81.618116 
L 144.816653 83.184351 
L 144.892583 83.134319 
L 145.348166 83.134319 
L 145.727818 83.499491 
L 146.259331 93.390339 
L 146.411192 102.583321 
L 146.487122 102.600544 
L 146.563053 102.799486 
L 146.866774 102.864861 
L 147.018635 103.23046 
L 147.094566 103.304595 
L 147.474218 103.473407 
L 147.550148 103.835105 
L 147.626079 105.268808 
L 147.85387 105.284291 
L 148.005731 106.777944 
L 148.157592 119.22594 
L 148.385383 119.965666 
L 148.537244 119.861376 
L 148.689105 124.306132 
L 149.068757 130.574842 
L 149.220618 137.761765 
L 149.52434 137.822044 
L 149.676201 139.520604 
L 149.752131 136.542586 
L 149.979922 132.871593 
L 150.055853 135.517463 
L 150.131783 134.909257 
L 150.283644 132.628527 
L 150.511435 132.07886 
L 150.663296 130.944253 
L 150.739227 125.042651 
L 150.815157 125.53985 
L 151.118879 124.47691 
L 151.34667 121.033895 
L 151.574462 121.033895 
L 151.650392 120.845541 
L 151.726322 119.390888 
L 152.105975 119.166267 
L 152.257835 114.795201 
L 152.637488 113.925384 
L 152.789349 113.079811 
L 153.169001 113.085971 
L 153.244931 112.702337 
L 153.396792 108.677665 
L 153.472722 108.52652 
L 153.776444 107.447554 
L 153.928305 107.359595 
L 154.004236 105.763273 
L 154.307957 105.300837 
L 154.535749 94.290338 
L 154.991331 88.182901 
L 155.370983 88.023166 
L 155.522844 86.771831 
L 156.054357 84.129479 
L 156.130288 81.964498 
L 156.50994 81.190205 
L 156.661801 80.528694 
L 157.117383 80.529052 
L 157.193314 80.295692 
L 157.497036 80.12819 
L 158.25634 74.748629 
L 158.787853 74.41146 
L 159.243436 73.34398 
L 159.319366 73.485482 
L 159.699018 72.018549 
L 159.850879 60.401792 
L 160.230531 55.843051 
L 160.306462 55.852238 
L 160.382392 55.856402 
L 160.686114 55.559489 
L 161.217627 55.511843 
L 161.369488 54.861643 
L 161.445418 54.673207 
L 161.74914 54.669949 
L 161.901001 54.045916 
L 161.976931 53.978109 
L 162.280653 53.194558 
L 162.356584 53.204394 
L 163.039958 52.50674 
L 163.343679 52.400313 
L 163.49554 52.772872 
L 163.571471 51.927115 
L 163.799262 51.926037 
L 163.951123 51.306701 
L 164.102984 50.483659 
L 164.558566 50.317788 
L 164.634497 50.871257 
L 164.938218 50.547022 
L 165.014149 50.653369 
L 165.16601 51.410464 
L 165.469732 48.22063 
L 165.545662 48.390071 
L 165.621592 48.378043 
L 165.697523 49.901538 
L 165.925314 49.892947 
L 166.077175 50.675723 
L 166.456827 51.5696 
L 166.684619 50.640021 
L 166.760549 50.834102 
L 166.98834 48.535569 
L 167.064271 48.599528 
L 167.140201 49.686404 
L 167.216132 49.022577 
L 167.292062 49.072656 
L 167.519853 48.24317 
L 167.671714 48.852216 
L 167.823575 48.715292 
L 168.051366 48.70412 
L 168.127297 48.92503 
L 168.279158 50.960067 
L 168.582879 50.915045 
L 168.886601 52.386263 
L 169.190323 52.439308 
L 169.266253 58.507907 
L 169.342184 57.39783 
L 169.418114 57.198813 
L 169.645906 57.547342 
L 169.721836 57.919895 
L 169.797766 57.836992 
L 169.949627 57.920599 
L 170.253349 58.919191 
L 170.48114 62.814116 
L 170.708932 63.184998 
L 170.784862 63.110644 
L 170.860793 63.008698 
L 170.936723 63.640487 
L 171.012653 63.509712 
L 171.240445 63.213248 
L 171.392306 62.789185 
L 171.544167 62.803587 
L 171.923819 63.137588 
L 171.999749 63.782567 
L 172.07568 63.71776 
L 172.303471 65.206543 
L 172.455332 67.435713 
L 172.986845 66.91449 
L 173.442427 67.125542 
L 173.670219 68.193625 
L 173.89801 68.177337 
L 173.973941 68.540987 
L 174.049871 68.517618 
L 174.201732 70.290511 
L 174.429523 70.273667 
L 174.505454 81.94967 
L 174.581384 80.477213 
L 174.657314 85.943794 
L 174.961036 85.898044 
L 175.036967 85.689831 
L 175.188828 84.919584 
L 175.264758 82.151015 
L 175.56848 82.07453 
L 175.720341 81.918989 
L 175.796271 81.912847 
L 176.024062 82.664502 
L 176.175923 82.686843 
L 176.555575 83.874259 
L 176.707436 83.691806 
L 176.783367 84.54738 
L 176.859297 84.168289 
L 177.087088 83.905595 
L 177.238949 80.525836 
L 177.31488 80.55531 
L 177.39081 80.532588 
L 177.618602 80.218755 
L 177.694532 80.277463 
L 177.922323 80.42298 
L 178.150115 80.425831 
L 178.226045 81.494533 
L 178.301975 81.481513 
L 178.377906 81.795767 
L 178.681628 81.437172 
L 178.833489 81.867572 
L 178.909419 81.750739 
L 178.985349 81.864692 
L 179.289071 78.721832 
L 179.516862 78.546617 
L 179.820584 78.4854 
L 179.896515 78.140924 
L 179.972445 79.506197 
L 180.048376 79.376149 
L 180.428028 79.356772 
L 180.579889 84.029224 
L 180.959541 83.324258 
L 181.111402 81.787496 
L 181.642915 81.801482 
L 181.946636 81.432174 
L 182.174428 82.577346 
L 182.478149 82.433083 
L 182.705941 83.10495 
L 182.933732 86.485711 
L 183.009663 86.398805 
L 183.085593 86.715776 
L 183.161523 87.979821 
L 183.541176 87.544899 
L 183.617106 88.74007 
L 183.768967 88.649945 
L 184.148619 88.634213 
L 184.30048 88.844058 
L 184.604202 88.824492 
L 184.831993 83.012625 
L 185.287576 82.869198 
L 185.363506 82.186072 
L 185.667228 81.640883 
L 185.743158 82.002646 
L 185.895019 80.588723 
L 186.12281 79.630342 
L 186.274671 84.171858 
L 186.426532 85.359535 
L 186.806184 85.492602 
L 187.261767 82.470139 
L 187.337697 81.48495 
L 187.489558 81.270008 
L 188.476654 78.203722 
L 188.780376 78.549718 
L 188.932237 79.125884 
L 189.843402 79.153394 
L 190.147124 78.294427 
L 190.374915 77.901095 
L 190.678637 76.8013 
L 191.058289 76.546995 
L 191.21015 75.900664 
L 192.045385 75.658729 
L 192.121315 76.098301 
L 192.273176 77.957358 
L 192.576898 77.713254 
L 192.728759 82.07724 
L 192.804689 81.980674 
L 193.03248 82.001595 
L 193.108411 79.728703 
L 193.184341 79.775104 
L 193.867715 79.763288 
L 194.323298 79.839862 
L 194.627019 79.505798 
L 194.70295 79.068087 
L 194.854811 79.547396 
L 194.930741 83.962978 
L 195.158533 83.89843 
L 195.234463 83.7531 
L 195.386324 84.05039 
L 195.765976 84.011161 
L 195.917837 83.956566 
L 195.993767 83.927238 
L 196.297489 83.008294 
L 196.37342 83.789008 
L 196.44935 82.601527 
L 196.52528 82.969366 
L 196.753072 83.034965 
L 196.904933 87.182083 
L 197.056793 87.740599 
L 197.967959 87.819302 
L 198.11982 88.134597 
L 198.347611 88.720193 
L 198.423541 88.451119 
L 198.499472 90.400631 
L 198.575402 90.140674 
L 198.651333 89.92134 
L 198.955054 89.886212 
L 199.106915 88.949589 
L 199.182846 89.557883 
L 199.410637 89.55633 
L 199.486567 89.686337 
L 199.94215 89.727634 
L 200.094011 90.495494 
L 200.625524 90.490486 
L 200.777385 90.142476 
L 201.081107 93.38073 
L 201.232968 93.345759 
L 201.308898 96.215883 
L 201.536689 96.05239 
L 201.68855 96.644474 
L 201.840411 97.776765 
L 202.144133 99.855506 
L 202.220063 99.089559 
L 202.295994 99.427837 
L 202.675646 98.697675 
L 202.827507 97.84782 
L 202.903437 98.014993 
L 203.131228 98.083772 
L 203.207159 100.622808 
L 203.738672 103.615283 
L 203.966463 103.747954 
L 204.194255 105.337316 
L 204.270185 105.251522 
L 204.346115 105.224532 
L 204.422046 105.757873 
L 204.497976 104.951606 
L 204.801698 104.88923 
L 204.953559 103.679092 
L 205.409142 103.783244 
L 205.788794 102.819792 
L 205.864724 103.408863 
L 205.940655 103.397136 
L 206.016585 103.706751 
L 206.320307 103.72367 
L 206.472168 105.028621 
L 206.548098 105.161354 
L 206.85182 105.050981 
L 207.003681 105.477768 
L 207.155542 105.995521 
L 207.383333 106.188415 
L 207.687055 105.465196 
L 207.914846 105.625179 
L 208.142637 104.946768 
L 208.218568 104.942286 
L 208.522289 104.571128 
L 208.67415 104.938033 
L 208.750081 104.884171 
L 208.977872 104.869617 
L 209.129733 105.36354 
L 209.205663 108.981263 
L 209.737176 109.12059 
L 210.040898 108.989575 
L 210.116829 108.505814 
L 210.34462 108.505348 
L 210.648342 108.500243 
L 210.800203 109.759569 
L 210.876133 109.700445 
L 211.255785 109.719445 
L 211.407646 109.214125 
L 211.711368 109.091801 
L 211.939159 109.742501 
L 212.698464 109.820083 
L 212.926255 113.111493 
L 213.381837 113.546145 
L 213.533698 113.231203 
L 213.989281 113.051414 
L 214.520794 112.532317 
L 214.824516 112.455816 
L 215.128238 113.93819 
L 215.356029 113.928879 
L 215.50789 112.805434 
L 215.659751 114.344158 
L 215.887542 114.33859 
L 216.039403 114.21743 
L 217.558012 114.344574 
L 217.709872 114.665894 
L 217.785803 114.561033 
L 218.317316 115.502586 
L 219.07662 115.637693 
L 219.152551 116.796452 
L 219.228481 116.144886 
L 219.380342 117.436855 
L 219.684064 118.495445 
L 219.835925 119.265801 
L 219.911855 119.263309 
L 220.139646 119.371725 
L 220.367438 119.696886 
L 220.74709 119.712303 
L 220.974881 120.154603 
L 221.354533 120.758288 
L 221.506394 122.116318 
L 221.734186 122.121906 
L 221.886046 121.990352 
L 221.961977 123.407294 
L 222.037907 123.312019 
L 222.41756 123.331029 
L 222.49349 123.641878 
L 222.56942 125.14757 
L 222.797212 125.162419 
L 222.873142 125.321631 
L 223.100933 126.348277 
L 223.480586 128.825269 
L 223.556516 128.808462 
L 223.632447 128.986209 
L 223.936168 128.986779 
L 224.088029 129.121615 
L 224.16396 129.139164 
L 224.467681 130.68145 
L 224.543612 130.690366 
L 224.695473 132.091562 
L 224.999194 131.424597 
L 225.226986 131.57707 
L 225.682568 132.062865 
L 226.214081 132.071406 
L 226.593734 133.262159 
L 226.669664 133.137969 
L 226.821525 133.143652 
L 227.049316 133.225567 
L 227.277108 133.878126 
L 227.353038 134.722815 
L 227.73269 135.249283 
L 227.884551 135.422689 
L 228.340134 135.506724 
L 228.416064 135.614061 
L 228.795716 135.630948 
L 228.947577 135.809579 
L 229.175368 136.115312 
L 229.40316 136.076098 
L 229.706881 136.078565 
L 229.782812 136.535264 
L 229.934673 136.59105 
L 230.010603 136.834293 
L 230.238395 137.082178 
L 230.466186 137.894632 
L 230.997699 137.970415 
L 231.073629 138.204339 
L 231.453282 138.408587 
L 231.605142 139.016884 
L 231.908864 143.504545 
L 232.136655 143.761635 
L 232.440377 143.215194 
L 232.668169 142.883931 
L 233.199682 141.48822 
L 233.579334 141.480313 
L 233.655264 140.558949 
L 233.731195 140.712237 
L 233.958986 140.695956 
L 234.110847 140.565067 
L 234.262708 138.654362 
L 234.490499 138.618927 
L 234.64236 138.754387 
L 234.794221 138.754387 
L 235.249803 138.552463 
L 235.325734 139.856901 
L 236.160969 139.893973 
L 236.31283 140.072898 
L 236.920273 140.16482 
L 237.299925 140.228477 
L 237.451786 140.466745 
L 237.755508 140.775168 
L 237.907369 141.327767 
L 238.818534 141.215322 
L 238.970395 141.007285 
L 239.046325 139.641866 
L 239.425977 139.543425 
L 239.577838 138.155109 
L 239.957491 138.154229 
L 240.109351 138.007436 
L 240.337143 137.998037 
L 240.413073 137.85875 
L 240.640864 138.82153 
L 241.020517 137.725122 
L 241.703891 137.689845 
L 241.931682 137.59082 
L 242.083543 136.867043 
L 242.159473 136.928467 
L 242.235404 136.983794 
L 242.463195 136.989811 
L 242.615056 136.798675 
L 242.994708 136.76374 
L 243.146569 135.846666 
L 243.29843 135.814711 
L 244.133665 135.789931 
L 244.285525 135.705101 
L 245.652273 135.625456 
L 245.804134 134.769447 
L 245.880065 134.717498 
L 245.955995 134.503792 
L 246.335647 134.42253 
L 246.411578 134.260856 
L 246.487508 133.344119 
L 246.943091 132.076801 
L 247.019021 131.601642 
L 247.322743 131.546259 
L 247.398673 131.868588 
L 247.474604 131.625712 
L 247.550534 131.850401 
L 248.309839 132.759829 
L 248.993213 132.839007 
L 249.145073 133.621993 
L 249.448795 133.388798 
L 249.524726 133.657286 
L 249.600656 135.285056 
L 249.676587 135.153971 
L 250.056239 127.935563 
L 250.2081 121.911898 
L 250.511821 121.769901 
L 250.739613 121.195753 
L 250.967404 120.9874 
L 251.119265 119.414469 
L 251.650778 112.959824 
L 251.726708 112.959628 
L 251.802639 112.554721 
L 252.106361 112.34771 
L 252.334152 104.445359 
L 252.637874 104.405795 
L 252.865665 102.865322 
L 254.384274 102.83802 
L 254.460204 103.230272 
L 254.687995 103.006223 
L 254.915787 89.520262 
L 255.219508 89.464777 
L 255.4473 89.856701 
L 256.054743 89.906212 
L 256.358465 90.071118 
L 256.510326 89.556194 
L 256.586256 89.708023 
L 256.814048 89.868321 
L 256.965908 88.408452 
L 257.421491 88.428448 
L 257.649282 88.272241 
L 257.953004 87.096634 
L 258.180795 87.105204 
L 258.484517 86.930002 
L 258.636378 85.399903 
L 258.712309 85.408772 
L 259.091961 85.377847 
L 259.243822 84.856737 
L 259.775335 84.805149 
L 260.079056 84.584167 
L 260.154987 84.480017 
L 260.306848 83.529039 
L 260.610569 83.520671 
L 260.76243 83.344105 
L 260.838361 83.387508 
L 261.218013 83.279284 
L 261.369874 83.326356 
L 261.749526 83.376603 
L 261.901387 83.955342 
L 262.205109 83.99383 
L 262.4329 84.377787 
L 262.736622 83.439861 
L 262.812552 83.430801 
L 262.888483 83.550381 
L 262.964413 83.479909 
L 263.344065 83.31773 
L 263.875578 83.241038 
L 264.027439 83.029408 
L 264.407091 82.879567 
L 264.558952 82.852663 
L 264.862674 85.668371 
L 264.938604 85.613862 
L 265.090465 88.338078 
L 265.9257 88.650023 
L 266.077561 88.236976 
L 266.457213 89.183732 
L 266.533144 89.129377 
L 266.685004 92.674689 
L 266.912796 92.578991 
L 266.988726 92.923967 
L 267.216518 93.082593 
L 267.444309 99.982016 
L 267.520239 99.974449 
L 267.59617 99.879476 
L 267.748031 101.332092 
L 268.203613 101.32035 
L 268.279544 101.107588 
L 268.507335 101.038581 
L 268.735126 100.144682 
L 269.114778 100.122348 
L 269.646292 100.384549 
L 269.798152 100.78026 
L 270.253735 116.855573 
L 270.329665 116.848863 
L 270.405596 117.083408 
L 271.240831 117.050478 
L 271.468622 116.680858 
L 271.696413 116.696438 
L 271.848274 117.860115 
L 272.000135 117.901926 
L 272.303857 120.111076 
L 272.83537 120.101111 
L 272.987231 119.562476 
L 273.290953 118.518895 
L 273.366883 119.05352 
L 273.518744 120.776892 
L 273.594674 120.604905 
L 273.822466 120.588521 
L 273.898396 120.736614 
L 273.974326 121.138271 
L 274.050257 121.116399 
L 274.126187 124.377701 
L 274.429909 124.14233 
L 274.58177 123.889536 
L 274.6577 123.95859 
L 274.961422 124.911018 
L 275.037353 124.885935 
L 275.189213 122.718111 
L 275.492935 122.655959 
L 275.568866 122.593051 
L 275.644796 122.771087 
L 275.948518 121.518075 
L 276.100379 123.323766 
L 276.176309 123.232228 
L 276.25224 123.180996 
L 276.555961 123.576418 
L 276.707822 123.414631 
L 276.783753 124.120085 
L 277.543057 124.268118 
L 277.770848 123.417821 
L 277.846779 122.836878 
L 278.226431 122.869906 
L 278.302361 122.621015 
L 278.378292 124.24555 
L 278.606083 124.345573 
L 278.682014 124.526034 
L 278.757944 124.377401 
L 278.909805 124.757771 
L 279.365387 123.344787 
L 279.441318 123.409413 
L 279.972831 123.598187 
L 280.276553 123.979584 
L 280.428414 124.622036 
L 280.504344 123.922137 
L 280.732135 124.091369 
L 280.959927 122.590588 
L 281.263648 122.606276 
L 281.339579 121.889853 
L 281.415509 121.900001 
L 281.56737 122.221887 
L 281.871092 122.208357 
L 281.947022 123.106961 
L 282.326675 123.296137 
L 282.478535 123.664514 
L 282.554466 123.620747 
L 282.630396 123.124914 
L 283.389701 123.111619 
L 283.541562 123.275767 
L 283.997144 123.262088 
L 284.149005 123.197641 
L 284.224935 123.291863 
L 284.452727 123.359847 
L 284.528657 124.11868 
L 284.604588 124.092416 
L 284.98424 124.041475 
L 285.212031 123.690737 
L 285.667614 123.44748 
L 285.819475 123.298844 
L 286.047266 121.284597 
L 286.275057 121.035216 
L 286.350988 120.182094 
L 286.73064 120.040806 
L 286.882501 120.409977 
L 287.186223 120.343163 
L 287.338083 120.094532 
L 287.945527 116.640332 
L 288.173318 116.620427 
L 288.40111 117.44095 
L 288.780762 117.528579 
L 288.932623 115.860649 
L 289.008553 112.400462 
L 289.236344 110.916749 
L 289.388205 107.356144 
L 289.767857 107.593619 
L 290.071579 107.565342 
L 290.29937 106.968591 
L 290.375301 108.035421 
L 290.527162 105.718401 
L 290.906814 105.736867 
L 290.982744 106.491344 
L 291.058675 106.259555 
L 291.362397 106.382856 
L 291.438327 105.643694 
L 291.514257 105.660646 
L 291.590188 105.787677 
L 292.045771 104.991423 
L 292.425423 97.945097 
L 292.577284 97.906641 
L 292.653214 97.133714 
L 292.729144 97.236991 
L 293.184727 97.961849 
L 293.260658 94.88356 
L 293.488449 94.860273 
L 293.792171 94.235808 
L 294.095892 94.199783 
L 294.247753 94.33615 
L 294.323684 94.347015 
L 294.703336 95.32308 
L 295.614501 95.412038 
L 295.918223 96.084087 
L 296.146014 96.091859 
L 296.221945 96.854921 
L 296.373805 96.887892 
L 296.449736 97.371092 
L 297.436832 97.388461 
L 297.512762 97.688132 
L 297.740553 97.703665 
L 297.892414 98.177021 
L 298.499858 98.229375 
L 299.335093 98.33129 
L 299.486953 98.440269 
L 299.638814 98.979234 
L 300.094397 99.074223 
L 300.170327 99.343505 
L 300.62591 99.265324 
L 300.70184 97.889416 
L 301.005562 97.699301 
L 301.233353 89.334896 
L 301.461145 89.905808 
L 301.688936 89.079447 
L 302.29638 89.209475 
L 302.600101 90.625191 
L 302.676032 90.482852 
L 302.751962 90.536592 
L 302.827893 90.861583 
L 303.131614 90.249271 
L 303.283475 90.481028 
L 303.663127 90.485402 
L 303.814988 91.434424 
L 303.890919 93.615529 
L 304.19464 93.922131 
L 304.270571 96.587201 
L 304.346501 96.319302 
L 304.422432 96.290935 
L 304.802084 95.413186 
L 305.257667 94.648856 
L 305.409527 93.828749 
L 305.485458 91.369618 
L 305.713249 93.163061 
L 305.86511 92.081623 
L 305.941041 91.159719 
L 306.016971 88.40826 
L 306.320693 88.406359 
L 306.548484 86.930638 
L 306.852206 87.441421 
L 307.004067 86.969371 
L 307.307788 87.106385 
L 307.459649 87.466963 
L 307.53558 88.826577 
L 307.61151 93.738631 
L 307.839301 93.778034 
L 307.915232 94.403616 
L 308.143023 89.454123 
L 308.370815 89.507505 
L 308.446745 89.099036 
L 308.522675 91.717199 
L 308.598606 91.352407 
L 308.674536 91.717965 
L 308.978258 91.762379 
L 309.130119 92.155618 
L 309.433841 91.7051 
L 309.585702 89.786357 
L 309.965354 88.87119 
L 310.117215 88.84402 
L 310.496867 87.868254 
L 310.648728 86.827586 
L 310.724658 86.736684 
L 311.02838 83.490645 
L 311.10431 83.477265 
L 311.332102 83.098742 
L 311.635823 82.968044 
L 311.711754 82.804529 
L 311.863615 79.453181 
L 312.091406 79.339197 
L 312.395128 78.196554 
L 312.698849 77.75342 
L 312.85071 77.749256 
L 312.926641 77.533636 
L 316.495371 77.563079 
L 316.571302 77.682366 
L 316.647232 78.864882 
L 316.950954 79.091754 
L 317.178745 83.594021 
L 317.482467 87.710502 
L 317.93805 88.26865 
L 318.01398 88.568576 
L 318.697354 88.66393 
L 318.773284 88.21667 
L 319.152937 87.685813 
L 319.228867 86.615735 
L 319.304798 86.773235 
L 319.68445 86.717833 
L 319.836311 87.389857 
L 320.064102 87.391662 
L 320.215963 87.871473 
L 320.899337 87.979864 
L 321.127128 88.093862 
L 321.203058 88.937471 
L 321.43085 86.528794 
L 321.810502 85.920395 
L 321.962363 86.522846 
L 322.342015 87.634147 
L 322.493876 90.709279 
L 322.721667 90.967762 
L 322.873528 92.795096 
L 323.025389 95.937801 
L 323.25318 96.157362 
L 323.329111 96.592002 
L 323.480972 97.891575 
L 323.556902 98.464894 
L 323.860624 98.469854 
L 324.012485 98.587065 
L 324.619928 98.630882 
L 324.92365 104.31473 
L 324.99958 104.326395 
L 325.151441 104.852683 
L 325.379232 105.085726 
L 325.531093 105.581025 
L 325.986676 105.65417 
L 326.138537 106.162909 
L 326.214467 108.393476 
L 326.442259 108.702477 
L 326.594119 107.770677 
L 326.67005 108.52348 
L 326.74598 108.485981 
L 327.125633 106.403964 
L 327.277493 106.556874 
L 327.505285 104.620114 
L 327.581215 104.684178 
L 327.657146 105.370082 
L 327.809006 102.523276 
L 328.036798 103.86374 
L 328.112728 106.4587 
L 328.188659 106.113349 
L 328.644241 101.785282 
L 328.720172 101.969278 
L 328.796102 101.502229 
L 328.872033 106.358557 
L 329.175754 106.388073 
L 329.327615 108.1094 
L 329.403546 105.120282 
L 329.707267 105.178631 
L 329.859128 104.947791 
L 329.935059 104.943769 
L 330.314711 103.739194 
L 330.466572 101.803864 
L 330.998085 101.746115 
L 331.377737 101.519758 
L 331.529598 100.488364 
L 331.985181 97.226709 
L 332.288902 89.46072 
L 332.364833 89.468931 
L 332.820415 89.367573 
L 332.972276 88.915523 
L 333.124137 88.771371 
L 333.427859 85.639544 
L 333.65565 85.415628 
L 334.035302 85.423368 
L 334.187163 85.229263 
L 334.414955 85.246304 
L 334.566815 85.655314 
L 334.946468 85.978491 
L 335.022398 85.806113 
L 335.174259 87.264269 
L 335.250189 87.465458 
L 335.705772 65.836649 
L 336.313215 65.825527 
L 336.768798 65.879655 
L 336.844729 66.391589 
L 337.07252 66.190773 
L 337.224381 67.456055 
L 337.300311 67.265409 
L 337.376242 66.656212 
L 337.755894 66.584617 
L 338.363337 66.614328 
L 338.439268 66.407411 
L 338.970781 66.414637 
L 339.198572 66.439681 
L 339.350433 66.045217 
L 339.806016 65.97159 
L 339.881946 65.683126 
L 340.033807 65.596581 
L 341.096833 65.644566 
L 341.400555 65.240081 
L 341.932068 65.331262 
L 342.159859 66.163499 
L 342.38765 66.921478 
L 342.463581 66.898179 
L 342.539511 66.735942 
L 342.691372 68.299916 
L 342.995094 68.60911 
L 343.146955 69.872582 
L 343.450677 69.926396 
L 343.678468 67.562235 
L 343.754398 65.557197 
L 344.05812 65.886073 
L 344.134051 65.874848 
L 344.285911 64.948691 
L 344.589633 64.268986 
L 344.741494 66.136514 
L 345.197077 66.318495 
L 345.348938 67.087555 
L 345.72859 68.212993 
L 345.880451 67.128188 
L 346.108242 67.129984 
L 346.184172 66.456572 
L 346.260103 66.504997 
L 346.411964 66.103641 
L 346.639755 66.80542 
L 346.715685 66.551597 
L 346.867546 68.475304 
L 346.943477 68.553886 
L 347.171268 74.067196 
L 347.247198 73.839952 
L 347.323129 73.888262 
L 347.47499 73.16322 
L 347.702781 73.044961 
L 347.854642 73.478385 
L 348.310225 73.561838 
L 348.462085 76.139466 
L 348.993598 76.368888 
L 349.069529 76.2595 
L 349.29732 76.456265 
L 349.449181 76.086429 
L 349.525112 76.14008 
L 349.601042 76.051209 
L 349.904764 76.063713 
L 350.056625 75.5201 
L 350.132555 74.101448 
L 350.360346 74.101342 
L 350.512207 99.003478 
L 350.664068 95.468767 
L 350.96779 94.933489 
L 351.04372 95.032121 
L 351.195581 94.453044 
L 351.575233 94.27654 
L 351.727094 93.645387 
L 352.182677 93.459649 
L 352.258607 93.871067 
L 352.486399 94.390237 
L 352.638259 95.210421 
L 352.79012 95.375557 
L 353.169773 95.205859 
L 353.245703 95.18737 
L 353.321633 95.0401 
L 353.549425 95.093114 
L 353.701286 95.57299 
L 354.308729 95.598528 
L 354.38466 96.429093 
L 354.688381 96.387342 
L 355.295825 98.071422 
L 355.371755 98.058716 
L 355.751407 97.269869 
L 355.979199 97.207372 
L 356.28292 97.619337 
L 356.434781 97.618105 
L 356.510712 97.891596 
L 356.738503 97.891596 
L 356.890364 98.141139 
L 357.270016 98.371117 
L 357.421877 98.234807 
L 357.497807 98.725405 
L 357.573738 98.615809 
L 357.801529 98.417095 
L 358.333042 77.355023 
L 358.408973 77.810993 
L 358.636764 84.552758 
L 359.016416 84.60008 
L 359.396068 87.149425 
L 359.547929 87.269021 
L 359.62386 87.121978 
L 359.69979 87.285298 
L 360.155373 87.292502 
L 360.231303 87.057403 
L 360.610955 86.955188 
L 360.686886 84.113772 
L 360.990608 84.68279 
L 361.066538 82.043312 
L 361.142468 83.139137 
L 361.294329 83.392084 
L 361.749912 84.120715 
L 362.053634 84.140972 
L 362.205495 79.480848 
L 362.281425 79.462765 
L 362.357355 79.879506 
L 362.812938 80.375545 
L 363.724103 80.445474 
L 363.800034 80.257242 
L 363.875964 79.690634 
L 364.255616 79.02697 
L 364.407477 79.204195 
L 364.483408 79.202263 
L 364.787129 78.618757 
L 364.93899 78.960161 
L 365.014921 80.194496 
L 365.394573 80.204446 
L 365.470503 81.896033 
L 365.774225 82.935016 
L 365.850156 82.811951 
L 365.926086 82.928344 
L 366.002016 82.402021 
L 366.077947 82.84742 
L 366.457599 82.980058 
L 366.53353 83.611335 
L 366.60946 83.583221 
L 366.913182 84.194105 
L 367.140973 80.089929 
L 367.672486 79.790031 
L 368.203999 80.190498 
L 368.659582 80.082601 
L 369.039234 79.439128 
L 369.267025 79.396317 
L 369.494817 79.019137 
L 369.646677 76.978884 
L 369.722608 76.976854 
L 369.798538 76.811623 
L 370.10226 76.759225 
L 370.254121 76.671613 
L 370.557843 76.683032 
L 370.709704 76.075541 
L 371.241217 76.002693 
L 371.620869 76.005691 
L 371.84866 75.292996 
L 371.924591 75.39409 
L 372.304243 75.47871 
L 372.380173 75.602677 
L 372.456104 78.25549 
L 372.683895 78.706475 
L 372.987617 95.930206 
L 373.291338 95.883333 
L 373.367269 95.208509 
L 373.822851 95.082227 
L 373.974712 94.658705 
L 374.050643 94.741703 
L 374.354365 94.837356 
L 374.506225 95.059521 
L 374.885878 95.061863 
L 375.037738 95.499749 
L 375.34146 95.63548 
L 375.569252 102.455571 
L 376.632278 102.477094 
L 376.708208 108.983234 
L 377.01193 110.367497 
L 377.163791 110.435188 
L 377.695304 110.224847 
L 378.074956 110.13542 
L 378.226817 109.657882 
L 378.302747 106.557868 
L 378.530539 106.559445 
L 378.606469 106.250581 
L 378.75833 107.343642 
L 378.83426 108.178422 
L 379.213913 108.709543 
L 379.289843 108.705911 
L 379.365773 109.453838 
L 379.897286 109.73579 
L 380.201008 108.998934 
L 380.276939 109.091003 
L 380.4288 109.111631 
L 380.656591 109.750254 
L 380.732521 108.879254 
L 380.808452 109.737658 
L 380.960313 107.075688 
L 381.339965 105.642957 
L 381.415895 103.960697 
L 381.491826 104.264847 
L 381.719617 104.004462 
L 381.947408 105.691239 
L 382.023339 105.747355 
L 382.32706 105.41004 
L 383.086365 105.479664 
L 383.390087 105.574103 
L 383.541947 106.441064 
L 383.845669 106.49021 
L 383.9216 106.199973 
L 383.99753 106.697088 
L 384.149391 109.779934 
L 384.377182 108.866173 
L 384.453113 109.047684 
L 384.604974 105.47537 
L 384.908695 105.666745 
L 384.984626 105.579617 
L 385.212417 107.41971 
L 385.440208 107.416923 
L 385.592069 107.560543 
L 385.971721 107.53768 
L 386.123582 106.850992 
L 386.199513 107.269781 
L 386.275443 106.552195 
L 386.579165 106.351655 
L 387.338469 103.490731 
L 387.794052 103.874163 
L 387.869982 103.714743 
L 388.173704 104.383432 
L 388.325565 104.163467 
L 388.629287 104.741794 
L 388.933009 104.776412 
L 389.1608 104.769889 
L 389.312661 104.094421 
L 389.388591 104.022822 
L 389.464522 103.492951 
L 389.692313 103.039111 
L 389.844174 102.441521 
L 389.996035 102.227083 
L 390.9072 102.274994 
L 391.286852 101.532128 
L 391.438713 99.190016 
L 391.590574 98.984219 
L 392.349878 99.561332 
L 392.501739 98.676397 
L 392.6536 89.417517 
L 392.957322 88.723549 
L 393.185113 87.19614 
L 394.096278 87.328914 
L 394.47593 87.34904 
L 394.627791 88.501971 
L 395.083374 88.545735 
L 395.235235 89.104889 
L 395.311165 91.343038 
L 395.538957 91.401638 
L 395.614887 91.95655 
L 395.690817 91.917073 
L 395.842678 91.585909 
L 396.298261 93.604485 
L 396.374191 95.445471 
L 396.601983 95.482641 
L 396.677913 95.168165 
L 397.209426 87.012451 
L 397.437217 86.125749 
L 398.272452 86.056478 
L 398.879896 85.476351 
L 399.031757 85.856649 
L 399.259548 88.246704 
L 399.487339 84.684023 
L 399.56327 84.701685 
L 399.791061 84.650664 
L 399.866991 84.340007 
L 400.018852 83.18665 
L 400.094783 83.079641 
L 400.398505 82.928914 
L 400.550365 82.096429 
L 400.626296 82.284666 
L 400.854087 81.883501 
L 400.930018 82.276675 
L 401.461531 82.665095 
L 401.689322 82.545115 
L 401.917113 82.671663 
L 402.068974 83.904976 
L 402.448626 84.642052 
L 402.752348 85.193792 
L 402.980139 84.720236 
L 403.132 78.379619 
L 403.283861 78.201791 
L 404.119096 78.109286 
L 404.270957 78.525082 
L 404.346887 78.606748 
L 404.650609 79.33422 
L 404.726539 79.773051 
L 404.80247 79.735418 
L 404.8784 79.790231 
L 405.182122 79.696968 
L 405.409913 78.013946 
L 405.713635 78.012085 
L 405.865496 77.767237 
L 406.169218 77.881937 
L 406.245148 78.05778 
L 406.321079 78.023619 
L 406.397009 79.647692 
L 406.47294 78.370816 
L 407.004453 78.657207 
L 407.384105 78.624978 
L 407.460035 79.422653 
L 407.535966 89.679416 
L 407.839687 90.517534 
L 407.991548 92.45308 
L 408.826783 92.388845 
L 409.130505 91.480381 
L 409.358296 91.460979 
L 409.586087 90.76312 
L 410.497253 90.755836 
L 410.725044 91.192028 
L 411.028766 91.213447 
L 411.180627 91.567097 
L 411.560279 91.456475 
L 411.636209 93.196535 
L 411.71214 92.686082 
L 411.78807 92.932428 
L 412.015861 96.619116 
L 412.091792 96.478376 
L 412.243653 96.781277 
L 412.319583 96.791968 
L 412.623305 96.278758 
L 412.775166 93.992864 
L 412.851096 93.857408 
L 413.154818 93.743651 
L 413.306679 94.004303 
L 413.686331 92.975933 
L 413.914122 93.514195 
L 414.217844 95.897106 
L 414.749357 97.94885 
L 414.825288 97.978855 
L 414.901218 98.274667 
L 414.977149 99.884123 
L 415.356801 99.963873 
L 415.432731 100.045962 
L 415.508662 99.258102 
L 415.736453 99.976462 
L 415.812383 100.873859 
L 415.964244 100.19652 
L 416.040175 101.009697 
L 416.799479 98.538779 
L 417.103201 96.200314 
L 417.406923 95.727976 
L 417.482853 95.755255 
L 417.558783 95.354552 
L 417.634714 89.766976 
L 418.090296 89.50063 
L 418.166227 95.091428 
L 418.469949 95.819474 
L 418.545879 95.839992 
L 418.621809 95.743056 
L 418.69774 95.429517 
L 419.001462 95.268856 
L 419.153323 94.480055 
L 419.532975 92.831251 
L 419.684836 92.735234 
L 419.760766 91.781163 
L 419.988557 91.695322 
L 420.140418 91.76507 
L 420.216349 93.521028 
L 420.292279 93.219174 
L 420.671931 93.282418 
L 421.051583 93.325227 
L 421.127514 93.310434 
L 421.279375 93.596207 
L 421.355305 95.114778 
L 422.26647 95.228169 
L 422.418331 94.394721 
L 422.797984 94.368935 
L 423.253566 93.758194 
L 423.329497 93.763059 
L 423.481357 93.631997 
L 423.86101 93.683799 
L 424.012871 94.01589 
L 424.240662 94.453514 
L 424.468453 94.400031 
L 424.544384 95.10669 
L 424.924036 95.028015 
L 425.303688 94.688473 
L 425.455549 94.068865 
L 425.60741 94.087063 
L 425.835201 93.958501 
L 425.987062 93.706021 
L 426.138923 93.693482 
L 426.366714 93.844123 
L 426.594505 94.820487 
L 426.670436 96.162644 
L 427.050088 96.587726 
L 427.201949 98.808075 
L 427.505671 99.163833 
L 427.581601 98.925099 
L 427.733462 98.817075 
L 428.037184 101.177879 
L 428.113114 101.19119 
L 428.264975 101.449103 
L 428.568697 101.461548 
L 429.024279 103.161255 
L 429.17614 103.258402 
L 430.087306 103.192795 
L 430.315097 101.8127 
L 430.391027 102.508927 
L 430.618819 101.846891 
L 430.694749 101.077312 
L 430.92254 101.896029 
L 431.378123 103.245322 
L 431.454053 103.239386 
L 431.681845 102.590756 
L 431.909636 97.573048 
L 431.985566 98.405445 
L 432.213358 98.396832 
L 432.365219 99.916414 
L 432.51708 100.386055 
L 432.744871 100.417795 
L 432.820801 100.808499 
L 432.972662 107.635007 
L 433.428245 109.084852 
L 433.504175 109.960965 
L 433.807897 109.926495 
L 434.111619 110.402834 
L 434.41534 109.51115 
L 434.643132 112.561601 
L 435.022784 112.90586 
L 435.174645 114.488058 
L 435.554297 114.460241 
L 435.706158 114.643459 
L 436.00988 114.931752 
L 436.08581 114.697995 
L 436.237671 114.873729 
L 436.465462 114.877816 
L 436.617323 114.681929 
L 437.148836 114.676189 
L 437.75628 114.5286 
L 438.135932 114.467198 
L 438.287793 115.767594 
L 438.667445 115.710009 
L 438.819306 116.566848 
L 438.895236 116.485768 
L 439.198958 116.601499 
L 439.274888 114.738762 
L 439.350819 114.742208 
L 439.426749 114.721987 
L 439.730471 113.84074 
L 439.806402 113.864106 
L 439.958262 114.096353 
L 440.337915 114.138358 
L 440.489775 114.440137 
L 440.717567 114.564992 
L 440.869428 114.78267 
L 441.021289 115.663874 
L 441.32501 115.703695 
L 441.476871 115.894934 
L 441.552802 116.296796 
L 442.919549 116.19934 
L 443.07141 116.066598 
L 443.375132 115.435936 
L 443.451062 116.149926 
L 443.678854 114.514864 
L 443.906645 114.809911 
L 444.134436 113.253044 
L 444.210367 113.088559 
L 444.438158 113.035054 
L 444.514089 112.87008 
L 444.74188 109.551963 
L 445.273393 109.522221 
L 445.653045 109.619579 
L 445.804906 110.670907 
L 446.032697 110.756116 
L 446.260489 112.073257 
L 446.792002 113.287419 
L 447.171654 113.397112 
L 447.247584 113.669741 
L 447.323515 115.806332 
L 447.399445 123.772181 
L 447.779097 123.69023 
L 447.855028 123.471589 
L 448.842124 123.761198 
L 448.918054 123.232629 
L 448.993984 123.290933 
L 449.221776 123.2591 
L 449.373637 124.523815 
L 449.449567 124.359188 
L 449.525497 124.098222 
L 449.753289 124.106468 
L 449.90515 122.449827 
L 450.057011 122.263459 
L 450.360732 122.133471 
L 450.436663 121.502853 
L 450.512593 121.549069 
L 450.588524 121.582148 
L 450.816315 121.067423 
L 450.892245 121.147961 
L 451.120037 121.479272 
L 451.423758 121.530402 
L 451.575619 121.782262 
L 452.562715 121.725335 
L 452.714576 121.575991 
L 452.942367 121.5826 
L 453.094228 121.398103 
L 453.246089 118.945849 
L 453.47388 118.878479 
L 453.549811 118.667135 
L 453.701672 117.967185 
L 453.777602 117.841684 
L 454.081324 118.019966 
L 454.157254 119.984536 
L 454.233185 119.897754 
L 454.309115 119.851904 
L 454.612837 120.809921 
L 454.764698 120.562198 
L 455.22028 120.531956 
L 455.372141 116.84719 
L 455.675863 116.848143 
L 455.827724 115.859598 
L 456.283306 115.313549 
L 456.435167 114.396042 
L 457.270402 114.487044 
L 457.422263 114.542759 
L 457.498193 114.417712 
L 457.877846 114.443331 
L 458.029706 115.277397 
L 458.409359 116.685725 
L 458.485289 116.579297 
L 458.56122 116.207143 
L 458.789011 116.096395 
L 459.092733 116.709958 
L 459.320524 116.759574 
L 459.396454 116.923161 
L 459.624246 120.560311 
L 460.003898 120.550512 
L 460.155759 120.50519 
L 460.45948 120.016087 
L 461.066924 119.974023 
L 461.142854 120.27488 
L 461.522507 118.766161 
L 461.750298 118.690704 
L 462.05402 114.4563 
L 462.281811 114.284712 
L 462.585533 114.286455 
L 462.661463 114.464731 
L 463.344837 114.523597 
L 463.724489 114.563289 
L 463.87635 115.081166 
L 464.256002 115.240871 
L 464.407863 115.940369 
L 464.635655 115.941148 
L 464.711585 117.607416 
L 464.787515 117.602701 
L 464.863446 117.22889 
L 464.939376 117.268282 
L 465.167168 116.855583 
L 465.319028 115.689035 
L 465.394959 115.678948 
L 465.698681 114.634788 
L 465.774611 114.66815 
L 466.002402 112.540339 
L 466.230194 112.078437 
L 466.306124 111.380767 
L 466.382055 111.396281 
L 466.533915 111.338122 
L 466.913568 111.240295 
L 467.065428 110.610457 
L 467.29322 110.734334 
L 467.445081 110.903415 
L 467.521011 110.906987 
L 467.976594 110.96105 
L 468.052524 112.886607 
L 468.128455 112.571359 
L 468.356246 112.774348 
L 468.508107 113.518017 
L 468.659968 113.686747 
L 468.887759 113.620313 
L 469.11555 111.304964 
L 469.191481 111.248664 
L 469.495202 109.63478 
L 469.571133 109.642136 
L 469.722994 109.223133 
L 470.026716 108.626024 
L 470.102646 108.139748 
L 470.254507 110.757432 
L 470.78602 110.549959 
L 471.165672 111.850211 
L 471.241603 111.650926 
L 471.697185 112.31886 
L 472.380559 112.285633 
L 472.912072 112.519455 
L 473.291724 112.512982 
L 473.747307 113.245652 
L 473.975098 114.866892 
L 474.20289 114.811178 
L 474.35475 114.629279 
L 474.506611 112.449406 
L 474.734403 112.437189 
L 474.962194 112.222073 
L 475.038124 112.158038 
L 475.417777 112.54058 
L 475.569637 110.742578 
L 475.797429 110.51199 
L 475.873359 110.239992 
L 475.94929 110.281655 
L 476.02522 110.166029 
L 476.101151 109.658918 
L 476.328942 110.657395 
L 476.404872 110.590557 
L 476.480803 109.821218 
L 476.860455 109.102921 
L 477.012316 112.809589 
L 477.164177 113.044212 
L 477.619759 113.119064 
L 478.682785 112.972496 
L 479.062438 112.813352 
L 479.214298 112.71069 
L 479.290229 112.640142 
L 479.51802 111.523495 
L 479.669881 111.371168 
L 479.821742 110.862505 
L 480.049533 110.843652 
L 480.125464 111.074606 
L 480.201394 109.182893 
L 480.277325 109.650172 
L 480.353255 110.365546 
L 480.581046 110.593531 
L 480.732907 109.418727 
L 480.808838 109.597076 
L 481.112559 105.935507 
L 481.18849 107.689186 
L 481.26442 107.661633 
L 481.416281 108.788294 
L 481.871864 108.77676 
L 481.947794 108.828397 
L 482.327446 108.9192 
L 482.479307 109.490433 
L 483.01082 109.596144 
L 483.314542 109.719655 
L 483.466403 110.132562 
L 483.542333 110.174233 
L 483.997916 110.197981 
L 484.073846 112.469067 
L 484.377568 112.602376 
L 484.453499 114.186845 
L 484.60536 114.263469 
L 484.833151 113.858048 
L 485.136873 114.859198 
L 485.440594 115.124574 
L 485.516525 113.816939 
L 485.592455 113.941178 
L 485.972107 110.816271 
L 486.199899 103.72073 
L 486.579551 104.068497 
L 487.566647 104.012485 
L 487.642577 103.622813 
L 487.794438 101.865706 
L 488.17409 101.4378 
L 488.325951 98.750624 
L 488.705603 98.591953 
L 488.857464 96.490316 
L 489.085255 96.47913 
L 489.237116 95.631915 
L 489.388977 95.755926 
L 489.616768 96.564476 
L 489.768629 97.580423 
L 489.92049 97.862097 
L 490.755725 97.944221 
L 490.907586 99.548087 
L 490.983516 99.77272 
L 491.363168 99.87815 
L 491.515029 100.606106 
L 491.742821 100.665285 
L 491.970612 102.097025 
L 492.046542 102.004321 
L 492.274334 101.994507 
L 492.578055 100.900554 
L 493.109568 99.621692 
L 494.096664 98.873644 
L 494.476316 98.67102 
L 494.628177 98.150105 
L 494.931899 98.215229 
L 495.15969 99.534235 
L 495.235621 99.285507 
L 495.463412 98.987892 
L 495.539342 100.587614 
L 495.615273 100.544415 
L 495.767134 100.962784 
L 495.994925 101.607386 
L 496.146786 102.94606 
L 496.222716 106.529814 
L 496.298647 106.407962 
L 496.526438 106.444127 
L 496.678299 104.575682 
L 496.754229 104.449395 
L 496.83016 103.546324 
L 497.209812 103.383207 
L 497.361673 102.116716 
L 497.817256 102.000109 
L 498.804351 101.960784 
L 498.880282 101.757307 
L 498.956212 101.839131 
L 499.259934 101.373016 
L 499.335864 100.775134 
L 499.411795 100.826089 
L 499.487725 100.510121 
L 499.791447 100.280373 
L 499.867377 100.778435 
L 500.019238 99.626023 
L 500.32296 99.484696 
L 500.854473 100.472962 
L 501.006334 103.418535 
L 501.310056 106.577106 
L 501.461917 109.901257 
L 501.613777 109.951928 
L 502.524943 110.002243 
L 502.600873 110.083249 
L 502.676804 110.460282 
L 503.056456 112.880869 
L 503.132386 112.889253 
L 503.208317 113.0497 
L 503.436108 114.975708 
L 503.587969 116.720074 
L 503.663899 116.313161 
L 503.73983 119.23421 
L 503.967621 118.489966 
L 504.043551 117.005552 
L 504.195412 118.317207 
L 504.271343 118.281493 
L 504.575065 117.235562 
L 504.650995 116.821685 
L 505.334369 98.620821 
L 505.56216 98.491986 
L 505.714021 98.257045 
L 506.625186 98.249234 
L 506.928908 97.858058 
L 507.30856 97.762909 
L 507.384491 98.527246 
L 507.460421 98.281032 
L 507.840073 92.043264 
L 507.916004 92.050331 
L 508.295656 87.909546 
L 508.447517 87.651518 
L 508.523447 87.976842 
L 508.827169 88.075213 
L 508.903099 88.256307 
L 509.282752 88.225176 
L 509.358682 88.409533 
L 509.434613 88.278102 
L 509.510543 87.658054 
L 509.586473 85.880123 
L 509.890195 85.940512 
L 510.345778 85.644913 
L 510.421708 85.629282 
L 510.6495 86.109203 
L 510.953221 85.973283 
L 511.029152 85.989127 
L 511.408804 84.786886 
L 511.484734 84.786717 
L 511.560665 83.135868 
L 511.636595 83.149156 
L 511.712526 84.255069 
L 512.016247 84.482139 
L 512.092178 85.216761 
L 512.623691 85.316577 
L 512.699621 85.066822 
L 512.775552 85.284345 
L 513.003343 85.067227 
L 513.079273 85.182217 
L 513.307065 82.861967 
L 513.534856 82.810963 
L 513.838578 81.435098 
L 514.29416 81.496298 
L 514.749743 81.401789 
L 514.825674 81.896392 
L 515.129395 81.809832 
L 515.281256 81.981449 
L 515.433117 81.337714 
L 515.812769 82.577683 
L 516.268352 82.634989 
L 516.420213 83.153249 
L 517.255448 83.220369 
L 517.407308 83.125523 
L 517.483239 83.123185 
L 517.559169 81.347192 
L 517.862891 80.380209 
L 518.090682 80.271119 
L 519.533361 80.286915 
L 519.913013 80.964084 
L 519.988943 81.672477 
L 520.064874 81.65627 
L 520.140804 81.664691 
L 520.216735 80.481808 
L 520.596387 81.086106 
L 520.748248 94.270158 
L 521.051969 94.390976 
L 521.20383 94.603669 
L 521.507552 94.603002 
L 521.659413 94.287665 
L 521.735343 94.287744 
L 521.811274 93.966624 
L 522.342787 93.761514 
L 522.646509 93.926195 
L 522.722439 93.408372 
L 522.798369 93.633471 
L 523.102091 93.630798 
L 523.178022 94.022008 
L 523.329883 101.214603 
L 523.405813 101.217895 
L 523.709535 106.880983 
L 523.785465 107.300223 
L 523.861396 106.936725 
L 524.165117 106.910115 
L 524.316978 106.060317 
L 524.468839 106.192278 
L 524.69663 106.216367 
L 524.772561 106.349447 
L 524.924422 107.661826 
L 525.000352 110.439457 
L 525.228143 109.974299 
L 525.304074 109.262836 
L 525.380004 109.363918 
L 525.455935 109.502204 
L 525.531865 108.293751 
L 525.759657 108.292144 
L 525.911517 104.745814 
L 525.987448 104.983959 
L 526.44303 104.777752 
L 526.822683 105.771994 
L 526.974544 106.402029 
L 527.126404 108.996241 
L 527.506057 109.193631 
L 527.581987 109.182373 
L 527.657917 108.792856 
L 527.885709 108.485309 
L 527.961639 108.805403 
L 528.03757 110.089971 
L 528.189431 110.179988 
L 528.417222 110.012291 
L 528.720944 113.2957 
L 529.024665 113.712034 
L 529.252457 115.619108 
L 529.708039 115.706801 
L 529.78397 116.291624 
L 530.239552 116.49016 
L 530.315483 116.677047 
L 530.619205 118.147519 
L 531.302578 118.149153 
L 531.910022 118.003852 
L 532.137813 117.988359 
L 532.289674 118.186328 
L 532.365605 118.186245 
L 532.441535 121.742307 
L 532.745257 124.029044 
L 532.897118 123.948016 
L 532.973048 124.03277 
L 533.3527 123.970222 
L 533.504561 123.762463 
L 533.884213 123.38248 
L 534.567587 121.90338 
L 534.871309 121.958895 
L 535.02317 121.224339 
L 535.0991 123.324728 
L 535.326892 123.269155 
L 535.478753 123.597421 
L 535.630613 123.335569 
L 536.086196 123.19112 
L 536.162126 123.151218 
L 536.389918 123.513757 
L 536.541779 122.635772 
L 536.617709 123.114994 
L 536.921431 123.152343 
L 536.997361 122.886982 
L 537.073292 122.970843 
L 537.225153 123.355424 
L 537.452944 123.34825 
L 537.604805 124.226085 
L 538.5919 124.398379 
L 538.819692 125.972002 
L 539.123413 126.500592 
L 539.578996 126.675347 
L 539.654927 126.727862 
L 539.730857 127.28408 
L 540.3383 129.123215 
L 540.414231 130.911764 
L 540.642022 130.898949 
L 540.793883 137.530315 
L 540.869814 137.506172 
L 540.945744 137.947089 
L 542.312492 137.8617 
L 542.464353 139.427736 
L 542.540283 139.178024 
L 542.844005 138.778828 
L 542.919935 138.859981 
L 542.995866 139.301721 
L 543.071796 139.209996 
L 543.907031 139.408315 
L 544.894127 139.307558 
L 545.121918 139.346791 
L 545.197848 139.293885 
L 546.184944 139.273048 
L 546.792388 139.487537 
L 547.020179 139.45138 
L 547.096109 139.2964 
L 547.24797 138.030589 
L 547.703553 138.003606 
L 547.779483 138.221079 
L 547.855414 138.021767 
L 548.083205 137.959784 
L 548.235066 137.590289 
L 548.310996 137.652016 
L 548.614718 137.978199 
L 548.690649 138.337969 
L 548.842509 140.262269 
L 548.91844 140.277798 
L 549.146231 140.818564 
L 549.374023 140.297922 
L 549.449953 141.442264 
L 549.981466 142.105607 
L 550.285188 142.537707 
L 550.361118 142.177117 
L 550.892631 142.083965 
L 550.968562 140.661684 
L 551.044492 140.710582 
L 551.272283 140.745444 
L 551.348214 140.540642 
L 551.500075 140.806871 
L 551.576005 141.521383 
L 552.866823 141.384594 
L 553.170544 141.332137 
L 553.702057 140.689617 
L 554.689153 140.65306 
L 554.765084 140.519622 
L 554.992875 140.415166 
L 555.144736 140.183506 
L 555.296597 140.085914 
L 555.676249 135.299211 
L 555.82811 135.312952 
L 556.207762 135.237065 
L 556.359623 133.97508 
L 556.739275 133.379116 
L 556.891136 130.586504 
L 557.194858 130.420049 
L 557.270788 129.596764 
L 557.346718 129.840537 
L 557.422649 130.043112 
L 557.954162 130.541494 
L 559.017188 130.497246 
L 559.39684 130.19257 
L 559.548701 126.432807 
L 559.852423 125.786145 
L 559.928353 125.791417 
L 560.080214 122.948882 
L 560.308005 122.945157 
L 560.459866 121.03846 
L 560.915449 120.992148 
L 561.14324 119.917554 
L 561.598823 119.773169 
L 561.674753 119.860819 
L 561.978475 120.598938 
L 562.434058 120.463702 
L 562.965571 120.584508 
L 563.041501 120.689445 
L 563.269293 120.250214 
L 563.497084 120.244112 
L 563.648945 120.434649 
L 564.256388 120.577329 
L 564.332319 120.662865 
L 564.787901 120.683271 
L 564.863832 120.502618 
L 565.243484 120.264819 
L 565.774997 120.534177 
L 565.850927 121.24601 
L 565.926858 121.229463 
L 566.23058 122.197307 
L 567.217675 122.192991 
L 567.369536 122.077797 
L 568.05291 122.132656 
L 568.508493 122.342879 
L 569.571519 121.484958 
L 569.647449 121.562395 
L 570.103032 121.750761 
L 570.634545 121.479571 
L 570.710475 123.243469 
L 571.090128 124.331463 
L 571.54571 124.382901 
L 571.621641 124.404504 
L 571.697571 125.361714 
L 572.077223 125.237987 
L 572.229084 125.655714 
L 572.532806 126.917218 
L 572.684667 128.027384 
L 572.836528 127.95441 
L 573.21618 125.954375 
L 573.368041 112.125416 
L 573.671762 111.434995 
L 573.823623 111.350094 
L 574.658858 111.386454 
L 575.190371 111.669366 
L 575.342232 114.262569 
L 575.418163 114.756022 
L 575.797815 114.773015 
L 576.025606 118.776731 
L 576.405258 118.869733 
L 576.481189 117.928948 
L 576.78491 117.792029 
L 576.860841 113.80084 
L 576.936771 114.047326 
L 577.012702 113.228419 
L 577.392354 112.324812 
L 577.923867 112.431784 
L 578.151658 112.499435 
L 578.607241 112.530234 
L 578.683171 112.922598 
L 578.910963 112.922585 
L 579.062824 113.187806 
L 580.277711 113.372371 
L 580.581432 113.596382 
L 580.733293 113.574155 
L 580.809224 113.704969 
L 581.340737 113.316064 
L 581.796319 113.137469 
L 581.87225 113.059935 
L 582.251902 112.848835 
L 582.403763 112.809006 
L 582.859345 112.915793 
L 583.238998 112.926837 
L 583.922371 111.747819 
L 583.998302 111.828377 
L 584.226093 111.734464 
L 584.529815 110.300711 
L 584.909467 109.889524 
L 585.061328 109.83523 
L 585.36505 109.781842 
L 585.44098 110.129088 
L 585.516911 110.098664 
L 585.592841 110.294011 
L 585.896563 110.300204 
L 586.428076 109.290203 
L 586.504006 109.277795 
L 586.655867 108.018935 
L 587.035519 107.447578 
L 587.18738 107.397172 
L 587.415172 107.85391 
L 587.567032 108.858197 
L 587.718893 121.447243 
L 587.946685 122.297423 
L 588.098546 122.095751 
L 588.174476 122.067896 
L 588.250406 121.631515 
L 588.554128 121.156511 
L 588.781919 121.135744 
L 589.161572 121.057786 
L 589.313433 120.990025 
L 589.617154 120.876954 
L 589.693085 120.827238 
L 590.376459 116.76016 
L 590.68018 117.836227 
L 590.832041 123.141025 
L 591.135763 125.462195 
L 591.287624 125.095475 
L 591.439485 120.226987 
L 591.743207 119.733265 
L 591.819137 114.539575 
L 594.400772 114.534572 
L 595.008215 114.849249 
L 595.160076 115.058274 
L 595.539728 115.155773 
L 595.691589 115.265996 
L 596.147172 115.403493 
L 596.223102 115.193916 
L 596.754615 115.273188 
L 597.210198 115.283374 
L 597.286128 115.455777 
L 597.741711 115.590879 
L 597.817642 116.234736 
L 598.045433 116.234736 
L 598.349155 116.778316 
L 598.576946 117.119031 
L 598.728807 118.300468 
L 598.880668 119.951748 
L 599.184389 119.993638 
L 599.412181 120.080067 
L 599.867763 119.976819 
L 599.943694 119.705956 
L 600.247416 119.533068 
L 600.854859 120.940741 
L 601.00672 122.396021 
L 601.234511 123.339612 
L 601.386372 122.950807 
L 601.462303 123.007997 
L 601.538233 122.738067 
L 601.841955 122.742456 
L 601.993816 123.044286 
L 602.373468 122.989012 
L 602.525329 123.417023 
L 602.601259 123.299645 
L 602.82905 123.823684 
L 602.904981 124.442634 
L 602.980911 124.16008 
L 603.132772 123.787284 
L 603.512424 120.139142 
L 603.588355 120.152732 
L 603.664285 119.943958 
L 603.892077 119.953237 
L 604.043937 120.120611 
L 604.49952 123.22414 
L 604.57545 123.170575 
L 604.651381 124.224829 
L 604.727311 124.02711 
L 605.031033 122.164151 
L 605.106964 122.060817 
L 605.182894 122.338812 
L 605.258824 122.281773 
L 605.486616 122.292964 
L 605.638477 122.58867 
L 605.790337 127.414123 
L 606.094059 127.975977 
L 606.24592 135.590802 
L 607.081155 135.525292 
L 607.384877 135.100379 
L 607.612668 135.069646 
L 607.764529 134.016721 
L 607.91639 133.901089 
L 608.296042 126.729848 
L 608.447903 126.160808 
L 608.903485 126.036399 
L 609.283138 126.023818 
L 609.434998 125.868938 
L 609.510929 124.237903 
L 609.73872 122.50419 
L 609.890581 117.800007 
L 610.498025 117.700441 
L 610.573955 118.097357 
L 611.333259 118.093271 
L 611.561051 117.930235 
L 611.636981 117.878885 
L 611.940703 117.262534 
L 612.700007 116.342139 
L 613.079659 116.254297 
L 613.23152 116.144528 
L 613.535242 116.126539 
L 613.611172 115.960242 
L 613.763033 114.899515 
L 614.142686 114.668866 
L 614.218616 114.765567 
L 614.294546 114.509743 
L 614.826059 110.325568 
L 615.053851 110.285887 
L 615.205712 110.508252 
L 615.281642 110.50446 
L 615.357573 110.715295 
L 615.661294 110.708746 
L 615.813155 110.852581 
L 616.420599 110.91334 
L 616.876181 111.000935 
L 616.952112 111.300707 
L 617.255833 111.765472 
L 617.483625 114.027064 
L 617.939207 114.548502 
L 618.015138 114.162775 
L 618.242929 114.158976 
L 618.47072 112.232435 
L 618.546651 111.552899 
L 618.774442 111.179076 
L 619.078164 108.046259 
L 619.305955 108.108254 
L 619.457816 107.78563 
L 619.533747 107.776219 
L 619.609677 107.571793 
L 619.837468 107.581527 
L 619.989329 106.758993 
L 620.520842 106.391447 
L 620.672703 106.370585 
L 621.052355 106.277 
L 621.204216 106.359086 
L 621.507938 106.444438 
L 621.659799 106.92767 
L 621.735729 106.980143 
L 621.963521 106.980368 
L 622.115381 110.681292 
L 622.191312 111.326544 
L 622.495034 111.379049 
L 622.722825 111.552678 
L 622.798755 111.552849 
L 623.55806 110.78915 
L 623.709921 113.282357 
L 623.785851 117.395965 
L 623.861782 116.952236 
L 624.241434 116.858672 
L 624.393295 116.565092 
L 625.456321 116.540265 
L 625.760042 116.61497 
L 625.987834 116.288875 
L 626.519347 117.270978 
L 626.974929 117.407633 
L 627.354582 117.420261 
L 627.582373 117.652257 
L 627.886095 117.489102 
L 627.962025 117.717158 
L 628.037956 118.306498 
L 628.113886 118.202485 
L 628.341677 117.24903 
L 628.417608 114.678837 
L 628.493538 114.856775 
L 628.645399 115.216604 
L 629.025051 118.123065 
L 629.176912 119.986594 
L 629.632495 120.008342 
L 629.936217 116.799891 
L 630.088077 116.802589 
L 630.239938 113.794455 
L 630.54366 113.191794 
L 632.21413 113.191794 
L 632.36599 111.719815 
L 632.669712 111.324902 
L 632.821573 110.623061 
L 632.897504 110.620876 
L 633.201225 110.999445 
L 633.353086 112.689387 
L 633.656808 112.912419 
L 633.884599 115.279791 
L 633.96053 117.545443 
L 634.416112 119.381944 
L 634.492043 119.335989 
L 634.719834 119.332786 
L 634.795764 119.536574 
L 634.871695 119.161421 
L 634.947625 119.997806 
L 635.023556 118.457555 
L 635.327278 118.017799 
L 635.403208 118.080894 
L 635.555069 117.849269 
L 635.78286 117.850291 
L 636.086582 117.294591 
L 636.542165 117.121177 
L 637.073678 117.119683 
L 637.45333 117.117982 
L 637.605191 117.417614 
L 637.681121 116.924805 
L 637.984843 116.613219 
L 638.212634 116.882559 
L 638.440425 116.623043 
L 638.592286 117.040597 
L 638.971939 117.036834 
L 639.047869 116.785005 
L 639.19973 113.658585 
L 639.27566 113.04025 
L 640.110895 112.74041 
L 640.338686 112.009352 
L 640.718339 108.983276 
L 640.870199 109.042939 
L 641.097991 107.33836 
L 641.173921 107.458771 
L 641.249852 107.496173 
L 641.401713 105.914367 
L 641.857295 104.528166 
L 642.312878 104.60115 
L 642.464739 104.634339 
L 642.69253 104.621611 
L 642.996252 107.589256 
L 643.375904 106.69761 
L 643.527765 105.737482 
L 643.755556 105.471756 
L 643.831487 105.055146 
L 643.983347 103.126282 
L 644.287069 105.62738 
L 644.43893 104.980925 
L 644.590791 99.20389 
L 645.046374 97.565196 
L 646.033469 97.565196 
L 646.18533 98.735504 
L 646.489052 99.097658 
L 646.640913 99.613654 
L 648.007661 99.658141 
L 648.159521 99.841839 
L 648.311382 99.910994 
L 648.539174 99.910994 
L 649.070687 102.013227 
L 649.146617 102.043611 
L 649.298478 102.345602 
L 649.6022 102.475506 
L 649.829991 102.899649 
L 649.905922 103.074413 
L 651.3486 103.16913 
L 651.42453 103.680513 
L 651.880113 103.942369 
L 652.031974 103.947107 
L 652.487556 104.186399 
L 652.563487 104.184264 
L 652.867209 104.687168 
L 653.019069 107.549911 
L 653.398722 108.433079 
L 654.006165 108.545233 
L 654.158026 106.749129 
L 654.385817 106.941674 
L 654.537678 109.830177 
L 654.689539 110.25994 
L 654.993261 110.22953 
L 655.145122 111.937418 
L 655.221052 111.943077 
L 655.524774 113.862893 
L 655.600704 110.480149 
L 655.676635 110.856336 
L 655.752565 109.835069 
L 656.056287 109.022098 
L 656.284078 108.958275 
L 656.66373 108.904412 
L 656.739661 109.001232 
L 656.815591 109.505037 
L 657.195243 109.407585 
L 657.347104 109.872697 
L 657.574896 108.199611 
L 657.726757 109.130613 
L 657.878617 109.902748 
L 658.182339 112.231728 
L 658.3342 112.537239 
L 658.41013 113.166529 
L 658.637922 113.506051 
L 658.789783 123.933714 
L 658.941644 127.600969 
L 661.295487 127.493263 
L 661.447348 126.874428 
L 661.599209 126.59079 
L 661.978861 126.215579 
L 662.054791 126.693861 
L 662.130722 126.63033 
L 663.49747 126.651222 
L 665.699452 126.758646 
L 665.775383 127.020116 
L 666.079105 126.837813 
L 666.306896 125.746952 
L 666.382826 125.091936 
L 666.914339 124.934494 
L 667.293992 124.480973 
L 667.369922 124.5418 
L 667.445853 124.265488 
L 668.205157 124.353868 
L 668.357018 127.218029 
L 668.508879 127.115062 
L 668.8126 126.842302 
L 668.888531 126.967241 
L 669.040392 127.08785 
L 669.495974 127.163068 
L 669.571905 133.2741 
L 669.799696 133.507679 
L 670.027487 137.433294 
L 670.331209 137.540941 
L 670.40714 137.616205 
L 670.559 137.871535 
L 671.014583 137.94122 
L 671.090514 138.127522 
L 671.166444 138.672752 
L 671.394235 138.679835 
L 671.546096 143.249907 
L 671.697957 143.330476 
L 674.887035 143.407653 
L 675.190757 143.541833 
L 675.342618 144.691965 
L 675.418548 145.334057 
L 675.64634 145.335347 
L 675.874131 146.153572 
L 676.253783 146.297186 
L 676.481575 145.449141 
L 677.316809 145.269584 
L 677.544601 143.289309 
L 677.772392 143.286789 
L 677.924253 143.094134 
L 679.670653 143.13843 
L 679.898444 143.534685 
L 680.050305 144.023631 
L 680.202166 147.129954 
L 680.581818 147.442815 
L 680.581818 147.442815 
" style="fill:none;stroke:#348dc1;stroke-linecap:round;stroke-width:1.5;"/>
   </g>
   <g id="line2d_12">
    <path clip-path="url(#p418a6e7c96)" d="M 79.6 104.970705 
L 709.2 104.970705 
" style="fill:none;stroke:#ff0000;stroke-dasharray:5.55,2.4;stroke-dashoffset:0;stroke-width:1.5;"/>
   </g>
   <g id="line2d_13">
    <path clip-path="url(#p418a6e7c96)" d="M 79.6 163.162503 
L 709.2 163.162503 
" style="fill:none;stroke:#000000;stroke-dasharray:3.7,1.6;stroke-dashoffset:0;"/>
   </g>
   <g id="text_12">
    <!--  -->
    <g style="fill:#808080;" transform="translate(394.4 22.362625)scale(0.12 -0.12)"/>
    <!-- 18 Oct '00 - 22 Dec '21                    -->
    <defs>
     <path id="DejaVuSans-32"/>
     <path d="M 39.40625 66.21875 
Q 28.65625 66.21875 22.328125 58.203125 
Q 16.015625 50.203125 16.015625 36.375 
Q 16.015625 22.609375 22.328125 14.59375 
Q 28.65625 6.59375 39.40625 6.59375 
Q 50.140625 6.59375 56.421875 14.59375 
Q 62.703125 22.609375 62.703125 36.375 
Q 62.703125 50.203125 56.421875 58.203125 
Q 50.140625 66.21875 39.40625 66.21875 
z
M 39.40625 74.21875 
Q 54.734375 74.21875 63.90625 63.9375 
Q 73.09375 53.65625 73.09375 36.375 
Q 73.09375 19.140625 63.90625 8.859375 
Q 54.734375 -1.421875 39.40625 -1.421875 
Q 24.03125 -1.421875 14.8125 8.828125 
Q 5.609375 19.09375 5.609375 36.375 
Q 5.609375 53.65625 14.8125 63.9375 
Q 24.03125 74.21875 39.40625 74.21875 
z
" id="DejaVuSans-79"/>
     <path d="M 48.78125 52.59375 
L 48.78125 44.1875 
Q 44.96875 46.296875 41.140625 47.34375 
Q 37.3125 48.390625 33.40625 48.390625 
Q 24.65625 48.390625 19.8125 42.84375 
Q 14.984375 37.3125 14.984375 27.296875 
Q 14.984375 17.28125 19.8125 11.734375 
Q 24.65625 6.203125 33.40625 6.203125 
Q 37.3125 6.203125 41.140625 7.25 
Q 44.96875 8.296875 48.78125 10.40625 
L 48.78125 2.09375 
Q 45.015625 0.34375 40.984375 -0.53125 
Q 36.96875 -1.421875 32.421875 -1.421875 
Q 20.0625 -1.421875 12.78125 6.34375 
Q 5.515625 14.109375 5.515625 27.296875 
Q 5.515625 40.671875 12.859375 48.328125 
Q 20.21875 56 33.015625 56 
Q 37.15625 56 41.109375 55.140625 
Q 45.0625 54.296875 48.78125 52.59375 
z
" id="DejaVuSans-99"/>
     <path d="M 18.3125 70.21875 
L 18.3125 54.6875 
L 36.8125 54.6875 
L 36.8125 47.703125 
L 18.3125 47.703125 
L 18.3125 18.015625 
Q 18.3125 11.328125 20.140625 9.421875 
Q 21.96875 7.515625 27.59375 7.515625 
L 36.8125 7.515625 
L 36.8125 0 
L 27.59375 0 
Q 17.1875 0 13.234375 3.875 
Q 9.28125 7.765625 9.28125 18.015625 
L 9.28125 47.703125 
L 2.6875 47.703125 
L 2.6875 54.6875 
L 9.28125 54.6875 
L 9.28125 70.21875 
z
" id="DejaVuSans-116"/>
     <path d="M 17.921875 72.90625 
L 17.921875 45.796875 
L 9.625 45.796875 
L 9.625 72.90625 
z
" id="DejaVuSans-39"/>
     <path d="M 4.890625 31.390625 
L 31.203125 31.390625 
L 31.203125 23.390625 
L 4.890625 23.390625 
z
" id="DejaVuSans-45"/>
     <path d="M 19.671875 64.796875 
L 19.671875 8.109375 
L 31.59375 8.109375 
Q 46.6875 8.109375 53.6875 14.9375 
Q 60.6875 21.78125 60.6875 36.53125 
Q 60.6875 51.171875 53.6875 57.984375 
Q 46.6875 64.796875 31.59375 64.796875 
z
M 9.8125 72.90625 
L 30.078125 72.90625 
Q 51.265625 72.90625 61.171875 64.09375 
Q 71.09375 55.28125 71.09375 36.53125 
Q 71.09375 17.671875 61.125 8.828125 
Q 51.171875 0 30.078125 0 
L 9.8125 0 
z
" id="DejaVuSans-68"/>
     <path d="M 56.203125 29.59375 
L 56.203125 25.203125 
L 14.890625 25.203125 
Q 15.484375 15.921875 20.484375 11.0625 
Q 25.484375 6.203125 34.421875 6.203125 
Q 39.59375 6.203125 44.453125 7.46875 
Q 49.3125 8.734375 54.109375 11.28125 
L 54.109375 2.78125 
Q 49.265625 0.734375 44.1875 -0.34375 
Q 39.109375 -1.421875 33.890625 -1.421875 
Q 20.796875 -1.421875 13.15625 6.1875 
Q 5.515625 13.8125 5.515625 26.8125 
Q 5.515625 40.234375 12.765625 48.109375 
Q 20.015625 56 32.328125 56 
Q 43.359375 56 49.78125 48.890625 
Q 56.203125 41.796875 56.203125 29.59375 
z
M 47.21875 32.234375 
Q 47.125 39.59375 43.09375 43.984375 
Q 39.0625 48.390625 32.421875 48.390625 
Q 24.90625 48.390625 20.390625 44.140625 
Q 15.875 39.890625 15.1875 32.171875 
z
" id="DejaVuSans-101"/>
    </defs>
    <g style="fill:#808080;" transform="translate(288.74 35.8)scale(0.12 -0.12)">
     <use xlink:href="#DejaVuSans-49"/>
     <use x="63.623047" xlink:href="#DejaVuSans-56"/>
     <use x="127.246094" xlink:href="#DejaVuSans-32"/>
     <use x="159.033203" xlink:href="#DejaVuSans-79"/>
     <use x="237.744141" xlink:href="#DejaVuSans-99"/>
     <use x="292.724609" xlink:href="#DejaVuSans-116"/>
     <use x="331.933594" xlink:href="#DejaVuSans-32"/>
     <use x="363.720703" xlink:href="#DejaVuSans-39"/>
     <use x="391.210938" xlink:href="#DejaVuSans-48"/>
     <use x="454.833984" xlink:href="#DejaVuSans-48"/>
     <use x="518.457031" xlink:href="#DejaVuSans-32"/>
     <use x="550.244141" xlink:href="#DejaVuSans-45"/>
     <use x="586.328125" xlink:href="#DejaVuSans-32"/>
     <use x="618.115234" xlink:href="#DejaVuSans-50"/>
     <use x="681.738281" xlink:href="#DejaVuSans-50"/>
     <use x="745.361328" xlink:href="#DejaVuSans-32"/>
     <use x="777.148438" xlink:href="#DejaVuSans-68"/>
     <use x="854.150391" xlink:href="#DejaVuSans-101"/>
     <use x="915.673828" xlink:href="#DejaVuSans-99"/>
     <use x="970.654297" xlink:href="#DejaVuSans-32"/>
     <use x="1002.441406" xlink:href="#DejaVuSans-39"/>
     <use x="1029.931641" xlink:href="#DejaVuSans-50"/>
     <use x="1093.554688" xlink:href="#DejaVuSans-49"/>
     <use x="1157.177734" xlink:href="#DejaVuSans-32"/>
     <use x="1188.964844" xlink:href="#DejaVuSans-32"/>
     <use x="1220.751953" xlink:href="#DejaVuSans-32"/>
     <use x="1252.539062" xlink:href="#DejaVuSans-32"/>
     <use x="1284.326172" xlink:href="#DejaVuSans-32"/>
     <use x="1316.113281" xlink:href="#DejaVuSans-32"/>
     <use x="1347.900391" xlink:href="#DejaVuSans-32"/>
     <use x="1379.6875" xlink:href="#DejaVuSans-32"/>
     <use x="1411.474609" xlink:href="#DejaVuSans-32"/>
     <use x="1443.261719" xlink:href="#DejaVuSans-32"/>
     <use x="1475.048828" xlink:href="#DejaVuSans-32"/>
     <use x="1506.835938" xlink:href="#DejaVuSans-32"/>
     <use x="1538.623047" xlink:href="#DejaVuSans-32"/>
     <use x="1570.410156" xlink:href="#DejaVuSans-32"/>
     <use x="1602.197266" xlink:href="#DejaVuSans-32"/>
     <use x="1633.984375" xlink:href="#DejaVuSans-32"/>
     <use x="1665.771484" xlink:href="#DejaVuSans-32"/>
     <use x="1697.558594" xlink:href="#DejaVuSans-32"/>
     <use x="1729.345703" xlink:href="#DejaVuSans-32"/>
    </g>
   </g>
   <g id="legend_1">
    <g id="patch_3">
     <path d="M 610.981875 69.01375 
L 700.8 69.01375 
Q 703.2 69.01375 703.2 66.61375 
L 703.2 50.2 
Q 703.2 47.8 700.8 47.8 
L 610.981875 47.8 
Q 608.581875 47.8 608.581875 50.2 
L 608.581875 66.61375 
Q 608.581875 69.01375 610.981875 69.01375 
z
" style="fill:#ffffff;opacity:0.8;stroke:#cccccc;stroke-linejoin:miter;"/>
    </g>
    <g id="line2d_14">
     <path d="M 613.381875 57.518125 
L 637.381875 57.518125 
" style="fill:none;stroke:#348dc1;stroke-linecap:round;stroke-width:1.5;"/>
    </g>
    <g id="line2d_15"/>
    <g id="text_13">
     <!-- Strategy -->
     <defs>
      <path d="M 53.515625 70.515625 
L 53.515625 60.890625 
Q 47.90625 63.578125 42.921875 64.890625 
Q 37.9375 66.21875 33.296875 66.21875 
Q 25.25 66.21875 20.875 63.09375 
Q 16.5 59.96875 16.5 54.203125 
Q 16.5 49.359375 19.40625 46.890625 
Q 22.3125 44.4375 30.421875 42.921875 
L 36.375 41.703125 
Q 47.40625 39.59375 52.65625 34.296875 
Q 57.90625 29 57.90625 20.125 
Q 57.90625 9.515625 50.796875 4.046875 
Q 43.703125 -1.421875 29.984375 -1.421875 
Q 24.8125 -1.421875 18.96875 -0.25 
Q 13.140625 0.921875 6.890625 3.21875 
L 6.890625 13.375 
Q 12.890625 10.015625 18.65625 8.296875 
Q 24.421875 6.59375 29.984375 6.59375 
Q 38.421875 6.59375 43.015625 9.90625 
Q 47.609375 13.234375 47.609375 19.390625 
Q 47.609375 24.75 44.3125 27.78125 
Q 41.015625 30.8125 33.5 32.328125 
L 27.484375 33.5 
Q 16.453125 35.6875 11.515625 40.375 
Q 6.59375 45.0625 6.59375 53.421875 
Q 6.59375 63.09375 13.40625 68.65625 
Q 20.21875 74.21875 32.171875 74.21875 
Q 37.3125 74.21875 42.625 73.28125 
Q 47.953125 72.359375 53.515625 70.515625 
z
" id="DejaVuSans-83"/>
      <path d="M 41.109375 46.296875 
Q 39.59375 47.171875 37.8125 47.578125 
Q 36.03125 48 33.890625 48 
Q 26.265625 48 22.1875 43.046875 
Q 18.109375 38.09375 18.109375 28.8125 
L 18.109375 0 
L 9.078125 0 
L 9.078125 54.6875 
L 18.109375 54.6875 
L 18.109375 46.1875 
Q 20.953125 51.171875 25.484375 53.578125 
Q 30.03125 56 36.53125 56 
Q 37.453125 56 38.578125 55.875 
Q 39.703125 55.765625 41.0625 55.515625 
z
" id="DejaVuSans-114"/>
      <path d="M 34.28125 27.484375 
Q 23.390625 27.484375 19.1875 25 
Q 14.984375 22.515625 14.984375 16.5 
Q 14.984375 11.71875 18.140625 8.90625 
Q 21.296875 6.109375 26.703125 6.109375 
Q 34.1875 6.109375 38.703125 11.40625 
Q 43.21875 16.703125 43.21875 25.484375 
L 43.21875 27.484375 
z
M 52.203125 31.203125 
L 52.203125 0 
L 43.21875 0 
L 43.21875 8.296875 
Q 40.140625 3.328125 35.546875 0.953125 
Q 30.953125 -1.421875 24.3125 -1.421875 
Q 15.921875 -1.421875 10.953125 3.296875 
Q 6 8.015625 6 15.921875 
Q 6 25.140625 12.171875 29.828125 
Q 18.359375 34.515625 30.609375 34.515625 
L 43.21875 34.515625 
L 43.21875 35.40625 
Q 43.21875 41.609375 39.140625 45 
Q 35.0625 48.390625 27.6875 48.390625 
Q 23 48.390625 18.546875 47.265625 
Q 14.109375 46.140625 10.015625 43.890625 
L 10.015625 52.203125 
Q 14.9375 54.109375 19.578125 55.046875 
Q 24.21875 56 28.609375 56 
Q 40.484375 56 46.34375 49.84375 
Q 52.203125 43.703125 52.203125 31.203125 
z
" id="DejaVuSans-97"/>
      <path d="M 45.40625 27.984375 
Q 45.40625 37.75 41.375 43.109375 
Q 37.359375 48.484375 30.078125 48.484375 
Q 22.859375 48.484375 18.828125 43.109375 
Q 14.796875 37.75 14.796875 27.984375 
Q 14.796875 18.265625 18.828125 12.890625 
Q 22.859375 7.515625 30.078125 7.515625 
Q 37.359375 7.515625 41.375 12.890625 
Q 45.40625 18.265625 45.40625 27.984375 
z
M 54.390625 6.78125 
Q 54.390625 -7.171875 48.1875 -13.984375 
Q 42 -20.796875 29.203125 -20.796875 
Q 24.46875 -20.796875 20.265625 -20.09375 
Q 16.0625 -19.390625 12.109375 -17.921875 
L 12.109375 -9.1875 
Q 16.0625 -11.328125 19.921875 -12.34375 
Q 23.78125 -13.375 27.78125 -13.375 
Q 36.625 -13.375 41.015625 -8.765625 
Q 45.40625 -4.15625 45.40625 5.171875 
L 45.40625 9.625 
Q 42.625 4.78125 38.28125 2.390625 
Q 33.9375 0 27.875 0 
Q 17.828125 0 11.671875 7.65625 
Q 5.515625 15.328125 5.515625 27.984375 
Q 5.515625 40.671875 11.671875 48.328125 
Q 17.828125 56 27.875 56 
Q 33.9375 56 38.28125 53.609375 
Q 42.625 51.21875 45.40625 46.390625 
L 45.40625 54.6875 
L 54.390625 54.6875 
z
" id="DejaVuSans-103"/>
      <path d="M 32.171875 -5.078125 
Q 28.375 -14.84375 24.75 -17.8125 
Q 21.140625 -20.796875 15.09375 -20.796875 
L 7.90625 -20.796875 
L 7.90625 -13.28125 
L 13.1875 -13.28125 
Q 16.890625 -13.28125 18.9375 -11.515625 
Q 21 -9.765625 23.484375 -3.21875 
L 25.09375 0.875 
L 2.984375 54.6875 
L 12.5 54.6875 
L 29.59375 11.921875 
L 46.6875 54.6875 
L 56.203125 54.6875 
z
" id="DejaVuSans-121"/>
     </defs>
     <g style="fill:#333333;" transform="translate(646.981875 61.718125)scale(0.12 -0.12)">
      <use xlink:href="#DejaVuSans-83"/>
      <use x="63.476562" xlink:href="#DejaVuSans-116"/>
      <use x="102.685547" xlink:href="#DejaVuSans-114"/>
      <use x="143.798828" xlink:href="#DejaVuSans-97"/>
      <use x="205.078125" xlink:href="#DejaVuSans-116"/>
      <use x="244.287109" xlink:href="#DejaVuSans-101"/>
      <use x="305.810547" xlink:href="#DejaVuSans-103"/>
      <use x="369.287109" xlink:href="#DejaVuSans-121"/>
     </g>
    </g>
   </g>
  </g>
  <g id="text_14">
   <!-- Rolling Volatility (6-Months) -->
   <defs>
    <path d="M 35.890625 40.578125 
Q 41.796875 40.578125 44.359375 42.765625 
Q 46.921875 44.96875 46.921875 50 
Q 46.921875 54.984375 44.359375 57.125 
Q 41.796875 59.28125 35.890625 59.28125 
L 27.984375 59.28125 
L 27.984375 40.578125 
z
M 27.984375 27.59375 
L 27.984375 0 
L 9.1875 0 
L 9.1875 72.90625 
L 37.890625 72.90625 
Q 52.296875 72.90625 59 68.0625 
Q 65.71875 63.234375 65.71875 52.78125 
Q 65.71875 45.5625 62.21875 40.921875 
Q 58.734375 36.28125 51.703125 34.078125 
Q 55.5625 33.203125 58.609375 30.09375 
Q 61.671875 27 64.796875 20.703125 
L 75 0 
L 54.984375 0 
L 46.09375 18.109375 
Q 43.40625 23.578125 40.640625 25.578125 
Q 37.890625 27.59375 33.296875 27.59375 
z
" id="DejaVuSans-Bold-82"/>
    <path d="M 63.375 33.296875 
L 63.375 0 
L 45.796875 0 
L 45.796875 5.421875 
L 45.796875 25.484375 
Q 45.796875 32.5625 45.484375 35.25 
Q 45.171875 37.9375 44.390625 39.203125 
Q 43.359375 40.921875 41.59375 41.875 
Q 39.84375 42.828125 37.59375 42.828125 
Q 32.125 42.828125 29 38.59375 
Q 25.875 34.375 25.875 26.90625 
L 25.875 0 
L 8.40625 0 
L 8.40625 54.6875 
L 25.875 54.6875 
L 25.875 46.6875 
Q 29.828125 51.46875 34.265625 53.734375 
Q 38.71875 56 44.09375 56 
Q 53.5625 56 58.46875 50.1875 
Q 63.375 44.390625 63.375 33.296875 
z
" id="DejaVuSans-Bold-110"/>
    <path d="M 45.609375 9.28125 
Q 42 4.5 37.640625 2.25 
Q 33.296875 0 27.59375 0 
Q 17.578125 0 11.03125 7.875 
Q 4.5 15.765625 4.5 27.984375 
Q 4.5 40.234375 11.03125 48.0625 
Q 17.578125 55.90625 27.59375 55.90625 
Q 33.296875 55.90625 37.640625 53.65625 
Q 42 51.421875 45.609375 46.578125 
L 45.609375 54.6875 
L 63.1875 54.6875 
L 63.1875 5.515625 
Q 63.1875 -7.671875 54.859375 -14.625 
Q 46.53125 -21.578125 30.71875 -21.578125 
Q 25.59375 -21.578125 20.796875 -20.796875 
Q 16.015625 -20.015625 11.1875 -18.40625 
L 11.1875 -4.78125 
Q 15.765625 -7.421875 20.15625 -8.71875 
Q 24.5625 -10.015625 29 -10.015625 
Q 37.59375 -10.015625 41.59375 -6.25 
Q 45.609375 -2.484375 45.609375 5.515625 
z
M 34.078125 43.3125 
Q 28.65625 43.3125 25.625 39.296875 
Q 22.609375 35.296875 22.609375 27.984375 
Q 22.609375 20.453125 25.53125 16.578125 
Q 28.46875 12.703125 34.078125 12.703125 
Q 39.546875 12.703125 42.578125 16.703125 
Q 45.609375 20.703125 45.609375 27.984375 
Q 45.609375 35.296875 42.578125 39.296875 
Q 39.546875 43.3125 34.078125 43.3125 
z
" id="DejaVuSans-Bold-103"/>
    <path id="DejaVuSans-Bold-32"/>
    <path d="M 37.703125 -13.1875 
L 23.1875 -13.1875 
Q 15.71875 -1.125 12.15625 9.734375 
Q 8.59375 20.609375 8.59375 31.296875 
Q 8.59375 42 12.171875 52.953125 
Q 15.765625 63.921875 23.1875 75.875 
L 37.703125 75.875 
Q 31.453125 64.3125 28.328125 53.25 
Q 25.203125 42.1875 25.203125 31.390625 
Q 25.203125 20.609375 28.296875 9.515625 
Q 31.390625 -1.5625 37.703125 -13.1875 
z
" id="DejaVuSans-Bold-40"/>
    <path d="M 36.1875 35.984375 
Q 31.25 35.984375 28.78125 32.78125 
Q 26.3125 29.59375 26.3125 23.1875 
Q 26.3125 16.796875 28.78125 13.59375 
Q 31.25 10.40625 36.1875 10.40625 
Q 41.15625 10.40625 43.625 13.59375 
Q 46.09375 16.796875 46.09375 23.1875 
Q 46.09375 29.59375 43.625 32.78125 
Q 41.15625 35.984375 36.1875 35.984375 
z
M 59.421875 71 
L 59.421875 57.515625 
Q 54.78125 59.71875 50.671875 60.765625 
Q 46.578125 61.8125 42.671875 61.8125 
Q 34.28125 61.8125 29.59375 57.140625 
Q 24.90625 52.484375 24.125 43.3125 
Q 27.34375 45.703125 31.09375 46.890625 
Q 34.859375 48.09375 39.3125 48.09375 
Q 50.484375 48.09375 57.34375 41.546875 
Q 64.203125 35.015625 64.203125 24.421875 
Q 64.203125 12.703125 56.53125 5.640625 
Q 48.875 -1.421875 35.984375 -1.421875 
Q 21.78125 -1.421875 13.984375 8.171875 
Q 6.203125 17.78125 6.203125 35.40625 
Q 6.203125 53.46875 15.3125 63.796875 
Q 24.421875 74.125 40.28125 74.125 
Q 45.3125 74.125 50.046875 73.34375 
Q 54.78125 72.5625 59.421875 71 
z
" id="DejaVuSans-Bold-54"/>
    <path d="M 5.421875 35.890625 
L 36.078125 35.890625 
L 36.078125 21.6875 
L 5.421875 21.6875 
z
" id="DejaVuSans-Bold-45"/>
    <path d="M 9.1875 72.90625 
L 33.109375 72.90625 
L 49.703125 33.890625 
L 66.40625 72.90625 
L 90.28125 72.90625 
L 90.28125 0 
L 72.515625 0 
L 72.515625 53.328125 
L 55.71875 14.015625 
L 43.796875 14.015625 
L 27 53.328125 
L 27 0 
L 9.1875 0 
z
" id="DejaVuSans-Bold-77"/>
    <path d="M 63.375 33.296875 
L 63.375 0 
L 45.796875 0 
L 45.796875 5.421875 
L 45.796875 25.390625 
Q 45.796875 32.5625 45.484375 35.25 
Q 45.171875 37.9375 44.390625 39.203125 
Q 43.359375 40.921875 41.59375 41.875 
Q 39.84375 42.828125 37.59375 42.828125 
Q 32.125 42.828125 29 38.59375 
Q 25.875 34.375 25.875 26.90625 
L 25.875 0 
L 8.40625 0 
L 8.40625 75.984375 
L 25.875 75.984375 
L 25.875 46.6875 
Q 29.828125 51.46875 34.265625 53.734375 
Q 38.71875 56 44.09375 56 
Q 53.5625 56 58.46875 50.1875 
Q 63.375 44.390625 63.375 33.296875 
z
" id="DejaVuSans-Bold-104"/>
    <path d="M 51.125 52.984375 
L 51.125 39.703125 
Q 45.515625 42.046875 40.28125 43.21875 
Q 35.0625 44.390625 30.421875 44.390625 
Q 25.4375 44.390625 23.015625 43.140625 
Q 20.609375 41.890625 20.609375 39.3125 
Q 20.609375 37.203125 22.4375 36.078125 
Q 24.265625 34.96875 29 34.421875 
L 32.078125 33.984375 
Q 45.515625 32.28125 50.140625 28.375 
Q 54.78125 24.46875 54.78125 16.109375 
Q 54.78125 7.375 48.328125 2.96875 
Q 41.890625 -1.421875 29.109375 -1.421875 
Q 23.6875 -1.421875 17.890625 -0.5625 
Q 12.109375 0.296875 6 2 
L 6 15.28125 
Q 11.234375 12.75 16.71875 11.46875 
Q 22.21875 10.203125 27.875 10.203125 
Q 33.015625 10.203125 35.59375 11.609375 
Q 38.1875 13.03125 38.1875 15.828125 
Q 38.1875 18.171875 36.40625 19.3125 
Q 34.625 20.453125 29.296875 21.09375 
L 26.21875 21.484375 
Q 14.546875 22.953125 9.859375 26.90625 
Q 5.171875 30.859375 5.171875 38.921875 
Q 5.171875 47.609375 11.125 51.796875 
Q 17.09375 56 29.390625 56 
Q 34.234375 56 39.546875 55.265625 
Q 44.875 54.546875 51.125 52.984375 
z
" id="DejaVuSans-Bold-115"/>
    <path d="M 8.015625 -13.1875 
Q 14.265625 -1.5625 17.390625 9.515625 
Q 20.515625 20.609375 20.515625 31.390625 
Q 20.515625 42.1875 17.390625 53.25 
Q 14.265625 64.3125 8.015625 75.875 
L 22.515625 75.875 
Q 29.9375 63.921875 33.515625 52.953125 
Q 37.109375 42 37.109375 31.296875 
Q 37.109375 20.609375 33.546875 9.734375 
Q 29.984375 -1.125 22.515625 -13.1875 
z
" id="DejaVuSans-Bold-41"/>
   </defs>
   <g transform="translate(248.888125 12.797812)scale(0.14 -0.14)">
    <use xlink:href="#DejaVuSans-Bold-82"/>
    <use x="77.001953" xlink:href="#DejaVuSans-Bold-111"/>
    <use x="145.703125" xlink:href="#DejaVuSans-Bold-108"/>
    <use x="179.980469" xlink:href="#DejaVuSans-Bold-108"/>
    <use x="214.257812" xlink:href="#DejaVuSans-Bold-105"/>
    <use x="248.535156" xlink:href="#DejaVuSans-Bold-110"/>
    <use x="319.726562" xlink:href="#DejaVuSans-Bold-103"/>
    <use x="391.308594" xlink:href="#DejaVuSans-Bold-32"/>
    <use x="426.123047" xlink:href="#DejaVuSans-Bold-86"/>
    <use x="498.015625" xlink:href="#DejaVuSans-Bold-111"/>
    <use x="566.716797" xlink:href="#DejaVuSans-Bold-108"/>
    <use x="600.994141" xlink:href="#DejaVuSans-Bold-97"/>
    <use x="668.474609" xlink:href="#DejaVuSans-Bold-116"/>
    <use x="716.277344" xlink:href="#DejaVuSans-Bold-105"/>
    <use x="750.554688" xlink:href="#DejaVuSans-Bold-108"/>
    <use x="784.832031" xlink:href="#DejaVuSans-Bold-105"/>
    <use x="819.109375" xlink:href="#DejaVuSans-Bold-116"/>
    <use x="866.912109" xlink:href="#DejaVuSans-Bold-121"/>
    <use x="932.097656" xlink:href="#DejaVuSans-Bold-32"/>
    <use x="966.912109" xlink:href="#DejaVuSans-Bold-40"/>
    <use x="1012.615234" xlink:href="#DejaVuSans-Bold-54"/>
    <use x="1082.195312" xlink:href="#DejaVuSans-Bold-45"/>
    <use x="1123.699219" xlink:href="#DejaVuSans-Bold-77"/>
    <use x="1223.210938" xlink:href="#DejaVuSans-Bold-111"/>
    <use x="1291.912109" xlink:href="#DejaVuSans-Bold-110"/>
    <use x="1363.103516" xlink:href="#DejaVuSans-Bold-116"/>
    <use x="1410.90625" xlink:href="#DejaVuSans-Bold-104"/>
    <use x="1482.097656" xlink:href="#DejaVuSans-Bold-115"/>
    <use x="1541.619141" xlink:href="#DejaVuSans-Bold-41"/>
   </g>
   <!--  -->
   <g transform="translate(360 28.584125)scale(0.14 -0.14)"/>
  </g>
 </g>
 <defs>
  <clipPath id="p418a6e7c96">
   <rect height="127.14167" width="629.6" x="79.6" y="41.8"/>
  </clipPath>
 </defs>
</svg>
