<?xml version="1.0" encoding="utf-8" standalone="no"?>
<!DOCTYPE svg PUBLIC "-//W3C//DTD SVG 1.1//EN"
  "http://www.w3.org/Graphics/SVG/1.1/DTD/svg11.dtd">
<!-- Created with matplotlib (https://matplotlib.org/) -->
<svg height="216pt" version="1.1" viewBox="0 0 720 216" width="720pt" xmlns="http://www.w3.org/2000/svg" xmlns:xlink="http://www.w3.org/1999/xlink">
 <defs>
  <style type="text/css">
*{stroke-linecap:butt;stroke-linejoin:round;}
  </style>
 </defs>
 <g id="figure_1">
  <g id="patch_1">
   <path d="M 0 216 
L 720 216 
L 720 0 
L 0 0 
z
" style="fill:#ffffff;"/>
  </g>
  <g id="axes_1">
   <g id="patch_2">
    <path d="M 79.6 168.94167 
L 709.2 168.94167 
L 709.2 41.8 
L 79.6 41.8 
z
" style="fill:#ffffff;"/>
   </g>
   <g id="matplotlib.axis_1">
    <g id="xtick_1">
     <g id="line2d_1">
      <path clip-path="url(#p249018b359)" d="M 182.098497 168.94167 
L 182.098497 41.8 
" style="fill:none;stroke:#dddddd;stroke-linecap:round;stroke-width:0.5;"/>
     </g>
     <g id="text_1">
      <!-- 2004 -->
      <defs>
       <path d="M 19.1875 8.296875 
L 53.609375 8.296875 
L 53.609375 0 
L 7.328125 0 
L 7.328125 8.296875 
Q 12.9375 14.109375 22.625 23.890625 
Q 32.328125 33.6875 34.8125 36.53125 
Q 39.546875 41.84375 41.421875 45.53125 
Q 43.3125 49.21875 43.3125 52.78125 
Q 43.3125 58.59375 39.234375 62.25 
Q 35.15625 65.921875 28.609375 65.921875 
Q 23.96875 65.921875 18.8125 64.3125 
Q 13.671875 62.703125 7.8125 59.421875 
L 7.8125 69.390625 
Q 13.765625 71.78125 18.9375 73 
Q 24.125 74.21875 28.421875 74.21875 
Q 39.75 74.21875 46.484375 68.546875 
Q 53.21875 62.890625 53.21875 53.421875 
Q 53.21875 48.921875 51.53125 44.890625 
Q 49.859375 40.875 45.40625 35.40625 
Q 44.1875 33.984375 37.640625 27.21875 
Q 31.109375 20.453125 19.1875 8.296875 
z
" id="DejaVuSans-50"/>
       <path d="M 31.78125 66.40625 
Q 24.171875 66.40625 20.328125 58.90625 
Q 16.5 51.421875 16.5 36.375 
Q 16.5 21.390625 20.328125 13.890625 
Q 24.171875 6.390625 31.78125 6.390625 
Q 39.453125 6.390625 43.28125 13.890625 
Q 47.125 21.390625 47.125 36.375 
Q 47.125 51.421875 43.28125 58.90625 
Q 39.453125 66.40625 31.78125 66.40625 
z
M 31.78125 74.21875 
Q 44.046875 74.21875 50.515625 64.515625 
Q 56.984375 54.828125 56.984375 36.375 
Q 56.984375 17.96875 50.515625 8.265625 
Q 44.046875 -1.421875 31.78125 -1.421875 
Q 19.53125 -1.421875 13.0625 8.265625 
Q 6.59375 17.96875 6.59375 36.375 
Q 6.59375 54.828125 13.0625 64.515625 
Q 19.53125 74.21875 31.78125 74.21875 
z
" id="DejaVuSans-48"/>
       <path d="M 37.796875 64.3125 
L 12.890625 25.390625 
L 37.796875 25.390625 
z
M 35.203125 72.90625 
L 47.609375 72.90625 
L 47.609375 25.390625 
L 58.015625 25.390625 
L 58.015625 17.1875 
L 47.609375 17.1875 
L 47.609375 0 
L 37.796875 0 
L 37.796875 17.1875 
L 4.890625 17.1875 
L 4.890625 26.703125 
z
" id="DejaVuSans-52"/>
      </defs>
      <g style="fill:#666666;" transform="translate(154.171467 201.801252)rotate(-30)scale(0.121 -0.121)">
       <use xlink:href="#DejaVuSans-50"/>
       <use x="63.623047" xlink:href="#DejaVuSans-48"/>
       <use x="127.246094" xlink:href="#DejaVuSans-48"/>
       <use x="190.869141" xlink:href="#DejaVuSans-52"/>
      </g>
     </g>
    </g>
    <g id="xtick_2">
     <g id="line2d_2">
      <path clip-path="url(#p249018b359)" d="M 293.032866 168.94167 
L 293.032866 41.8 
" style="fill:none;stroke:#dddddd;stroke-linecap:round;stroke-width:0.5;"/>
     </g>
     <g id="text_2">
      <!-- 2008 -->
      <defs>
       <path d="M 31.78125 34.625 
Q 24.75 34.625 20.71875 30.859375 
Q 16.703125 27.09375 16.703125 20.515625 
Q 16.703125 13.921875 20.71875 10.15625 
Q 24.75 6.390625 31.78125 6.390625 
Q 38.8125 6.390625 42.859375 10.171875 
Q 46.921875 13.96875 46.921875 20.515625 
Q 46.921875 27.09375 42.890625 30.859375 
Q 38.875 34.625 31.78125 34.625 
z
M 21.921875 38.8125 
Q 15.578125 40.375 12.03125 44.71875 
Q 8.5 49.078125 8.5 55.328125 
Q 8.5 64.0625 14.71875 69.140625 
Q 20.953125 74.21875 31.78125 74.21875 
Q 42.671875 74.21875 48.875 69.140625 
Q 55.078125 64.0625 55.078125 55.328125 
Q 55.078125 49.078125 51.53125 44.71875 
Q 48 40.375 41.703125 38.8125 
Q 48.828125 37.15625 52.796875 32.3125 
Q 56.78125 27.484375 56.78125 20.515625 
Q 56.78125 9.90625 50.3125 4.234375 
Q 43.84375 -1.421875 31.78125 -1.421875 
Q 19.734375 -1.421875 13.25 4.234375 
Q 6.78125 9.90625 6.78125 20.515625 
Q 6.78125 27.484375 10.78125 32.3125 
Q 14.796875 37.15625 21.921875 38.8125 
z
M 18.3125 54.390625 
Q 18.3125 48.734375 21.84375 45.5625 
Q 25.390625 42.390625 31.78125 42.390625 
Q 38.140625 42.390625 41.71875 45.5625 
Q 45.3125 48.734375 45.3125 54.390625 
Q 45.3125 60.0625 41.71875 63.234375 
Q 38.140625 66.40625 31.78125 66.40625 
Q 25.390625 66.40625 21.84375 63.234375 
Q 18.3125 60.0625 18.3125 54.390625 
z
" id="DejaVuSans-56"/>
      </defs>
      <g style="fill:#666666;" transform="translate(265.105836 201.801252)rotate(-30)scale(0.121 -0.121)">
       <use xlink:href="#DejaVuSans-50"/>
       <use x="63.623047" xlink:href="#DejaVuSans-48"/>
       <use x="127.246094" xlink:href="#DejaVuSans-48"/>
       <use x="190.869141" xlink:href="#DejaVuSans-56"/>
      </g>
     </g>
    </g>
    <g id="xtick_3">
     <g id="line2d_3">
      <path clip-path="url(#p249018b359)" d="M 403.967235 168.94167 
L 403.967235 41.8 
" style="fill:none;stroke:#dddddd;stroke-linecap:round;stroke-width:0.5;"/>
     </g>
     <g id="text_3">
      <!-- 2012 -->
      <defs>
       <path d="M 12.40625 8.296875 
L 28.515625 8.296875 
L 28.515625 63.921875 
L 10.984375 60.40625 
L 10.984375 69.390625 
L 28.421875 72.90625 
L 38.28125 72.90625 
L 38.28125 8.296875 
L 54.390625 8.296875 
L 54.390625 0 
L 12.40625 0 
z
" id="DejaVuSans-49"/>
      </defs>
      <g style="fill:#666666;" transform="translate(376.040205 201.801252)rotate(-30)scale(0.121 -0.121)">
       <use xlink:href="#DejaVuSans-50"/>
       <use x="63.623047" xlink:href="#DejaVuSans-48"/>
       <use x="127.246094" xlink:href="#DejaVuSans-49"/>
       <use x="190.869141" xlink:href="#DejaVuSans-50"/>
      </g>
     </g>
    </g>
    <g id="xtick_4">
     <g id="line2d_4">
      <path clip-path="url(#p249018b359)" d="M 514.901604 168.94167 
L 514.901604 41.8 
" style="fill:none;stroke:#dddddd;stroke-linecap:round;stroke-width:0.5;"/>
     </g>
     <g id="text_4">
      <!-- 2016 -->
      <defs>
       <path d="M 33.015625 40.375 
Q 26.375 40.375 22.484375 35.828125 
Q 18.609375 31.296875 18.609375 23.390625 
Q 18.609375 15.53125 22.484375 10.953125 
Q 26.375 6.390625 33.015625 6.390625 
Q 39.65625 6.390625 43.53125 10.953125 
Q 47.40625 15.53125 47.40625 23.390625 
Q 47.40625 31.296875 43.53125 35.828125 
Q 39.65625 40.375 33.015625 40.375 
z
M 52.59375 71.296875 
L 52.59375 62.3125 
Q 48.875 64.0625 45.09375 64.984375 
Q 41.3125 65.921875 37.59375 65.921875 
Q 27.828125 65.921875 22.671875 59.328125 
Q 17.53125 52.734375 16.796875 39.40625 
Q 19.671875 43.65625 24.015625 45.921875 
Q 28.375 48.1875 33.59375 48.1875 
Q 44.578125 48.1875 50.953125 41.515625 
Q 57.328125 34.859375 57.328125 23.390625 
Q 57.328125 12.15625 50.6875 5.359375 
Q 44.046875 -1.421875 33.015625 -1.421875 
Q 20.359375 -1.421875 13.671875 8.265625 
Q 6.984375 17.96875 6.984375 36.375 
Q 6.984375 53.65625 15.1875 63.9375 
Q 23.390625 74.21875 37.203125 74.21875 
Q 40.921875 74.21875 44.703125 73.484375 
Q 48.484375 72.75 52.59375 71.296875 
z
" id="DejaVuSans-54"/>
      </defs>
      <g style="fill:#666666;" transform="translate(486.974574 201.801252)rotate(-30)scale(0.121 -0.121)">
       <use xlink:href="#DejaVuSans-50"/>
       <use x="63.623047" xlink:href="#DejaVuSans-48"/>
       <use x="127.246094" xlink:href="#DejaVuSans-49"/>
       <use x="190.869141" xlink:href="#DejaVuSans-54"/>
      </g>
     </g>
    </g>
    <g id="xtick_5">
     <g id="line2d_5">
      <path clip-path="url(#p249018b359)" d="M 625.835973 168.94167 
L 625.835973 41.8 
" style="fill:none;stroke:#dddddd;stroke-linecap:round;stroke-width:0.5;"/>
     </g>
     <g id="text_5">
      <!-- 2020 -->
      <g style="fill:#666666;" transform="translate(597.908943 201.801252)rotate(-30)scale(0.121 -0.121)">
       <use xlink:href="#DejaVuSans-50"/>
       <use x="63.623047" xlink:href="#DejaVuSans-48"/>
       <use x="127.246094" xlink:href="#DejaVuSans-50"/>
       <use x="190.869141" xlink:href="#DejaVuSans-48"/>
      </g>
     </g>
    </g>
   </g>
   <g id="matplotlib.axis_2">
    <g id="ytick_1">
     <g id="line2d_6">
      <path clip-path="url(#p249018b359)" d="M 79.6 163.162503 
L 709.2 163.162503 
" style="fill:none;stroke:#dddddd;stroke-linecap:round;stroke-width:0.5;"/>
     </g>
     <g id="text_6">
      <!-- 0.00 -->
      <defs>
       <path d="M 10.6875 12.40625 
L 21 12.40625 
L 21 0 
L 10.6875 0 
z
" id="DejaVuSans-46"/>
      </defs>
      <g style="fill:#666666;" transform="translate(43.158594 167.759558)scale(0.121 -0.121)">
       <use xlink:href="#DejaVuSans-48"/>
       <use x="63.623047" xlink:href="#DejaVuSans-46"/>
       <use x="95.410156" xlink:href="#DejaVuSans-48"/>
       <use x="159.033203" xlink:href="#DejaVuSans-48"/>
      </g>
     </g>
    </g>
    <g id="ytick_2">
     <g id="line2d_7">
      <path clip-path="url(#p249018b359)" d="M 79.6 131.977448 
L 709.2 131.977448 
" style="fill:none;stroke:#dddddd;stroke-linecap:round;stroke-width:0.5;"/>
     </g>
     <g id="text_7">
      <!-- 0.25 -->
      <defs>
       <path d="M 10.796875 72.90625 
L 49.515625 72.90625 
L 49.515625 64.59375 
L 19.828125 64.59375 
L 19.828125 46.734375 
Q 21.96875 47.46875 24.109375 47.828125 
Q 26.265625 48.1875 28.421875 48.1875 
Q 40.625 48.1875 47.75 41.5 
Q 54.890625 34.8125 54.890625 23.390625 
Q 54.890625 11.625 47.5625 5.09375 
Q 40.234375 -1.421875 26.90625 -1.421875 
Q 22.3125 -1.421875 17.546875 -0.640625 
Q 12.796875 0.140625 7.71875 1.703125 
L 7.71875 11.625 
Q 12.109375 9.234375 16.796875 8.0625 
Q 21.484375 6.890625 26.703125 6.890625 
Q 35.15625 6.890625 40.078125 11.328125 
Q 45.015625 15.765625 45.015625 23.390625 
Q 45.015625 31 40.078125 35.4375 
Q 35.15625 39.890625 26.703125 39.890625 
Q 22.75 39.890625 18.8125 39.015625 
Q 14.890625 38.140625 10.796875 36.28125 
z
" id="DejaVuSans-53"/>
      </defs>
      <g style="fill:#666666;" transform="translate(43.158594 136.574503)scale(0.121 -0.121)">
       <use xlink:href="#DejaVuSans-48"/>
       <use x="63.623047" xlink:href="#DejaVuSans-46"/>
       <use x="95.410156" xlink:href="#DejaVuSans-50"/>
       <use x="159.033203" xlink:href="#DejaVuSans-53"/>
      </g>
     </g>
    </g>
    <g id="ytick_3">
     <g id="line2d_8">
      <path clip-path="url(#p249018b359)" d="M 79.6 100.792393 
L 709.2 100.792393 
" style="fill:none;stroke:#dddddd;stroke-linecap:round;stroke-width:0.5;"/>
     </g>
     <g id="text_8">
      <!-- 0.50 -->
      <g style="fill:#666666;" transform="translate(43.158594 105.389448)scale(0.121 -0.121)">
       <use xlink:href="#DejaVuSans-48"/>
       <use x="63.623047" xlink:href="#DejaVuSans-46"/>
       <use x="95.410156" xlink:href="#DejaVuSans-53"/>
       <use x="159.033203" xlink:href="#DejaVuSans-48"/>
      </g>
     </g>
    </g>
    <g id="ytick_4">
     <g id="line2d_9">
      <path clip-path="url(#p249018b359)" d="M 79.6 69.607339 
L 709.2 69.607339 
" style="fill:none;stroke:#dddddd;stroke-linecap:round;stroke-width:0.5;"/>
     </g>
     <g id="text_9">
      <!-- 0.75 -->
      <defs>
       <path d="M 8.203125 72.90625 
L 55.078125 72.90625 
L 55.078125 68.703125 
L 28.609375 0 
L 18.3125 0 
L 43.21875 64.59375 
L 8.203125 64.59375 
z
" id="DejaVuSans-55"/>
      </defs>
      <g style="fill:#666666;" transform="translate(43.158594 74.204393)scale(0.121 -0.121)">
       <use xlink:href="#DejaVuSans-48"/>
       <use x="63.623047" xlink:href="#DejaVuSans-46"/>
       <use x="95.410156" xlink:href="#DejaVuSans-55"/>
       <use x="159.033203" xlink:href="#DejaVuSans-53"/>
      </g>
     </g>
    </g>
    <g id="text_10">
     <!-- Volatility -->
     <defs>
      <path d="M 0.484375 72.90625 
L 19.390625 72.90625 
L 38.71875 19.09375 
L 58.015625 72.90625 
L 76.90625 72.90625 
L 49.90625 0 
L 27.484375 0 
z
" id="DejaVuSans-Bold-86"/>
      <path d="M 34.421875 43.5 
Q 28.609375 43.5 25.5625 39.328125 
Q 22.515625 35.15625 22.515625 27.296875 
Q 22.515625 19.4375 25.5625 15.25 
Q 28.609375 11.078125 34.421875 11.078125 
Q 40.140625 11.078125 43.15625 15.25 
Q 46.1875 19.4375 46.1875 27.296875 
Q 46.1875 35.15625 43.15625 39.328125 
Q 40.140625 43.5 34.421875 43.5 
z
M 34.421875 56 
Q 48.53125 56 56.46875 48.375 
Q 64.40625 40.765625 64.40625 27.296875 
Q 64.40625 13.8125 56.46875 6.1875 
Q 48.53125 -1.421875 34.421875 -1.421875 
Q 20.265625 -1.421875 12.28125 6.1875 
Q 4.296875 13.8125 4.296875 27.296875 
Q 4.296875 40.765625 12.28125 48.375 
Q 20.265625 56 34.421875 56 
z
" id="DejaVuSans-Bold-111"/>
      <path d="M 8.40625 75.984375 
L 25.875 75.984375 
L 25.875 0 
L 8.40625 0 
z
" id="DejaVuSans-Bold-108"/>
      <path d="M 32.90625 24.609375 
Q 27.4375 24.609375 24.671875 22.75 
Q 21.921875 20.90625 21.921875 17.28125 
Q 21.921875 13.96875 24.140625 12.078125 
Q 26.375 10.203125 30.328125 10.203125 
Q 35.25 10.203125 38.625 13.734375 
Q 42 17.28125 42 22.609375 
L 42 24.609375 
z
M 59.625 31.203125 
L 59.625 0 
L 42 0 
L 42 8.109375 
Q 38.484375 3.125 34.078125 0.84375 
Q 29.6875 -1.421875 23.390625 -1.421875 
Q 14.890625 -1.421875 9.59375 3.53125 
Q 4.296875 8.5 4.296875 16.40625 
Q 4.296875 26.03125 10.90625 30.515625 
Q 17.53125 35.015625 31.6875 35.015625 
L 42 35.015625 
L 42 36.375 
Q 42 40.53125 38.71875 42.453125 
Q 35.453125 44.390625 28.515625 44.390625 
Q 22.90625 44.390625 18.0625 43.265625 
Q 13.234375 42.140625 9.078125 39.890625 
L 9.078125 53.21875 
Q 14.703125 54.59375 20.359375 55.296875 
Q 26.03125 56 31.6875 56 
Q 46.484375 56 53.046875 50.171875 
Q 59.625 44.34375 59.625 31.203125 
z
" id="DejaVuSans-Bold-97"/>
      <path d="M 27.484375 70.21875 
L 27.484375 54.6875 
L 45.515625 54.6875 
L 45.515625 42.1875 
L 27.484375 42.1875 
L 27.484375 19 
Q 27.484375 15.1875 29 13.84375 
Q 30.515625 12.5 35.015625 12.5 
L 44 12.5 
L 44 0 
L 29 0 
Q 18.65625 0 14.328125 4.3125 
Q 10.015625 8.640625 10.015625 19 
L 10.015625 42.1875 
L 1.3125 42.1875 
L 1.3125 54.6875 
L 10.015625 54.6875 
L 10.015625 70.21875 
z
" id="DejaVuSans-Bold-116"/>
      <path d="M 8.40625 54.6875 
L 25.875 54.6875 
L 25.875 0 
L 8.40625 0 
z
M 8.40625 75.984375 
L 25.875 75.984375 
L 25.875 61.71875 
L 8.40625 61.71875 
z
" id="DejaVuSans-Bold-105"/>
      <path d="M 1.21875 54.6875 
L 18.703125 54.6875 
L 33.40625 17.578125 
L 45.90625 54.6875 
L 63.375 54.6875 
L 40.375 -5.171875 
Q 36.921875 -14.3125 32.296875 -17.9375 
Q 27.6875 -21.578125 20.125 -21.578125 
L 10.015625 -21.578125 
L 10.015625 -10.109375 
L 15.484375 -10.109375 
Q 19.921875 -10.109375 21.9375 -8.6875 
Q 23.96875 -7.28125 25.09375 -3.609375 
L 25.59375 -2.09375 
z
" id="DejaVuSans-Bold-121"/>
     </defs>
     <g transform="translate(14.050625 135.729897)rotate(-90)scale(0.12 -0.12)">
      <use xlink:href="#DejaVuSans-Bold-86"/>
      <use x="71.892578" xlink:href="#DejaVuSans-Bold-111"/>
      <use x="140.59375" xlink:href="#DejaVuSans-Bold-108"/>
      <use x="174.871094" xlink:href="#DejaVuSans-Bold-97"/>
      <use x="242.351562" xlink:href="#DejaVuSans-Bold-116"/>
      <use x="290.154297" xlink:href="#DejaVuSans-Bold-105"/>
      <use x="324.431641" xlink:href="#DejaVuSans-Bold-108"/>
      <use x="358.708984" xlink:href="#DejaVuSans-Bold-105"/>
      <use x="392.986328" xlink:href="#DejaVuSans-Bold-116"/>
      <use x="440.789062" xlink:href="#DejaVuSans-Bold-121"/>
     </g>
    </g>
   </g>
   <g id="line2d_10">
    <path clip-path="url(#p249018b359)" d="M 108.218182 135.698467 
L 108.521904 135.670003 
L 108.597834 135.348097 
L 108.825625 132.304474 
L 109.129347 131.674927 
L 109.281208 130.910407 
L 109.888651 130.845816 
L 110.192373 128.663935 
L 110.344234 125.123533 
L 110.420164 124.506639 
L 113.001799 124.495911 
L 113.912965 124.495911 
L 114.064825 126.276961 
L 114.368547 126.779257 
L 114.520408 127.593491 
L 115.051921 127.612903 
L 115.203782 127.947439 
L 115.507504 128.655814 
L 115.963086 128.670282 
L 116.114947 129.547032 
L 116.190878 129.589499 
L 116.266808 127.757402 
L 116.494599 127.675092 
L 116.722391 127.248835 
L 116.798321 126.608774 
L 120.822634 126.519317 
L 121.278217 124.841711 
L 121.430078 124.760016 
L 121.581939 124.54425 
L 121.961591 124.314216 
L 122.113452 123.941758 
L 122.569034 127.952915 
L 122.644965 127.954835 
L 122.872756 127.718893 
L 123.024617 122.16052 
L 123.100548 122.133246 
L 123.176478 122.39626 
L 123.55613 121.700005 
L 123.935782 118.544994 
L 124.011713 118.891514 
L 124.239504 120.209525 
L 124.467295 119.968778 
L 124.771017 112.104965 
L 125.150669 112.104965 
L 125.2266 111.690132 
L 125.30253 111.705519 
L 125.530322 110.774945 
L 125.606252 112.47269 
L 125.682182 111.703457 
L 125.834043 109.536951 
L 126.061835 109.535061 
L 126.365556 108.587476 
L 126.745209 108.419077 
L 126.897069 101.672815 
L 127.276722 101.505212 
L 127.352652 101.497063 
L 127.656374 100.817732 
L 127.808235 100.758907 
L 127.884165 100.437307 
L 127.960096 97.304503 
L 128.263817 93.784783 
L 128.415678 91.056806 
L 128.491609 91.008211 
L 128.7194 91.006685 
L 128.871261 88.28502 
L 129.023122 86.963742 
L 129.478704 80.49417 
L 129.554635 79.823023 
L 129.934287 79.535942 
L 130.010217 79.378558 
L 130.845452 71.279284 
L 130.921383 71.258486 
L 130.997313 70.92401 
L 131.452896 61.981232 
L 131.680687 61.722264 
L 131.984409 61.649666 
L 132.13627 61.35671 
L 132.515922 61.337841 
L 132.667783 62.003555 
L 133.047435 60.956021 
L 133.123365 61.038878 
L 133.199296 60.889957 
L 133.503017 60.621604 
L 133.730809 54.783902 
L 133.806739 54.461669 
L 134.034531 54.313907 
L 134.338252 50.594741 
L 134.566044 50.588127 
L 134.717904 48.963499 
L 134.869765 48.908773 
L 135.325348 48.372941 
L 135.705 47.70271 
L 136.388374 47.708752 
L 136.464304 47.579167 
L 136.692096 47.720994 
L 136.768026 47.587596 
L 136.919887 47.820098 
L 137.299539 47.906264 
L 137.527331 48.108195 
L 137.982913 48.19104 
L 138.058844 48.248119 
L 138.514426 48.342948 
L 138.590357 50.198358 
L 138.970009 50.277648 
L 139.349661 51.005451 
L 139.501522 51.958268 
L 139.653383 51.966592 
L 139.881174 52.193868 
L 140.184896 56.095639 
L 140.564548 56.095639 
L 140.716409 56.24118 
L 140.9442 56.258697 
L 141.171992 58.218971 
L 141.247922 59.410544 
L 141.475713 59.41172 
L 141.779435 60.139931 
L 142.083157 64.448759 
L 142.310948 64.477003 
L 142.61467 64.729159 
L 142.766531 65.158909 
L 142.842461 65.158909 
L 143.070253 65.501211 
L 143.373974 71.613996 
L 143.753626 72.015802 
L 143.905487 74.02879 
L 144.133279 74.481724 
L 144.209209 75.000906 
L 144.36107 78.570756 
L 144.437 79.25674 
L 144.968513 80.798405 
L 145.272235 80.922551 
L 145.348166 81.645719 
L 145.500027 84.318016 
L 145.727818 84.960443 
L 145.955609 89.971366 
L 146.03154 90.37219 
L 146.259331 95.58576 
L 146.411192 104.48948 
L 146.487122 104.50616 
L 146.563053 104.698843 
L 146.866774 104.762161 
L 147.018635 105.116256 
L 147.322357 105.250622 
L 147.474218 105.351559 
L 147.550148 105.701876 
L 147.626079 107.090466 
L 147.85387 107.105463 
L 148.005731 108.552117 
L 148.157592 120.608429 
L 148.385383 121.324879 
L 148.537244 121.223871 
L 148.689105 125.52877 
L 149.068757 131.600231 
L 149.220618 138.561014 
L 149.52434 138.619397 
L 149.676201 140.26451 
L 149.752131 137.380197 
L 149.979922 133.824714 
L 150.055853 136.38733 
L 150.131783 135.798262 
L 150.283644 133.589296 
L 150.511435 133.056925 
L 150.663296 131.958019 
L 150.739227 126.242114 
L 150.815157 126.723669 
L 151.118879 125.694174 
L 151.34667 122.359496 
L 151.574462 122.359496 
L 151.650392 122.177068 
L 151.726322 120.768187 
L 152.105975 120.550634 
L 152.257835 116.317106 
L 152.637488 115.474658 
L 152.789349 114.655692 
L 153.169001 114.661658 
L 153.244931 114.290095 
L 153.396792 110.392061 
L 153.472722 110.245673 
L 153.776444 109.200657 
L 153.928305 109.115465 
L 154.004236 107.569373 
L 154.307957 107.121487 
L 154.535749 96.45744 
L 154.991331 90.542177 
L 155.370983 90.387468 
L 155.522844 89.175507 
L 156.054357 86.616299 
L 156.130288 84.51944 
L 156.358079 84.168469 
L 156.50994 83.14894 
L 156.661801 79.893207 
L 156.889592 79.894675 
L 157.041453 79.230502 
L 157.117383 79.231553 
L 157.193314 78.165679 
L 157.648897 77.110357 
L 157.724827 75.225868 
L 158.18041 72.760667 
L 158.484131 72.580509 
L 158.635992 72.487592 
L 158.787853 72.37528 
L 159.243436 71.445433 
L 159.319366 71.583345 
L 159.699018 70.261155 
L 159.850879 59.437702 
L 160.306462 55.153281 
L 160.382392 55.153537 
L 160.762044 54.876471 
L 161.217627 54.840694 
L 161.369488 54.215164 
L 161.445418 54.046779 
L 161.74914 54.044066 
L 161.901001 53.47138 
L 161.976931 53.411982 
L 162.280653 52.654209 
L 162.356584 52.6606 
L 163.039958 51.982749 
L 163.343679 51.858011 
L 163.49554 52.156937 
L 163.571471 50.809072 
L 163.799262 50.812021 
L 163.951123 50.232456 
L 164.102984 49.464145 
L 164.558566 49.307627 
L 164.634497 49.833928 
L 164.938218 49.532881 
L 165.014149 49.640875 
L 165.16601 50.349734 
L 165.469732 48.626711 
L 165.545662 48.79472 
L 165.621592 48.781927 
L 165.697523 50.241131 
L 165.925314 50.233676 
L 166.077175 50.949482 
L 166.456827 51.818446 
L 166.684619 50.982884 
L 166.760549 51.128553 
L 166.98834 49.003824 
L 167.064271 49.061044 
L 167.140201 50.121705 
L 167.216132 49.485984 
L 167.292062 49.537776 
L 167.519853 48.728993 
L 167.671714 49.302812 
L 167.747645 49.216121 
L 168.051366 49.180793 
L 168.127297 49.377364 
L 168.279158 51.251617 
L 168.582879 51.207011 
L 168.886601 52.572797 
L 169.190323 52.618053 
L 169.266253 58.370855 
L 169.342184 57.322383 
L 169.418114 57.154226 
L 169.645906 57.44106 
L 169.721836 57.829099 
L 169.797766 57.76217 
L 169.949627 57.846332 
L 170.253349 58.753687 
L 170.48114 62.357969 
L 170.860793 63.018646 
L 170.936723 65.865673 
L 171.012653 65.758006 
L 171.240445 65.443881 
L 171.392306 65.725567 
L 171.544167 65.735936 
L 171.999749 67.798392 
L 172.07568 67.735417 
L 172.303471 69.195605 
L 172.455332 71.377845 
L 172.986845 70.862254 
L 173.442427 71.070093 
L 173.670219 72.111158 
L 173.89801 72.096126 
L 173.973941 72.450409 
L 174.049871 72.427871 
L 174.201732 74.15804 
L 174.429523 74.14144 
L 174.505454 85.603631 
L 174.581384 84.15262 
L 174.657314 89.531573 
L 174.961036 89.487233 
L 175.036967 89.284277 
L 175.188828 88.520008 
L 175.264758 85.793289 
L 175.56848 85.714503 
L 175.720341 85.560829 
L 175.796271 85.554888 
L 176.024062 86.296505 
L 176.175923 86.318175 
L 176.555575 87.480066 
L 176.707436 87.302633 
L 176.783367 88.191037 
L 176.859297 87.98375 
L 177.087088 87.846618 
L 177.238949 86.080609 
L 177.31488 86.133627 
L 177.39081 86.11346 
L 177.618602 85.79003 
L 177.694532 85.848358 
L 177.922323 86.054458 
L 178.150115 86.075611 
L 178.226045 87.949313 
L 178.301975 87.934233 
L 178.377906 88.26731 
L 178.681628 88.554177 
L 178.985349 89.565206 
L 179.289071 88.590703 
L 179.820584 88.382894 
L 179.896515 88.028189 
L 179.972445 89.505297 
L 180.048376 89.144846 
L 180.276167 89.164536 
L 180.428028 88.037943 
L 180.579889 89.217389 
L 180.959541 88.198752 
L 181.111402 86.649558 
L 181.642915 86.653667 
L 181.946636 86.280505 
L 182.174428 87.407796 
L 182.478149 87.251535 
L 182.705941 87.931634 
L 182.933732 91.285136 
L 183.009663 91.199841 
L 183.085593 91.509594 
L 183.161523 92.793069 
L 183.541176 92.34883 
L 183.617106 93.564534 
L 183.768967 93.477672 
L 184.148619 93.462604 
L 184.30048 93.691607 
L 184.604202 93.677028 
L 184.831993 89.005832 
L 185.287576 88.859716 
L 185.363506 88.171601 
L 185.667228 87.61292 
L 185.743158 87.976942 
L 185.895019 86.552742 
L 186.12281 85.590349 
L 186.274671 90.197862 
L 186.426532 91.405881 
L 186.806184 91.53908 
L 187.261767 88.476663 
L 187.337697 87.483926 
L 187.489558 87.262719 
L 188.476654 84.162661 
L 188.780376 84.514093 
L 188.932237 85.100532 
L 189.843402 85.131946 
L 190.147124 84.274969 
L 190.374915 83.876293 
L 190.678637 82.771975 
L 191.058289 82.518817 
L 191.21015 81.87336 
L 191.589802 81.75216 
L 191.665732 81.360744 
L 192.045385 80.106121 
L 192.121315 80.483125 
L 192.197245 82.092546 
L 192.273176 81.921953 
L 192.576898 80.44109 
L 192.728759 84.731407 
L 192.804689 84.635846 
L 193.03248 84.656682 
L 193.108411 82.415568 
L 193.184341 82.462011 
L 193.715854 82.44933 
L 194.323298 82.523102 
L 194.627019 82.205332 
L 194.70295 81.745451 
L 194.77888 81.869646 
L 194.854811 81.955127 
L 194.930741 84.568081 
L 195.158533 84.499328 
L 195.234463 84.355402 
L 195.386324 84.639185 
L 195.765976 84.598754 
L 195.917837 84.554779 
L 195.993767 84.528902 
L 196.297489 83.672548 
L 196.37342 83.872535 
L 196.44935 82.701602 
L 196.52528 82.743893 
L 196.753072 82.706281 
L 196.904933 84.009007 
L 197.056793 84.312988 
L 197.284585 84.325782 
L 197.360515 84.475146 
L 197.816098 84.153265 
L 198.11982 87.075024 
L 198.347611 87.880028 
L 198.423541 87.63926 
L 198.499472 89.480118 
L 198.575402 89.246972 
L 198.651333 89.073046 
L 198.955054 89.043861 
L 199.106915 88.205352 
L 199.182846 88.785607 
L 199.410637 88.784093 
L 199.486567 88.910541 
L 199.94215 88.943088 
L 200.094011 89.673017 
L 200.625524 89.672227 
L 200.777385 89.348199 
L 201.081107 91.227628 
L 201.232968 91.1938 
L 201.308898 93.833888 
L 201.536689 93.670029 
L 201.68855 94.208901 
L 201.764481 95.256794 
L 201.840411 95.251059 
L 202.144133 97.05233 
L 202.220063 96.387931 
L 202.295994 96.708922 
L 202.675646 96.0761 
L 202.827507 95.286322 
L 202.903437 95.440164 
L 203.131228 95.491131 
L 203.207159 97.726197 
L 203.738672 100.368221 
L 203.966463 100.44369 
L 204.194255 101.566338 
L 204.270185 101.495093 
L 204.346115 101.469424 
L 204.422046 101.948311 
L 204.497976 101.281782 
L 204.801698 101.2214 
L 204.953559 100.113716 
L 205.409142 100.169405 
L 205.788794 99.281594 
L 206.016585 100.045623 
L 206.320307 99.996857 
L 206.472168 101.203086 
L 206.548098 101.307777 
L 206.85182 101.21789 
L 207.003681 101.557207 
L 207.155542 101.991512 
L 207.383333 102.172309 
L 207.611124 101.507891 
L 207.687055 101.537875 
L 208.066707 102.359403 
L 208.218568 103.16909 
L 208.446359 102.828373 
L 208.522289 103.335303 
L 208.67415 105.395415 
L 208.750081 105.347349 
L 208.977872 105.350098 
L 209.129733 105.914904 
L 209.205663 109.376716 
L 209.737176 109.496038 
L 210.040898 109.364992 
L 210.116829 108.894647 
L 210.34462 108.883826 
L 210.648342 108.88732 
L 210.800203 110.082504 
L 210.876133 110.022625 
L 211.255785 110.040108 
L 211.407646 109.577894 
L 211.711368 109.465118 
L 211.939159 110.100896 
L 212.698464 110.161969 
L 212.926255 113.219309 
L 213.381837 113.764218 
L 213.533698 113.483341 
L 213.913351 113.758611 
L 214.065211 113.64333 
L 214.293003 114.091678 
L 214.444864 113.870122 
L 214.824516 113.77164 
L 215.128238 115.195602 
L 215.356029 115.185822 
L 215.50789 114.110271 
L 215.659751 115.588231 
L 215.887542 115.583142 
L 216.039403 115.468326 
L 217.558012 115.592353 
L 217.709872 115.901669 
L 217.785803 115.802495 
L 218.089525 116.426084 
L 218.165455 116.387566 
L 218.317316 116.632871 
L 218.545107 116.569124 
L 218.696968 116.389043 
L 219.07662 116.485335 
L 219.152551 117.589647 
L 219.228481 116.966212 
L 219.380342 118.197736 
L 219.684064 119.20925 
L 219.835925 119.945299 
L 220.139646 120.04544 
L 220.367438 120.381299 
L 220.74709 120.508562 
L 220.974881 121.227906 
L 221.354533 121.809828 
L 221.506394 123.114201 
L 221.734186 123.119285 
L 221.886046 122.994108 
L 221.961977 124.357782 
L 222.037907 124.2671 
L 222.41756 124.285804 
L 222.49349 124.585742 
L 222.56942 126.034847 
L 222.797212 126.049445 
L 222.873142 126.201584 
L 223.100933 127.190428 
L 223.480586 129.569257 
L 223.556516 129.553611 
L 223.632447 129.723188 
L 223.936168 129.723714 
L 224.088029 129.853763 
L 224.16396 129.870913 
L 224.467681 131.351781 
L 224.543612 131.360546 
L 224.695473 132.699197 
L 224.999194 132.058994 
L 225.226986 132.207258 
L 225.682568 132.476786 
L 226.062221 132.454266 
L 226.290012 132.687666 
L 226.593734 133.630363 
L 226.745594 133.478428 
L 227.049316 133.595674 
L 227.277108 134.215803 
L 227.353038 135.017875 
L 227.73269 135.517027 
L 227.884551 135.681194 
L 228.340134 135.76066 
L 228.416064 135.861911 
L 228.795716 135.877953 
L 228.947577 136.047427 
L 229.175368 136.336061 
L 229.40316 136.298349 
L 229.706881 136.300716 
L 229.782812 136.733052 
L 229.934673 136.785869 
L 230.010603 137.015138 
L 230.238395 137.248677 
L 230.466186 138.014987 
L 230.997699 138.086491 
L 231.073629 138.30635 
L 231.453282 138.499352 
L 231.605142 139.07203 
L 231.908864 143.266588 
L 232.136655 143.505601 
L 232.440377 143.000617 
L 232.668169 142.692342 
L 233.199682 141.394306 
L 233.579334 141.387398 
L 233.655264 140.526353 
L 233.731195 140.670802 
L 233.958986 140.655472 
L 234.110847 140.532775 
L 234.262708 138.739944 
L 234.566429 138.806953 
L 234.794221 139.148414 
L 235.173873 139.419697 
L 235.249803 139.326832 
L 235.325734 140.590225 
L 236.160969 140.626131 
L 236.31283 140.799426 
L 236.920273 140.888455 
L 237.299925 140.950109 
L 237.451786 141.18088 
L 237.755508 141.479599 
L 237.907369 142.01481 
L 238.818534 141.905903 
L 238.970395 141.704411 
L 239.046325 140.381956 
L 239.425977 140.286613 
L 239.577838 138.941981 
L 239.957491 138.941129 
L 240.109351 138.798954 
L 240.337143 138.789851 
L 240.413073 138.654947 
L 240.640864 139.587433 
L 241.172378 137.39276 
L 241.62796 136.836939 
L 241.931682 136.749696 
L 242.083543 136.089743 
L 242.159473 136.146214 
L 242.235404 136.194647 
L 242.994708 136.121704 
L 243.146569 133.569967 
L 243.29843 133.389727 
L 244.133665 133.316343 
L 244.285525 132.961513 
L 245.652273 132.898734 
L 245.804134 132.196704 
L 245.880065 132.147811 
L 245.955995 131.953928 
L 246.411578 131.828404 
L 246.487508 131.339911 
L 246.86716 130.927716 
L 247.019021 130.033028 
L 247.322743 129.976227 
L 247.398673 130.233069 
L 247.474604 130.006911 
L 247.550534 130.219328 
L 248.309839 130.983461 
L 248.993213 131.042779 
L 249.145073 131.708089 
L 249.448795 131.478031 
L 249.524726 131.723623 
L 249.600656 133.103923 
L 249.676587 132.966941 
L 250.056239 126.505863 
L 250.2081 121.076253 
L 250.511821 120.936227 
L 250.739613 120.397937 
L 250.967404 120.217699 
L 251.119265 118.744594 
L 251.650778 112.777487 
L 251.726708 112.777997 
L 251.802639 112.384859 
L 252.106361 112.190713 
L 252.334152 104.707422 
L 252.637874 104.674458 
L 252.865665 103.224574 
L 254.384274 103.196549 
L 254.460204 103.573727 
L 254.687995 103.372082 
L 254.915787 90.649385 
L 255.219508 90.593205 
L 255.4473 90.939531 
L 255.52323 90.938541 
L 256.054743 90.372188 
L 256.358465 90.486555 
L 256.510326 89.968299 
L 256.586256 90.284079 
L 256.814048 90.573413 
L 256.965908 89.334685 
L 257.117769 89.546598 
L 257.573352 89.474349 
L 257.649282 89.359942 
L 257.953004 88.301088 
L 258.180795 88.273283 
L 258.484517 88.08747 
L 258.636378 87.19288 
L 258.712309 87.297943 
L 259.091961 87.3298 
L 259.243822 86.85331 
L 260.154987 86.747237 
L 260.306848 86.203499 
L 260.838361 86.281419 
L 261.369874 86.458967 
L 261.749526 86.471367 
L 261.901387 86.823766 
L 262.205109 86.861365 
L 262.4329 87.215891 
L 262.736622 86.321502 
L 262.812552 86.312349 
L 262.888483 86.434769 
L 262.964413 86.361745 
L 263.495926 86.190113 
L 264.558952 86.231985 
L 264.862674 89.028118 
L 264.938604 88.975848 
L 265.090465 91.611621 
L 266.077561 91.819029 
L 266.533144 92.780306 
L 266.685004 96.523817 
L 266.912796 96.42347 
L 266.988726 96.77622 
L 267.216518 96.936099 
L 267.444309 103.860917 
L 267.520239 103.857223 
L 267.59617 103.767125 
L 267.748031 105.222388 
L 268.203613 105.211685 
L 268.279544 104.990831 
L 268.507335 104.917857 
L 268.735126 104.050042 
L 269.114778 104.03425 
L 269.646292 104.30093 
L 269.798152 104.696564 
L 270.253735 120.801006 
L 270.329665 120.80227 
L 270.405596 121.051805 
L 270.633387 121.034298 
L 270.785248 120.690103 
L 270.937109 121.096605 
L 271.1649 120.8923 
L 271.240831 121.026579 
L 271.468622 120.121045 
L 271.696413 120.175087 
L 271.848274 121.364251 
L 272.000135 121.412567 
L 272.227926 123.619642 
L 272.379787 122.909175 
L 272.83537 122.833613 
L 272.987231 122.285808 
L 273.290953 121.284769 
L 273.366883 121.835694 
L 273.518744 123.503476 
L 273.594674 123.342787 
L 273.822466 123.326533 
L 273.898396 123.482421 
L 273.974326 123.898762 
L 274.050257 123.853853 
L 274.126187 127.079982 
L 274.429909 126.862459 
L 274.58177 126.574078 
L 274.6577 126.634619 
L 274.961422 127.563715 
L 275.037353 127.515798 
L 275.189213 125.362687 
L 275.568866 125.4192 
L 275.644796 125.583478 
L 275.948518 125.388817 
L 276.100379 126.482479 
L 276.176309 126.335298 
L 276.707822 126.304149 
L 276.783753 126.584283 
L 277.543057 126.732548 
L 277.770848 125.8815 
L 277.846779 125.300732 
L 278.226431 125.333705 
L 278.302361 125.085117 
L 278.378292 126.496703 
L 278.606083 126.571637 
L 278.909805 127.127254 
L 279.365387 125.717454 
L 279.441318 125.79359 
L 279.82097 125.836475 
L 279.972831 125.564139 
L 280.276553 125.570068 
L 280.428414 125.710442 
L 280.504344 125.375541 
L 280.732135 125.536733 
L 280.959927 126.229482 
L 281.263648 126.345282 
L 281.415509 125.578467 
L 281.49144 125.374916 
L 281.56737 121.439489 
L 281.871092 120.775645 
L 282.098883 116.621709 
L 282.326675 116.656609 
L 282.630396 112.603016 
L 282.934118 112.578653 
L 283.085979 112.436067 
L 283.389701 112.443032 
L 283.541562 112.551474 
L 284.452727 112.622891 
L 284.528657 113.173545 
L 284.604588 113.144657 
L 284.98424 113.093357 
L 285.287962 112.837762 
L 285.743544 112.734788 
L 285.819475 112.641596 
L 286.047266 111.169385 
L 286.199127 111.028348 
L 286.275057 111.317973 
L 286.350988 111.093097 
L 286.73064 111.427304 
L 286.882501 112.178235 
L 287.186223 112.124119 
L 287.338083 111.932005 
L 287.717736 109.917591 
L 287.793666 110.142076 
L 287.869596 110.041925 
L 287.945527 109.740904 
L 288.173318 109.738181 
L 288.40111 110.421827 
L 288.780762 110.488287 
L 288.932623 109.1415 
L 289.008553 106.288759 
L 289.236344 105.042721 
L 289.388205 102.018191 
L 289.843788 101.692566 
L 290.071579 100.246479 
L 290.29937 98.474695 
L 290.375301 98.625112 
L 290.527162 94.892157 
L 290.982744 94.665447 
L 291.134605 94.502085 
L 291.362397 94.574079 
L 291.514257 93.965358 
L 291.590188 93.999232 
L 291.96984 93.343646 
L 292.045771 93.337486 
L 292.425423 87.7531 
L 292.577284 87.72342 
L 292.653214 87.087996 
L 292.729144 87.174228 
L 293.184727 87.74389 
L 293.260658 85.215739 
L 293.488449 85.195477 
L 293.792171 84.786601 
L 294.323684 84.697761 
L 294.703336 85.376398 
L 295.082988 85.407844 
L 295.310779 85.50183 
L 296.373805 85.705383 
L 296.449736 86.079349 
L 296.753458 86.105304 
L 296.829388 86.349167 
L 296.981249 88.700585 
L 297.20904 88.801691 
L 297.512762 93.570209 
L 297.740553 93.596047 
L 297.892414 94.599142 
L 298.347997 94.790555 
L 299.335093 94.887828 
L 299.486953 94.978239 
L 299.638814 95.468381 
L 300.094397 95.551731 
L 300.170327 95.800413 
L 300.62591 95.73348 
L 300.70184 94.536144 
L 301.005562 94.368188 
L 301.233353 86.749393 
L 301.461145 86.96458 
L 301.688936 86.148676 
L 302.144519 86.374253 
L 302.29638 85.806934 
L 302.600101 86.982606 
L 302.676032 86.856244 
L 302.751962 86.902003 
L 302.827893 87.196013 
L 303.131614 86.645082 
L 303.283475 86.847208 
L 303.663127 86.852715 
L 303.814988 87.692561 
L 303.890919 89.626302 
L 304.19464 89.8875 
L 304.270571 92.250675 
L 304.346501 92.008883 
L 304.422432 92.097067 
L 304.650223 91.579886 
L 304.726154 91.80756 
L 304.802084 91.677731 
L 305.181736 91.699277 
L 305.409527 92.660517 
L 305.485458 91.027832 
L 305.713249 94.481403 
L 305.78918 94.185598 
L 305.941041 92.565594 
L 306.016971 89.937482 
L 306.320693 89.943161 
L 306.548484 88.531465 
L 306.852206 89.018626 
L 307.004067 88.569452 
L 307.307788 88.699407 
L 307.459649 89.041483 
L 307.53558 90.327651 
L 307.61151 94.972409 
L 307.839301 94.778552 
L 307.915232 95.359234 
L 308.143023 82.599035 
L 308.370815 82.646308 
L 308.446745 82.302433 
L 308.522675 84.56311 
L 308.598606 84.247474 
L 308.674536 84.566922 
L 308.978258 84.603472 
L 309.130119 84.942976 
L 309.433841 84.577337 
L 309.585702 83.066223 
L 309.661632 82.980606 
L 309.737562 82.565821 
L 310.269075 82.238369 
L 310.496867 81.53258 
L 310.648728 80.616143 
L 310.724658 80.5325 
L 311.02838 77.698739 
L 311.10431 77.685478 
L 311.332102 77.356939 
L 311.635823 77.23668 
L 311.711754 77.086862 
L 311.863615 74.109995 
L 312.091406 74.015563 
L 312.698849 72.144307 
L 312.85071 72.115101 
L 312.926641 70.2703 
L 313.306293 68.435178 
L 313.458154 68.406913 
L 316.495371 68.433128 
L 316.571302 68.531382 
L 316.647232 69.540298 
L 316.950954 69.732116 
L 317.178745 73.49162 
L 317.482467 76.875985 
L 317.93805 77.339531 
L 318.01398 77.580484 
L 318.697354 77.65623 
L 318.773284 77.295975 
L 319.001076 77.007337 
L 319.077006 77.365952 
L 319.152937 77.304989 
L 319.228867 76.472969 
L 319.304798 76.606173 
L 319.68445 76.559118 
L 319.836311 77.111909 
L 320.064102 77.113307 
L 320.215963 77.507274 
L 320.899337 77.597087 
L 321.127128 77.692205 
L 321.203058 78.382418 
L 321.43085 76.397352 
L 321.810502 75.898864 
L 321.962363 76.401675 
L 322.342015 77.324176 
L 322.493876 79.840213 
L 322.721667 80.052657 
L 322.873528 81.535425 
L 323.025389 84.066586 
L 323.25318 84.243078 
L 323.329111 84.586623 
L 323.480972 85.620379 
L 323.556902 86.074897 
L 324.088415 86.185423 
L 324.468067 86.251292 
L 324.619928 86.522869 
L 324.92365 99.996333 
L 324.99958 100.005505 
L 325.151441 100.472924 
L 325.379232 100.681418 
L 325.531093 101.108245 
L 325.986676 101.174772 
L 326.138537 101.606531 
L 326.214467 103.552919 
L 326.442259 103.829816 
L 326.594119 103.00903 
L 326.67005 103.668956 
L 326.74598 103.649523 
L 327.125633 101.829685 
L 327.277493 101.964226 
L 327.505285 100.292703 
L 327.581215 100.32856 
L 327.657146 100.906368 
L 327.809006 98.392578 
L 328.036798 99.58404 
L 328.112728 101.832046 
L 328.188659 101.524302 
L 328.644241 97.729217 
L 328.720172 97.886844 
L 328.796102 97.461935 
L 328.872033 101.682295 
L 329.175754 101.70837 
L 329.327615 103.193005 
L 329.403546 100.586407 
L 329.707267 101.410402 
L 329.859128 106.774876 
L 329.935059 106.765059 
L 330.314711 105.608983 
L 330.466572 103.734549 
L 330.998085 103.678617 
L 331.377737 103.459382 
L 331.529598 102.460442 
L 331.985181 99.301416 
L 332.288902 91.779789 
L 332.364833 91.787741 
L 332.820415 91.689573 
L 332.972276 91.251746 
L 333.124137 91.112131 
L 333.427859 88.078849 
L 333.65565 87.861978 
L 334.035302 87.869475 
L 334.187163 87.681477 
L 334.414955 87.697982 
L 334.566815 88.094122 
L 334.946468 88.40713 
L 335.022398 88.240177 
L 335.174259 89.652451 
L 335.250189 89.847309 
L 335.705772 68.899063 
L 336.313215 68.88829 
L 336.768798 68.940716 
L 336.844729 69.436542 
L 337.07252 69.242044 
L 337.224381 70.467513 
L 337.300311 70.282866 
L 337.376242 69.692838 
L 337.755894 69.623495 
L 338.363337 69.652271 
L 338.439268 69.451866 
L 338.970781 69.458864 
L 339.198572 69.48312 
L 339.350433 69.101068 
L 339.806016 69.029758 
L 339.881946 68.75037 
L 340.033807 68.666549 
L 341.096833 68.713024 
L 341.400555 68.321266 
L 341.932068 68.409578 
L 342.159859 69.215629 
L 342.463581 69.927191 
L 342.539511 69.770059 
L 342.691372 71.284822 
L 342.995094 71.631514 
L 343.146955 72.899319 
L 343.450677 73.221643 
L 343.526607 73.074863 
L 343.602537 73.764675 
L 343.678468 73.724163 
L 343.754398 72.467764 
L 344.05812 72.790968 
L 344.134051 72.77277 
L 344.285911 71.860713 
L 344.589633 71.192475 
L 344.741494 73.061933 
L 345.121146 73.269969 
L 345.197077 73.249713 
L 345.348938 74.041193 
L 345.72859 75.164694 
L 345.880451 74.456473 
L 346.108242 74.456728 
L 346.336033 74.233563 
L 346.411964 74.324237 
L 346.639755 75.082659 
L 346.715685 75.005087 
L 346.867546 76.971798 
L 346.943477 77.048896 
L 347.171268 82.888279 
L 347.247198 82.808063 
L 347.47499 82.860466 
L 347.702781 82.86035 
L 347.778711 83.313553 
L 347.854642 83.294656 
L 348.310225 83.38244 
L 348.462085 86.111258 
L 348.993598 86.35261 
L 349.069529 86.237713 
L 349.29732 86.447579 
L 349.449181 86.055559 
L 349.525112 86.112063 
L 349.980694 86.070985 
L 350.056625 85.883787 
L 350.132555 85.119717 
L 350.360346 85.119552 
L 350.512207 112.980703 
L 350.664068 108.765464 
L 350.96779 107.713569 
L 351.04372 107.82289 
L 351.195581 105.476847 
L 351.423372 105.210019 
L 351.727094 104.226897 
L 352.182677 104.027602 
L 352.258607 104.480797 
L 352.486399 105.054031 
L 352.638259 105.968328 
L 352.79012 106.152147 
L 353.093842 105.647548 
L 353.245703 105.628582 
L 353.321633 105.468575 
L 353.549425 105.524857 
L 353.701286 106.051159 
L 354.308729 106.077259 
L 354.38466 106.993433 
L 354.688381 106.905644 
L 355.295825 108.853562 
L 355.371755 108.853281 
L 355.827338 108.573484 
L 355.979199 108.578447 
L 356.28292 109.041865 
L 356.434781 109.040507 
L 356.510712 109.353417 
L 356.738503 109.353417 
L 356.890364 109.639177 
L 357.270016 109.903298 
L 357.421877 109.748982 
L 357.497807 110.311766 
L 357.573738 110.18721 
L 357.801529 110.150048 
L 358.105251 100.833256 
L 358.333042 90.899954 
L 358.408973 91.037376 
L 358.636764 94.510112 
L 359.016416 94.564098 
L 359.396068 97.343357 
L 359.547929 97.421034 
L 359.62386 94.472377 
L 359.69979 94.558917 
L 360.003512 94.341003 
L 360.231303 92.040599 
L 360.610955 91.934435 
L 360.686886 89.084788 
L 360.990608 89.238203 
L 361.066538 86.593415 
L 361.142468 86.951837 
L 362.053634 87.107983 
L 362.205495 82.179017 
L 362.357355 82.131764 
L 362.661077 82.131195 
L 362.812938 81.97842 
L 363.724103 82.032343 
L 363.800034 81.839188 
L 363.875964 81.325139 
L 364.255616 80.711542 
L 364.483408 80.854016 
L 364.787129 80.244232 
L 364.93899 80.334336 
L 365.014921 80.886993 
L 365.394573 80.880204 
L 365.470503 82.499278 
L 365.926086 83.802318 
L 366.002016 82.930661 
L 366.077947 84.523541 
L 366.305738 84.528418 
L 366.457599 84.133892 
L 366.53353 84.507443 
L 366.60946 83.657893 
L 366.913182 83.64008 
L 367.140973 79.835535 
L 367.672486 79.555268 
L 367.976208 79.980922 
L 368.128069 80.017612 
L 368.203999 80.169307 
L 368.659582 80.067215 
L 369.039234 79.468167 
L 369.267025 79.426207 
L 369.494817 79.069886 
L 369.646677 77.179543 
L 369.722608 77.177693 
L 369.798538 77.023133 
L 370.10226 76.967374 
L 370.254121 76.829336 
L 370.557843 76.473454 
L 370.709704 75.853134 
L 371.620869 75.765643 
L 371.77273 75.428023 
L 371.84866 75.302027 
L 371.924591 75.399576 
L 372.304243 75.496056 
L 372.380173 75.520126 
L 372.456104 76.970548 
L 372.683895 77.256963 
L 372.987617 90.258135 
L 373.291338 90.211526 
L 373.367269 89.632612 
L 373.822851 89.520969 
L 373.974712 89.160764 
L 374.050643 89.234597 
L 374.278434 89.245706 
L 374.354365 89.383414 
L 374.506225 92.127638 
L 374.809947 92.399308 
L 375.037738 94.895167 
L 375.34146 94.995429 
L 375.569252 101.297772 
L 376.632278 101.316414 
L 376.708208 107.214868 
L 377.01193 108.443262 
L 377.163791 108.501833 
L 377.771234 108.298728 
L 378.074956 108.233363 
L 378.226817 107.77474 
L 378.302747 104.99123 
L 378.530539 104.989039 
L 378.606469 104.697067 
L 378.75833 105.70249 
L 378.83426 106.482237 
L 379.213913 106.941615 
L 379.289843 106.938959 
L 379.365773 107.633946 
L 379.897286 107.890631 
L 380.201008 107.195312 
L 380.276939 107.253021 
L 380.4288 107.271105 
L 380.656591 107.869833 
L 380.732521 107.109911 
L 380.808452 108.418702 
L 380.884382 106.146532 
L 380.960313 106.191885 
L 381.264034 105.952606 
L 381.339965 106.154293 
L 381.415895 105.580032 
L 381.491826 106.715589 
L 381.719617 106.481861 
L 381.947408 108.157915 
L 382.023339 108.213705 
L 382.554852 107.41815 
L 383.086365 107.423087 
L 383.390087 107.520776 
L 383.541947 108.336045 
L 383.617878 108.295649 
L 383.845669 108.327099 
L 383.9216 107.843147 
L 383.99753 108.253134 
L 384.149391 111.209565 
L 384.377182 110.313283 
L 384.453113 110.484581 
L 384.604974 107.072004 
L 384.984626 107.174957 
L 385.212417 108.946433 
L 385.440208 108.943007 
L 385.592069 109.072623 
L 385.971721 108.992174 
L 386.275443 107.590362 
L 386.806956 106.506817 
L 387.186608 104.519017 
L 387.338469 104.094741 
L 387.794052 104.446334 
L 387.869982 104.294261 
L 388.173704 104.914661 
L 388.325565 104.706412 
L 388.629287 105.234932 
L 389.1608 105.035106 
L 389.312661 102.582104 
L 389.388591 102.42452 
L 389.464522 101.799551 
L 389.692313 101.387248 
L 389.768243 100.859246 
L 389.844174 100.898584 
L 389.996035 100.729767 
L 390.9072 100.760251 
L 391.059061 100.036705 
L 391.286852 99.540428 
L 391.438713 96.26727 
L 391.590574 96.124178 
L 392.349878 96.583514 
L 392.501739 95.743399 
L 392.6536 87.306908 
L 392.957322 86.139379 
L 393.185113 81.873564 
L 394.096278 81.966711 
L 394.47593 81.981479 
L 394.627791 82.949415 
L 395.083374 82.998808 
L 395.235235 83.498824 
L 395.311165 85.402339 
L 395.538957 85.46906 
L 395.614887 85.980715 
L 395.690817 85.947667 
L 395.842678 85.687317 
L 396.298261 87.473912 
L 396.374191 89.109598 
L 396.601983 89.140272 
L 396.677913 88.883287 
L 396.905704 86.482738 
L 397.437217 81.458674 
L 398.500244 81.439722 
L 398.879896 81.102361 
L 399.031757 81.452635 
L 399.259548 83.539452 
L 399.487339 80.381913 
L 399.56327 80.391357 
L 399.791061 80.348382 
L 399.866991 80.078854 
L 400.018852 79.037376 
L 400.094783 78.945727 
L 400.398505 78.827306 
L 400.550365 78.23942 
L 400.626296 78.538798 
L 400.854087 78.165565 
L 400.930018 78.525457 
L 401.461531 78.881005 
L 401.689322 78.772779 
L 401.917113 78.858077 
L 402.068974 79.982027 
L 402.144905 80.089644 
L 402.220835 80.420334 
L 402.524557 80.629316 
L 402.600487 80.490415 
L 402.752348 80.855539 
L 402.980139 80.433032 
L 403.132 74.764023 
L 403.283861 74.607437 
L 404.119096 74.671006 
L 404.270957 76.297949 
L 404.650609 77.095443 
L 404.726539 77.498753 
L 404.80247 77.463938 
L 404.8784 77.516743 
L 405.182122 77.430921 
L 405.409913 75.887022 
L 405.713635 75.885377 
L 405.865496 75.65929 
L 405.941426 75.67863 
L 406.169218 75.908295 
L 406.321079 76.283922 
L 406.397009 78.715996 
L 406.47294 77.518384 
L 407.004453 77.787882 
L 407.384105 77.74039 
L 407.460035 78.353521 
L 407.535966 87.762562 
L 407.839687 89.065501 
L 407.991548 94.029394 
L 408.067479 94.026265 
L 408.978644 93.998986 
L 409.130505 93.849454 
L 409.358296 93.838149 
L 409.586087 93.144294 
L 410.573183 93.241933 
L 410.725044 93.545787 
L 411.180627 93.419933 
L 411.484348 93.549867 
L 411.560279 93.708062 
L 411.636209 95.383529 
L 411.71214 94.882947 
L 411.78807 95.120828 
L 412.015861 98.681423 
L 412.091792 98.544857 
L 412.243653 98.851742 
L 412.319583 98.861937 
L 412.623305 98.370183 
L 412.775166 96.143961 
L 412.851096 96.011399 
L 413.154818 95.901378 
L 413.306679 96.16375 
L 413.686331 95.173942 
L 413.914122 95.696203 
L 414.217844 97.88913 
L 414.749357 99.586177 
L 414.825288 99.611484 
L 414.901218 99.900001 
L 414.977149 101.424837 
L 415.356801 101.508227 
L 415.432731 101.583304 
L 415.508662 100.849423 
L 415.736453 101.520414 
L 415.812383 102.359018 
L 415.964244 101.68451 
L 416.040175 102.438814 
L 416.799479 100.056571 
L 417.103201 97.949166 
L 417.330992 97.580561 
L 417.406923 97.633515 
L 417.482853 97.858772 
L 417.558783 97.473229 
L 417.634714 92.085909 
L 418.090296 91.814895 
L 418.166227 97.255166 
L 418.469949 97.961819 
L 418.621809 97.893898 
L 418.69774 97.583286 
L 419.001462 97.426424 
L 419.153323 96.653826 
L 419.532975 95.069292 
L 419.684836 94.976143 
L 419.760766 94.044829 
L 419.988557 93.965201 
L 420.140418 94.036496 
L 420.216349 95.748998 
L 420.292279 95.451661 
L 420.671931 95.512772 
L 421.051583 95.551381 
L 421.127514 95.53769 
L 421.279375 95.820117 
L 421.355305 97.301327 
L 422.26647 97.42184 
L 422.418331 96.789268 
L 422.797984 96.764503 
L 423.253566 96.169395 
L 424.468453 96.16854 
L 424.544384 96.880691 
L 424.924036 96.850664 
L 425.303688 96.529024 
L 425.379618 95.997124 
L 425.455549 96.029182 
L 425.60741 96.003267 
L 425.987062 95.71113 
L 426.138923 96.109564 
L 426.518575 96.223234 
L 426.670436 98.087815 
L 427.050088 98.476186 
L 427.126018 100.366428 
L 427.201949 100.08215 
L 427.505671 100.308477 
L 427.581601 98.366356 
L 427.733462 98.114253 
L 428.037184 100.380441 
L 428.113114 100.422146 
L 428.264975 100.646613 
L 428.568697 100.662993 
L 429.024279 102.173754 
L 429.328001 102.394162 
L 429.555792 102.410939 
L 429.707653 102.705904 
L 430.087306 102.636368 
L 430.239166 101.710327 
L 430.315097 101.347702 
L 430.391027 101.98632 
L 430.618819 101.357208 
L 430.694749 100.627805 
L 430.92254 101.426131 
L 431.378123 102.672811 
L 431.454053 102.686437 
L 431.681845 102.077851 
L 431.909636 97.363955 
L 431.985566 98.160557 
L 432.213358 98.153657 
L 432.365219 99.555232 
L 432.51708 99.940177 
L 432.744871 99.960013 
L 432.820801 100.302862 
L 432.972662 106.657182 
L 433.428245 108.0151 
L 433.504175 108.804894 
L 433.807897 108.765303 
L 434.111619 109.193732 
L 434.41534 108.379657 
L 434.643132 111.174538 
L 435.022784 111.492376 
L 435.174645 112.952174 
L 435.554297 112.916903 
L 435.706158 113.065464 
L 436.00988 113.350652 
L 436.08581 113.13186 
L 436.237671 113.295611 
L 436.465462 113.299575 
L 436.617323 113.113344 
L 437.300697 113.100313 
L 437.604419 113.041549 
L 437.83221 112.490361 
L 438.135932 112.475552 
L 438.287793 113.618047 
L 438.667445 113.695531 
L 438.819306 114.684496 
L 439.198958 114.629057 
L 439.350819 112.934249 
L 439.426749 112.919532 
L 439.806402 112.009674 
L 439.882332 112.117155 
L 439.958262 111.959572 
L 440.186054 111.896264 
L 440.337915 111.615248 
L 440.869428 112.089093 
L 441.021289 112.881884 
L 441.32501 112.918918 
L 441.476871 113.083267 
L 441.552802 113.43183 
L 442.615828 113.371516 
L 442.919549 113.57052 
L 442.99548 114.06507 
L 443.07141 114.035168 
L 443.375132 113.516471 
L 443.451062 116.472299 
L 443.526993 115.958843 
L 443.602923 115.786478 
L 443.678854 115.17474 
L 443.906645 115.468224 
L 444.134436 113.972999 
L 444.210367 113.809094 
L 444.438158 113.764686 
L 444.514089 113.617848 
L 444.74188 110.417747 
L 445.273393 110.3912 
L 445.653045 110.479906 
L 445.804906 111.459397 
L 446.032697 111.545743 
L 446.260489 112.817482 
L 446.792002 113.965632 
L 447.171654 114.101388 
L 447.247584 114.371392 
L 447.323515 116.410419 
L 447.399445 123.896902 
L 447.855028 123.9847 
L 449.221776 124.550234 
L 449.373637 125.781435 
L 449.449567 125.623979 
L 449.525497 125.384323 
L 449.753289 125.393655 
L 449.90515 123.754986 
L 450.360732 123.459243 
L 450.436663 122.863638 
L 450.512593 122.906698 
L 450.588524 122.934855 
L 450.816315 122.447877 
L 451.120037 122.932265 
L 451.423758 122.971256 
L 451.575619 123.145145 
L 452.107132 123.151502 
L 452.183063 123.211951 
L 452.410854 123.242773 
L 452.562715 123.413935 
L 452.714576 123.743479 
L 453.549811 123.185957 
L 453.701672 122.25354 
L 453.777602 122.068836 
L 454.081324 122.14277 
L 454.157254 124.154999 
L 454.233185 124.068311 
L 454.309115 124.057023 
L 454.612837 125.088789 
L 454.764698 125.197452 
L 454.840628 125.407526 
L 455.068419 125.495685 
L 455.22028 125.903735 
L 455.372141 125.957569 
L 455.827724 125.920329 
L 456.96668 125.858798 
L 457.498193 126.013884 
L 457.801915 126.058273 
L 457.877846 125.910685 
L 458.029706 126.925485 
L 458.409359 129.101955 
L 458.485289 129.014596 
L 458.789011 129.228261 
L 459.092733 130.046126 
L 459.320524 130.120281 
L 459.396454 130.344085 
L 459.624246 135.297026 
L 460.079828 135.41349 
L 460.155759 135.422569 
L 460.687272 135.121487 
L 461.066924 135.073985 
L 461.142854 135.533098 
L 461.522507 133.351141 
L 461.750298 133.244639 
L 462.12995 127.076253 
L 462.281811 126.300703 
L 464.256002 126.25415 
L 464.407863 127.134215 
L 464.635655 127.136464 
L 464.711585 129.194208 
L 464.787515 129.134154 
L 464.863446 129.177118 
L 464.939376 129.355178 
L 465.243098 129.489611 
L 465.470889 128.874403 
L 465.774611 128.262736 
L 466.002402 126.648841 
L 466.230194 126.347488 
L 466.306124 125.503099 
L 466.382055 125.52916 
L 466.837637 124.63969 
L 466.913568 124.564808 
L 467.065428 123.744314 
L 467.521011 123.886593 
L 468.052524 122.878779 
L 468.128455 121.824289 
L 468.356246 121.962818 
L 468.508107 122.824519 
L 468.659968 123.022403 
L 468.887759 122.944367 
L 469.11555 120.305829 
L 469.191481 120.210622 
L 469.495202 118.364048 
L 469.571133 118.292549 
L 469.722994 117.813643 
L 470.026716 117.142296 
L 470.254507 116.099541 
L 470.78602 115.878578 
L 471.165672 115.913413 
L 471.241603 115.646372 
L 471.849046 115.498642 
L 472.760211 115.476168 
L 472.912072 115.679903 
L 473.291724 115.690134 
L 473.747307 116.094079 
L 473.899168 117.029053 
L 474.20289 117.027089 
L 474.506611 116.569777 
L 475.265916 116.636004 
L 475.569637 116.711407 
L 475.94929 116.67222 
L 476.02522 116.543307 
L 476.101151 116.011832 
L 476.328942 117.069955 
L 476.404872 116.99639 
L 476.480803 116.184335 
L 476.860455 115.437562 
L 477.012316 119.654474 
L 477.467898 120.56365 
L 477.619759 120.575639 
L 479.062438 120.455576 
L 479.214298 120.603047 
L 479.290229 120.590583 
L 479.821742 119.984205 
L 480.125464 119.938965 
L 480.201394 118.473502 
L 480.277325 118.534961 
L 480.353255 118.435159 
L 480.581046 118.576231 
L 481.112559 113.145588 
L 481.18849 114.230999 
L 481.26442 114.197541 
L 481.416281 115.137605 
L 481.644072 115.097136 
L 481.795933 115.223112 
L 481.947794 115.683101 
L 482.327446 115.825347 
L 482.479307 116.464192 
L 482.783029 116.493478 
L 482.93489 116.690971 
L 483.01082 117.449682 
L 483.314542 117.752707 
L 483.466403 118.751286 
L 483.542333 118.794056 
L 483.997916 118.814023 
L 484.073846 121.398024 
L 484.377568 121.638886 
L 484.453499 123.557073 
L 484.60536 123.64601 
L 484.833151 123.536366 
L 485.136873 124.801921 
L 485.592455 126.26375 
L 485.896177 125.473031 
L 485.972107 124.902436 
L 486.199899 119.654861 
L 486.579551 120.087605 
L 487.566647 120.00647 
L 487.642577 119.802474 
L 487.794438 118.450054 
L 488.17409 117.883413 
L 488.325951 114.462478 
L 488.705603 114.27741 
L 488.857464 111.730176 
L 489.085255 111.721838 
L 489.237116 110.609805 
L 489.313047 110.613989 
L 489.388977 110.469689 
L 489.616768 110.55514 
L 489.92049 109.398394 
L 490.148281 109.342874 
L 490.300142 109.19656 
L 490.983516 109.173656 
L 491.287238 109.174268 
L 491.363168 109.30553 
L 491.515029 110.04376 
L 491.742821 110.120603 
L 491.970612 111.599578 
L 492.274334 111.588694 
L 492.502125 111.122231 
L 492.578055 111.09413 
L 493.109568 110.2989 
L 493.641082 109.851233 
L 493.944803 109.724702 
L 494.476316 109.382238 
L 494.628177 108.778793 
L 494.704108 108.720046 
L 494.931899 108.714087 
L 495.235621 109.186845 
L 495.463412 109.240086 
L 495.615273 110.491067 
L 495.767134 111.016727 
L 495.994925 111.756675 
L 496.146786 113.23926 
L 496.298647 117.127535 
L 496.526438 117.185251 
L 496.678299 116.283482 
L 496.754229 116.143856 
L 496.83016 115.12725 
L 497.057951 115.065455 
L 497.209812 114.923958 
L 497.361673 113.499984 
L 497.817256 113.368247 
L 498.728421 113.251453 
L 499.411795 113.355632 
L 499.487725 113.26808 
L 499.791447 113.209079 
L 499.943308 113.520727 
L 500.550751 113.564265 
L 500.854473 113.717219 
L 501.385986 119.221659 
L 501.613777 117.037245 
L 501.917499 115.866848 
L 501.99343 115.840783 
L 502.524943 115.260245 
L 502.600873 115.260245 
L 502.676804 115.3828 
L 503.208317 117.113809 
L 503.512038 120.56639 
L 503.587969 120.36879 
L 503.663899 117.890355 
L 503.73983 120.529812 
L 503.967621 119.439983 
L 504.043551 117.91387 
L 504.195412 119.270421 
L 504.271343 119.316332 
L 504.575065 118.712645 
L 504.650995 118.838898 
L 505.258438 101.618141 
L 505.334369 101.711469 
L 505.638091 101.513228 
L 505.865882 101.336547 
L 506.397395 98.893148 
L 506.625186 98.833095 
L 506.777047 98.53477 
L 506.852978 98.536299 
L 506.928908 98.331081 
L 507.156699 98.330288 
L 507.30856 98.123648 
L 507.384491 98.45201 
L 507.460421 98.035333 
L 507.840073 91.852488 
L 507.916004 91.853438 
L 508.295656 87.851105 
L 508.447517 87.622567 
L 508.523447 87.959929 
L 509.282752 88.011491 
L 509.358682 88.154426 
L 509.434613 88.018965 
L 509.510543 87.45728 
L 509.586473 85.840823 
L 509.890195 85.887965 
L 510.497639 85.614464 
L 511.029152 85.281434 
L 511.408804 84.145216 
L 511.484734 84.338335 
L 511.636595 82.737883 
L 511.712526 83.113327 
L 512.016247 83.284738 
L 512.092178 83.922448 
L 512.623691 84.035923 
L 512.699621 83.777952 
L 512.775552 83.973238 
L 513.003343 83.752632 
L 513.079273 83.839622 
L 513.307065 81.621345 
L 513.534856 81.616323 
L 513.686717 81.029521 
L 513.838578 80.365618 
L 514.597882 80.299178 
L 514.749743 79.959445 
L 515.281256 79.783857 
L 515.433117 79.020974 
L 516.420213 79.063341 
L 516.951726 79.079232 
L 517.255448 79.599866 
L 517.331378 79.512349 
L 517.483239 80.918061 
L 517.559169 79.394226 
L 517.786961 78.493287 
L 517.862891 78.93086 
L 517.938821 78.903332 
L 518.849987 78.977988 
L 519.153708 79.041019 
L 519.3815 79.05143 
L 519.533361 79.294108 
L 519.685222 80.428736 
L 519.913013 81.130144 
L 519.988943 81.808834 
L 520.064874 81.794514 
L 520.140804 81.80318 
L 520.216735 80.707139 
L 520.596387 81.28208 
L 520.748248 93.662827 
L 521.051969 93.779736 
L 521.20383 94.113904 
L 521.507552 94.116912 
L 521.583482 93.981251 
L 521.735343 96.027789 
L 521.811274 95.859458 
L 522.114996 95.864004 
L 522.190926 96.078206 
L 522.342787 95.945256 
L 522.646509 96.104755 
L 522.722439 95.603225 
L 522.798369 95.821242 
L 523.102091 95.818653 
L 523.178022 96.197553 
L 523.329883 103.163829 
L 523.405813 103.167018 
L 523.709535 108.651913 
L 523.785465 109.057962 
L 523.861396 108.705902 
L 524.165117 108.680128 
L 524.316978 107.85707 
L 524.468839 107.984879 
L 524.69663 108.00821 
L 524.772561 108.137103 
L 524.924422 109.408187 
L 525.000352 112.098418 
L 525.228143 111.647896 
L 525.304074 110.95882 
L 525.380004 111.056721 
L 525.455935 111.190656 
L 525.531865 110.020228 
L 525.759657 110.018671 
L 525.911517 106.583928 
L 525.987448 106.81458 
L 526.44303 106.614862 
L 526.822683 107.577819 
L 526.974544 108.18803 
L 527.126404 110.700614 
L 527.506057 110.891793 
L 527.581987 110.880889 
L 527.657917 110.503628 
L 527.885709 110.038578 
L 527.961639 110.339723 
L 528.03757 111.550176 
L 528.417222 103.993444 
L 528.569083 101.934932 
L 528.720944 103.400399 
L 529.024665 103.666236 
L 529.176526 105.037116 
L 529.252457 104.987282 
L 529.708039 105.055726 
L 529.78397 105.50659 
L 530.239552 105.651712 
L 530.315483 105.791788 
L 530.619205 106.895102 
L 532.365605 107.018254 
L 532.441535 109.627683 
L 532.745257 111.237482 
L 533.504561 111.346879 
L 534.415726 111.347525 
L 534.567587 111.116591 
L 535.02317 111.111582 
L 535.0991 112.779021 
L 535.326892 112.777781 
L 535.554683 112.997234 
L 536.162126 112.957883 
L 536.617709 113.723669 
L 536.921431 113.768701 
L 536.997361 113.563407 
L 537.073292 113.627918 
L 537.149222 113.917572 
L 537.225153 113.862678 
L 537.452944 113.122608 
L 537.528874 113.619672 
L 537.604805 113.492682 
L 537.756666 113.44413 
L 537.984457 113.469848 
L 538.060387 113.322735 
L 538.288179 112.432262 
L 538.51597 111.744349 
L 538.5919 111.776674 
L 538.819692 112.704847 
L 539.047483 112.993752 
L 539.199344 112.691348 
L 539.351205 112.660339 
L 539.654927 112.705703 
L 539.730857 113.083127 
L 540.3383 114.299035 
L 540.414231 115.454305 
L 540.642022 115.445351 
L 540.793883 119.012926 
L 540.869814 118.970234 
L 540.945744 119.166225 
L 541.477257 119.085934 
L 542.312492 119.083271 
L 542.540283 120.092682 
L 542.844005 120.127725 
L 543.071796 136.399701 
L 543.603309 139.303644 
L 544.666335 139.57997 
L 545.729362 139.630246 
L 547.020179 139.581652 
L 547.096109 139.434487 
L 547.24797 138.087752 
L 547.855414 138.03183 
L 548.91844 138.0293 
L 549.146231 138.495345 
L 549.374023 138.015719 
L 549.449953 138.216274 
L 549.981466 138.198463 
L 550.361118 138.320166 
L 550.892631 138.350314 
L 551.044492 138.193393 
L 551.348214 137.873834 
L 551.500075 137.970119 
L 551.576005 138.599726 
L 551.955657 138.699943 
L 552.031588 140.272076 
L 552.33531 140.595261 
L 552.563101 141.13339 
L 552.639031 141.126703 
L 552.866823 141.403899 
L 553.170544 145.484535 
L 553.398336 145.070061 
L 553.474266 145.126741 
L 553.550197 145.302579 
L 553.626127 145.087987 
L 554.233571 146.215249 
L 554.461362 146.249683 
L 554.613223 146.430924 
L 554.689153 146.437352 
L 554.765084 146.236282 
L 554.992875 146.083504 
L 555.144736 145.817517 
L 555.296597 145.771109 
L 555.676249 140.840445 
L 555.752179 140.986165 
L 555.82811 140.931993 
L 556.207762 140.818716 
L 556.359623 139.421673 
L 556.739275 138.719551 
L 556.891136 135.584958 
L 557.194858 135.409696 
L 557.346718 134.441818 
L 557.422649 134.412965 
L 558.257884 134.711772 
L 559.244979 134.703158 
L 559.39684 134.534326 
L 559.548701 130.573547 
L 559.852423 129.88684 
L 559.928353 129.877508 
L 560.080214 126.927647 
L 560.308005 126.921911 
L 560.459866 124.873591 
L 560.915449 124.717478 
L 561.06731 123.181197 
L 561.14324 123.184857 
L 561.598823 123.041696 
L 561.674753 123.138144 
L 561.978475 123.989712 
L 562.661849 123.958001 
L 563.193362 123.843717 
L 563.497084 123.809261 
L 564.104527 123.806934 
L 564.332319 124.075101 
L 564.787901 124.093508 
L 564.863832 123.920839 
L 565.623136 123.386405 
L 565.774997 123.371994 
L 565.850927 123.463623 
L 565.926858 123.353395 
L 566.30651 123.521519 
L 568.432562 123.6068 
L 568.584423 123.675162 
L 569.115936 123.481019 
L 569.647449 123.592792 
L 570.634545 123.82319 
L 570.710475 125.863101 
L 571.090128 126.950995 
L 571.621641 127.001233 
L 571.697571 127.891522 
L 572.077223 127.725582 
L 572.229084 128.170013 
L 572.532806 129.326093 
L 572.684667 130.59252 
L 572.760597 130.651556 
L 572.836528 131.526633 
L 573.21618 131.218733 
L 573.368041 124.659582 
L 573.671762 123.770725 
L 573.823623 123.657311 
L 574.886649 123.739499 
L 575.190371 123.843046 
L 575.342232 127.046492 
L 575.418163 127.701365 
L 575.797815 127.72583 
L 576.025606 133.032481 
L 576.405258 133.222159 
L 576.481189 132.022067 
L 576.78491 131.889554 
L 576.860841 127.214771 
L 576.936771 127.58017 
L 577.012702 126.492706 
L 577.392354 125.365463 
L 578.45538 125.474745 
L 578.683171 125.668086 
L 579.214684 125.777092 
L 580.277711 125.999221 
L 580.657363 126.331996 
L 580.809224 126.418308 
L 581.112945 126.050239 
L 581.264806 125.591259 
L 581.340737 125.663706 
L 581.644458 125.589781 
L 581.87225 125.344678 
L 582.175971 125.236937 
L 582.327832 125.036221 
L 582.403763 125.101596 
L 583.238998 125.042659 
L 583.846441 122.813877 
L 584.226093 122.611812 
L 584.757606 119.936903 
L 584.909467 119.885097 
L 585.061328 119.827679 
L 585.592841 119.724517 
L 585.896563 119.692416 
L 585.972493 119.487111 
L 586.048424 119.527495 
L 586.124354 119.441361 
L 586.428076 119.327358 
L 586.504006 119.434408 
L 586.655867 118.58019 
L 587.035519 117.962348 
L 587.567032 118.069749 
L 587.718893 123.557644 
L 587.946685 124.388753 
L 588.022615 124.282256 
L 588.174476 124.301273 
L 588.250406 124.072463 
L 588.781919 123.910288 
L 589.161572 123.833853 
L 589.313433 123.768016 
L 589.617154 123.650333 
L 589.693085 123.601844 
L 590.376459 119.528657 
L 590.68018 120.597745 
L 590.832041 125.893766 
L 591.135763 128.24676 
L 591.287624 128.127595 
L 591.439485 127.348724 
L 591.743207 127.232831 
L 591.819137 124.352213 
L 592.806233 124.33247 
L 594.552633 124.414297 
L 594.856354 124.571441 
L 595.160076 125.252551 
L 595.463798 125.255685 
L 595.691589 125.498676 
L 596.147172 125.63262 
L 596.223102 125.336646 
L 596.678685 125.409265 
L 597.210198 125.466611 
L 597.286128 125.85234 
L 597.741711 126.142438 
L 597.817642 127.912228 
L 598.045433 127.923626 
L 598.349155 128.140772 
L 598.576946 128.538487 
L 598.728807 130.014958 
L 598.880668 132.054113 
L 599.184389 132.118105 
L 599.33625 132.212172 
L 599.412181 132.215051 
L 599.867763 132.077663 
L 599.943694 131.747728 
L 600.247416 131.502945 
L 600.475207 131.931503 
L 600.854859 131.985763 
L 601.00672 133.001387 
L 601.234511 134.169245 
L 601.386372 133.694451 
L 601.462303 133.781564 
L 601.538233 133.459728 
L 602.373468 133.445268 
L 602.525329 133.754063 
L 602.601259 133.619986 
L 602.904981 134.137838 
L 603.132772 133.204012 
L 603.512424 129.0044 
L 603.588355 129.023538 
L 603.664285 128.810789 
L 603.892077 128.819967 
L 604.043937 129.007915 
L 604.651381 133.925675 
L 604.727311 133.759639 
L 605.031033 131.554038 
L 605.106964 131.463102 
L 605.182894 131.76615 
L 605.258824 131.709454 
L 605.638477 131.816871 
L 605.790337 132.609254 
L 606.094059 132.726073 
L 606.24592 136.458361 
L 607.081155 136.394912 
L 607.308946 136.171694 
L 607.384877 135.526063 
L 607.612668 135.526063 
L 607.840459 135.10654 
L 607.91639 135.109511 
L 608.296042 128.106296 
L 608.447903 127.552403 
L 608.903485 127.429817 
L 609.283138 127.417306 
L 609.434998 127.265671 
L 609.510929 125.671415 
L 609.73872 123.978085 
L 609.890581 119.411287 
L 610.498025 119.316159 
L 610.573955 119.685179 
L 610.801746 119.688677 
L 611.029538 119.280359 
L 611.636981 119.032642 
L 611.940703 118.457745 
L 612.700007 117.997251 
L 613.079659 117.888533 
L 613.535242 117.60019 
L 613.611172 117.59781 
L 613.763033 117.288187 
L 614.066755 117.206342 
L 614.294546 117.557226 
L 614.522338 117.056765 
L 614.826059 115.028044 
L 615.053851 114.984998 
L 615.205712 115.223494 
L 615.281642 115.218368 
L 615.357573 115.422111 
L 615.661294 115.413066 
L 615.813155 115.547248 
L 616.420599 115.608209 
L 616.876181 115.694141 
L 616.952112 116.016137 
L 617.255833 116.515094 
L 617.483625 118.807888 
L 617.939207 119.321635 
L 618.015138 118.904406 
L 618.242929 118.899506 
L 618.47072 116.886495 
L 618.546651 116.161432 
L 618.774442 115.800042 
L 619.078164 112.527861 
L 619.305955 112.579085 
L 619.457816 112.235232 
L 619.533747 112.227375 
L 619.609677 112.032859 
L 619.837468 112.038461 
L 619.989329 111.216262 
L 621.052355 110.409188 
L 621.735729 110.99682 
L 621.963521 110.995948 
L 622.115381 114.770402 
L 622.191312 115.404841 
L 622.495034 115.431366 
L 622.722825 115.628438 
L 623.55806 115.687617 
L 623.709921 118.371786 
L 623.785851 122.645345 
L 623.861782 122.186339 
L 624.393295 122.059869 
L 624.848877 122.007532 
L 624.924808 122.257927 
L 625.152599 122.304887 
L 625.228529 122.505713 
L 625.987834 122.670807 
L 626.519347 123.868364 
L 627.354582 123.89021 
L 627.582373 124.259892 
L 627.962025 124.144606 
L 628.037956 124.307006 
L 628.341677 122.76489 
L 628.417608 120.021994 
L 628.493538 120.039624 
L 628.645399 120.014352 
L 628.87319 120.500303 
L 629.176912 123.04379 
L 629.632495 123.051503 
L 630.164008 115.920292 
L 630.239938 115.920463 
L 630.54366 115.33525 
L 632.21413 115.33525 
L 632.36599 113.895201 
L 632.669712 113.511892 
L 632.821573 112.819306 
L 632.897504 112.816933 
L 633.201225 113.191471 
L 633.353086 114.848668 
L 633.656808 115.070026 
L 633.884599 117.399646 
L 633.96053 119.635029 
L 634.416112 121.429257 
L 634.492043 121.384904 
L 634.719834 121.380922 
L 634.795764 121.577702 
L 634.871695 121.213952 
L 634.947625 122.029596 
L 635.023556 120.507678 
L 635.327278 120.086216 
L 635.403208 120.147172 
L 635.555069 119.999188 
L 635.78286 120.048465 
L 636.086582 119.726915 
L 636.542165 119.555504 
L 637.073678 119.554235 
L 637.45333 119.552927 
L 637.605191 119.850318 
L 637.681121 119.362739 
L 637.984843 119.059357 
L 638.212634 118.989751 
L 638.592286 118.566017 
L 638.971939 118.554646 
L 639.047869 118.30923 
L 639.19973 115.247452 
L 639.27566 114.479532 
L 639.655312 114.451398 
L 639.731243 114.488266 
L 640.110895 114.245504 
L 640.338686 113.51776 
L 640.718339 110.462736 
L 640.870199 110.257695 
L 641.173921 108.553071 
L 641.249852 108.536563 
L 641.401713 107.102889 
L 641.857295 105.750179 
L 642.312878 105.813648 
L 642.464739 105.8529 
L 642.69253 105.836315 
L 642.996252 108.610641 
L 643.375904 107.735331 
L 643.527765 106.782424 
L 643.755556 106.515387 
L 643.831487 106.098119 
L 643.983347 104.215798 
L 644.059278 104.93727 
L 644.287069 108.869912 
L 644.363 108.672648 
L 644.43893 108.460166 
L 644.590791 101.216385 
L 645.046374 99.629253 
L 646.033469 99.629253 
L 646.18533 100.762737 
L 646.489052 101.113495 
L 646.640913 101.613255 
L 648.007661 101.656342 
L 648.159521 101.83426 
L 648.311382 101.901239 
L 648.539174 101.901239 
L 649.070687 103.937324 
L 649.146617 103.966752 
L 649.298478 104.259241 
L 649.6022 104.385057 
L 649.829991 104.795854 
L 649.905922 104.96512 
L 651.3486 105.056855 
L 651.42453 105.552148 
L 651.880113 105.805764 
L 652.031974 105.810354 
L 652.487556 106.042116 
L 652.563487 106.040048 
L 652.867209 106.527128 
L 653.019069 109.299793 
L 653.398722 110.155171 
L 654.006165 110.263797 
L 654.158026 108.524208 
L 654.385817 108.710695 
L 654.537678 111.508309 
L 654.689539 111.924549 
L 654.993261 111.895097 
L 655.145122 113.549245 
L 655.221052 113.554726 
L 655.524774 115.414133 
L 655.600704 112.137829 
L 655.676635 112.50218 
L 655.752565 111.513047 
L 656.056287 110.725657 
L 656.284078 110.663842 
L 656.66373 110.611674 
L 656.739661 110.705447 
L 656.815591 111.1934 
L 657.195243 111.099014 
L 657.347104 111.549491 
L 657.574896 109.92905 
L 657.726757 110.830757 
L 657.878617 111.578597 
L 658.182339 113.834294 
L 658.3342 114.130192 
L 658.41013 114.739681 
L 658.637922 115.068519 
L 658.789783 125.16807 
L 658.941644 128.719933 
L 661.295487 128.615616 
L 661.447348 128.016253 
L 661.599209 127.741539 
L 661.978861 127.378135 
L 662.054791 127.841367 
L 662.130722 127.779836 
L 663.49747 127.80007 
L 665.699452 127.904114 
L 665.775383 128.157356 
L 666.079105 127.980791 
L 666.306896 126.924254 
L 666.382826 126.289848 
L 666.914339 126.13736 
L 667.293992 125.69811 
L 667.369922 125.757022 
L 667.445853 125.489405 
L 668.205157 125.575004 
L 668.357018 128.349043 
L 668.508879 128.249316 
L 668.888531 128.106145 
L 669.040392 128.222959 
L 669.495974 128.295811 
L 669.571905 134.214555 
L 669.799696 134.440785 
L 670.027487 138.242878 
L 670.331209 138.347138 
L 670.40714 138.420034 
L 670.559 138.66733 
L 671.014583 138.734822 
L 671.090514 138.915262 
L 671.166444 139.443336 
L 671.394235 139.450196 
L 671.546096 143.876468 
L 671.697957 143.954502 
L 674.887035 144.02925 
L 675.190757 144.159209 
L 675.342618 145.273151 
L 675.418548 145.895039 
L 675.64634 145.896289 
L 675.874131 146.688767 
L 676.253783 146.827863 
L 676.481575 146.006502 
L 677.316809 145.832595 
L 677.544601 143.91463 
L 677.772392 143.91219 
L 677.924253 143.725597 
L 679.670653 143.768499 
L 679.898444 144.152286 
L 680.050305 144.625846 
L 680.202166 147.634428 
L 680.581818 147.937444 
L 680.581818 147.937444 
" style="fill:none;stroke:#348dc1;stroke-linecap:round;stroke-width:1.5;"/>
   </g>
   <g id="line2d_11">
    <path clip-path="url(#p249018b359)" d="M 79.6 106.54619 
L 709.2 106.54619 
" style="fill:none;stroke:#ff0000;stroke-dasharray:5.55,2.4;stroke-dashoffset:0;stroke-width:1.5;"/>
   </g>
   <g id="line2d_12">
    <path clip-path="url(#p249018b359)" d="M 79.6 163.162503 
L 709.2 163.162503 
" style="fill:none;stroke:#000000;stroke-dasharray:3.7,1.6;stroke-dashoffset:0;"/>
   </g>
   <g id="text_11">
    <!--  -->
    <g style="fill:#808080;" transform="translate(394.4 22.362625)scale(0.12 -0.12)"/>
    <!-- 18 Oct '00 - 22 Dec '21                    -->
    <defs>
     <path id="DejaVuSans-32"/>
     <path d="M 39.40625 66.21875 
Q 28.65625 66.21875 22.328125 58.203125 
Q 16.015625 50.203125 16.015625 36.375 
Q 16.015625 22.609375 22.328125 14.59375 
Q 28.65625 6.59375 39.40625 6.59375 
Q 50.140625 6.59375 56.421875 14.59375 
Q 62.703125 22.609375 62.703125 36.375 
Q 62.703125 50.203125 56.421875 58.203125 
Q 50.140625 66.21875 39.40625 66.21875 
z
M 39.40625 74.21875 
Q 54.734375 74.21875 63.90625 63.9375 
Q 73.09375 53.65625 73.09375 36.375 
Q 73.09375 19.140625 63.90625 8.859375 
Q 54.734375 -1.421875 39.40625 -1.421875 
Q 24.03125 -1.421875 14.8125 8.828125 
Q 5.609375 19.09375 5.609375 36.375 
Q 5.609375 53.65625 14.8125 63.9375 
Q 24.03125 74.21875 39.40625 74.21875 
z
" id="DejaVuSans-79"/>
     <path d="M 48.78125 52.59375 
L 48.78125 44.1875 
Q 44.96875 46.296875 41.140625 47.34375 
Q 37.3125 48.390625 33.40625 48.390625 
Q 24.65625 48.390625 19.8125 42.84375 
Q 14.984375 37.3125 14.984375 27.296875 
Q 14.984375 17.28125 19.8125 11.734375 
Q 24.65625 6.203125 33.40625 6.203125 
Q 37.3125 6.203125 41.140625 7.25 
Q 44.96875 8.296875 48.78125 10.40625 
L 48.78125 2.09375 
Q 45.015625 0.34375 40.984375 -0.53125 
Q 36.96875 -1.421875 32.421875 -1.421875 
Q 20.0625 -1.421875 12.78125 6.34375 
Q 5.515625 14.109375 5.515625 27.296875 
Q 5.515625 40.671875 12.859375 48.328125 
Q 20.21875 56 33.015625 56 
Q 37.15625 56 41.109375 55.140625 
Q 45.0625 54.296875 48.78125 52.59375 
z
" id="DejaVuSans-99"/>
     <path d="M 18.3125 70.21875 
L 18.3125 54.6875 
L 36.8125 54.6875 
L 36.8125 47.703125 
L 18.3125 47.703125 
L 18.3125 18.015625 
Q 18.3125 11.328125 20.140625 9.421875 
Q 21.96875 7.515625 27.59375 7.515625 
L 36.8125 7.515625 
L 36.8125 0 
L 27.59375 0 
Q 17.1875 0 13.234375 3.875 
Q 9.28125 7.765625 9.28125 18.015625 
L 9.28125 47.703125 
L 2.6875 47.703125 
L 2.6875 54.6875 
L 9.28125 54.6875 
L 9.28125 70.21875 
z
" id="DejaVuSans-116"/>
     <path d="M 17.921875 72.90625 
L 17.921875 45.796875 
L 9.625 45.796875 
L 9.625 72.90625 
z
" id="DejaVuSans-39"/>
     <path d="M 4.890625 31.390625 
L 31.203125 31.390625 
L 31.203125 23.390625 
L 4.890625 23.390625 
z
" id="DejaVuSans-45"/>
     <path d="M 19.671875 64.796875 
L 19.671875 8.109375 
L 31.59375 8.109375 
Q 46.6875 8.109375 53.6875 14.9375 
Q 60.6875 21.78125 60.6875 36.53125 
Q 60.6875 51.171875 53.6875 57.984375 
Q 46.6875 64.796875 31.59375 64.796875 
z
M 9.8125 72.90625 
L 30.078125 72.90625 
Q 51.265625 72.90625 61.171875 64.09375 
Q 71.09375 55.28125 71.09375 36.53125 
Q 71.09375 17.671875 61.125 8.828125 
Q 51.171875 0 30.078125 0 
L 9.8125 0 
z
" id="DejaVuSans-68"/>
     <path d="M 56.203125 29.59375 
L 56.203125 25.203125 
L 14.890625 25.203125 
Q 15.484375 15.921875 20.484375 11.0625 
Q 25.484375 6.203125 34.421875 6.203125 
Q 39.59375 6.203125 44.453125 7.46875 
Q 49.3125 8.734375 54.109375 11.28125 
L 54.109375 2.78125 
Q 49.265625 0.734375 44.1875 -0.34375 
Q 39.109375 -1.421875 33.890625 -1.421875 
Q 20.796875 -1.421875 13.15625 6.1875 
Q 5.515625 13.8125 5.515625 26.8125 
Q 5.515625 40.234375 12.765625 48.109375 
Q 20.015625 56 32.328125 56 
Q 43.359375 56 49.78125 48.890625 
Q 56.203125 41.796875 56.203125 29.59375 
z
M 47.21875 32.234375 
Q 47.125 39.59375 43.09375 43.984375 
Q 39.0625 48.390625 32.421875 48.390625 
Q 24.90625 48.390625 20.390625 44.140625 
Q 15.875 39.890625 15.1875 32.171875 
z
" id="DejaVuSans-101"/>
    </defs>
    <g style="fill:#808080;" transform="translate(288.74 35.8)scale(0.12 -0.12)">
     <use xlink:href="#DejaVuSans-49"/>
     <use x="63.623047" xlink:href="#DejaVuSans-56"/>
     <use x="127.246094" xlink:href="#DejaVuSans-32"/>
     <use x="159.033203" xlink:href="#DejaVuSans-79"/>
     <use x="237.744141" xlink:href="#DejaVuSans-99"/>
     <use x="292.724609" xlink:href="#DejaVuSans-116"/>
     <use x="331.933594" xlink:href="#DejaVuSans-32"/>
     <use x="363.720703" xlink:href="#DejaVuSans-39"/>
     <use x="391.210938" xlink:href="#DejaVuSans-48"/>
     <use x="454.833984" xlink:href="#DejaVuSans-48"/>
     <use x="518.457031" xlink:href="#DejaVuSans-32"/>
     <use x="550.244141" xlink:href="#DejaVuSans-45"/>
     <use x="586.328125" xlink:href="#DejaVuSans-32"/>
     <use x="618.115234" xlink:href="#DejaVuSans-50"/>
     <use x="681.738281" xlink:href="#DejaVuSans-50"/>
     <use x="745.361328" xlink:href="#DejaVuSans-32"/>
     <use x="777.148438" xlink:href="#DejaVuSans-68"/>
     <use x="854.150391" xlink:href="#DejaVuSans-101"/>
     <use x="915.673828" xlink:href="#DejaVuSans-99"/>
     <use x="970.654297" xlink:href="#DejaVuSans-32"/>
     <use x="1002.441406" xlink:href="#DejaVuSans-39"/>
     <use x="1029.931641" xlink:href="#DejaVuSans-50"/>
     <use x="1093.554688" xlink:href="#DejaVuSans-49"/>
     <use x="1157.177734" xlink:href="#DejaVuSans-32"/>
     <use x="1188.964844" xlink:href="#DejaVuSans-32"/>
     <use x="1220.751953" xlink:href="#DejaVuSans-32"/>
     <use x="1252.539062" xlink:href="#DejaVuSans-32"/>
     <use x="1284.326172" xlink:href="#DejaVuSans-32"/>
     <use x="1316.113281" xlink:href="#DejaVuSans-32"/>
     <use x="1347.900391" xlink:href="#DejaVuSans-32"/>
     <use x="1379.6875" xlink:href="#DejaVuSans-32"/>
     <use x="1411.474609" xlink:href="#DejaVuSans-32"/>
     <use x="1443.261719" xlink:href="#DejaVuSans-32"/>
     <use x="1475.048828" xlink:href="#DejaVuSans-32"/>
     <use x="1506.835938" xlink:href="#DejaVuSans-32"/>
     <use x="1538.623047" xlink:href="#DejaVuSans-32"/>
     <use x="1570.410156" xlink:href="#DejaVuSans-32"/>
     <use x="1602.197266" xlink:href="#DejaVuSans-32"/>
     <use x="1633.984375" xlink:href="#DejaVuSans-32"/>
     <use x="1665.771484" xlink:href="#DejaVuSans-32"/>
     <use x="1697.558594" xlink:href="#DejaVuSans-32"/>
     <use x="1729.345703" xlink:href="#DejaVuSans-32"/>
    </g>
   </g>
   <g id="legend_1">
    <g id="patch_3">
     <path d="M 610.981875 69.01375 
L 700.8 69.01375 
Q 703.2 69.01375 703.2 66.61375 
L 703.2 50.2 
Q 703.2 47.8 700.8 47.8 
L 610.981875 47.8 
Q 608.581875 47.8 608.581875 50.2 
L 608.581875 66.61375 
Q 608.581875 69.01375 610.981875 69.01375 
z
" style="fill:#ffffff;opacity:0.8;stroke:#cccccc;stroke-linejoin:miter;"/>
    </g>
    <g id="line2d_13">
     <path d="M 613.381875 57.518125 
L 637.381875 57.518125 
" style="fill:none;stroke:#348dc1;stroke-linecap:round;stroke-width:1.5;"/>
    </g>
    <g id="line2d_14"/>
    <g id="text_12">
     <!-- Strategy -->
     <defs>
      <path d="M 53.515625 70.515625 
L 53.515625 60.890625 
Q 47.90625 63.578125 42.921875 64.890625 
Q 37.9375 66.21875 33.296875 66.21875 
Q 25.25 66.21875 20.875 63.09375 
Q 16.5 59.96875 16.5 54.203125 
Q 16.5 49.359375 19.40625 46.890625 
Q 22.3125 44.4375 30.421875 42.921875 
L 36.375 41.703125 
Q 47.40625 39.59375 52.65625 34.296875 
Q 57.90625 29 57.90625 20.125 
Q 57.90625 9.515625 50.796875 4.046875 
Q 43.703125 -1.421875 29.984375 -1.421875 
Q 24.8125 -1.421875 18.96875 -0.25 
Q 13.140625 0.921875 6.890625 3.21875 
L 6.890625 13.375 
Q 12.890625 10.015625 18.65625 8.296875 
Q 24.421875 6.59375 29.984375 6.59375 
Q 38.421875 6.59375 43.015625 9.90625 
Q 47.609375 13.234375 47.609375 19.390625 
Q 47.609375 24.75 44.3125 27.78125 
Q 41.015625 30.8125 33.5 32.328125 
L 27.484375 33.5 
Q 16.453125 35.6875 11.515625 40.375 
Q 6.59375 45.0625 6.59375 53.421875 
Q 6.59375 63.09375 13.40625 68.65625 
Q 20.21875 74.21875 32.171875 74.21875 
Q 37.3125 74.21875 42.625 73.28125 
Q 47.953125 72.359375 53.515625 70.515625 
z
" id="DejaVuSans-83"/>
      <path d="M 41.109375 46.296875 
Q 39.59375 47.171875 37.8125 47.578125 
Q 36.03125 48 33.890625 48 
Q 26.265625 48 22.1875 43.046875 
Q 18.109375 38.09375 18.109375 28.8125 
L 18.109375 0 
L 9.078125 0 
L 9.078125 54.6875 
L 18.109375 54.6875 
L 18.109375 46.1875 
Q 20.953125 51.171875 25.484375 53.578125 
Q 30.03125 56 36.53125 56 
Q 37.453125 56 38.578125 55.875 
Q 39.703125 55.765625 41.0625 55.515625 
z
" id="DejaVuSans-114"/>
      <path d="M 34.28125 27.484375 
Q 23.390625 27.484375 19.1875 25 
Q 14.984375 22.515625 14.984375 16.5 
Q 14.984375 11.71875 18.140625 8.90625 
Q 21.296875 6.109375 26.703125 6.109375 
Q 34.1875 6.109375 38.703125 11.40625 
Q 43.21875 16.703125 43.21875 25.484375 
L 43.21875 27.484375 
z
M 52.203125 31.203125 
L 52.203125 0 
L 43.21875 0 
L 43.21875 8.296875 
Q 40.140625 3.328125 35.546875 0.953125 
Q 30.953125 -1.421875 24.3125 -1.421875 
Q 15.921875 -1.421875 10.953125 3.296875 
Q 6 8.015625 6 15.921875 
Q 6 25.140625 12.171875 29.828125 
Q 18.359375 34.515625 30.609375 34.515625 
L 43.21875 34.515625 
L 43.21875 35.40625 
Q 43.21875 41.609375 39.140625 45 
Q 35.0625 48.390625 27.6875 48.390625 
Q 23 48.390625 18.546875 47.265625 
Q 14.109375 46.140625 10.015625 43.890625 
L 10.015625 52.203125 
Q 14.9375 54.109375 19.578125 55.046875 
Q 24.21875 56 28.609375 56 
Q 40.484375 56 46.34375 49.84375 
Q 52.203125 43.703125 52.203125 31.203125 
z
" id="DejaVuSans-97"/>
      <path d="M 45.40625 27.984375 
Q 45.40625 37.75 41.375 43.109375 
Q 37.359375 48.484375 30.078125 48.484375 
Q 22.859375 48.484375 18.828125 43.109375 
Q 14.796875 37.75 14.796875 27.984375 
Q 14.796875 18.265625 18.828125 12.890625 
Q 22.859375 7.515625 30.078125 7.515625 
Q 37.359375 7.515625 41.375 12.890625 
Q 45.40625 18.265625 45.40625 27.984375 
z
M 54.390625 6.78125 
Q 54.390625 -7.171875 48.1875 -13.984375 
Q 42 -20.796875 29.203125 -20.796875 
Q 24.46875 -20.796875 20.265625 -20.09375 
Q 16.0625 -19.390625 12.109375 -17.921875 
L 12.109375 -9.1875 
Q 16.0625 -11.328125 19.921875 -12.34375 
Q 23.78125 -13.375 27.78125 -13.375 
Q 36.625 -13.375 41.015625 -8.765625 
Q 45.40625 -4.15625 45.40625 5.171875 
L 45.40625 9.625 
Q 42.625 4.78125 38.28125 2.390625 
Q 33.9375 0 27.875 0 
Q 17.828125 0 11.671875 7.65625 
Q 5.515625 15.328125 5.515625 27.984375 
Q 5.515625 40.671875 11.671875 48.328125 
Q 17.828125 56 27.875 56 
Q 33.9375 56 38.28125 53.609375 
Q 42.625 51.21875 45.40625 46.390625 
L 45.40625 54.6875 
L 54.390625 54.6875 
z
" id="DejaVuSans-103"/>
      <path d="M 32.171875 -5.078125 
Q 28.375 -14.84375 24.75 -17.8125 
Q 21.140625 -20.796875 15.09375 -20.796875 
L 7.90625 -20.796875 
L 7.90625 -13.28125 
L 13.1875 -13.28125 
Q 16.890625 -13.28125 18.9375 -11.515625 
Q 21 -9.765625 23.484375 -3.21875 
L 25.09375 0.875 
L 2.984375 54.6875 
L 12.5 54.6875 
L 29.59375 11.921875 
L 46.6875 54.6875 
L 56.203125 54.6875 
z
" id="DejaVuSans-121"/>
     </defs>
     <g style="fill:#333333;" transform="translate(646.981875 61.718125)scale(0.12 -0.12)">
      <use xlink:href="#DejaVuSans-83"/>
      <use x="63.476562" xlink:href="#DejaVuSans-116"/>
      <use x="102.685547" xlink:href="#DejaVuSans-114"/>
      <use x="143.798828" xlink:href="#DejaVuSans-97"/>
      <use x="205.078125" xlink:href="#DejaVuSans-116"/>
      <use x="244.287109" xlink:href="#DejaVuSans-101"/>
      <use x="305.810547" xlink:href="#DejaVuSans-103"/>
      <use x="369.287109" xlink:href="#DejaVuSans-121"/>
     </g>
    </g>
   </g>
  </g>
  <g id="text_13">
   <!-- Rolling Volatility (6-Months) -->
   <defs>
    <path d="M 35.890625 40.578125 
Q 41.796875 40.578125 44.359375 42.765625 
Q 46.921875 44.96875 46.921875 50 
Q 46.921875 54.984375 44.359375 57.125 
Q 41.796875 59.28125 35.890625 59.28125 
L 27.984375 59.28125 
L 27.984375 40.578125 
z
M 27.984375 27.59375 
L 27.984375 0 
L 9.1875 0 
L 9.1875 72.90625 
L 37.890625 72.90625 
Q 52.296875 72.90625 59 68.0625 
Q 65.71875 63.234375 65.71875 52.78125 
Q 65.71875 45.5625 62.21875 40.921875 
Q 58.734375 36.28125 51.703125 34.078125 
Q 55.5625 33.203125 58.609375 30.09375 
Q 61.671875 27 64.796875 20.703125 
L 75 0 
L 54.984375 0 
L 46.09375 18.109375 
Q 43.40625 23.578125 40.640625 25.578125 
Q 37.890625 27.59375 33.296875 27.59375 
z
" id="DejaVuSans-Bold-82"/>
    <path d="M 63.375 33.296875 
L 63.375 0 
L 45.796875 0 
L 45.796875 5.421875 
L 45.796875 25.484375 
Q 45.796875 32.5625 45.484375 35.25 
Q 45.171875 37.9375 44.390625 39.203125 
Q 43.359375 40.921875 41.59375 41.875 
Q 39.84375 42.828125 37.59375 42.828125 
Q 32.125 42.828125 29 38.59375 
Q 25.875 34.375 25.875 26.90625 
L 25.875 0 
L 8.40625 0 
L 8.40625 54.6875 
L 25.875 54.6875 
L 25.875 46.6875 
Q 29.828125 51.46875 34.265625 53.734375 
Q 38.71875 56 44.09375 56 
Q 53.5625 56 58.46875 50.1875 
Q 63.375 44.390625 63.375 33.296875 
z
" id="DejaVuSans-Bold-110"/>
    <path d="M 45.609375 9.28125 
Q 42 4.5 37.640625 2.25 
Q 33.296875 0 27.59375 0 
Q 17.578125 0 11.03125 7.875 
Q 4.5 15.765625 4.5 27.984375 
Q 4.5 40.234375 11.03125 48.0625 
Q 17.578125 55.90625 27.59375 55.90625 
Q 33.296875 55.90625 37.640625 53.65625 
Q 42 51.421875 45.609375 46.578125 
L 45.609375 54.6875 
L 63.1875 54.6875 
L 63.1875 5.515625 
Q 63.1875 -7.671875 54.859375 -14.625 
Q 46.53125 -21.578125 30.71875 -21.578125 
Q 25.59375 -21.578125 20.796875 -20.796875 
Q 16.015625 -20.015625 11.1875 -18.40625 
L 11.1875 -4.78125 
Q 15.765625 -7.421875 20.15625 -8.71875 
Q 24.5625 -10.015625 29 -10.015625 
Q 37.59375 -10.015625 41.59375 -6.25 
Q 45.609375 -2.484375 45.609375 5.515625 
z
M 34.078125 43.3125 
Q 28.65625 43.3125 25.625 39.296875 
Q 22.609375 35.296875 22.609375 27.984375 
Q 22.609375 20.453125 25.53125 16.578125 
Q 28.46875 12.703125 34.078125 12.703125 
Q 39.546875 12.703125 42.578125 16.703125 
Q 45.609375 20.703125 45.609375 27.984375 
Q 45.609375 35.296875 42.578125 39.296875 
Q 39.546875 43.3125 34.078125 43.3125 
z
" id="DejaVuSans-Bold-103"/>
    <path id="DejaVuSans-Bold-32"/>
    <path d="M 37.703125 -13.1875 
L 23.1875 -13.1875 
Q 15.71875 -1.125 12.15625 9.734375 
Q 8.59375 20.609375 8.59375 31.296875 
Q 8.59375 42 12.171875 52.953125 
Q 15.765625 63.921875 23.1875 75.875 
L 37.703125 75.875 
Q 31.453125 64.3125 28.328125 53.25 
Q 25.203125 42.1875 25.203125 31.390625 
Q 25.203125 20.609375 28.296875 9.515625 
Q 31.390625 -1.5625 37.703125 -13.1875 
z
" id="DejaVuSans-Bold-40"/>
    <path d="M 36.1875 35.984375 
Q 31.25 35.984375 28.78125 32.78125 
Q 26.3125 29.59375 26.3125 23.1875 
Q 26.3125 16.796875 28.78125 13.59375 
Q 31.25 10.40625 36.1875 10.40625 
Q 41.15625 10.40625 43.625 13.59375 
Q 46.09375 16.796875 46.09375 23.1875 
Q 46.09375 29.59375 43.625 32.78125 
Q 41.15625 35.984375 36.1875 35.984375 
z
M 59.421875 71 
L 59.421875 57.515625 
Q 54.78125 59.71875 50.671875 60.765625 
Q 46.578125 61.8125 42.671875 61.8125 
Q 34.28125 61.8125 29.59375 57.140625 
Q 24.90625 52.484375 24.125 43.3125 
Q 27.34375 45.703125 31.09375 46.890625 
Q 34.859375 48.09375 39.3125 48.09375 
Q 50.484375 48.09375 57.34375 41.546875 
Q 64.203125 35.015625 64.203125 24.421875 
Q 64.203125 12.703125 56.53125 5.640625 
Q 48.875 -1.421875 35.984375 -1.421875 
Q 21.78125 -1.421875 13.984375 8.171875 
Q 6.203125 17.78125 6.203125 35.40625 
Q 6.203125 53.46875 15.3125 63.796875 
Q 24.421875 74.125 40.28125 74.125 
Q 45.3125 74.125 50.046875 73.34375 
Q 54.78125 72.5625 59.421875 71 
z
" id="DejaVuSans-Bold-54"/>
    <path d="M 5.421875 35.890625 
L 36.078125 35.890625 
L 36.078125 21.6875 
L 5.421875 21.6875 
z
" id="DejaVuSans-Bold-45"/>
    <path d="M 9.1875 72.90625 
L 33.109375 72.90625 
L 49.703125 33.890625 
L 66.40625 72.90625 
L 90.28125 72.90625 
L 90.28125 0 
L 72.515625 0 
L 72.515625 53.328125 
L 55.71875 14.015625 
L 43.796875 14.015625 
L 27 53.328125 
L 27 0 
L 9.1875 0 
z
" id="DejaVuSans-Bold-77"/>
    <path d="M 63.375 33.296875 
L 63.375 0 
L 45.796875 0 
L 45.796875 5.421875 
L 45.796875 25.390625 
Q 45.796875 32.5625 45.484375 35.25 
Q 45.171875 37.9375 44.390625 39.203125 
Q 43.359375 40.921875 41.59375 41.875 
Q 39.84375 42.828125 37.59375 42.828125 
Q 32.125 42.828125 29 38.59375 
Q 25.875 34.375 25.875 26.90625 
L 25.875 0 
L 8.40625 0 
L 8.40625 75.984375 
L 25.875 75.984375 
L 25.875 46.6875 
Q 29.828125 51.46875 34.265625 53.734375 
Q 38.71875 56 44.09375 56 
Q 53.5625 56 58.46875 50.1875 
Q 63.375 44.390625 63.375 33.296875 
z
" id="DejaVuSans-Bold-104"/>
    <path d="M 51.125 52.984375 
L 51.125 39.703125 
Q 45.515625 42.046875 40.28125 43.21875 
Q 35.0625 44.390625 30.421875 44.390625 
Q 25.4375 44.390625 23.015625 43.140625 
Q 20.609375 41.890625 20.609375 39.3125 
Q 20.609375 37.203125 22.4375 36.078125 
Q 24.265625 34.96875 29 34.421875 
L 32.078125 33.984375 
Q 45.515625 32.28125 50.140625 28.375 
Q 54.78125 24.46875 54.78125 16.109375 
Q 54.78125 7.375 48.328125 2.96875 
Q 41.890625 -1.421875 29.109375 -1.421875 
Q 23.6875 -1.421875 17.890625 -0.5625 
Q 12.109375 0.296875 6 2 
L 6 15.28125 
Q 11.234375 12.75 16.71875 11.46875 
Q 22.21875 10.203125 27.875 10.203125 
Q 33.015625 10.203125 35.59375 11.609375 
Q 38.1875 13.03125 38.1875 15.828125 
Q 38.1875 18.171875 36.40625 19.3125 
Q 34.625 20.453125 29.296875 21.09375 
L 26.21875 21.484375 
Q 14.546875 22.953125 9.859375 26.90625 
Q 5.171875 30.859375 5.171875 38.921875 
Q 5.171875 47.609375 11.125 51.796875 
Q 17.09375 56 29.390625 56 
Q 34.234375 56 39.546875 55.265625 
Q 44.875 54.546875 51.125 52.984375 
z
" id="DejaVuSans-Bold-115"/>
    <path d="M 8.015625 -13.1875 
Q 14.265625 -1.5625 17.390625 9.515625 
Q 20.515625 20.609375 20.515625 31.390625 
Q 20.515625 42.1875 17.390625 53.25 
Q 14.265625 64.3125 8.015625 75.875 
L 22.515625 75.875 
Q 29.9375 63.921875 33.515625 52.953125 
Q 37.109375 42 37.109375 31.296875 
Q 37.109375 20.609375 33.546875 9.734375 
Q 29.984375 -1.125 22.515625 -13.1875 
z
" id="DejaVuSans-Bold-41"/>
   </defs>
   <g transform="translate(248.888125 12.797812)scale(0.14 -0.14)">
    <use xlink:href="#DejaVuSans-Bold-82"/>
    <use x="77.001953" xlink:href="#DejaVuSans-Bold-111"/>
    <use x="145.703125" xlink:href="#DejaVuSans-Bold-108"/>
    <use x="179.980469" xlink:href="#DejaVuSans-Bold-108"/>
    <use x="214.257812" xlink:href="#DejaVuSans-Bold-105"/>
    <use x="248.535156" xlink:href="#DejaVuSans-Bold-110"/>
    <use x="319.726562" xlink:href="#DejaVuSans-Bold-103"/>
    <use x="391.308594" xlink:href="#DejaVuSans-Bold-32"/>
    <use x="426.123047" xlink:href="#DejaVuSans-Bold-86"/>
    <use x="498.015625" xlink:href="#DejaVuSans-Bold-111"/>
    <use x="566.716797" xlink:href="#DejaVuSans-Bold-108"/>
    <use x="600.994141" xlink:href="#DejaVuSans-Bold-97"/>
    <use x="668.474609" xlink:href="#DejaVuSans-Bold-116"/>
    <use x="716.277344" xlink:href="#DejaVuSans-Bold-105"/>
    <use x="750.554688" xlink:href="#DejaVuSans-Bold-108"/>
    <use x="784.832031" xlink:href="#DejaVuSans-Bold-105"/>
    <use x="819.109375" xlink:href="#DejaVuSans-Bold-116"/>
    <use x="866.912109" xlink:href="#DejaVuSans-Bold-121"/>
    <use x="932.097656" xlink:href="#DejaVuSans-Bold-32"/>
    <use x="966.912109" xlink:href="#DejaVuSans-Bold-40"/>
    <use x="1012.615234" xlink:href="#DejaVuSans-Bold-54"/>
    <use x="1082.195312" xlink:href="#DejaVuSans-Bold-45"/>
    <use x="1123.699219" xlink:href="#DejaVuSans-Bold-77"/>
    <use x="1223.210938" xlink:href="#DejaVuSans-Bold-111"/>
    <use x="1291.912109" xlink:href="#DejaVuSans-Bold-110"/>
    <use x="1363.103516" xlink:href="#DejaVuSans-Bold-116"/>
    <use x="1410.90625" xlink:href="#DejaVuSans-Bold-104"/>
    <use x="1482.097656" xlink:href="#DejaVuSans-Bold-115"/>
    <use x="1541.619141" xlink:href="#DejaVuSans-Bold-41"/>
   </g>
   <!--  -->
   <g transform="translate(360 28.584125)scale(0.14 -0.14)"/>
  </g>
 </g>
 <defs>
  <clipPath id="p249018b359">
   <rect height="127.14167" width="629.6" x="79.6" y="41.8"/>
  </clipPath>
 </defs>
</svg>
