<?xml version="1.0" encoding="utf-8" standalone="no"?>
<!DOCTYPE svg PUBLIC "-//W3C//DTD SVG 1.1//EN"
  "http://www.w3.org/Graphics/SVG/1.1/DTD/svg11.dtd">
<!-- Created with matplotlib (https://matplotlib.org/) -->
<svg height="216pt" version="1.1" viewBox="0 0 720 216" width="720pt" xmlns="http://www.w3.org/2000/svg" xmlns:xlink="http://www.w3.org/1999/xlink">
 <defs>
  <style type="text/css">
*{stroke-linecap:butt;stroke-linejoin:round;}
  </style>
 </defs>
 <g id="figure_1">
  <g id="patch_1">
   <path d="M 0 216 
L 720 216 
L 720 0 
L 0 0 
z
" style="fill:#ffffff;"/>
  </g>
  <g id="axes_1">
   <g id="patch_2">
    <path d="M 79.6 168.94167 
L 709.2 168.94167 
L 709.2 41.8 
L 79.6 41.8 
z
" style="fill:#ffffff;"/>
   </g>
   <g id="matplotlib.axis_1">
    <g id="xtick_1">
     <g id="line2d_1">
      <path clip-path="url(#pfe2eb5e2b4)" d="M 182.098497 168.94167 
L 182.098497 41.8 
" style="fill:none;stroke:#dddddd;stroke-linecap:round;stroke-width:0.5;"/>
     </g>
     <g id="text_1">
      <!-- 2004 -->
      <defs>
       <path d="M 19.1875 8.296875 
L 53.609375 8.296875 
L 53.609375 0 
L 7.328125 0 
L 7.328125 8.296875 
Q 12.9375 14.109375 22.625 23.890625 
Q 32.328125 33.6875 34.8125 36.53125 
Q 39.546875 41.84375 41.421875 45.53125 
Q 43.3125 49.21875 43.3125 52.78125 
Q 43.3125 58.59375 39.234375 62.25 
Q 35.15625 65.921875 28.609375 65.921875 
Q 23.96875 65.921875 18.8125 64.3125 
Q 13.671875 62.703125 7.8125 59.421875 
L 7.8125 69.390625 
Q 13.765625 71.78125 18.9375 73 
Q 24.125 74.21875 28.421875 74.21875 
Q 39.75 74.21875 46.484375 68.546875 
Q 53.21875 62.890625 53.21875 53.421875 
Q 53.21875 48.921875 51.53125 44.890625 
Q 49.859375 40.875 45.40625 35.40625 
Q 44.1875 33.984375 37.640625 27.21875 
Q 31.109375 20.453125 19.1875 8.296875 
z
" id="DejaVuSans-50"/>
       <path d="M 31.78125 66.40625 
Q 24.171875 66.40625 20.328125 58.90625 
Q 16.5 51.421875 16.5 36.375 
Q 16.5 21.390625 20.328125 13.890625 
Q 24.171875 6.390625 31.78125 6.390625 
Q 39.453125 6.390625 43.28125 13.890625 
Q 47.125 21.390625 47.125 36.375 
Q 47.125 51.421875 43.28125 58.90625 
Q 39.453125 66.40625 31.78125 66.40625 
z
M 31.78125 74.21875 
Q 44.046875 74.21875 50.515625 64.515625 
Q 56.984375 54.828125 56.984375 36.375 
Q 56.984375 17.96875 50.515625 8.265625 
Q 44.046875 -1.421875 31.78125 -1.421875 
Q 19.53125 -1.421875 13.0625 8.265625 
Q 6.59375 17.96875 6.59375 36.375 
Q 6.59375 54.828125 13.0625 64.515625 
Q 19.53125 74.21875 31.78125 74.21875 
z
" id="DejaVuSans-48"/>
       <path d="M 37.796875 64.3125 
L 12.890625 25.390625 
L 37.796875 25.390625 
z
M 35.203125 72.90625 
L 47.609375 72.90625 
L 47.609375 25.390625 
L 58.015625 25.390625 
L 58.015625 17.1875 
L 47.609375 17.1875 
L 47.609375 0 
L 37.796875 0 
L 37.796875 17.1875 
L 4.890625 17.1875 
L 4.890625 26.703125 
z
" id="DejaVuSans-52"/>
      </defs>
      <g style="fill:#666666;" transform="translate(154.171467 201.801252)rotate(-30)scale(0.121 -0.121)">
       <use xlink:href="#DejaVuSans-50"/>
       <use x="63.623047" xlink:href="#DejaVuSans-48"/>
       <use x="127.246094" xlink:href="#DejaVuSans-48"/>
       <use x="190.869141" xlink:href="#DejaVuSans-52"/>
      </g>
     </g>
    </g>
    <g id="xtick_2">
     <g id="line2d_2">
      <path clip-path="url(#pfe2eb5e2b4)" d="M 293.032866 168.94167 
L 293.032866 41.8 
" style="fill:none;stroke:#dddddd;stroke-linecap:round;stroke-width:0.5;"/>
     </g>
     <g id="text_2">
      <!-- 2008 -->
      <defs>
       <path d="M 31.78125 34.625 
Q 24.75 34.625 20.71875 30.859375 
Q 16.703125 27.09375 16.703125 20.515625 
Q 16.703125 13.921875 20.71875 10.15625 
Q 24.75 6.390625 31.78125 6.390625 
Q 38.8125 6.390625 42.859375 10.171875 
Q 46.921875 13.96875 46.921875 20.515625 
Q 46.921875 27.09375 42.890625 30.859375 
Q 38.875 34.625 31.78125 34.625 
z
M 21.921875 38.8125 
Q 15.578125 40.375 12.03125 44.71875 
Q 8.5 49.078125 8.5 55.328125 
Q 8.5 64.0625 14.71875 69.140625 
Q 20.953125 74.21875 31.78125 74.21875 
Q 42.671875 74.21875 48.875 69.140625 
Q 55.078125 64.0625 55.078125 55.328125 
Q 55.078125 49.078125 51.53125 44.71875 
Q 48 40.375 41.703125 38.8125 
Q 48.828125 37.15625 52.796875 32.3125 
Q 56.78125 27.484375 56.78125 20.515625 
Q 56.78125 9.90625 50.3125 4.234375 
Q 43.84375 -1.421875 31.78125 -1.421875 
Q 19.734375 -1.421875 13.25 4.234375 
Q 6.78125 9.90625 6.78125 20.515625 
Q 6.78125 27.484375 10.78125 32.3125 
Q 14.796875 37.15625 21.921875 38.8125 
z
M 18.3125 54.390625 
Q 18.3125 48.734375 21.84375 45.5625 
Q 25.390625 42.390625 31.78125 42.390625 
Q 38.140625 42.390625 41.71875 45.5625 
Q 45.3125 48.734375 45.3125 54.390625 
Q 45.3125 60.0625 41.71875 63.234375 
Q 38.140625 66.40625 31.78125 66.40625 
Q 25.390625 66.40625 21.84375 63.234375 
Q 18.3125 60.0625 18.3125 54.390625 
z
" id="DejaVuSans-56"/>
      </defs>
      <g style="fill:#666666;" transform="translate(265.105836 201.801252)rotate(-30)scale(0.121 -0.121)">
       <use xlink:href="#DejaVuSans-50"/>
       <use x="63.623047" xlink:href="#DejaVuSans-48"/>
       <use x="127.246094" xlink:href="#DejaVuSans-48"/>
       <use x="190.869141" xlink:href="#DejaVuSans-56"/>
      </g>
     </g>
    </g>
    <g id="xtick_3">
     <g id="line2d_3">
      <path clip-path="url(#pfe2eb5e2b4)" d="M 403.967235 168.94167 
L 403.967235 41.8 
" style="fill:none;stroke:#dddddd;stroke-linecap:round;stroke-width:0.5;"/>
     </g>
     <g id="text_3">
      <!-- 2012 -->
      <defs>
       <path d="M 12.40625 8.296875 
L 28.515625 8.296875 
L 28.515625 63.921875 
L 10.984375 60.40625 
L 10.984375 69.390625 
L 28.421875 72.90625 
L 38.28125 72.90625 
L 38.28125 8.296875 
L 54.390625 8.296875 
L 54.390625 0 
L 12.40625 0 
z
" id="DejaVuSans-49"/>
      </defs>
      <g style="fill:#666666;" transform="translate(376.040205 201.801252)rotate(-30)scale(0.121 -0.121)">
       <use xlink:href="#DejaVuSans-50"/>
       <use x="63.623047" xlink:href="#DejaVuSans-48"/>
       <use x="127.246094" xlink:href="#DejaVuSans-49"/>
       <use x="190.869141" xlink:href="#DejaVuSans-50"/>
      </g>
     </g>
    </g>
    <g id="xtick_4">
     <g id="line2d_4">
      <path clip-path="url(#pfe2eb5e2b4)" d="M 514.901604 168.94167 
L 514.901604 41.8 
" style="fill:none;stroke:#dddddd;stroke-linecap:round;stroke-width:0.5;"/>
     </g>
     <g id="text_4">
      <!-- 2016 -->
      <defs>
       <path d="M 33.015625 40.375 
Q 26.375 40.375 22.484375 35.828125 
Q 18.609375 31.296875 18.609375 23.390625 
Q 18.609375 15.53125 22.484375 10.953125 
Q 26.375 6.390625 33.015625 6.390625 
Q 39.65625 6.390625 43.53125 10.953125 
Q 47.40625 15.53125 47.40625 23.390625 
Q 47.40625 31.296875 43.53125 35.828125 
Q 39.65625 40.375 33.015625 40.375 
z
M 52.59375 71.296875 
L 52.59375 62.3125 
Q 48.875 64.0625 45.09375 64.984375 
Q 41.3125 65.921875 37.59375 65.921875 
Q 27.828125 65.921875 22.671875 59.328125 
Q 17.53125 52.734375 16.796875 39.40625 
Q 19.671875 43.65625 24.015625 45.921875 
Q 28.375 48.1875 33.59375 48.1875 
Q 44.578125 48.1875 50.953125 41.515625 
Q 57.328125 34.859375 57.328125 23.390625 
Q 57.328125 12.15625 50.6875 5.359375 
Q 44.046875 -1.421875 33.015625 -1.421875 
Q 20.359375 -1.421875 13.671875 8.265625 
Q 6.984375 17.96875 6.984375 36.375 
Q 6.984375 53.65625 15.1875 63.9375 
Q 23.390625 74.21875 37.203125 74.21875 
Q 40.921875 74.21875 44.703125 73.484375 
Q 48.484375 72.75 52.59375 71.296875 
z
" id="DejaVuSans-54"/>
      </defs>
      <g style="fill:#666666;" transform="translate(486.974574 201.801252)rotate(-30)scale(0.121 -0.121)">
       <use xlink:href="#DejaVuSans-50"/>
       <use x="63.623047" xlink:href="#DejaVuSans-48"/>
       <use x="127.246094" xlink:href="#DejaVuSans-49"/>
       <use x="190.869141" xlink:href="#DejaVuSans-54"/>
      </g>
     </g>
    </g>
    <g id="xtick_5">
     <g id="line2d_5">
      <path clip-path="url(#pfe2eb5e2b4)" d="M 625.835973 168.94167 
L 625.835973 41.8 
" style="fill:none;stroke:#dddddd;stroke-linecap:round;stroke-width:0.5;"/>
     </g>
     <g id="text_5">
      <!-- 2020 -->
      <g style="fill:#666666;" transform="translate(597.908943 201.801252)rotate(-30)scale(0.121 -0.121)">
       <use xlink:href="#DejaVuSans-50"/>
       <use x="63.623047" xlink:href="#DejaVuSans-48"/>
       <use x="127.246094" xlink:href="#DejaVuSans-50"/>
       <use x="190.869141" xlink:href="#DejaVuSans-48"/>
      </g>
     </g>
    </g>
   </g>
   <g id="matplotlib.axis_2">
    <g id="ytick_1">
     <g id="line2d_6">
      <path clip-path="url(#pfe2eb5e2b4)" d="M 79.6 163.162503 
L 709.2 163.162503 
" style="fill:none;stroke:#dddddd;stroke-linecap:round;stroke-width:0.5;"/>
     </g>
     <g id="text_6">
      <!-- 0.00 -->
      <defs>
       <path d="M 10.6875 12.40625 
L 21 12.40625 
L 21 0 
L 10.6875 0 
z
" id="DejaVuSans-46"/>
      </defs>
      <g style="fill:#666666;" transform="translate(43.158594 167.759558)scale(0.121 -0.121)">
       <use xlink:href="#DejaVuSans-48"/>
       <use x="63.623047" xlink:href="#DejaVuSans-46"/>
       <use x="95.410156" xlink:href="#DejaVuSans-48"/>
       <use x="159.033203" xlink:href="#DejaVuSans-48"/>
      </g>
     </g>
    </g>
    <g id="ytick_2">
     <g id="line2d_7">
      <path clip-path="url(#pfe2eb5e2b4)" d="M 79.6 137.723096 
L 709.2 137.723096 
" style="fill:none;stroke:#dddddd;stroke-linecap:round;stroke-width:0.5;"/>
     </g>
     <g id="text_7">
      <!-- 0.25 -->
      <defs>
       <path d="M 10.796875 72.90625 
L 49.515625 72.90625 
L 49.515625 64.59375 
L 19.828125 64.59375 
L 19.828125 46.734375 
Q 21.96875 47.46875 24.109375 47.828125 
Q 26.265625 48.1875 28.421875 48.1875 
Q 40.625 48.1875 47.75 41.5 
Q 54.890625 34.8125 54.890625 23.390625 
Q 54.890625 11.625 47.5625 5.09375 
Q 40.234375 -1.421875 26.90625 -1.421875 
Q 22.3125 -1.421875 17.546875 -0.640625 
Q 12.796875 0.140625 7.71875 1.703125 
L 7.71875 11.625 
Q 12.109375 9.234375 16.796875 8.0625 
Q 21.484375 6.890625 26.703125 6.890625 
Q 35.15625 6.890625 40.078125 11.328125 
Q 45.015625 15.765625 45.015625 23.390625 
Q 45.015625 31 40.078125 35.4375 
Q 35.15625 39.890625 26.703125 39.890625 
Q 22.75 39.890625 18.8125 39.015625 
Q 14.890625 38.140625 10.796875 36.28125 
z
" id="DejaVuSans-53"/>
      </defs>
      <g style="fill:#666666;" transform="translate(43.158594 142.32015)scale(0.121 -0.121)">
       <use xlink:href="#DejaVuSans-48"/>
       <use x="63.623047" xlink:href="#DejaVuSans-46"/>
       <use x="95.410156" xlink:href="#DejaVuSans-50"/>
       <use x="159.033203" xlink:href="#DejaVuSans-53"/>
      </g>
     </g>
    </g>
    <g id="ytick_3">
     <g id="line2d_8">
      <path clip-path="url(#pfe2eb5e2b4)" d="M 79.6 112.283688 
L 709.2 112.283688 
" style="fill:none;stroke:#dddddd;stroke-linecap:round;stroke-width:0.5;"/>
     </g>
     <g id="text_8">
      <!-- 0.50 -->
      <g style="fill:#666666;" transform="translate(43.158594 116.880743)scale(0.121 -0.121)">
       <use xlink:href="#DejaVuSans-48"/>
       <use x="63.623047" xlink:href="#DejaVuSans-46"/>
       <use x="95.410156" xlink:href="#DejaVuSans-53"/>
       <use x="159.033203" xlink:href="#DejaVuSans-48"/>
      </g>
     </g>
    </g>
    <g id="ytick_4">
     <g id="line2d_9">
      <path clip-path="url(#pfe2eb5e2b4)" d="M 79.6 86.844281 
L 709.2 86.844281 
" style="fill:none;stroke:#dddddd;stroke-linecap:round;stroke-width:0.5;"/>
     </g>
     <g id="text_9">
      <!-- 0.75 -->
      <defs>
       <path d="M 8.203125 72.90625 
L 55.078125 72.90625 
L 55.078125 68.703125 
L 28.609375 0 
L 18.3125 0 
L 43.21875 64.59375 
L 8.203125 64.59375 
z
" id="DejaVuSans-55"/>
      </defs>
      <g style="fill:#666666;" transform="translate(43.158594 91.441336)scale(0.121 -0.121)">
       <use xlink:href="#DejaVuSans-48"/>
       <use x="63.623047" xlink:href="#DejaVuSans-46"/>
       <use x="95.410156" xlink:href="#DejaVuSans-55"/>
       <use x="159.033203" xlink:href="#DejaVuSans-53"/>
      </g>
     </g>
    </g>
    <g id="ytick_5">
     <g id="line2d_10">
      <path clip-path="url(#pfe2eb5e2b4)" d="M 79.6 61.404874 
L 709.2 61.404874 
" style="fill:none;stroke:#dddddd;stroke-linecap:round;stroke-width:0.5;"/>
     </g>
     <g id="text_10">
      <!-- 1.00 -->
      <g style="fill:#666666;" transform="translate(43.158594 66.001929)scale(0.121 -0.121)">
       <use xlink:href="#DejaVuSans-49"/>
       <use x="63.623047" xlink:href="#DejaVuSans-46"/>
       <use x="95.410156" xlink:href="#DejaVuSans-48"/>
       <use x="159.033203" xlink:href="#DejaVuSans-48"/>
      </g>
     </g>
    </g>
    <g id="text_11">
     <!-- Volatility -->
     <defs>
      <path d="M 0.484375 72.90625 
L 19.390625 72.90625 
L 38.71875 19.09375 
L 58.015625 72.90625 
L 76.90625 72.90625 
L 49.90625 0 
L 27.484375 0 
z
" id="DejaVuSans-Bold-86"/>
      <path d="M 34.421875 43.5 
Q 28.609375 43.5 25.5625 39.328125 
Q 22.515625 35.15625 22.515625 27.296875 
Q 22.515625 19.4375 25.5625 15.25 
Q 28.609375 11.078125 34.421875 11.078125 
Q 40.140625 11.078125 43.15625 15.25 
Q 46.1875 19.4375 46.1875 27.296875 
Q 46.1875 35.15625 43.15625 39.328125 
Q 40.140625 43.5 34.421875 43.5 
z
M 34.421875 56 
Q 48.53125 56 56.46875 48.375 
Q 64.40625 40.765625 64.40625 27.296875 
Q 64.40625 13.8125 56.46875 6.1875 
Q 48.53125 -1.421875 34.421875 -1.421875 
Q 20.265625 -1.421875 12.28125 6.1875 
Q 4.296875 13.8125 4.296875 27.296875 
Q 4.296875 40.765625 12.28125 48.375 
Q 20.265625 56 34.421875 56 
z
" id="DejaVuSans-Bold-111"/>
      <path d="M 8.40625 75.984375 
L 25.875 75.984375 
L 25.875 0 
L 8.40625 0 
z
" id="DejaVuSans-Bold-108"/>
      <path d="M 32.90625 24.609375 
Q 27.4375 24.609375 24.671875 22.75 
Q 21.921875 20.90625 21.921875 17.28125 
Q 21.921875 13.96875 24.140625 12.078125 
Q 26.375 10.203125 30.328125 10.203125 
Q 35.25 10.203125 38.625 13.734375 
Q 42 17.28125 42 22.609375 
L 42 24.609375 
z
M 59.625 31.203125 
L 59.625 0 
L 42 0 
L 42 8.109375 
Q 38.484375 3.125 34.078125 0.84375 
Q 29.6875 -1.421875 23.390625 -1.421875 
Q 14.890625 -1.421875 9.59375 3.53125 
Q 4.296875 8.5 4.296875 16.40625 
Q 4.296875 26.03125 10.90625 30.515625 
Q 17.53125 35.015625 31.6875 35.015625 
L 42 35.015625 
L 42 36.375 
Q 42 40.53125 38.71875 42.453125 
Q 35.453125 44.390625 28.515625 44.390625 
Q 22.90625 44.390625 18.0625 43.265625 
Q 13.234375 42.140625 9.078125 39.890625 
L 9.078125 53.21875 
Q 14.703125 54.59375 20.359375 55.296875 
Q 26.03125 56 31.6875 56 
Q 46.484375 56 53.046875 50.171875 
Q 59.625 44.34375 59.625 31.203125 
z
" id="DejaVuSans-Bold-97"/>
      <path d="M 27.484375 70.21875 
L 27.484375 54.6875 
L 45.515625 54.6875 
L 45.515625 42.1875 
L 27.484375 42.1875 
L 27.484375 19 
Q 27.484375 15.1875 29 13.84375 
Q 30.515625 12.5 35.015625 12.5 
L 44 12.5 
L 44 0 
L 29 0 
Q 18.65625 0 14.328125 4.3125 
Q 10.015625 8.640625 10.015625 19 
L 10.015625 42.1875 
L 1.3125 42.1875 
L 1.3125 54.6875 
L 10.015625 54.6875 
L 10.015625 70.21875 
z
" id="DejaVuSans-Bold-116"/>
      <path d="M 8.40625 54.6875 
L 25.875 54.6875 
L 25.875 0 
L 8.40625 0 
z
M 8.40625 75.984375 
L 25.875 75.984375 
L 25.875 61.71875 
L 8.40625 61.71875 
z
" id="DejaVuSans-Bold-105"/>
      <path d="M 1.21875 54.6875 
L 18.703125 54.6875 
L 33.40625 17.578125 
L 45.90625 54.6875 
L 63.375 54.6875 
L 40.375 -5.171875 
Q 36.921875 -14.3125 32.296875 -17.9375 
Q 27.6875 -21.578125 20.125 -21.578125 
L 10.015625 -21.578125 
L 10.015625 -10.109375 
L 15.484375 -10.109375 
Q 19.921875 -10.109375 21.9375 -8.6875 
Q 23.96875 -7.28125 25.09375 -3.609375 
L 25.59375 -2.09375 
z
" id="DejaVuSans-Bold-121"/>
     </defs>
     <g transform="translate(14.050625 135.729897)rotate(-90)scale(0.12 -0.12)">
      <use xlink:href="#DejaVuSans-Bold-86"/>
      <use x="71.892578" xlink:href="#DejaVuSans-Bold-111"/>
      <use x="140.59375" xlink:href="#DejaVuSans-Bold-108"/>
      <use x="174.871094" xlink:href="#DejaVuSans-Bold-97"/>
      <use x="242.351562" xlink:href="#DejaVuSans-Bold-116"/>
      <use x="290.154297" xlink:href="#DejaVuSans-Bold-105"/>
      <use x="324.431641" xlink:href="#DejaVuSans-Bold-108"/>
      <use x="358.708984" xlink:href="#DejaVuSans-Bold-105"/>
      <use x="392.986328" xlink:href="#DejaVuSans-Bold-116"/>
      <use x="440.789062" xlink:href="#DejaVuSans-Bold-121"/>
     </g>
    </g>
   </g>
   <g id="line2d_11">
    <path clip-path="url(#pfe2eb5e2b4)" d="M 108.218182 55.090422 
L 108.294112 54.615738 
L 108.521904 54.603697 
L 108.597834 54.427685 
L 108.749695 53.801687 
L 109.58493 53.617879 
L 109.66086 53.608473 
L 109.888651 51.95509 
L 110.420164 50.590929 
L 110.647956 50.603501 
L 110.799817 49.688945 
L 111.179469 49.667005 
L 111.33133 49.669137 
L 111.786912 48.654334 
L 112.318425 48.53055 
L 112.470286 48.898198 
L 112.546217 49.036731 
L 113.001799 49.04316 
L 113.07773 48.076896 
L 113.305521 47.891845 
L 113.457382 47.669852 
L 113.533312 47.579167 
L 113.988895 58.95667 
L 114.064825 58.626601 
L 114.140756 58.687431 
L 114.368547 58.415749 
L 114.444478 58.673254 
L 114.596339 58.154833 
L 114.672269 58.273215 
L 114.90006 58.844121 
L 114.975991 58.81175 
L 115.203782 57.940956 
L 115.431573 57.778326 
L 115.507504 58.181555 
L 115.583434 56.923904 
L 115.659365 56.937699 
L 115.963086 56.909398 
L 116.039017 60.124015 
L 116.114947 60.110437 
L 116.266808 60.121325 
L 117.253904 60.066168 
L 117.329834 59.972141 
L 117.785417 59.867311 
L 117.861347 59.973724 
L 119.683678 59.973724 
L 119.835539 59.509963 
L 119.9874 59.677853 
L 120.215191 59.809149 
L 120.291121 59.704195 
L 120.442982 58.725381 
L 120.822634 58.712139 
L 121.050426 58.425015 
L 121.885661 58.527266 
L 122.113452 60.644724 
L 122.569034 100.881435 
L 122.644965 101.058491 
L 122.872756 101.095054 
L 122.948687 99.196391 
L 123.024617 99.318211 
L 123.176478 99.635684 
L 123.4802 99.831784 
L 123.55613 100.617883 
L 123.935782 99.74997 
L 124.011713 100.445466 
L 124.239504 100.721241 
L 124.467295 100.42761 
L 124.771017 97.011627 
L 125.074739 97.02632 
L 125.30253 99.611895 
L 125.530322 100.106013 
L 125.606252 100.953377 
L 125.834043 98.763133 
L 126.061835 98.739948 
L 126.213695 100.312063 
L 126.289626 100.224131 
L 126.745209 100.065282 
L 126.897069 96.399715 
L 127.200791 96.275527 
L 127.428582 97.75132 
L 127.732304 97.585429 
L 127.884165 97.525016 
L 127.960096 95.410423 
L 128.339748 92.988872 
L 128.491609 92.888369 
L 128.7194 92.946054 
L 128.871261 91.086163 
L 128.947191 92.528816 
L 129.023122 92.143615 
L 129.326843 89.634316 
L 129.402774 89.884262 
L 129.478704 89.812874 
L 129.782426 89.808085 
L 130.086148 90.90951 
L 130.617661 87.919887 
L 130.921383 87.474956 
L 131.149174 87.561913 
L 131.528826 87.09048 
L 131.604757 87.873845 
L 131.680687 86.497837 
L 131.908478 88.728159 
L 131.984409 88.672396 
L 132.13627 88.472352 
L 132.667783 88.368897 
L 133.199296 87.058626 
L 133.503017 86.783397 
L 133.654878 81.810145 
L 133.730809 81.860422 
L 133.806739 82.037128 
L 134.034531 82.068202 
L 134.186391 82.561734 
L 134.338252 80.947846 
L 135.097557 80.947691 
L 135.249417 80.24315 
L 135.325348 80.749724 
L 135.780931 80.724219 
L 135.932791 81.886284 
L 136.236513 81.838472 
L 136.388374 79.265785 
L 136.464304 78.78827 
L 136.692096 78.870604 
L 136.843957 78.672337 
L 137.223609 78.664151 
L 137.37547 78.524407 
L 137.4514 78.439007 
L 137.527331 78.514393 
L 137.982913 78.571996 
L 138.058844 78.623473 
L 138.514426 78.704971 
L 138.590357 80.443781 
L 139.12187 80.704046 
L 139.349661 81.192134 
L 139.425592 82.08498 
L 139.501522 81.963634 
L 139.653383 81.558111 
L 139.881174 81.666212 
L 139.957105 82.477082 
L 140.108965 84.881707 
L 140.488618 84.908372 
L 140.564548 84.908372 
L 140.716409 85.033259 
L 140.9442 85.051655 
L 141.171992 86.860981 
L 141.247922 87.931036 
L 141.475713 87.931263 
L 141.779435 88.622771 
L 142.083157 92.646786 
L 142.310948 92.676294 
L 142.61467 92.921128 
L 142.6906 93.329313 
L 143.070253 89.925365 
L 143.146183 89.445942 
L 143.222113 91.23001 
L 143.373974 91.164406 
L 143.601766 91.449423 
L 143.753626 90.648173 
L 143.905487 92.363681 
L 144.133279 92.156119 
L 144.209209 92.349222 
L 144.36107 93.947545 
L 144.437 93.818638 
L 144.664792 93.849124 
L 144.968513 93.259865 
L 145.272235 93.259865 
L 145.348166 93.90627 
L 145.500027 96.597283 
L 145.727818 97.040512 
L 145.879679 98.811739 
L 146.03154 98.824035 
L 146.259331 99.292034 
L 146.411192 100.218305 
L 146.487122 100.255622 
L 146.563053 101.779824 
L 146.866774 101.826493 
L 147.018635 102.068245 
L 147.094566 102.107621 
L 147.322357 102.050789 
L 147.474218 101.83398 
L 147.550148 101.835091 
L 147.626079 102.400862 
L 147.85387 102.358587 
L 148.005731 103.126882 
L 148.157592 110.162292 
L 148.385383 110.578988 
L 148.537244 110.54992 
L 148.689105 109.607461 
L 148.916896 111.719471 
L 148.992827 111.672738 
L 149.144688 110.309356 
L 149.60027 110.27449 
L 149.676201 111.133263 
L 149.752131 110.318854 
L 149.979922 109.094548 
L 150.055853 109.240071 
L 150.131783 108.98443 
L 150.283644 108.238122 
L 150.587366 108.18649 
L 150.663296 112.06036 
L 150.739227 109.688675 
L 150.815157 110.39132 
L 151.118879 110.067002 
L 151.27074 108.479899 
L 151.34667 108.511764 
L 151.574462 108.847312 
L 151.650392 108.790325 
L 151.726322 108.269821 
L 152.105975 108.23121 
L 152.257835 105.974298 
L 152.637488 105.548621 
L 152.789349 105.083196 
L 153.169001 105.084286 
L 153.244931 104.882202 
L 153.396792 102.682615 
L 153.472722 102.593316 
L 153.776444 102.099649 
L 153.928305 102.33585 
L 154.004236 102.141225 
L 154.232027 102.285524 
L 154.307957 102.675877 
L 154.76354 95.904187 
L 154.915401 95.760929 
L 155.067262 95.588366 
L 155.370983 95.479362 
L 155.522844 94.631502 
L 156.054357 88.634618 
L 156.130288 88.634618 
L 156.43401 88.361044 
L 156.50994 88.244943 
L 156.661801 87.777999 
L 157.421105 87.74101 
L 157.648897 90.723304 
L 157.724827 93.072245 
L 158.18041 93.316841 
L 158.25634 93.829172 
L 158.560062 94.045873 
L 158.635992 94.000367 
L 158.787853 94.855703 
L 159.015644 95.769776 
L 159.243436 95.319341 
L 159.319366 95.424041 
L 159.547157 94.654017 
L 159.699018 94.867975 
L 159.850879 94.865328 
L 160.306462 90.533057 
L 160.382392 90.529833 
L 160.686114 90.267078 
L 160.913905 90.250489 
L 161.217627 90.255315 
L 161.369488 89.620772 
L 161.445418 89.461275 
L 161.74914 89.458889 
L 161.901001 88.903629 
L 161.976931 88.886705 
L 162.280653 88.369414 
L 162.356584 88.50322 
L 163.41961 87.882539 
L 163.49554 88.511389 
L 163.571471 87.291372 
L 163.799262 87.75193 
L 163.875192 87.552288 
L 163.951123 88.286141 
L 164.102984 87.517177 
L 164.558566 87.361999 
L 164.634497 87.882983 
L 164.938218 87.582533 
L 165.014149 87.687203 
L 165.16601 88.405698 
L 165.469732 86.696149 
L 165.545662 86.86104 
L 165.621592 86.848735 
L 165.697523 88.300861 
L 165.925314 88.293182 
L 166.077175 89.019278 
L 166.229036 89.339697 
L 166.456827 89.440137 
L 166.608688 88.679483 
L 166.684619 88.709729 
L 166.760549 89.322219 
L 166.98834 87.218798 
L 167.064271 87.290394 
L 167.216132 88.815348 
L 167.292062 88.871157 
L 167.519853 88.896376 
L 167.747645 89.498876 
L 168.051366 89.491242 
L 168.127297 89.666812 
L 168.279158 91.521683 
L 168.582879 91.470632 
L 168.886601 92.342442 
L 169.190323 92.109111 
L 169.266253 95.784679 
L 169.342184 94.684513 
L 169.797766 93.839646 
L 169.949627 93.934273 
L 170.253349 94.782693 
L 170.40521 101.336168 
L 170.48114 101.336168 
L 170.860793 101.546036 
L 170.936723 102.089785 
L 171.012653 101.992495 
L 171.240445 101.587112 
L 171.392306 101.034953 
L 171.923819 100.86733 
L 172.379401 100.716795 
L 172.531262 100.27462 
L 172.607193 100.325147 
L 173.062775 99.726251 
L 173.138706 99.812205 
L 173.442427 99.988389 
L 173.670219 100.855138 
L 173.89801 100.874307 
L 174.049871 101.167094 
L 174.201732 102.476654 
L 174.429523 102.381178 
L 174.505454 101.956454 
L 174.581384 100.6434 
L 174.657314 105.307209 
L 174.961036 105.281644 
L 175.036967 105.143308 
L 175.188828 104.375763 
L 175.264758 101.971214 
L 175.796271 101.690754 
L 176.024062 102.373526 
L 176.175923 102.386799 
L 176.555575 103.278007 
L 176.707436 103.162136 
L 176.783367 103.985895 
L 176.859297 103.852495 
L 177.087088 103.711025 
L 177.238949 102.173146 
L 177.31488 102.24845 
L 177.39081 102.251678 
L 177.694532 101.964973 
L 177.922323 102.165297 
L 178.150115 102.190227 
L 178.226045 103.864165 
L 178.301975 103.8551 
L 178.377906 104.189905 
L 178.681628 103.897252 
L 178.985349 104.827568 
L 179.289071 103.924026 
L 179.516862 103.707691 
L 179.820584 103.588636 
L 179.896515 103.330573 
L 179.972445 104.653766 
L 180.048376 104.558628 
L 180.276167 104.556501 
L 180.428028 104.404045 
L 180.579889 106.936252 
L 181.111402 106.474069 
L 181.491054 106.410016 
L 181.642915 106.518081 
L 181.946636 106.519349 
L 182.174428 107.459933 
L 182.478149 107.132662 
L 182.705941 107.140893 
L 182.933732 110.038477 
L 183.009663 109.941546 
L 183.161523 109.943996 
L 183.617106 109.519516 
L 183.768967 109.470408 
L 184.604202 109.470112 
L 184.831993 105.4673 
L 185.287576 105.339699 
L 185.363506 104.766634 
L 185.667228 104.264955 
L 185.743158 104.567511 
L 185.895019 103.386531 
L 186.12281 102.588006 
L 186.274671 106.692307 
L 186.426532 107.775296 
L 186.882115 107.853853 
L 186.958045 107.736527 
L 187.337697 105.656752 
L 187.489558 105.664889 
L 187.945141 105.024409 
L 188.248863 105.184261 
L 188.476654 105.482019 
L 188.780376 105.875607 
L 188.932237 106.445138 
L 189.995263 106.751115 
L 190.526776 107.349096 
L 190.678637 108.20365 
L 191.058289 107.983737 
L 191.134219 107.75334 
L 191.21015 105.909319 
L 191.665732 104.742603 
L 191.969454 102.641933 
L 192.045385 101.289017 
L 192.121315 101.657944 
L 192.197245 103.122278 
L 192.273176 103.090692 
L 192.576898 102.55893 
L 192.804689 106.620478 
L 193.336202 106.869527 
L 194.323298 106.93425 
L 194.627019 106.644782 
L 194.70295 106.174523 
L 194.77888 106.276561 
L 194.854811 106.394192 
L 194.930741 108.969965 
L 195.158533 108.918266 
L 195.234463 108.759593 
L 195.386324 109.041843 
L 195.765976 108.99264 
L 195.917837 108.973304 
L 195.993767 108.953915 
L 196.297489 108.166802 
L 196.37342 108.816469 
L 196.44935 108.420617 
L 196.52528 108.520256 
L 196.753072 108.576754 
L 196.980863 110.461215 
L 197.056793 110.595382 
L 197.360515 110.597585 
L 197.967959 110.273901 
L 198.11982 110.486872 
L 198.347611 110.766609 
L 198.423541 110.528371 
L 198.499472 110.776989 
L 198.651333 106.115812 
L 198.955054 106.08124 
L 199.106915 105.90432 
L 199.182846 106.35666 
L 199.94215 106.44779 
L 200.018081 107.023477 
L 200.169941 106.23834 
L 200.245872 106.12998 
L 200.625524 105.120592 
L 200.777385 103.326214 
L 201.081107 104.754314 
L 201.232968 104.624756 
L 201.308898 106.731059 
L 201.536689 106.621479 
L 201.68855 107.057885 
L 201.840411 107.881372 
L 202.144133 109.465864 
L 202.295994 108.879858 
L 202.827507 107.63141 
L 202.903437 107.207645 
L 203.131228 107.273023 
L 203.207159 109.181328 
L 203.35902 109.126978 
L 203.43495 108.780352 
L 203.738672 109.13864 
L 203.966463 109.261889 
L 204.270185 109.13479 
L 204.346115 109.073438 
L 204.422046 108.571312 
L 204.497976 106.772212 
L 204.801698 106.694273 
L 204.953559 105.986966 
L 205.333211 105.963741 
L 205.409142 105.492088 
L 206.016585 104.372324 
L 206.472168 103.404503 
L 206.548098 103.500406 
L 206.85182 103.424255 
L 207.003681 103.728614 
L 207.155542 105.509497 
L 207.383333 105.988709 
L 207.611124 105.738273 
L 207.914846 106.218893 
L 208.218568 109.54526 
L 208.446359 109.321773 
L 208.67415 110.215924 
L 208.750081 110.179789 
L 208.977872 110.169923 
L 209.129733 109.672789 
L 209.205663 109.801665 
L 209.737176 109.641868 
L 210.040898 108.858827 
L 210.116829 106.851588 
L 210.648342 106.850553 
L 210.800203 107.603093 
L 210.876133 107.5722 
L 211.255785 107.584109 
L 211.407646 107.263498 
L 211.711368 107.186652 
L 211.939159 107.55406 
L 212.698464 107.614265 
L 212.850324 108.479837 
L 213.002185 108.937852 
L 213.913351 108.991519 
L 214.065211 108.304566 
L 214.293003 108.499926 
L 214.368933 108.061272 
L 214.444864 108.088585 
L 214.520794 108.149816 
L 214.596724 107.957202 
L 214.824516 107.919504 
L 214.976377 108.046639 
L 215.128238 112.778405 
L 215.356029 112.66557 
L 215.50789 112.107512 
L 215.58382 112.280964 
L 215.659751 112.245202 
L 215.887542 112.245226 
L 216.039403 111.813766 
L 216.494985 111.514788 
L 216.646846 110.375591 
L 216.722777 110.290094 
L 217.25429 112.127089 
L 217.482081 112.300779 
L 217.633942 112.833223 
L 217.709872 112.105414 
L 217.785803 110.21039 
L 218.013594 110.445409 
L 218.165455 110.287197 
L 218.317316 110.459954 
L 219.07662 110.500317 
L 219.152551 111.121701 
L 219.228481 110.014538 
L 219.380342 110.693199 
L 219.835925 111.665224 
L 219.911855 111.575168 
L 220.367438 111.188161 
L 220.74709 111.278446 
L 220.974881 111.459096 
L 221.354533 112.031615 
L 221.506394 113.856048 
L 221.886046 113.884554 
L 221.961977 114.666055 
L 222.037907 114.629302 
L 222.41756 114.640784 
L 222.56942 115.958781 
L 222.873142 116.037004 
L 223.100933 116.610989 
L 223.480586 118.002059 
L 223.556516 117.838297 
L 223.632447 117.901649 
L 224.16396 117.999108 
L 224.391751 118.495986 
L 224.467681 118.418615 
L 224.543612 118.424067 
L 224.619542 118.895297 
L 224.695473 118.876866 
L 225.075125 118.567416 
L 225.454777 118.495671 
L 225.606638 118.260764 
L 225.682568 118.799844 
L 225.98629 118.845582 
L 226.062221 118.189916 
L 226.138151 118.548053 
L 226.214081 117.85002 
L 226.517803 120.493612 
L 226.593734 120.436299 
L 226.745594 120.104374 
L 227.125247 120.25742 
L 227.277108 120.426792 
L 227.353038 120.760679 
L 227.884551 121.044476 
L 229.175368 121.018054 
L 229.40316 119.416946 
L 229.706881 119.415884 
L 229.934673 118.586347 
L 230.010603 119.113317 
L 230.238395 119.370349 
L 230.466186 120.14849 
L 230.997699 120.252453 
L 231.301421 120.391875 
L 231.377351 120.380043 
L 231.453282 120.23455 
L 231.908864 122.263829 
L 232.060725 122.310355 
L 232.136655 122.184751 
L 232.668169 122.763537 
L 232.97189 124.178913 
L 233.123751 124.084401 
L 233.199682 124.13095 
L 233.655264 124.152705 
L 233.731195 125.806541 
L 233.958986 127.239351 
L 234.110847 130.339661 
L 234.262708 129.472161 
L 234.64236 129.867399 
L 235.249803 129.865341 
L 235.325734 131.630449 
L 235.781316 131.727379 
L 236.085038 131.913505 
L 236.31283 133.443019 
L 237.299925 133.502303 
L 237.451786 133.62195 
L 237.831438 133.942072 
L 237.983299 134.03057 
L 238.362951 133.655082 
L 238.514812 133.246062 
L 238.818534 132.855373 
L 238.970395 131.403159 
L 239.046325 127.334549 
L 239.350047 127.256866 
L 239.425977 127.209795 
L 239.577838 126.01504 
L 239.88156 126.011965 
L 239.957491 126.234733 
L 240.109351 124.946842 
L 240.489004 125.144449 
L 240.640864 125.480605 
L 240.868656 125.219888 
L 240.944586 125.488043 
L 241.020517 125.441068 
L 241.172378 125.563941 
L 241.55203 125.505887 
L 241.703891 126.249181 
L 242.083543 127.347456 
L 242.159473 127.464273 
L 242.235404 127.891628 
L 242.994708 127.854745 
L 243.146569 126.533857 
L 243.29843 126.435144 
L 244.133665 126.395569 
L 244.285525 126.214261 
L 244.665178 126.281746 
L 244.741108 126.369562 
L 244.892969 128.109825 
L 245.196691 128.06402 
L 245.348552 129.00956 
L 245.652273 129.02302 
L 245.804134 126.429301 
L 246.183786 126.331504 
L 246.335647 126.51682 
L 246.411578 126.469297 
L 246.487508 126.252302 
L 246.86716 126.304369 
L 247.019021 125.382864 
L 247.322743 125.50451 
L 247.398673 125.7193 
L 247.474604 125.610206 
L 247.550534 124.511487 
L 247.854256 124.445 
L 247.930186 122.865487 
L 248.082047 123.065257 
L 248.4617 122.921178 
L 248.993213 122.663782 
L 249.145073 123.044147 
L 249.448795 122.508573 
L 249.524726 122.563777 
L 249.676587 123.339982 
L 250.056239 123.337704 
L 250.132169 123.146457 
L 250.2081 123.180221 
L 250.511821 123.1661 
L 250.663682 122.875132 
L 250.967404 122.802288 
L 251.119265 122.08884 
L 251.650778 117.050487 
L 251.726708 117.04897 
L 251.802639 116.525024 
L 252.106361 116.194205 
L 252.334152 108.64889 
L 252.637874 108.631867 
L 253.093456 107.388627 
L 253.321247 107.185488 
L 253.397178 106.153661 
L 253.624969 106.150406 
L 253.77683 105.033877 
L 253.852761 104.941937 
L 253.928691 105.070081 
L 254.232413 104.959559 
L 254.384274 105.830124 
L 254.460204 108.233624 
L 254.687995 108.195112 
L 254.915787 99.128774 
L 255.219508 99.100811 
L 255.4473 99.755293 
L 255.52323 99.75036 
L 255.751021 99.601812 
L 255.902882 100.195245 
L 256.054743 100.221007 
L 256.358465 100.301512 
L 256.510326 99.870698 
L 256.586256 100.027486 
L 256.814048 100.013863 
L 256.965908 99.10796 
L 257.117769 99.280518 
L 257.573352 99.229305 
L 257.649282 99.099546 
L 257.953004 98.358561 
L 258.104865 98.407221 
L 258.712309 97.230192 
L 259.091961 97.160967 
L 259.243822 96.118524 
L 259.471613 96.115605 
L 259.623474 95.730194 
L 259.775335 95.850584 
L 260.154987 95.601751 
L 260.534639 94.640154 
L 260.610569 94.676774 
L 260.76243 93.891302 
L 260.838361 93.933575 
L 261.066152 95.29049 
L 261.142083 95.262331 
L 261.597665 95.291864 
L 261.749526 94.948051 
L 261.901387 95.249051 
L 262.205109 95.297964 
L 262.4329 95.940899 
L 262.736622 93.974867 
L 262.812552 93.966855 
L 262.964413 94.293404 
L 263.192204 93.700851 
L 263.268135 94.466604 
L 263.344065 94.407213 
L 263.875578 94.282037 
L 264.027439 94.243554 
L 264.483022 94.176332 
L 264.558952 94.093133 
L 264.862674 94.061851 
L 265.090465 93.842 
L 265.9257 93.770914 
L 266.077561 93.52663 
L 266.457213 93.740386 
L 266.533144 93.592051 
L 266.685004 96.234242 
L 266.912796 96.168825 
L 266.988726 96.439332 
L 267.216518 96.660773 
L 267.444309 102.41487 
L 267.520239 102.41003 
L 267.59617 102.417143 
L 267.975822 103.564007 
L 268.203613 103.72952 
L 268.279544 104.673323 
L 268.507335 104.628061 
L 268.659196 104.858885 
L 268.811057 105.433055 
L 269.114778 105.419793 
L 269.34257 105.625409 
L 269.798152 105.680955 
L 270.253735 116.280209 
L 270.633387 116.30059 
L 270.785248 116.137236 
L 270.937109 116.347618 
L 271.240831 116.558627 
L 271.468622 115.97239 
L 271.696413 116.015949 
L 271.848274 116.682129 
L 272.000135 116.734342 
L 272.227926 118.114911 
L 272.379787 117.653746 
L 272.83537 117.585907 
L 273.290953 116.464208 
L 273.366883 116.762519 
L 273.518744 117.822599 
L 273.594674 117.464971 
L 273.822466 117.454708 
L 273.898396 117.641593 
L 274.126187 120.088959 
L 274.429909 119.499189 
L 274.58177 119.000252 
L 274.6577 119.059717 
L 274.961422 120.777068 
L 275.037353 120.799187 
L 275.189213 119.363817 
L 275.417005 119.125159 
L 275.492935 118.701517 
L 275.568866 118.727441 
L 275.644796 118.816467 
L 275.948518 118.052339 
L 276.176309 119.43355 
L 276.25224 119.394235 
L 276.555961 120.503384 
L 276.631892 120.389653 
L 276.707822 120.361859 
L 276.783753 120.491806 
L 277.543057 120.764964 
L 277.618987 121.278566 
L 277.694918 121.073766 
L 277.770848 120.951219 
L 277.846779 120.565363 
L 278.302361 120.620235 
L 278.378292 123.499557 
L 278.757944 123.527729 
L 278.833874 123.978907 
L 278.909805 125.340525 
L 279.365387 124.385375 
L 279.441318 124.459234 
L 279.82097 124.762983 
L 279.972831 124.603782 
L 280.352483 125.389054 
L 280.504344 124.571528 
L 280.732135 124.634908 
L 280.959927 120.391659 
L 281.263648 120.275957 
L 281.415509 119.679355 
L 281.49144 119.640498 
L 281.56737 120.09512 
L 281.871092 120.09512 
L 281.947022 120.604238 
L 282.098883 120.599322 
L 282.326675 121.017027 
L 282.478535 122.484461 
L 282.554466 122.475863 
L 282.630396 122.595052 
L 283.085979 122.509669 
L 283.389701 122.321641 
L 283.693422 116.053448 
L 284.452727 116.09697 
L 284.528657 116.489406 
L 284.604588 116.46813 
L 284.98424 116.430565 
L 285.287962 116.249592 
L 285.743544 116.129602 
L 285.819475 116.069664 
L 286.047266 115.015417 
L 286.199127 114.86748 
L 286.275057 115.076376 
L 286.350988 114.910702 
L 286.73064 114.890787 
L 286.882501 115.418872 
L 287.338083 115.248359 
L 287.717736 113.805812 
L 287.793666 113.955162 
L 288.173318 113.663424 
L 288.47704 114.276894 
L 288.780762 114.345508 
L 288.856692 113.942975 
L 288.932623 113.958541 
L 289.008553 113.777859 
L 289.388205 113.704354 
L 289.540066 114.780318 
L 290.29937 114.831263 
L 290.451231 116.664394 
L 290.603092 117.399106 
L 290.982744 117.607187 
L 291.058675 117.081289 
L 291.134605 117.11061 
L 291.362397 117.182261 
L 291.438327 116.608951 
L 291.514257 116.621785 
L 291.590188 116.718428 
L 291.96984 116.146482 
L 292.045771 116.139654 
L 292.425423 110.690111 
L 292.577284 110.660531 
L 292.653214 110.059505 
L 292.729144 110.140029 
L 293.184727 110.71028 
L 293.260658 110.449975 
L 293.71624 110.556032 
L 293.792171 110.624467 
L 294.323684 110.669228 
L 294.703336 111.298564 
L 295.082988 111.306814 
L 295.234849 111.417478 
L 295.38671 111.351153 
L 295.614501 111.652572 
L 295.842292 110.249748 
L 295.918223 112.079224 
L 296.146014 112.097059 
L 296.221945 113.972213 
L 296.373805 114.144465 
L 296.449736 114.857391 
L 297.20904 114.816385 
L 297.284971 114.758833 
L 297.360901 114.864939 
L 297.436832 114.564629 
L 297.512762 112.113318 
L 298.044275 111.944351 
L 298.272066 111.950458 
L 298.347997 112.081073 
L 298.575788 117.182264 
L 298.87951 117.773876 
L 299.031371 117.807376 
L 299.335093 117.564995 
L 299.638814 117.776803 
L 299.866606 117.759956 
L 300.018466 117.431199 
L 300.094397 117.507784 
L 300.170327 117.711164 
L 300.474049 117.671725 
L 300.62591 116.672302 
L 300.70184 115.398177 
L 301.005562 115.447347 
L 301.157423 116.757712 
L 301.233353 116.595949 
L 301.461145 116.824834 
L 301.688936 116.010814 
L 302.29638 116.115811 
L 302.600101 117.4129 
L 302.676032 117.271747 
L 302.751962 117.325887 
L 302.827893 117.646057 
L 303.131614 117.042096 
L 303.283475 117.273228 
L 303.663127 117.276843 
L 303.739058 117.883302 
L 303.814988 117.85298 
L 303.890919 117.867668 
L 304.802084 115.902561 
L 305.257667 115.761166 
L 305.409527 114.592751 
L 305.485458 112.231811 
L 306.016971 111.674428 
L 306.320693 112.698383 
L 306.396623 112.391896 
L 306.548484 111.299235 
L 306.928136 111.828042 
L 307.004067 111.829642 
L 307.307788 111.986305 
L 307.53558 113.641703 
L 307.61151 118.126197 
L 307.839301 118.171028 
L 307.915232 118.845907 
L 308.446745 118.955458 
L 308.598606 119.272643 
L 309.054188 119.214664 
L 309.130119 119.201312 
L 309.433841 118.753698 
L 309.585702 116.915892 
L 309.661632 116.775518 
L 309.737562 116.308456 
L 310.269075 115.915946 
L 310.496867 115.219704 
L 310.572797 114.243308 
L 310.648728 114.254104 
L 310.800589 116.069459 
L 311.02838 113.969633 
L 311.10431 114.012297 
L 312.395128 114.089618 
L 312.698849 114.123265 
L 312.85071 114.419176 
L 312.926641 117.047353 
L 313.913736 117.318499 
L 314.976763 117.318499 
L 315.052693 117.520029 
L 315.356415 117.540193 
L 315.508276 117.948737 
L 315.887928 117.962702 
L 316.039789 118.245671 
L 316.419441 118.343612 
L 316.571302 119.432123 
L 316.647232 120.861812 
L 317.102815 120.903956 
L 317.178745 118.60605 
L 317.482467 118.783733 
L 317.93805 119.395855 
L 318.01398 119.703878 
L 318.697354 119.799676 
L 318.773284 119.336571 
L 319.152937 118.834629 
L 319.228867 117.742028 
L 319.304798 117.928157 
L 319.68445 117.86113 
L 319.836311 118.549422 
L 320.064102 118.550656 
L 320.215963 119.045725 
L 320.899337 119.164652 
L 321.127128 119.292898 
L 321.203058 120.022631 
L 321.43085 114.472629 
L 321.810502 113.901541 
L 321.962363 114.008736 
L 322.342015 115.118446 
L 322.493876 118.11747 
L 322.873528 118.288186 
L 322.949459 118.160201 
L 323.025389 117.770971 
L 323.25318 117.683352 
L 323.329111 117.882813 
L 323.405041 119.053443 
L 323.480972 118.955065 
L 323.784693 118.955104 
L 323.936554 117.114205 
L 324.088415 116.955979 
L 324.543998 115.087823 
L 325.986676 115.155414 
L 326.062606 115.314088 
L 326.138537 115.222464 
L 326.214467 116.808569 
L 326.442259 116.764925 
L 326.594119 111.077671 
L 326.67005 111.572949 
L 326.74598 111.543913 
L 327.125633 110.165741 
L 327.277493 110.267322 
L 327.505285 108.962562 
L 327.581215 109.012412 
L 327.657146 109.480799 
L 327.809006 107.562882 
L 328.036798 107.481453 
L 328.112728 109.215243 
L 328.188659 108.986331 
L 328.796102 105.345063 
L 329.327615 105.3392 
L 329.403546 103.528533 
L 330.314711 102.092615 
L 330.466572 100.901569 
L 330.998085 100.856319 
L 331.377737 100.712152 
L 331.529598 100.087017 
L 331.985181 98.165985 
L 332.364833 93.108962 
L 332.820415 93.044029 
L 332.972276 92.752096 
L 333.124137 92.66007 
L 333.427859 90.545357 
L 333.57972 92.066764 
L 333.65565 92.021471 
L 334.035302 92.0266 
L 334.187163 91.893645 
L 334.414955 91.905216 
L 334.566815 92.185076 
L 334.946468 92.404958 
L 335.022398 92.288 
L 335.174259 93.27845 
L 335.250189 93.414514 
L 335.705772 78.301441 
L 336.616937 78.303418 
L 336.692868 78.295997 
L 336.768798 78.460318 
L 336.844729 79.471996 
L 337.07252 79.463111 
L 337.224381 81.126458 
L 337.604033 81.243961 
L 338.439268 81.244533 
L 338.667059 81.363984 
L 338.89485 81.679339 
L 339.198572 81.695703 
L 339.350433 82.200074 
L 339.806016 83.061002 
L 339.881946 82.798688 
L 340.033807 82.710069 
L 341.096833 82.708925 
L 341.400555 82.422097 
L 341.476485 82.424425 
L 341.628346 82.683405 
L 341.932068 82.729115 
L 342.083929 87.032288 
L 342.38765 87.958372 
L 342.463581 87.940756 
L 342.539511 87.807542 
L 342.691372 89.045851 
L 342.995094 89.346388 
L 343.146955 90.411698 
L 343.222885 90.400261 
L 343.450677 90.592878 
L 343.526607 90.482539 
L 343.602537 91.086881 
L 343.678468 91.03148 
L 343.754398 90.007854 
L 344.05812 90.280073 
L 344.285911 90.261621 
L 344.589633 89.681395 
L 344.741494 91.26037 
L 345.197077 91.41168 
L 345.348938 92.052798 
L 345.72859 93.004427 
L 345.880451 92.439531 
L 346.108242 92.442453 
L 346.411964 92.006706 
L 346.639755 92.594816 
L 346.715685 92.38381 
L 346.867546 94.0349 
L 346.943477 94.013061 
L 347.171268 98.772662 
L 347.247198 98.583156 
L 347.323129 98.621935 
L 347.47499 97.994844 
L 347.702781 97.888685 
L 347.854642 98.254792 
L 348.310225 98.326091 
L 348.462085 100.586941 
L 348.993598 100.77672 
L 349.069529 100.687254 
L 349.29732 100.865069 
L 349.449181 100.543497 
L 349.525112 100.588294 
L 349.601042 100.514467 
L 349.904764 100.522743 
L 350.056625 100.059935 
L 350.132555 98.847406 
L 350.360346 98.837577 
L 350.512207 121.619649 
L 350.588138 120.70822 
L 350.664068 120.96476 
L 351.575233 121.062404 
L 351.727094 121.092511 
L 352.106746 121.665184 
L 352.182677 121.445537 
L 352.258607 121.901947 
L 352.486399 121.889688 
L 352.71419 120.237188 
L 352.79012 120.233852 
L 353.093842 118.784046 
L 353.245703 118.684402 
L 353.321633 117.510007 
L 353.549425 117.504917 
L 353.625355 117.913402 
L 353.701286 117.865075 
L 354.308729 117.87259 
L 354.38466 118.633492 
L 354.688381 118.630155 
L 355.295825 120.258374 
L 355.979199 120.195831 
L 356.28292 120.587465 
L 356.434781 120.586361 
L 356.510712 120.853269 
L 356.738503 120.853269 
L 356.890364 121.096923 
L 357.270016 121.322643 
L 357.421877 121.193225 
L 357.497807 121.672841 
L 357.573738 121.568088 
L 357.801529 121.373429 
L 357.87746 118.169655 
L 357.95339 118.181063 
L 358.333042 118.302824 
L 358.408973 118.452761 
L 358.636764 122.730949 
L 358.940486 122.787289 
L 359.016416 122.389873 
L 359.168277 115.137574 
L 359.471999 116.277311 
L 359.547929 116.361036 
L 359.62386 116.144193 
L 359.69979 116.282285 
L 360.003512 116.245173 
L 360.459095 115.422736 
L 360.610955 115.466631 
L 360.686886 115.270521 
L 360.990608 115.86768 
L 361.066538 115.675372 
L 361.294329 116.257944 
L 361.522121 116.494252 
L 361.598051 116.060135 
L 361.749912 116.258908 
L 362.053634 116.272805 
L 362.129564 111.939514 
L 362.205495 112.081974 
L 362.281425 112.097433 
L 362.357355 112.605218 
L 362.888869 113.226496 
L 363.11666 113.248315 
L 363.268521 112.496928 
L 363.344451 112.496877 
L 363.420382 106.906401 
L 363.648173 106.537391 
L 363.875964 105.302424 
L 364.255616 105.233143 
L 364.407477 105.604161 
L 364.787129 105.61932 
L 364.93899 105.967527 
L 365.014921 107.134842 
L 365.318643 107.096359 
L 365.394573 106.904777 
L 365.470503 107.240572 
L 365.774225 107.212002 
L 366.077947 106.083389 
L 366.837251 106.003788 
L 366.989112 106.203244 
L 367.140973 106.209218 
L 367.672486 107.323338 
L 368.128069 107.647544 
L 368.203999 108.753412 
L 368.507721 108.763522 
L 368.659582 108.854673 
L 369.115164 108.183181 
L 369.267025 108.14826 
L 369.494817 107.798333 
L 369.646677 105.833224 
L 369.722608 105.828298 
L 369.798538 105.654126 
L 370.10226 105.585937 
L 370.861564 104.027931 
L 371.393077 103.888386 
L 371.620869 103.889132 
L 371.84866 102.388358 
L 371.924591 102.477796 
L 372.152382 102.478856 
L 372.380173 101.980751 
L 372.456104 103.39039 
L 372.835756 103.322243 
L 372.987617 102.97293 
L 373.291338 102.712048 
L 373.367269 102.167703 
L 373.898782 102.099253 
L 374.050643 107.534603 
L 374.354365 107.539942 
L 374.506225 107.794822 
L 374.809947 107.831322 
L 375.037738 108.293957 
L 375.493321 108.237606 
L 375.569252 108.375154 
L 376.024834 108.378431 
L 376.176695 109.035147 
L 376.632278 109.131104 
L 376.708208 113.509498 
L 377.999026 113.542847 
L 378.074956 114.31618 
L 378.150886 114.130155 
L 378.226817 113.995276 
L 378.302747 118.13129 
L 378.530539 118.599729 
L 378.83426 120.403832 
L 379.593565 120.449075 
L 379.821356 120.589334 
L 379.897286 120.590822 
L 380.276939 119.950756 
L 380.352869 120.263427 
L 380.4288 120.210658 
L 380.656591 120.608419 
L 380.732521 119.993161 
L 380.808452 121.075451 
L 380.960313 118.862564 
L 381.339965 117.842486 
L 381.491826 116.555411 
L 381.871478 116.357192 
L 382.023339 116.465868 
L 382.32706 115.856184 
L 382.402991 117.139044 
L 382.554852 116.514294 
L 383.086365 116.533389 
L 383.390087 116.62307 
L 383.541947 117.2273 
L 383.9216 117.309134 
L 383.99753 117.844787 
L 384.149391 120.186404 
L 384.377182 119.871774 
L 384.453113 120.019263 
L 384.604974 117.342169 
L 384.984626 117.433456 
L 385.212417 118.865478 
L 385.440208 118.859041 
L 385.592069 119.22906 
L 386.047652 119.198038 
L 386.123582 118.621706 
L 386.199513 119.211611 
L 386.275443 118.612833 
L 386.579165 119.537957 
L 386.655095 119.296898 
L 386.731026 119.585099 
L 386.806956 119.542012 
L 387.034748 118.569863 
L 387.186608 119.861345 
L 387.718122 120.431831 
L 387.794052 120.434853 
L 388.097774 121.593505 
L 388.325565 121.700555 
L 388.401495 122.077107 
L 388.781148 122.367348 
L 389.312661 122.379594 
L 389.388591 122.50362 
L 389.464522 122.174854 
L 389.768243 122.225673 
L 389.920104 122.515999 
L 390.299756 122.489888 
L 390.451617 122.494499 
L 390.527548 122.353998 
L 390.831269 120.00538 
L 390.9072 119.979272 
L 391.286852 118.829507 
L 391.438713 115.682319 
L 391.590574 115.376001 
L 391.970226 115.192955 
L 392.122087 115.178984 
L 392.349878 115.436657 
L 392.501739 114.700416 
L 392.6536 107.059072 
L 394.096278 107.15926 
L 394.47593 107.173463 
L 394.627791 108.109007 
L 395.083374 108.157083 
L 395.235235 108.642839 
L 395.311165 110.502683 
L 395.538957 110.56852 
L 395.614887 111.072764 
L 395.690817 111.040199 
L 395.842678 110.784172 
L 396.1464 111.778803 
L 396.22233 111.917356 
L 396.374191 111.688655 
L 396.601983 111.544756 
L 396.677913 111.278424 
L 396.829774 110.544668 
L 396.905704 110.651818 
L 397.209426 111.390581 
L 397.437217 111.512695 
L 398.196522 111.509139 
L 398.500244 110.796926 
L 398.879896 110.801914 
L 399.031757 111.021012 
L 399.335478 113.620767 
L 399.411409 113.56114 
L 399.487339 111.856531 
L 399.56327 111.896572 
L 399.791061 111.838969 
L 399.866991 111.517377 
L 400.018852 110.478456 
L 400.398505 110.277002 
L 400.474435 109.869271 
L 400.550365 109.987799 
L 400.626296 110.316738 
L 400.854087 110.455814 
L 400.930018 110.817466 
L 401.461531 110.946909 
L 401.689322 110.83255 
L 401.917113 110.885226 
L 402.068974 111.950793 
L 402.220835 109.443239 
L 402.448626 109.076471 
L 402.676418 108.009333 
L 402.980139 107.991262 
L 403.132 105.841942 
L 403.283861 105.693352 
L 403.587583 105.693882 
L 403.815374 104.987388 
L 404.270957 104.145835 
L 404.346887 104.141044 
L 404.574679 104.534034 
L 404.650609 104.452552 
L 404.8784 104.328188 
L 405.182122 104.243436 
L 405.409913 102.74103 
L 405.713635 102.816174 
L 405.789566 104.200854 
L 405.865496 104.195437 
L 405.941426 104.213323 
L 406.169218 104.446191 
L 406.321079 104.825743 
L 406.397009 107.233964 
L 406.47294 106.054219 
L 406.928522 106.319451 
L 407.004453 106.029535 
L 407.460035 105.249814 
L 407.535966 114.768271 
L 408.29527 114.712756 
L 408.598992 114.381305 
L 408.978644 114.247142 
L 409.130505 113.990194 
L 409.358296 113.963986 
L 409.586087 113.35066 
L 410.497253 113.352214 
L 410.725044 113.780862 
L 411.028766 113.810314 
L 411.180627 114.133654 
L 411.560279 114.004145 
L 411.636209 115.619754 
L 411.71214 115.167348 
L 411.78807 113.979183 
L 412.319583 113.153025 
L 412.699235 113.168214 
L 412.775166 112.957987 
L 412.851096 113.066145 
L 413.154818 113.136441 
L 413.230748 113.353932 
L 413.306679 113.054975 
L 413.838192 113.020916 
L 413.914122 113.380659 
L 414.141914 112.740894 
L 414.217844 112.834757 
L 414.825288 113.210317 
L 414.901218 113.458902 
L 414.977149 114.755253 
L 415.28087 114.759415 
L 415.356801 114.109741 
L 415.432731 114.178423 
L 415.508662 114.261866 
L 415.812383 114.870942 
L 416.343896 114.977803 
L 416.419827 114.722003 
L 416.495757 115.100749 
L 416.571688 114.226551 
L 416.799479 114.058601 
L 416.95134 113.35861 
L 417.02727 113.586498 
L 417.103201 114.747103 
L 417.330992 114.686152 
L 417.482853 115.572939 
L 417.558783 115.273225 
L 417.634714 110.15941 
L 418.090296 109.283758 
L 418.166227 110.518216 
L 418.469949 110.850467 
L 418.69774 110.714966 
L 419.077392 111.333551 
L 419.153323 111.170125 
L 419.532975 110.111479 
L 419.684836 110.031241 
L 419.760766 109.196985 
L 420.064488 109.231044 
L 420.140418 109.231158 
L 420.216349 110.757292 
L 420.292279 110.475305 
L 420.747862 110.535965 
L 421.127514 110.535191 
L 421.279375 110.808281 
L 421.355305 112.132788 
L 421.734957 112.149663 
L 421.810888 111.9846 
L 422.11461 112.633236 
L 422.19054 112.627831 
L 422.26647 112.789737 
L 422.342401 113.438593 
L 422.418331 113.298297 
L 422.797984 113.255908 
L 423.253566 112.610326 
L 423.329497 112.571979 
L 423.481357 111.465647 
L 424.240662 111.719759 
L 424.468453 109.650318 
L 424.544384 110.098512 
L 424.848105 110.088602 
L 425.075897 109.829837 
L 425.303688 109.725966 
L 425.455549 109.330412 
L 426.366714 109.421291 
L 426.594505 110.282633 
L 426.670436 111.271669 
L 427.126018 111.564178 
L 427.201949 111.349158 
L 427.505671 111.664776 
L 427.961253 111.664776 
L 428.264975 112.277857 
L 428.568697 112.293489 
L 428.644627 112.546659 
L 429.252071 112.566952 
L 429.328001 113.153969 
L 429.555792 113.210091 
L 429.707653 114.551468 
L 430.163236 114.551468 
L 430.239166 115.258333 
L 430.315097 114.951806 
L 430.391027 114.951806 
L 430.618819 114.033089 
L 430.694749 112.939764 
L 431.150332 112.807108 
L 431.302193 112.743562 
L 431.378123 113.019948 
L 431.681845 112.368927 
L 431.909636 108.608412 
L 431.985566 109.237936 
L 432.213358 109.2318 
L 432.365219 110.364746 
L 432.51708 110.710959 
L 432.744871 110.721533 
L 432.820801 111.000544 
L 432.972662 116.063074 
L 433.504175 117.445673 
L 433.807897 117.415866 
L 434.035688 117.598964 
L 434.33941 116.033088 
L 434.41534 115.239141 
L 434.643132 116.974285 
L 435.022784 117.156962 
L 435.174645 118.195443 
L 435.554297 117.753642 
L 435.706158 117.222233 
L 436.00988 117.441055 
L 436.08581 117.279065 
L 436.237671 117.399947 
L 436.465462 117.402951 
L 436.617323 117.263618 
L 437.148836 117.20153 
L 437.604419 117.203937 
L 437.75628 117.462909 
L 437.83221 117.348153 
L 438.060001 117.347055 
L 438.135932 117.211803 
L 438.287793 118.003712 
L 438.743375 117.478918 
L 438.819306 117.462412 
L 438.895236 117.253709 
L 439.198958 118.731167 
L 439.350819 117.454006 
L 439.426749 117.456768 
L 439.730471 116.926816 
L 439.806402 117.05499 
L 439.958262 119.552077 
L 440.186054 119.823243 
L 440.337915 119.59576 
L 440.489775 119.79392 
L 440.869428 120.010086 
L 441.021289 120.549497 
L 442.388036 120.455778 
L 442.615828 120.41143 
L 442.919549 120.41143 
L 443.07141 120.800799 
L 443.602923 120.799449 
L 443.678854 120.665619 
L 443.906645 120.667917 
L 444.134436 120.093865 
L 444.210367 119.984029 
L 444.438158 119.984029 
L 444.514089 119.72939 
L 444.74188 113.965941 
L 446.032697 114.009418 
L 446.108628 114.160482 
L 446.184558 114.063799 
L 446.260489 113.547327 
L 446.792002 114.619397 
L 446.867932 114.581392 
L 447.171654 114.650787 
L 447.247584 114.820692 
L 447.323515 116.219448 
L 447.399445 121.106917 
L 448.15875 121.216929 
L 448.386541 121.293435 
L 448.462471 121.370617 
L 448.690263 121.376341 
L 448.842124 121.767202 
L 448.918054 121.462549 
L 448.993984 121.494379 
L 449.221776 121.47763 
L 449.449567 124.404424 
L 449.525497 124.231683 
L 449.753289 124.241006 
L 449.90515 121.978398 
L 449.98108 121.936375 
L 450.057011 121.585759 
L 450.360732 121.491259 
L 450.436663 121.091858 
L 450.588524 122.170383 
L 450.892245 121.722965 
L 451.120037 121.858789 
L 451.347828 121.878337 
L 451.65155 120.976281 
L 452.031202 120.987473 
L 452.107132 120.699031 
L 452.183063 120.736981 
L 452.410854 120.707232 
L 452.942367 118.455195 
L 453.018298 116.453172 
L 453.094228 116.45674 
L 453.246089 116.459566 
L 453.549811 116.616404 
L 453.701672 116.311634 
L 453.777602 115.612907 
L 454.081324 115.620476 
L 454.157254 116.60841 
L 454.233185 116.451265 
L 454.309115 116.40049 
L 454.612837 116.933163 
L 454.840628 116.79486 
L 455.068419 116.760254 
L 455.22028 116.957389 
L 455.372141 113.66093 
L 455.675863 113.669983 
L 455.827724 112.730009 
L 456.435167 112.305441 
L 456.738889 112.241833 
L 456.96668 112.18004 
L 457.498193 112.177695 
L 457.801915 112.144935 
L 457.953776 111.149722 
L 458.409359 111.052075 
L 458.485289 110.998703 
L 458.56122 110.586543 
L 458.789011 110.284229 
L 459.092733 110.262906 
L 459.320524 110.258743 
L 459.396454 110.449339 
L 459.548315 115.7285 
L 459.624246 115.721817 
L 460.079828 115.628388 
L 460.155759 115.562165 
L 460.38355 114.326797 
L 460.535411 112.637343 
L 461.066924 112.648883 
L 461.142854 113.769555 
L 461.446576 109.141066 
L 461.522507 109.155403 
L 461.750298 109.15856 
L 462.05402 107.175688 
L 462.205881 107.042742 
L 462.281811 106.849088 
L 462.661463 106.824381 
L 462.813324 106.372472 
L 463.117046 106.190015 
L 463.268907 105.857134 
L 463.344837 105.848466 
L 463.724489 105.664739 
L 463.87635 105.72548 
L 464.104141 105.478994 
L 464.180072 104.127163 
L 464.256002 104.166472 
L 464.407863 104.502239 
L 464.635655 104.500935 
L 464.711585 106.484317 
L 464.787515 106.477836 
L 464.863446 105.496172 
L 464.939376 105.779091 
L 465.167168 105.56315 
L 465.319028 104.981582 
L 465.394959 104.96385 
L 465.698681 104.217431 
L 465.926472 104.290287 
L 466.002402 104.300839 
L 466.230194 104.529301 
L 466.382055 104.968448 
L 466.837637 105.033944 
L 466.989498 105.255261 
L 467.065428 105.29452 
L 467.29322 105.898098 
L 467.521011 107.228994 
L 467.976594 109.057569 
L 468.052524 109.096604 
L 468.128455 108.711662 
L 468.356246 108.874558 
L 468.659968 110.585939 
L 468.887759 110.61275 
L 469.03962 109.436198 
L 469.11555 109.59256 
L 469.191481 109.660486 
L 469.571133 109.584357 
L 469.722994 109.197624 
L 470.026716 108.642721 
L 470.102646 108.294525 
L 470.254507 111.079663 
L 470.78602 110.837096 
L 471.089742 111.960473 
L 471.165672 111.939008 
L 471.241603 111.397426 
L 471.545324 110.990584 
L 471.697185 111.072901 
L 471.773116 110.860843 
L 471.849046 110.895794 
L 472.152768 110.815316 
L 472.304629 110.642142 
L 472.380559 110.627746 
L 472.684281 110.630665 
L 472.760211 110.431267 
L 472.836142 111.38311 
L 472.912072 111.30137 
L 473.139863 111.281672 
L 473.291724 110.644531 
L 473.671377 110.84467 
L 473.747307 109.999374 
L 473.975098 110.908266 
L 474.35475 110.640166 
L 474.506611 108.561621 
L 474.734403 108.550362 
L 474.886264 108.326701 
L 475.038124 108.302271 
L 475.265916 109.305231 
L 475.417777 110.701556 
L 475.569637 108.28619 
L 475.94929 108.365598 
L 476.02522 108.391402 
L 476.101151 108.535025 
L 476.328942 112.79615 
L 476.404872 112.756382 
L 476.480803 112.239498 
L 476.860455 111.738519 
L 477.012316 113.8924 
L 477.999411 114.789601 
L 478.151272 115.344599 
L 478.227203 115.25066 
L 478.454994 115.246528 
L 478.682785 114.779723 
L 478.758716 114.808161 
L 478.986507 114.235256 
L 479.062438 114.520298 
L 479.138368 116.243532 
L 479.214298 115.99762 
L 479.290229 115.948518 
L 479.51802 115.281907 
L 479.669881 115.282527 
L 479.821742 114.887145 
L 480.049533 114.913255 
L 480.201394 116.097209 
L 480.581046 117.574392 
L 480.656977 117.615211 
L 480.808838 118.959057 
L 483.314542 119.063314 
L 483.466403 119.731664 
L 483.770125 119.760299 
L 483.997916 119.720135 
L 484.073846 121.441086 
L 484.833151 121.28614 
L 485.136873 122.512251 
L 485.364664 122.615118 
L 485.440594 122.515239 
L 485.516525 120.894153 
L 485.592455 121.077358 
L 486.199899 121.29363 
L 486.579551 122.493716 
L 486.731412 122.494393 
L 487.035134 122.940671 
L 487.111064 122.900382 
L 487.566647 123.154029 
L 487.642577 123.015967 
L 487.794438 122.140392 
L 488.17409 122.170898 
L 488.250021 120.935216 
L 488.325951 121.653272 
L 488.705603 121.466575 
L 488.857464 122.492089 
L 489.085255 122.607398 
L 489.388977 120.996847 
L 489.616768 121.981257 
L 489.692699 123.191866 
L 489.768629 123.176945 
L 489.84456 122.789434 
L 489.92049 122.839369 
L 490.755725 122.755301 
L 490.907586 126.476885 
L 491.439099 126.581161 
L 491.515029 126.926649 
L 491.742821 126.981174 
L 491.970612 128.630682 
L 492.274334 128.651617 
L 492.502125 128.238464 
L 492.578055 128.230657 
L 493.109568 127.289182 
L 493.565151 126.905821 
L 493.641082 127.066913 
L 493.868873 126.936558 
L 494.096664 127.612156 
L 494.400386 127.486518 
L 494.476316 128.260108 
L 494.628177 127.58816 
L 494.704108 127.855209 
L 494.931899 127.912706 
L 495.15969 129.461689 
L 495.235621 129.169169 
L 495.539342 129.099604 
L 495.767134 128.925205 
L 496.222716 128.917494 
L 496.298647 128.730188 
L 496.526438 128.711785 
L 496.678299 126.880789 
L 496.754229 126.68899 
L 496.83016 125.707712 
L 497.209812 125.573796 
L 497.361673 124.237864 
L 497.817256 124.080292 
L 498.880282 124.032235 
L 498.956212 124.09264 
L 499.791447 124.111528 
L 499.943308 124.643298 
L 500.32296 124.40903 
L 500.550751 124.740865 
L 500.778543 126.0836 
L 500.930404 125.74998 
L 501.385986 125.731081 
L 501.461917 123.768152 
L 501.537847 123.799036 
L 501.613777 123.80055 
L 501.99343 122.721919 
L 502.449012 122.236225 
L 502.676804 122.418538 
L 502.980525 122.572157 
L 503.056456 122.867196 
L 503.132386 122.834349 
L 503.208317 122.94154 
L 503.512038 124.510048 
L 503.587969 124.344341 
L 503.663899 122.670768 
L 503.73983 122.981957 
L 504.043551 122.655927 
L 504.271343 124.727581 
L 504.575065 125.072634 
L 504.650995 125.430066 
L 505.258438 95.016828 
L 505.638091 95.173391 
L 505.789952 95.147776 
L 507.30856 95.189965 
L 507.384491 95.45045 
L 507.460421 95.153793 
L 507.688212 95.176637 
L 507.916004 95.330522 
L 508.219726 95.503007 
L 508.447517 95.200933 
L 508.523447 95.470208 
L 508.827169 95.507502 
L 508.903099 95.659579 
L 509.05496 94.593016 
L 509.434613 94.715972 
L 509.510543 94.948635 
L 509.586473 93.75935 
L 510.042056 93.720489 
L 510.421708 93.613523 
L 510.573569 93.74897 
L 510.6495 93.750743 
L 511.105082 93.377485 
L 511.181013 93.031661 
L 511.484734 92.743491 
L 511.636595 91.641105 
L 511.712526 92.481006 
L 512.016247 92.633584 
L 512.092178 93.104707 
L 512.623691 93.194938 
L 512.699621 92.151582 
L 512.775552 92.223994 
L 513.231134 92.297495 
L 513.307065 91.976762 
L 513.534856 92.004079 
L 513.610787 91.854871 
L 513.838578 89.16243 
L 514.749743 89.068737 
L 514.825674 88.810688 
L 515.129395 87.231343 
L 515.205326 87.268971 
L 515.736839 87.123412 
L 515.8887 86.465323 
L 515.96463 86.523682 
L 516.268352 86.537029 
L 516.420213 87.059387 
L 516.951726 87.128806 
L 517.331378 88.260056 
L 517.407308 88.260056 
L 517.559169 88.725135 
L 517.786961 88.732306 
L 517.938821 88.986666 
L 518.546265 89.190393 
L 518.622195 89.345544 
L 518.849987 88.936105 
L 519.001848 88.006646 
L 519.3815 87.93103 
L 519.533361 88.041933 
L 519.609291 89.027097 
L 519.685222 89.020481 
L 519.913013 89.243137 
L 520.064874 88.850737 
L 520.140804 88.858002 
L 520.216735 88.036745 
L 520.596387 88.019508 
L 520.748248 114.313414 
L 521.507552 114.438998 
L 521.659413 114.212688 
L 521.735343 114.213122 
L 521.811274 113.970311 
L 522.190926 113.771614 
L 522.342787 113.553564 
L 522.646509 113.5486 
L 522.798369 113.146877 
L 523.102091 113.118178 
L 523.253952 113.490057 
L 523.633604 113.490057 
L 523.785465 113.922483 
L 523.861396 113.610466 
L 524.165117 113.608219 
L 524.316978 113.164351 
L 524.468839 114.717586 
L 524.924422 114.754463 
L 525.000352 116.562696 
L 525.304074 116.566302 
L 525.531865 116.892775 
L 525.835587 116.936831 
L 525.911517 116.73142 
L 525.987448 116.970016 
L 526.44303 116.87241 
L 526.974544 118.018241 
L 527.050474 119.895432 
L 527.126404 119.875573 
L 527.581987 119.837047 
L 527.657917 119.61802 
L 527.885709 119.308888 
L 528.03757 122.002907 
L 528.189431 118.192973 
L 528.720944 117.786863 
L 529.024665 117.761325 
L 529.100596 118.927039 
L 529.176526 122.066977 
L 529.252457 120.464529 
L 529.556178 120.092361 
L 529.78397 119.950551 
L 530.011761 119.97517 
L 530.087691 120.435077 
L 530.239552 123.133195 
L 530.315483 123.249322 
L 530.771065 123.330776 
L 530.846996 124.610133 
L 531.074787 124.591613 
L 531.226648 123.915093 
L 531.302578 123.913034 
L 531.834092 123.160237 
L 531.910022 123.162321 
L 532.137813 123.00306 
L 532.289674 122.673432 
L 532.745257 122.624988 
L 532.897118 122.143535 
L 533.3527 122.202651 
L 533.504561 124.380138 
L 533.884213 124.417776 
L 534.263866 123.362883 
L 534.339796 123.434941 
L 534.795379 123.424907 
L 534.947239 124.144781 
L 535.02317 123.738373 
L 535.0991 124.884999 
L 535.326892 124.844716 
L 535.478753 125.045608 
L 535.630613 124.358196 
L 535.934335 124.268159 
L 536.162126 124.036793 
L 536.389918 124.295623 
L 536.541779 122.767449 
L 536.617709 122.927925 
L 536.921431 122.96493 
L 536.997361 122.798716 
L 537.073292 122.851055 
L 537.149222 123.088681 
L 537.225153 123.04424 
L 537.452944 122.440345 
L 537.528874 122.844757 
L 537.604805 122.74038 
L 537.756666 122.69971 
L 537.984457 122.720971 
L 538.136318 122.600007 
L 538.5919 122.635053 
L 538.819692 123.537218 
L 539.351205 123.490359 
L 539.654927 123.001777 
L 540.18644 122.928721 
L 540.414231 119.589351 
L 540.869814 118.309905 
L 540.945744 118.347947 
L 541.173535 118.124777 
L 541.325396 117.640889 
L 541.780979 117.367487 
L 541.856909 117.490312 
L 542.00877 117.359981 
L 542.312492 117.351508 
L 542.388422 117.075341 
L 542.540283 117.405379 
L 542.844005 117.03537 
L 542.995866 120.45689 
L 543.071796 120.353392 
L 543.375518 120.205719 
L 543.451448 120.826006 
L 543.527379 120.796858 
L 543.603309 120.993796 
L 543.982961 120.882222 
L 544.134822 122.724906 
L 544.438544 123.080325 
L 544.590405 122.530869 
L 544.666335 122.542293 
L 544.894127 122.098069 
L 544.970057 122.376812 
L 545.045988 122.241879 
L 545.121918 122.228809 
L 545.197848 122.069936 
L 545.42564 122.088961 
L 545.577501 122.301172 
L 545.653431 122.120111 
L 545.729362 122.162328 
L 545.957153 122.566169 
L 546.184944 122.100327 
L 547.096109 122.246936 
L 547.17204 122.53131 
L 547.24797 122.506965 
L 547.703553 122.555989 
L 547.779483 123.012615 
L 547.855414 122.952821 
L 548.159136 122.870247 
L 548.235066 122.5947 
L 548.310996 122.632221 
L 548.614718 122.750914 
L 548.690649 120.929437 
L 548.842509 122.099569 
L 549.146231 122.098669 
L 549.374023 121.918835 
L 549.449953 121.995036 
L 550.285188 123.384286 
L 550.361118 123.285508 
L 550.74077 123.329834 
L 550.968562 123.497665 
L 551.044492 123.482211 
L 551.272283 124.507406 
L 551.348214 124.46417 
L 551.576005 124.890265 
L 551.955657 124.511278 
L 552.031588 125.104932 
L 552.41124 125.283572 
L 552.563101 125.361101 
L 552.942753 125.421652 
L 553.094614 120.953956 
L 553.702057 120.303291 
L 554.08171 120.266985 
L 554.233571 118.600717 
L 554.461362 118.627933 
L 554.537292 118.875042 
L 554.613223 118.841889 
L 554.689153 118.828032 
L 554.765084 116.916765 
L 554.992875 116.897873 
L 555.144736 120.169118 
L 555.296597 120.684361 
L 555.524388 120.254013 
L 555.676249 119.76556 
L 555.82811 120.478678 
L 556.207762 120.673095 
L 556.283692 120.244169 
L 556.359623 120.279945 
L 556.739275 120.289223 
L 556.891136 119.77388 
L 557.118927 119.741592 
L 557.194858 120.291404 
L 557.346718 119.925703 
L 557.422649 120.267114 
L 557.65044 120.652045 
L 557.726371 120.569678 
L 557.878232 120.485759 
L 557.954162 120.608623 
L 558.257884 120.660586 
L 558.409745 120.753198 
L 559.017188 120.659164 
L 559.244979 120.554349 
L 559.32091 121.023415 
L 559.39684 120.947698 
L 559.472771 118.267561 
L 559.548701 118.531759 
L 559.776492 117.566592 
L 559.852423 117.644392 
L 559.928353 117.659536 
L 560.080214 115.501688 
L 560.459866 115.515646 
L 560.611727 115.705104 
L 560.839519 115.827183 
L 560.991379 116.317782 
L 561.14324 116.435109 
L 561.522892 116.060257 
L 561.978475 116.181323 
L 562.434058 116.009695 
L 562.585919 116.010929 
L 562.661849 115.843636 
L 562.737779 115.914487 
L 562.965571 115.501674 
L 563.041501 115.566149 
L 563.193362 115.830569 
L 563.269293 115.689915 
L 563.497084 115.675479 
L 563.648945 117.482775 
L 564.104527 117.46908 
L 564.332319 117.628521 
L 564.863832 117.510644 
L 565.319414 117.062971 
L 565.395345 114.369949 
L 565.850927 114.318309 
L 565.926858 114.076998 
L 566.23058 114.540597 
L 566.458371 114.367662 
L 566.762093 114.569008 
L 566.838023 114.523251 
L 566.913954 113.635178 
L 566.989884 113.70374 
L 567.217675 113.735117 
L 567.293606 113.1759 
L 567.369536 113.211384 
L 567.521397 113.174077 
L 567.825119 113.181449 
L 567.97698 115.618633 
L 568.05291 115.613602 
L 568.356632 115.325116 
L 568.584423 115.504154 
L 568.888145 115.368458 
L 569.115936 116.883045 
L 569.419658 116.471219 
L 569.571519 116.602207 
L 569.647449 118.395049 
L 570.103032 118.50167 
L 570.634545 118.303244 
L 570.710475 119.101823 
L 571.090128 119.688581 
L 571.621641 119.718525 
L 571.697571 120.214884 
L 572.077223 120.21845 
L 572.684667 121.064586 
L 572.760597 121.089643 
L 572.836528 121.518531 
L 573.21618 121.508395 
L 573.29211 119.985116 
L 573.368041 120.101454 
L 573.671762 119.363039 
L 573.899554 115.950009 
L 574.355136 116.288361 
L 574.431067 114.624408 
L 574.658858 114.035564 
L 574.96258 108.721227 
L 575.190371 108.361836 
L 575.342232 110.599056 
L 575.418163 111.354422 
L 575.797815 108.518286 
L 575.873745 110.539939 
L 575.949676 110.496032 
L 576.025606 110.496425 
L 576.329328 108.757561 
L 576.405258 108.699497 
L 576.481189 105.981228 
L 576.860841 105.981228 
L 577.012702 106.189003 
L 577.392354 106.638996 
L 577.847937 106.666314 
L 578.075728 106.805784 
L 578.151658 106.815254 
L 578.45538 106.974274 
L 578.607241 107.396854 
L 579.594337 107.344424 
L 580.049919 107.296668 
L 580.20178 107.151812 
L 580.277711 107.178692 
L 580.505502 107.425818 
L 580.581432 107.058855 
L 580.657363 107.230175 
L 580.733293 107.226169 
L 580.809224 109.459865 
L 581.264806 109.2509 
L 581.340737 109.466195 
L 581.644458 109.339174 
L 582.100041 108.03438 
L 582.251902 107.903074 
L 582.327832 107.75448 
L 582.403763 108.471976 
L 582.631554 108.498472 
L 582.707485 108.38984 
L 582.783415 108.830032 
L 582.935276 108.533161 
L 583.238998 108.57148 
L 583.314928 109.241103 
L 583.390858 108.985622 
L 583.466789 109.034116 
L 583.770511 107.535986 
L 583.922371 107.495485 
L 583.998302 107.522057 
L 584.226093 107.475816 
L 584.529815 106.862713 
L 585.36505 106.704657 
L 585.592841 107.117984 
L 585.896563 107.100093 
L 586.352145 104.148132 
L 586.504006 104.06424 
L 586.655867 103.428925 
L 587.035519 103.11049 
L 587.11145 103.111956 
L 587.18738 102.881114 
L 587.567032 102.860652 
L 587.718893 103.990086 
L 588.022615 104.648063 
L 588.174476 107.317366 
L 588.250406 107.252444 
L 588.554128 107.083391 
L 588.630059 107.089288 
L 589.085641 113.908038 
L 589.161572 113.707614 
L 589.313433 114.338625 
L 589.617154 114.40241 
L 589.769015 117.402575 
L 589.844946 117.425454 
L 590.148667 116.019693 
L 590.224598 117.846808 
L 590.300528 117.344938 
L 590.376459 117.223981 
L 590.68018 120.513193 
L 591.287624 120.27198 
L 591.439485 119.862794 
L 591.970998 119.80293 
L 593.337746 119.802422 
L 593.489607 120.006283 
L 593.945189 120.111727 
L 594.09705 120.4586 
L 594.400772 120.463103 
L 594.552633 120.884434 
L 594.856354 121.009079 
L 595.160076 121.437362 
L 595.463798 121.443016 
L 595.615659 122.04851 
L 595.691589 121.73386 
L 595.919381 121.721609 
L 595.995311 114.686245 
L 596.223102 114.829159 
L 597.741711 116.532123 
L 597.817642 118.835686 
L 598.349155 118.956009 
L 598.576946 119.17895 
L 598.728807 119.947818 
L 598.880668 121.011402 
L 599.867763 121.080359 
L 599.943694 119.985594 
L 600.247416 118.955058 
L 600.323346 119.842707 
L 600.399276 119.174481 
L 600.475207 120.339468 
L 600.702998 120.936993 
L 600.778929 120.847151 
L 600.854859 120.957673 
L 601.00672 121.926517 
L 601.310442 122.489345 
L 601.386372 122.490067 
L 601.538233 122.765718 
L 602.373468 122.811511 
L 602.525329 122.969227 
L 602.601259 122.806927 
L 602.82905 122.973871 
L 602.904981 123.336668 
L 603.056842 122.915039 
L 603.132772 122.950785 
L 603.360563 123.004499 
L 603.436494 122.890941 
L 603.588355 123.424922 
L 603.664285 123.292259 
L 604.043937 123.408825 
L 604.49952 125.48563 
L 604.57545 125.447392 
L 604.651381 126.129342 
L 604.727311 126.018123 
L 605.031033 124.805025 
L 605.106964 124.744423 
L 605.182894 124.92133 
L 605.258824 124.886398 
L 605.638477 124.942337 
L 605.790337 125.31933 
L 606.24592 125.308012 
L 606.549642 125.308076 
L 606.701503 124.073618 
L 607.308946 123.984431 
L 607.384877 123.381584 
L 607.764529 123.287704 
L 607.91639 123.237669 
L 608.447903 117.962028 
L 608.903485 115.999831 
L 610.042442 116.043835 
L 610.270233 116.37605 
L 610.346164 117.719163 
L 610.498025 125.660373 
L 610.573955 125.956429 
L 610.801746 125.956429 
L 611.105468 125.22464 
L 611.333259 125.128526 
L 611.48512 123.536123 
L 611.864772 122.428844 
L 611.940703 122.415772 
L 612.168494 122.196896 
L 612.700007 121.157533 
L 612.927799 121.15648 
L 613.23152 120.421317 
L 613.535242 120.408904 
L 613.611172 120.294514 
L 613.763033 119.083432 
L 614.142686 118.926678 
L 614.294546 119.853598 
L 614.522338 119.512864 
L 614.674199 120.662652 
L 614.826059 120.04696 
L 615.357573 120.066404 
L 616.420599 120.080817 
L 616.800251 120.225838 
L 616.876181 118.378844 
L 616.952112 118.568684 
L 617.255833 118.841365 
L 617.407694 117.816705 
L 617.483625 117.843721 
L 617.939207 118.032425 
L 618.015138 117.621024 
L 618.242929 117.614373 
L 618.47072 115.598903 
L 618.546651 114.878662 
L 618.774442 114.647181 
L 618.850373 113.952313 
L 618.926303 114.142086 
L 619.078164 115.058295 
L 619.913399 115.192927 
L 620.368981 115.247956 
L 620.520842 114.947411 
L 620.596773 115.565376 
L 620.672703 115.330779 
L 621.052355 114.554352 
L 621.128286 114.598467 
L 621.204216 113.914083 
L 621.507938 114.242459 
L 621.659799 114.231104 
L 621.735729 114.162869 
L 621.963521 114.148294 
L 622.191312 117.762209 
L 622.495034 117.903868 
L 622.798755 120.370157 
L 623.178408 119.114001 
L 623.330268 118.961138 
L 623.709921 117.838969 
L 623.785851 117.840381 
L 623.861782 117.305862 
L 624.241434 117.100733 
L 624.393295 116.832306 
L 624.848877 116.188452 
L 625.456321 116.759193 
L 625.684112 118.10771 
L 625.760042 118.079028 
L 625.987834 118.186329 
L 626.519347 119.526753 
L 627.05086 120.005233 
L 627.354582 120.139603 
L 627.582373 120.696386 
L 627.886095 120.580949 
L 627.962025 120.708447 
L 628.113886 121.488867 
L 628.341677 120.9637 
L 628.417608 119.332925 
L 628.569469 120.329866 
L 628.645399 120.536112 
L 629.025051 120.715754 
L 629.176912 121.873875 
L 629.936217 121.93939 
L 630.088077 121.804646 
L 630.239938 121.160082 
L 630.54366 120.76861 
L 631.606686 120.76861 
L 631.758547 122.633643 
L 632.21413 122.716487 
L 632.29006 122.05452 
L 632.36599 122.698819 
L 632.669712 122.531504 
L 632.745643 122.000727 
L 632.821573 122.018318 
L 632.897504 122.014413 
L 633.201225 122.498734 
L 633.353086 124.62691 
L 633.656808 124.919793 
L 633.884599 127.260742 
L 634.947625 127.260742 
L 635.023556 125.947978 
L 635.251347 125.947978 
L 635.403208 125.712302 
L 635.479138 126.027746 
L 635.555069 126.003212 
L 635.934721 126.701217 
L 636.086582 126.975655 
L 636.314373 126.904188 
L 636.466234 127.86673 
L 636.618095 127.965267 
L 636.997747 128.111301 
L 637.45333 128.139442 
L 637.52926 128.579482 
L 637.605191 128.565585 
L 637.681121 128.398948 
L 637.984843 128.217608 
L 638.060773 129.171821 
L 638.136704 114.577889 
L 638.212634 114.756867 
L 638.440425 114.693089 
L 638.592286 115.509954 
L 638.744147 115.637345 
L 638.971939 115.757577 
L 639.047869 115.591907 
L 639.27566 111.191569 
L 639.503452 111.181828 
L 639.579382 111.613791 
L 639.655312 111.544133 
L 639.731243 111.797385 
L 640.110895 110.837828 
L 640.262756 110.031178 
L 640.338686 109.818564 
L 640.718339 107.400754 
L 640.870199 107.170998 
L 641.173921 103.755492 
L 641.249852 103.734677 
L 641.401713 101.285642 
L 641.857295 98.564644 
L 641.933226 97.653524 
L 642.236947 96.758047 
L 642.312878 96.711501 
L 642.464739 96.066326 
L 642.76846 95.97232 
L 642.844391 96.140387 
L 642.996252 97.283931 
L 643.299973 97.278984 
L 643.451834 97.443035 
L 644.43893 97.572182 
L 644.590791 97.92836 
L 645.046374 98.235547 
L 646.033469 98.235547 
L 646.18533 98.968323 
L 646.489052 99.19068 
L 646.640913 99.519895 
L 648.691035 99.514906 
L 648.842895 100.193546 
L 649.374408 100.559854 
L 649.6022 100.635988 
L 649.829991 100.891051 
L 649.905922 100.985577 
L 651.3486 101.027243 
L 651.42453 101.317505 
L 651.880113 101.719096 
L 652.031974 112.202694 
L 652.487556 112.459238 
L 652.563487 112.459767 
L 652.867209 113.128044 
L 653.019069 115.805282 
L 653.398722 118.221907 
L 653.854304 118.291692 
L 654.082096 120.245917 
L 654.385817 120.551247 
L 654.537678 123.81159 
L 654.689539 124.337454 
L 654.993261 124.296247 
L 655.145122 129.683229 
L 655.221052 129.717622 
L 655.524774 134.44947 
L 655.600704 132.732796 
L 655.752565 134.348314 
L 655.980356 133.531393 
L 656.208148 137.679751 
L 656.51187 138.841461 
L 656.815591 141.73678 
L 657.195243 141.731633 
L 657.271174 141.374103 
L 657.347104 141.392937 
L 657.650826 138.699691 
L 657.878617 138.650617 
L 661.295487 138.550553 
L 661.447348 137.99371 
L 661.599209 137.733644 
L 662.130722 137.376646 
L 665.775383 137.432682 
L 666.079105 137.256248 
L 666.230966 137.011991 
L 666.306896 137.011991 
L 666.382826 136.462087 
L 666.914339 136.272878 
L 667.218061 135.939913 
L 668.281087 135.939913 
L 668.432948 136.096893 
L 668.888531 136.258137 
L 669.040392 136.351015 
L 669.495974 136.4557 
L 669.571905 141.85362 
L 669.799696 142.041124 
L 670.027487 145.548333 
L 670.331209 145.631448 
L 670.40714 145.69296 
L 670.559 145.899981 
L 671.090514 145.966787 
L 671.166444 146.492993 
L 671.394235 146.496894 
L 671.546096 150.988973 
L 671.697957 151.058029 
L 673.596218 151.051075 
L 673.824009 149.841248 
L 674.051801 149.354583 
L 674.203661 139.551413 
L 674.887035 139.612672 
L 675.190757 139.687162 
L 675.418548 140.624011 
L 676.253783 137.398448 
L 676.481575 135.282251 
L 677.013088 134.412979 
L 678.911349 134.315834 
L 679.063209 133.829193 
L 679.442862 133.829193 
L 679.518792 133.474734 
L 679.594722 131.145994 
L 679.670653 131.165431 
L 679.898444 129.876717 
L 679.974375 130.011367 
L 680.050305 130.036506 
L 680.126236 125.981794 
L 680.202166 126.332424 
L 680.581818 126.437503 
L 680.581818 126.437503 
" style="fill:none;stroke:#348dc1;stroke-linecap:round;stroke-width:1.5;"/>
   </g>
   <g id="line2d_12">
    <path clip-path="url(#pfe2eb5e2b4)" d="M 79.6 111.130723 
L 709.2 111.130723 
" style="fill:none;stroke:#ff0000;stroke-dasharray:5.55,2.4;stroke-dashoffset:0;stroke-width:1.5;"/>
   </g>
   <g id="line2d_13">
    <path clip-path="url(#pfe2eb5e2b4)" d="M 79.6 163.162503 
L 709.2 163.162503 
" style="fill:none;stroke:#000000;stroke-dasharray:3.7,1.6;stroke-dashoffset:0;"/>
   </g>
   <g id="text_12">
    <!--  -->
    <g style="fill:#808080;" transform="translate(394.4 22.362625)scale(0.12 -0.12)"/>
    <!-- 18 Oct '00 - 22 Dec '21                    -->
    <defs>
     <path id="DejaVuSans-32"/>
     <path d="M 39.40625 66.21875 
Q 28.65625 66.21875 22.328125 58.203125 
Q 16.015625 50.203125 16.015625 36.375 
Q 16.015625 22.609375 22.328125 14.59375 
Q 28.65625 6.59375 39.40625 6.59375 
Q 50.140625 6.59375 56.421875 14.59375 
Q 62.703125 22.609375 62.703125 36.375 
Q 62.703125 50.203125 56.421875 58.203125 
Q 50.140625 66.21875 39.40625 66.21875 
z
M 39.40625 74.21875 
Q 54.734375 74.21875 63.90625 63.9375 
Q 73.09375 53.65625 73.09375 36.375 
Q 73.09375 19.140625 63.90625 8.859375 
Q 54.734375 -1.421875 39.40625 -1.421875 
Q 24.03125 -1.421875 14.8125 8.828125 
Q 5.609375 19.09375 5.609375 36.375 
Q 5.609375 53.65625 14.8125 63.9375 
Q 24.03125 74.21875 39.40625 74.21875 
z
" id="DejaVuSans-79"/>
     <path d="M 48.78125 52.59375 
L 48.78125 44.1875 
Q 44.96875 46.296875 41.140625 47.34375 
Q 37.3125 48.390625 33.40625 48.390625 
Q 24.65625 48.390625 19.8125 42.84375 
Q 14.984375 37.3125 14.984375 27.296875 
Q 14.984375 17.28125 19.8125 11.734375 
Q 24.65625 6.203125 33.40625 6.203125 
Q 37.3125 6.203125 41.140625 7.25 
Q 44.96875 8.296875 48.78125 10.40625 
L 48.78125 2.09375 
Q 45.015625 0.34375 40.984375 -0.53125 
Q 36.96875 -1.421875 32.421875 -1.421875 
Q 20.0625 -1.421875 12.78125 6.34375 
Q 5.515625 14.109375 5.515625 27.296875 
Q 5.515625 40.671875 12.859375 48.328125 
Q 20.21875 56 33.015625 56 
Q 37.15625 56 41.109375 55.140625 
Q 45.0625 54.296875 48.78125 52.59375 
z
" id="DejaVuSans-99"/>
     <path d="M 18.3125 70.21875 
L 18.3125 54.6875 
L 36.8125 54.6875 
L 36.8125 47.703125 
L 18.3125 47.703125 
L 18.3125 18.015625 
Q 18.3125 11.328125 20.140625 9.421875 
Q 21.96875 7.515625 27.59375 7.515625 
L 36.8125 7.515625 
L 36.8125 0 
L 27.59375 0 
Q 17.1875 0 13.234375 3.875 
Q 9.28125 7.765625 9.28125 18.015625 
L 9.28125 47.703125 
L 2.6875 47.703125 
L 2.6875 54.6875 
L 9.28125 54.6875 
L 9.28125 70.21875 
z
" id="DejaVuSans-116"/>
     <path d="M 17.921875 72.90625 
L 17.921875 45.796875 
L 9.625 45.796875 
L 9.625 72.90625 
z
" id="DejaVuSans-39"/>
     <path d="M 4.890625 31.390625 
L 31.203125 31.390625 
L 31.203125 23.390625 
L 4.890625 23.390625 
z
" id="DejaVuSans-45"/>
     <path d="M 19.671875 64.796875 
L 19.671875 8.109375 
L 31.59375 8.109375 
Q 46.6875 8.109375 53.6875 14.9375 
Q 60.6875 21.78125 60.6875 36.53125 
Q 60.6875 51.171875 53.6875 57.984375 
Q 46.6875 64.796875 31.59375 64.796875 
z
M 9.8125 72.90625 
L 30.078125 72.90625 
Q 51.265625 72.90625 61.171875 64.09375 
Q 71.09375 55.28125 71.09375 36.53125 
Q 71.09375 17.671875 61.125 8.828125 
Q 51.171875 0 30.078125 0 
L 9.8125 0 
z
" id="DejaVuSans-68"/>
     <path d="M 56.203125 29.59375 
L 56.203125 25.203125 
L 14.890625 25.203125 
Q 15.484375 15.921875 20.484375 11.0625 
Q 25.484375 6.203125 34.421875 6.203125 
Q 39.59375 6.203125 44.453125 7.46875 
Q 49.3125 8.734375 54.109375 11.28125 
L 54.109375 2.78125 
Q 49.265625 0.734375 44.1875 -0.34375 
Q 39.109375 -1.421875 33.890625 -1.421875 
Q 20.796875 -1.421875 13.15625 6.1875 
Q 5.515625 13.8125 5.515625 26.8125 
Q 5.515625 40.234375 12.765625 48.109375 
Q 20.015625 56 32.328125 56 
Q 43.359375 56 49.78125 48.890625 
Q 56.203125 41.796875 56.203125 29.59375 
z
M 47.21875 32.234375 
Q 47.125 39.59375 43.09375 43.984375 
Q 39.0625 48.390625 32.421875 48.390625 
Q 24.90625 48.390625 20.390625 44.140625 
Q 15.875 39.890625 15.1875 32.171875 
z
" id="DejaVuSans-101"/>
    </defs>
    <g style="fill:#808080;" transform="translate(288.74 35.8)scale(0.12 -0.12)">
     <use xlink:href="#DejaVuSans-49"/>
     <use x="63.623047" xlink:href="#DejaVuSans-56"/>
     <use x="127.246094" xlink:href="#DejaVuSans-32"/>
     <use x="159.033203" xlink:href="#DejaVuSans-79"/>
     <use x="237.744141" xlink:href="#DejaVuSans-99"/>
     <use x="292.724609" xlink:href="#DejaVuSans-116"/>
     <use x="331.933594" xlink:href="#DejaVuSans-32"/>
     <use x="363.720703" xlink:href="#DejaVuSans-39"/>
     <use x="391.210938" xlink:href="#DejaVuSans-48"/>
     <use x="454.833984" xlink:href="#DejaVuSans-48"/>
     <use x="518.457031" xlink:href="#DejaVuSans-32"/>
     <use x="550.244141" xlink:href="#DejaVuSans-45"/>
     <use x="586.328125" xlink:href="#DejaVuSans-32"/>
     <use x="618.115234" xlink:href="#DejaVuSans-50"/>
     <use x="681.738281" xlink:href="#DejaVuSans-50"/>
     <use x="745.361328" xlink:href="#DejaVuSans-32"/>
     <use x="777.148438" xlink:href="#DejaVuSans-68"/>
     <use x="854.150391" xlink:href="#DejaVuSans-101"/>
     <use x="915.673828" xlink:href="#DejaVuSans-99"/>
     <use x="970.654297" xlink:href="#DejaVuSans-32"/>
     <use x="1002.441406" xlink:href="#DejaVuSans-39"/>
     <use x="1029.931641" xlink:href="#DejaVuSans-50"/>
     <use x="1093.554688" xlink:href="#DejaVuSans-49"/>
     <use x="1157.177734" xlink:href="#DejaVuSans-32"/>
     <use x="1188.964844" xlink:href="#DejaVuSans-32"/>
     <use x="1220.751953" xlink:href="#DejaVuSans-32"/>
     <use x="1252.539062" xlink:href="#DejaVuSans-32"/>
     <use x="1284.326172" xlink:href="#DejaVuSans-32"/>
     <use x="1316.113281" xlink:href="#DejaVuSans-32"/>
     <use x="1347.900391" xlink:href="#DejaVuSans-32"/>
     <use x="1379.6875" xlink:href="#DejaVuSans-32"/>
     <use x="1411.474609" xlink:href="#DejaVuSans-32"/>
     <use x="1443.261719" xlink:href="#DejaVuSans-32"/>
     <use x="1475.048828" xlink:href="#DejaVuSans-32"/>
     <use x="1506.835938" xlink:href="#DejaVuSans-32"/>
     <use x="1538.623047" xlink:href="#DejaVuSans-32"/>
     <use x="1570.410156" xlink:href="#DejaVuSans-32"/>
     <use x="1602.197266" xlink:href="#DejaVuSans-32"/>
     <use x="1633.984375" xlink:href="#DejaVuSans-32"/>
     <use x="1665.771484" xlink:href="#DejaVuSans-32"/>
     <use x="1697.558594" xlink:href="#DejaVuSans-32"/>
     <use x="1729.345703" xlink:href="#DejaVuSans-32"/>
    </g>
   </g>
   <g id="legend_1">
    <g id="patch_3">
     <path d="M 610.981875 69.01375 
L 700.8 69.01375 
Q 703.2 69.01375 703.2 66.61375 
L 703.2 50.2 
Q 703.2 47.8 700.8 47.8 
L 610.981875 47.8 
Q 608.581875 47.8 608.581875 50.2 
L 608.581875 66.61375 
Q 608.581875 69.01375 610.981875 69.01375 
z
" style="fill:#ffffff;opacity:0.8;stroke:#cccccc;stroke-linejoin:miter;"/>
    </g>
    <g id="line2d_14">
     <path d="M 613.381875 57.518125 
L 637.381875 57.518125 
" style="fill:none;stroke:#348dc1;stroke-linecap:round;stroke-width:1.5;"/>
    </g>
    <g id="line2d_15"/>
    <g id="text_13">
     <!-- Strategy -->
     <defs>
      <path d="M 53.515625 70.515625 
L 53.515625 60.890625 
Q 47.90625 63.578125 42.921875 64.890625 
Q 37.9375 66.21875 33.296875 66.21875 
Q 25.25 66.21875 20.875 63.09375 
Q 16.5 59.96875 16.5 54.203125 
Q 16.5 49.359375 19.40625 46.890625 
Q 22.3125 44.4375 30.421875 42.921875 
L 36.375 41.703125 
Q 47.40625 39.59375 52.65625 34.296875 
Q 57.90625 29 57.90625 20.125 
Q 57.90625 9.515625 50.796875 4.046875 
Q 43.703125 -1.421875 29.984375 -1.421875 
Q 24.8125 -1.421875 18.96875 -0.25 
Q 13.140625 0.921875 6.890625 3.21875 
L 6.890625 13.375 
Q 12.890625 10.015625 18.65625 8.296875 
Q 24.421875 6.59375 29.984375 6.59375 
Q 38.421875 6.59375 43.015625 9.90625 
Q 47.609375 13.234375 47.609375 19.390625 
Q 47.609375 24.75 44.3125 27.78125 
Q 41.015625 30.8125 33.5 32.328125 
L 27.484375 33.5 
Q 16.453125 35.6875 11.515625 40.375 
Q 6.59375 45.0625 6.59375 53.421875 
Q 6.59375 63.09375 13.40625 68.65625 
Q 20.21875 74.21875 32.171875 74.21875 
Q 37.3125 74.21875 42.625 73.28125 
Q 47.953125 72.359375 53.515625 70.515625 
z
" id="DejaVuSans-83"/>
      <path d="M 41.109375 46.296875 
Q 39.59375 47.171875 37.8125 47.578125 
Q 36.03125 48 33.890625 48 
Q 26.265625 48 22.1875 43.046875 
Q 18.109375 38.09375 18.109375 28.8125 
L 18.109375 0 
L 9.078125 0 
L 9.078125 54.6875 
L 18.109375 54.6875 
L 18.109375 46.1875 
Q 20.953125 51.171875 25.484375 53.578125 
Q 30.03125 56 36.53125 56 
Q 37.453125 56 38.578125 55.875 
Q 39.703125 55.765625 41.0625 55.515625 
z
" id="DejaVuSans-114"/>
      <path d="M 34.28125 27.484375 
Q 23.390625 27.484375 19.1875 25 
Q 14.984375 22.515625 14.984375 16.5 
Q 14.984375 11.71875 18.140625 8.90625 
Q 21.296875 6.109375 26.703125 6.109375 
Q 34.1875 6.109375 38.703125 11.40625 
Q 43.21875 16.703125 43.21875 25.484375 
L 43.21875 27.484375 
z
M 52.203125 31.203125 
L 52.203125 0 
L 43.21875 0 
L 43.21875 8.296875 
Q 40.140625 3.328125 35.546875 0.953125 
Q 30.953125 -1.421875 24.3125 -1.421875 
Q 15.921875 -1.421875 10.953125 3.296875 
Q 6 8.015625 6 15.921875 
Q 6 25.140625 12.171875 29.828125 
Q 18.359375 34.515625 30.609375 34.515625 
L 43.21875 34.515625 
L 43.21875 35.40625 
Q 43.21875 41.609375 39.140625 45 
Q 35.0625 48.390625 27.6875 48.390625 
Q 23 48.390625 18.546875 47.265625 
Q 14.109375 46.140625 10.015625 43.890625 
L 10.015625 52.203125 
Q 14.9375 54.109375 19.578125 55.046875 
Q 24.21875 56 28.609375 56 
Q 40.484375 56 46.34375 49.84375 
Q 52.203125 43.703125 52.203125 31.203125 
z
" id="DejaVuSans-97"/>
      <path d="M 45.40625 27.984375 
Q 45.40625 37.75 41.375 43.109375 
Q 37.359375 48.484375 30.078125 48.484375 
Q 22.859375 48.484375 18.828125 43.109375 
Q 14.796875 37.75 14.796875 27.984375 
Q 14.796875 18.265625 18.828125 12.890625 
Q 22.859375 7.515625 30.078125 7.515625 
Q 37.359375 7.515625 41.375 12.890625 
Q 45.40625 18.265625 45.40625 27.984375 
z
M 54.390625 6.78125 
Q 54.390625 -7.171875 48.1875 -13.984375 
Q 42 -20.796875 29.203125 -20.796875 
Q 24.46875 -20.796875 20.265625 -20.09375 
Q 16.0625 -19.390625 12.109375 -17.921875 
L 12.109375 -9.1875 
Q 16.0625 -11.328125 19.921875 -12.34375 
Q 23.78125 -13.375 27.78125 -13.375 
Q 36.625 -13.375 41.015625 -8.765625 
Q 45.40625 -4.15625 45.40625 5.171875 
L 45.40625 9.625 
Q 42.625 4.78125 38.28125 2.390625 
Q 33.9375 0 27.875 0 
Q 17.828125 0 11.671875 7.65625 
Q 5.515625 15.328125 5.515625 27.984375 
Q 5.515625 40.671875 11.671875 48.328125 
Q 17.828125 56 27.875 56 
Q 33.9375 56 38.28125 53.609375 
Q 42.625 51.21875 45.40625 46.390625 
L 45.40625 54.6875 
L 54.390625 54.6875 
z
" id="DejaVuSans-103"/>
      <path d="M 32.171875 -5.078125 
Q 28.375 -14.84375 24.75 -17.8125 
Q 21.140625 -20.796875 15.09375 -20.796875 
L 7.90625 -20.796875 
L 7.90625 -13.28125 
L 13.1875 -13.28125 
Q 16.890625 -13.28125 18.9375 -11.515625 
Q 21 -9.765625 23.484375 -3.21875 
L 25.09375 0.875 
L 2.984375 54.6875 
L 12.5 54.6875 
L 29.59375 11.921875 
L 46.6875 54.6875 
L 56.203125 54.6875 
z
" id="DejaVuSans-121"/>
     </defs>
     <g style="fill:#333333;" transform="translate(646.981875 61.718125)scale(0.12 -0.12)">
      <use xlink:href="#DejaVuSans-83"/>
      <use x="63.476562" xlink:href="#DejaVuSans-116"/>
      <use x="102.685547" xlink:href="#DejaVuSans-114"/>
      <use x="143.798828" xlink:href="#DejaVuSans-97"/>
      <use x="205.078125" xlink:href="#DejaVuSans-116"/>
      <use x="244.287109" xlink:href="#DejaVuSans-101"/>
      <use x="305.810547" xlink:href="#DejaVuSans-103"/>
      <use x="369.287109" xlink:href="#DejaVuSans-121"/>
     </g>
    </g>
   </g>
  </g>
  <g id="text_14">
   <!-- Rolling Volatility (6-Months) -->
   <defs>
    <path d="M 35.890625 40.578125 
Q 41.796875 40.578125 44.359375 42.765625 
Q 46.921875 44.96875 46.921875 50 
Q 46.921875 54.984375 44.359375 57.125 
Q 41.796875 59.28125 35.890625 59.28125 
L 27.984375 59.28125 
L 27.984375 40.578125 
z
M 27.984375 27.59375 
L 27.984375 0 
L 9.1875 0 
L 9.1875 72.90625 
L 37.890625 72.90625 
Q 52.296875 72.90625 59 68.0625 
Q 65.71875 63.234375 65.71875 52.78125 
Q 65.71875 45.5625 62.21875 40.921875 
Q 58.734375 36.28125 51.703125 34.078125 
Q 55.5625 33.203125 58.609375 30.09375 
Q 61.671875 27 64.796875 20.703125 
L 75 0 
L 54.984375 0 
L 46.09375 18.109375 
Q 43.40625 23.578125 40.640625 25.578125 
Q 37.890625 27.59375 33.296875 27.59375 
z
" id="DejaVuSans-Bold-82"/>
    <path d="M 63.375 33.296875 
L 63.375 0 
L 45.796875 0 
L 45.796875 5.421875 
L 45.796875 25.484375 
Q 45.796875 32.5625 45.484375 35.25 
Q 45.171875 37.9375 44.390625 39.203125 
Q 43.359375 40.921875 41.59375 41.875 
Q 39.84375 42.828125 37.59375 42.828125 
Q 32.125 42.828125 29 38.59375 
Q 25.875 34.375 25.875 26.90625 
L 25.875 0 
L 8.40625 0 
L 8.40625 54.6875 
L 25.875 54.6875 
L 25.875 46.6875 
Q 29.828125 51.46875 34.265625 53.734375 
Q 38.71875 56 44.09375 56 
Q 53.5625 56 58.46875 50.1875 
Q 63.375 44.390625 63.375 33.296875 
z
" id="DejaVuSans-Bold-110"/>
    <path d="M 45.609375 9.28125 
Q 42 4.5 37.640625 2.25 
Q 33.296875 0 27.59375 0 
Q 17.578125 0 11.03125 7.875 
Q 4.5 15.765625 4.5 27.984375 
Q 4.5 40.234375 11.03125 48.0625 
Q 17.578125 55.90625 27.59375 55.90625 
Q 33.296875 55.90625 37.640625 53.65625 
Q 42 51.421875 45.609375 46.578125 
L 45.609375 54.6875 
L 63.1875 54.6875 
L 63.1875 5.515625 
Q 63.1875 -7.671875 54.859375 -14.625 
Q 46.53125 -21.578125 30.71875 -21.578125 
Q 25.59375 -21.578125 20.796875 -20.796875 
Q 16.015625 -20.015625 11.1875 -18.40625 
L 11.1875 -4.78125 
Q 15.765625 -7.421875 20.15625 -8.71875 
Q 24.5625 -10.015625 29 -10.015625 
Q 37.59375 -10.015625 41.59375 -6.25 
Q 45.609375 -2.484375 45.609375 5.515625 
z
M 34.078125 43.3125 
Q 28.65625 43.3125 25.625 39.296875 
Q 22.609375 35.296875 22.609375 27.984375 
Q 22.609375 20.453125 25.53125 16.578125 
Q 28.46875 12.703125 34.078125 12.703125 
Q 39.546875 12.703125 42.578125 16.703125 
Q 45.609375 20.703125 45.609375 27.984375 
Q 45.609375 35.296875 42.578125 39.296875 
Q 39.546875 43.3125 34.078125 43.3125 
z
" id="DejaVuSans-Bold-103"/>
    <path id="DejaVuSans-Bold-32"/>
    <path d="M 37.703125 -13.1875 
L 23.1875 -13.1875 
Q 15.71875 -1.125 12.15625 9.734375 
Q 8.59375 20.609375 8.59375 31.296875 
Q 8.59375 42 12.171875 52.953125 
Q 15.765625 63.921875 23.1875 75.875 
L 37.703125 75.875 
Q 31.453125 64.3125 28.328125 53.25 
Q 25.203125 42.1875 25.203125 31.390625 
Q 25.203125 20.609375 28.296875 9.515625 
Q 31.390625 -1.5625 37.703125 -13.1875 
z
" id="DejaVuSans-Bold-40"/>
    <path d="M 36.1875 35.984375 
Q 31.25 35.984375 28.78125 32.78125 
Q 26.3125 29.59375 26.3125 23.1875 
Q 26.3125 16.796875 28.78125 13.59375 
Q 31.25 10.40625 36.1875 10.40625 
Q 41.15625 10.40625 43.625 13.59375 
Q 46.09375 16.796875 46.09375 23.1875 
Q 46.09375 29.59375 43.625 32.78125 
Q 41.15625 35.984375 36.1875 35.984375 
z
M 59.421875 71 
L 59.421875 57.515625 
Q 54.78125 59.71875 50.671875 60.765625 
Q 46.578125 61.8125 42.671875 61.8125 
Q 34.28125 61.8125 29.59375 57.140625 
Q 24.90625 52.484375 24.125 43.3125 
Q 27.34375 45.703125 31.09375 46.890625 
Q 34.859375 48.09375 39.3125 48.09375 
Q 50.484375 48.09375 57.34375 41.546875 
Q 64.203125 35.015625 64.203125 24.421875 
Q 64.203125 12.703125 56.53125 5.640625 
Q 48.875 -1.421875 35.984375 -1.421875 
Q 21.78125 -1.421875 13.984375 8.171875 
Q 6.203125 17.78125 6.203125 35.40625 
Q 6.203125 53.46875 15.3125 63.796875 
Q 24.421875 74.125 40.28125 74.125 
Q 45.3125 74.125 50.046875 73.34375 
Q 54.78125 72.5625 59.421875 71 
z
" id="DejaVuSans-Bold-54"/>
    <path d="M 5.421875 35.890625 
L 36.078125 35.890625 
L 36.078125 21.6875 
L 5.421875 21.6875 
z
" id="DejaVuSans-Bold-45"/>
    <path d="M 9.1875 72.90625 
L 33.109375 72.90625 
L 49.703125 33.890625 
L 66.40625 72.90625 
L 90.28125 72.90625 
L 90.28125 0 
L 72.515625 0 
L 72.515625 53.328125 
L 55.71875 14.015625 
L 43.796875 14.015625 
L 27 53.328125 
L 27 0 
L 9.1875 0 
z
" id="DejaVuSans-Bold-77"/>
    <path d="M 63.375 33.296875 
L 63.375 0 
L 45.796875 0 
L 45.796875 5.421875 
L 45.796875 25.390625 
Q 45.796875 32.5625 45.484375 35.25 
Q 45.171875 37.9375 44.390625 39.203125 
Q 43.359375 40.921875 41.59375 41.875 
Q 39.84375 42.828125 37.59375 42.828125 
Q 32.125 42.828125 29 38.59375 
Q 25.875 34.375 25.875 26.90625 
L 25.875 0 
L 8.40625 0 
L 8.40625 75.984375 
L 25.875 75.984375 
L 25.875 46.6875 
Q 29.828125 51.46875 34.265625 53.734375 
Q 38.71875 56 44.09375 56 
Q 53.5625 56 58.46875 50.1875 
Q 63.375 44.390625 63.375 33.296875 
z
" id="DejaVuSans-Bold-104"/>
    <path d="M 51.125 52.984375 
L 51.125 39.703125 
Q 45.515625 42.046875 40.28125 43.21875 
Q 35.0625 44.390625 30.421875 44.390625 
Q 25.4375 44.390625 23.015625 43.140625 
Q 20.609375 41.890625 20.609375 39.3125 
Q 20.609375 37.203125 22.4375 36.078125 
Q 24.265625 34.96875 29 34.421875 
L 32.078125 33.984375 
Q 45.515625 32.28125 50.140625 28.375 
Q 54.78125 24.46875 54.78125 16.109375 
Q 54.78125 7.375 48.328125 2.96875 
Q 41.890625 -1.421875 29.109375 -1.421875 
Q 23.6875 -1.421875 17.890625 -0.5625 
Q 12.109375 0.296875 6 2 
L 6 15.28125 
Q 11.234375 12.75 16.71875 11.46875 
Q 22.21875 10.203125 27.875 10.203125 
Q 33.015625 10.203125 35.59375 11.609375 
Q 38.1875 13.03125 38.1875 15.828125 
Q 38.1875 18.171875 36.40625 19.3125 
Q 34.625 20.453125 29.296875 21.09375 
L 26.21875 21.484375 
Q 14.546875 22.953125 9.859375 26.90625 
Q 5.171875 30.859375 5.171875 38.921875 
Q 5.171875 47.609375 11.125 51.796875 
Q 17.09375 56 29.390625 56 
Q 34.234375 56 39.546875 55.265625 
Q 44.875 54.546875 51.125 52.984375 
z
" id="DejaVuSans-Bold-115"/>
    <path d="M 8.015625 -13.1875 
Q 14.265625 -1.5625 17.390625 9.515625 
Q 20.515625 20.609375 20.515625 31.390625 
Q 20.515625 42.1875 17.390625 53.25 
Q 14.265625 64.3125 8.015625 75.875 
L 22.515625 75.875 
Q 29.9375 63.921875 33.515625 52.953125 
Q 37.109375 42 37.109375 31.296875 
Q 37.109375 20.609375 33.546875 9.734375 
Q 29.984375 -1.125 22.515625 -13.1875 
z
" id="DejaVuSans-Bold-41"/>
   </defs>
   <g transform="translate(248.888125 12.797812)scale(0.14 -0.14)">
    <use xlink:href="#DejaVuSans-Bold-82"/>
    <use x="77.001953" xlink:href="#DejaVuSans-Bold-111"/>
    <use x="145.703125" xlink:href="#DejaVuSans-Bold-108"/>
    <use x="179.980469" xlink:href="#DejaVuSans-Bold-108"/>
    <use x="214.257812" xlink:href="#DejaVuSans-Bold-105"/>
    <use x="248.535156" xlink:href="#DejaVuSans-Bold-110"/>
    <use x="319.726562" xlink:href="#DejaVuSans-Bold-103"/>
    <use x="391.308594" xlink:href="#DejaVuSans-Bold-32"/>
    <use x="426.123047" xlink:href="#DejaVuSans-Bold-86"/>
    <use x="498.015625" xlink:href="#DejaVuSans-Bold-111"/>
    <use x="566.716797" xlink:href="#DejaVuSans-Bold-108"/>
    <use x="600.994141" xlink:href="#DejaVuSans-Bold-97"/>
    <use x="668.474609" xlink:href="#DejaVuSans-Bold-116"/>
    <use x="716.277344" xlink:href="#DejaVuSans-Bold-105"/>
    <use x="750.554688" xlink:href="#DejaVuSans-Bold-108"/>
    <use x="784.832031" xlink:href="#DejaVuSans-Bold-105"/>
    <use x="819.109375" xlink:href="#DejaVuSans-Bold-116"/>
    <use x="866.912109" xlink:href="#DejaVuSans-Bold-121"/>
    <use x="932.097656" xlink:href="#DejaVuSans-Bold-32"/>
    <use x="966.912109" xlink:href="#DejaVuSans-Bold-40"/>
    <use x="1012.615234" xlink:href="#DejaVuSans-Bold-54"/>
    <use x="1082.195312" xlink:href="#DejaVuSans-Bold-45"/>
    <use x="1123.699219" xlink:href="#DejaVuSans-Bold-77"/>
    <use x="1223.210938" xlink:href="#DejaVuSans-Bold-111"/>
    <use x="1291.912109" xlink:href="#DejaVuSans-Bold-110"/>
    <use x="1363.103516" xlink:href="#DejaVuSans-Bold-116"/>
    <use x="1410.90625" xlink:href="#DejaVuSans-Bold-104"/>
    <use x="1482.097656" xlink:href="#DejaVuSans-Bold-115"/>
    <use x="1541.619141" xlink:href="#DejaVuSans-Bold-41"/>
   </g>
   <!--  -->
   <g transform="translate(360 28.584125)scale(0.14 -0.14)"/>
  </g>
 </g>
 <defs>
  <clipPath id="pfe2eb5e2b4">
   <rect height="127.14167" width="629.6" x="79.6" y="41.8"/>
  </clipPath>
 </defs>
</svg>
